<svg width="146" height="73" viewBox="0 0 146 73" fill="none" xmlns="http://www.w3.org/2000/svg">
<g style="mix-blend-mode:luminosity" clip-path="url(#clip0_103_562)">
<path d="M30.7227 30.2591C30.7721 29.4986 31.0684 28.5827 31.7505 27.8222C32.1889 27.3348 32.7351 27.2013 33.3556 27.4C34.0284 27.6173 34.4636 28.0333 34.4975 28.7877C34.5438 29.8432 34.1457 30.7341 33.5006 31.5319C32.9759 32.1777 32.2876 32.4384 31.7197 32.2335C31.0345 31.9883 30.7165 31.4357 30.7227 30.2591Z" fill="#EE524D"/>
<path d="M34.1646 31.8728C34.2479 31.0502 34.498 30.153 35.1307 29.408C35.6369 28.815 36.2264 28.6691 36.9116 28.933C37.6462 29.2186 38.0258 29.7215 37.9826 30.4976C37.9209 31.5873 37.4919 32.5372 36.7048 33.2978C36.214 33.7759 35.6338 33.9249 34.9825 33.6362C34.4516 33.4002 34.1492 32.7948 34.1646 31.8728Z" fill="#EE524D"/>
<path d="M0 54.1942C0.0709891 53.536 0.154325 52.881 0.206795 52.2228C0.515443 48.3392 1.32101 44.5519 2.48462 40.8484C3.1976 38.5821 4.05873 36.3625 4.89516 34.1366C5.08653 33.6306 5.39826 33.1463 5.74703 32.7334C6.18841 32.2088 6.79335 32.1001 7.22855 32.3454C7.66991 32.5937 7.91375 33.2332 7.79338 33.8603C7.70078 34.3446 7.58967 34.8258 7.57423 35.3504C7.78412 35.04 7.96004 34.6954 8.21622 34.4284C8.98783 33.6182 9.70699 32.721 10.602 32.0753C12.3366 30.8273 14.454 31.2153 15.809 32.8856C17.059 34.4253 17.4077 36.2507 17.2349 38.1537C17.1145 39.4669 16.7535 40.7552 16.4973 42.0559C16.4633 42.2298 16.4046 42.3974 16.3553 42.5682C16.4078 42.6055 16.4572 42.6427 16.5096 42.68C17.5127 41.5561 18.5528 40.4634 19.4942 39.2899C19.7937 38.9143 19.8028 38.3152 19.9819 37.834C21.4819 33.7889 22.9912 29.7501 24.5005 25.7082C24.9017 24.6372 25.3123 23.5693 25.7135 22.5199C24.124 21.9674 22.5498 21.4272 20.9788 20.8653C20.5313 20.7039 20.0837 20.5207 19.6671 20.2909C18.5992 19.7042 18.0004 18.7978 17.9911 17.5591C17.9819 16.5005 18.525 16.1466 19.5313 16.454C21.8986 17.1803 24.2783 17.8726 26.6456 18.6053C27.0715 18.7357 27.2321 18.6177 27.3617 18.2235C27.5747 17.5777 27.7969 16.9289 28.0901 16.3142C28.6055 15.2371 29.6488 14.8055 30.6519 15.1904C31.6643 15.5785 32.1426 16.5657 31.834 17.733C31.6766 18.3321 31.4358 18.9126 31.2075 19.5739C32.2044 19.7167 33.1612 19.9402 34.1241 19.9743C36.0317 20.0395 37.9422 20.0271 39.8527 19.9899C40.4885 19.9775 41.2169 19.8874 41.4731 19.1703C41.7292 18.4563 41.2139 17.9347 40.757 17.4908C39.2662 16.0503 37.4298 15.2929 35.436 14.8738C35.1335 14.8086 34.8217 14.7341 34.5501 14.5913C34.0007 14.2995 33.9914 13.6724 34.5347 13.3619C34.763 13.2316 35.0563 13.1447 35.3186 13.154C38.1644 13.2564 40.7971 14.0107 43.0009 15.9107C44.112 16.87 44.9207 18.0248 45.1182 19.5521C45.3312 21.1975 44.7015 22.5417 43.2262 23.3333C41.828 24.0846 40.3002 24.2708 38.7477 24.3515C35.7662 24.5099 32.8495 24.0256 29.9389 23.4699C29.8679 23.4575 29.7969 23.4481 29.6703 23.4295C29.3 24.3671 28.9265 25.3015 28.5623 26.2421C26.7259 30.9888 24.8648 35.723 23.0838 40.4882C22.6424 41.6679 22.4572 42.9469 22.164 44.1824C22.1301 44.3253 22.1301 44.4773 22.1394 44.6232C22.1733 45.21 22.3677 45.3435 22.8523 45.0269C25.874 43.0524 28.0067 40.4851 28.3123 36.704C28.3617 36.0955 28.4327 35.4902 28.5345 34.8909C28.6734 34.087 29.0562 33.8696 29.8278 34.0963C31.763 34.6675 32.5625 36.1514 31.9698 38.2655C31.1766 41.0936 29.5778 43.4405 27.4852 45.4553C26.408 46.4921 25.1518 47.2589 23.7135 47.6718C23.1733 47.827 22.5962 47.9264 22.0344 47.9326C20.7597 47.945 19.9942 47.4048 19.5622 46.2003C19.3585 45.6322 19.2195 45.0269 19.1486 44.4277C19.0806 43.8285 19.1331 43.2139 19.1331 42.4347C18.7226 42.9221 18.4171 43.2915 18.1023 43.6547C16.3738 45.6416 14.2658 47.0385 11.707 47.678C10.2904 48.0319 9.06503 47.5103 7.98474 46.6039C6.96002 45.7408 6.26865 44.6419 5.7316 43.3815C5.5495 44.4277 5.30875 45.4646 5.20073 46.5201C4.9106 49.3109 4.67294 52.1049 4.43219 54.902C4.38898 55.3956 4.40442 55.9046 4.45997 56.3982C4.69146 58.4193 2.87043 58.9843 1.4846 58.3696C0.756189 58.0467 0.28087 57.4941 0.00308648 56.7521V54.1942H0ZM12.2904 36.4742C12.2595 36.2196 12.2194 35.872 12.17 35.5274C12.1515 35.4001 12.1144 35.2759 12.0682 35.158C11.8706 34.652 11.4571 34.385 10.9817 34.6054C10.4971 34.832 10.0095 35.1456 9.65453 35.5398C8.58351 36.7319 7.9693 38.2034 7.26559 39.6252C6.74088 40.6869 6.8736 41.6462 7.32731 42.6365C7.63288 43.3008 7.98474 43.9837 8.79034 44.0738C9.64527 44.167 10.0897 43.5026 10.5033 42.8817C11.7749 40.9725 12.1361 38.8056 12.2904 36.4742Z" fill="#EE524D"/>
<path d="M58.6005 44.8707C57.8475 45.5444 57.1592 46.2429 56.3845 46.8265C55.477 47.5095 54.4307 47.9379 53.2702 47.9627C51.5417 47.9968 50.2362 47.0904 49.6127 45.4605C49.5263 45.2371 49.4491 45.0104 49.3473 44.7279C49.0603 45.057 48.8133 45.3705 48.5355 45.6561C47.3874 46.8482 46.0941 47.8013 44.3904 47.9937C42.0076 48.2669 40.3379 46.9351 40.0014 44.523C39.6588 42.0705 40.1094 39.6988 40.7761 37.3611C42.2268 32.27 44.3502 27.4829 47.2238 23.0375C47.9398 21.9292 48.9522 21.4138 50.2671 21.5256C51.406 21.625 51.7732 22.3234 51.2053 23.3168C48.8195 27.4923 46.8287 31.8446 45.3564 36.4298C44.7237 38.4012 44.2515 40.4128 44.1126 42.4896C44.0818 42.9615 44.1064 43.452 44.2052 43.9145C44.3194 44.4641 44.7423 44.6938 45.2947 44.5758C46.2824 44.3647 46.9738 43.6848 47.6312 42.9864C47.9707 42.6262 48.2485 42.204 48.5695 41.8253C49.1682 41.1206 49.3257 40.2576 49.5078 39.3853C49.8751 37.6282 50.3658 35.9083 51.2794 34.3468C51.5541 33.878 51.9122 33.431 52.3134 33.0709C52.8381 32.599 53.4955 32.3165 54.1899 32.6984C54.9215 33.0988 55.0542 33.8408 54.9462 34.5765C54.8381 35.2998 54.6221 36.0107 54.3968 36.7092C53.7825 38.6277 53.2177 40.5525 53.1436 42.5858C53.1375 42.7163 53.1375 42.8466 53.1529 42.9739C53.3104 44.4144 54.2393 44.9546 55.4647 44.1909C57.1746 43.123 58.3815 41.6328 58.795 39.584C59.4679 36.2374 60.5882 33.0305 62.0544 29.9665C63.1809 27.6071 64.4896 25.3316 65.7767 23.0561C66.4341 21.895 67.5205 21.3983 68.8569 21.5349C69.965 21.6467 70.32 22.3327 69.7644 23.3014C67.4403 27.3619 65.4958 31.5963 64.0296 36.0449C63.2951 38.2738 62.7395 40.5494 62.6408 42.915C62.6346 43.0981 62.6315 43.2874 62.6469 43.4706C62.7272 44.464 63.3599 44.9049 64.2426 44.4516C65.934 43.5793 67.2489 42.2879 67.7366 40.3942C69.3014 34.3437 71.4619 28.5384 74.6441 23.1461C75.3849 21.8888 76.5515 21.33 77.888 21.5504C78.8972 21.718 79.2213 22.3731 78.709 23.261C77.1689 25.9338 75.8263 28.6999 74.7522 31.5963C74.7274 31.6646 74.7089 31.736 74.6596 31.885C74.8417 31.8353 74.9712 31.8074 75.0916 31.7639C79.6133 30.0814 84.3295 32.571 85.5702 37.296C86.7153 41.6545 84.4005 46.2273 80.3109 47.6988C78.4898 48.3538 76.6843 48.0931 74.8879 47.6119C73.6533 47.2797 72.4928 46.7738 71.5361 45.8796C71.0083 47.0283 70.2366 47.4971 68.9989 47.4474C67.8631 47.4039 67.326 47.0096 66.9371 45.9852C66.1686 46.4881 65.4124 47.0438 64.6038 47.5032C63.6408 48.0465 62.5759 48.149 61.4988 47.944C60.1314 47.6833 59.2426 46.8544 58.7919 45.5381C58.724 45.3116 58.6654 45.0818 58.6005 44.8707ZM82.243 39.5094C82.2462 37.802 81.3016 36.4237 79.7646 35.8928C77.4189 35.0825 74.6287 36.5851 73.8478 39.1649C73.5422 40.18 73.4311 41.2603 73.2799 42.3158C73.2552 42.4927 73.4188 42.7908 73.5793 42.8808C74.3323 43.2968 75.0793 43.7686 75.888 44.0232C79.0269 45.0073 82.2369 42.7007 82.243 39.5094Z" fill="#EE524D"/>
<path d="M46.8378 52.3374C46.8964 51.5551 47.1618 50.6486 47.8316 49.9004C48.3285 49.3479 48.9057 49.2175 49.5755 49.4876C50.2946 49.7732 50.6064 50.2016 50.6064 50.9529C50.6095 51.996 50.2329 52.9024 49.5353 53.663C48.952 54.2994 48.3039 54.4856 47.7174 54.2342C47.1063 53.9703 46.8192 53.4146 46.8378 52.3374Z" fill="#EE524D"/>
<path d="M110.691 0.000166326C111.203 0.133656 111.719 0.254728 112.228 0.400634C113.657 0.819728 114.845 1.62998 115.892 2.67926C125.046 11.8776 134.213 21.0635 143.358 30.2712C146.911 33.8506 146.877 39.1778 143.315 42.785C139.994 46.1471 136.652 49.4875 133.318 52.8402C127.525 58.6641 121.728 64.4848 115.938 70.3117C114.444 71.8143 112.694 72.8015 110.564 72.963C106.882 73.2423 104.015 71.8081 102.148 68.5982C99.5022 64.0502 97.536 59.2042 96.1163 54.1348C94.9465 49.9624 94.206 45.7187 93.8878 41.3911C92.9191 28.2099 95.7281 15.8823 102.16 4.37738C103.521 1.94352 105.632 0.518601 108.394 0.0995076C108.499 0.0839852 108.601 0.0312103 108.703 -0.00604248H110.691V0.000166326ZM96.3637 34.6795C96.3663 38.1626 96.6382 41.6271 97.2309 45.0574C98.5948 52.9706 101.37 60.3498 105.613 67.1608C108.039 71.0537 113.055 71.5131 116.144 68.117C119.71 64.1961 123.271 60.2721 126.833 56.3513C131.722 50.9651 136.626 45.5914 141.491 40.1836C144.062 37.3244 143.784 33.3166 140.944 30.7275C136.077 26.2882 131.229 21.8272 126.371 17.3755C121.88 13.2621 117.404 9.13025 112.891 5.04171C109.975 2.39987 104.879 3.34982 103.102 6.84848C98.6656 15.5874 96.4039 24.8633 96.3637 34.6795Z" fill="#EE524D"/>
<path d="M109.267 17.3723C110.598 17.2387 111.87 17.1115 113.228 16.978C113.055 20.5263 112.882 24.0219 112.712 27.4988C113.172 26.8779 113.595 26.2074 114.113 25.6237C115.827 23.7083 118.046 22.7181 120.512 22.2244C122.009 21.9233 123.512 21.706 125.046 21.883C127.139 22.1188 129.049 23.1682 129.617 25.186C130.092 26.881 129.537 28.3121 128.475 29.585C127.083 31.2551 125.237 32.1492 123.142 32.531C120.428 33.0246 117.731 32.7421 115.045 32.2641C114.289 32.1306 113.546 31.9443 112.796 31.7767C112.49 31.7084 112.284 31.7176 112.221 32.1243C112.058 33.1892 111.845 34.2447 111.582 35.3157V31.488C108.715 30.836 106.018 29.5601 103.03 29.8768C101.351 30.0568 100.345 30.8516 100.533 32.6862C100.617 33.4965 100.944 34.2477 101.527 34.7941C102.249 35.474 103.07 36.0452 103.808 36.6319C102.965 36.691 102.101 36.365 101.261 35.9149C98.9774 34.6886 97.9126 31.9847 98.8909 29.8054C99.6069 28.2097 100.962 27.4212 102.573 26.9865C104.601 26.4402 106.619 26.6513 108.638 27.0331C109.678 27.2287 110.715 27.4305 111.848 27.6478C110.975 24.1895 110.126 20.8057 109.267 17.3723ZM114.135 28.0638C116.753 28.6443 119.336 28.9579 121.947 28.7282C123.249 28.6133 124.506 28.2252 125.53 27.325C126.629 26.3564 126.488 25.5306 125.104 25.1022C122.552 24.3044 120.028 24.5124 117.558 25.4778C116.206 26.0024 115.071 26.8531 114.135 28.0638Z" fill="#EE524D"/>
<mask id="mask0_103_562" style="mask-type:luminance" maskUnits="userSpaceOnUse" x="103" y="27" width="23" height="30">
<path d="M125.893 27.2651H103.162V56.2892H125.893V27.2651Z" fill="white"/>
</mask>
<g mask="url(#mask0_103_562)">
<path d="M125.893 39.4235C124.659 42.1271 123.428 44.8305 122.191 47.534C121.104 49.9041 119.991 52.2596 118.928 54.6408C118.471 55.6628 117.735 56.2929 116.636 56.2892C115.538 56.2855 114.802 55.6482 114.355 54.6261C110.665 46.1677 106.959 37.7165 103.261 29.2652C103.221 29.17 103.202 29.0638 103.162 28.9283C104.623 28.3751 106.055 27.8293 107.541 27.2651C108.112 28.9832 108.673 30.6537 109.222 32.3241C111.558 39.4382 113.887 46.5523 116.234 53.6626C116.318 53.9228 116.552 54.1352 116.717 54.366C116.952 54.1719 117.263 54.0217 117.405 53.7762C120.115 49.1459 122.802 44.5045 125.493 39.8668C125.593 39.6983 125.692 39.5334 125.79 39.3649C125.823 39.3869 125.856 39.4052 125.893 39.4235Z" fill="#EE524D"/>
</g>
</g>
<defs>
<clipPath id="clip0_103_562">
<rect width="146" height="73" fill="white"/>
</clipPath>
</defs>
</svg>
