<svg width="156" height="64" viewBox="0 0 156 64" fill="none" xmlns="http://www.w3.org/2000/svg">
<g style="mix-blend-mode:luminosity" clip-path="url(#clip0_585_160)">
<mask id="mask0_585_160" style="mask-type:luminance" maskUnits="userSpaceOnUse" x="0" y="15" width="82" height="34">
<path d="M8.421 33.9992V45.0575C8.41789 45.5194 8.04755 45.8971 7.58698 45.9064H3.96768C3.74672 45.9064 3.53511 45.8128 3.38573 45.6505C3.23012 45.4913 3.13987 45.2791 3.13054 45.0575V41.4899L0.528876 41.955V45.0543C0.538213 46.9551 2.06933 48.497 3.96456 48.5126H7.58074C9.476 48.497 11.0071 46.9551 11.0165 45.0543V43.8776H68.723C69.5103 43.8871 70.2759 43.6248 70.8921 43.1348C71.4865 43.6279 72.2365 43.8933 73.0051 43.8776H73.5249C74.3028 43.8745 75.0559 43.6124 75.6721 43.1348C76.2852 43.6124 77.0352 43.8714 77.8101 43.8776H78.3392C79.251 43.8808 80.1255 43.5125 80.7634 42.8601C81.4108 42.2172 81.7749 41.3432 81.778 40.4319V36.8113L79.1763 37.2764V40.4319C79.17 40.8907 78.7998 41.2622 78.3423 41.2684H77.8132C77.5954 41.2622 77.3838 41.1685 77.2281 41.0156C77.0695 40.8626 76.9823 40.6535 76.9823 40.4319V36.8113L74.3806 37.2764V40.4319C74.3744 40.8969 73.9979 41.2684 73.5342 41.2684H73.0144C72.5538 41.2684 72.1742 40.8969 72.168 40.4319V36.8113L69.5663 37.2764V40.4319C69.5819 40.8782 69.2364 41.2527 68.7914 41.2684C68.7727 41.2684 68.751 41.2684 68.7292 41.2684H39.3328C38.8691 41.2684 38.4927 40.8969 38.4864 40.4319V39.8046C38.4958 39.5798 38.586 39.3707 38.7416 39.2115C38.8941 39.0461 39.1088 38.9524 39.3328 38.9587H44.0725V36.3494H39.3328C37.4314 36.3588 35.894 37.9007 35.8847 39.8077V40.4351C35.8816 40.7159 35.9127 40.9968 35.9812 41.2715H11.0196V33.5341L8.421 33.9992ZM40.2883 32.4854C39.7654 33.0097 39.7654 33.8588 40.2883 34.3862C40.8111 34.9105 41.6607 34.9105 42.1804 34.3862C42.6908 33.8556 42.6908 33.016 42.1804 32.4854C41.9159 32.2295 41.5735 32.1047 41.2343 32.1047C40.8951 32.1047 40.5528 32.2326 40.2883 32.4854ZM75.6815 32.1047C75.3267 32.1047 74.9906 32.2451 74.7416 32.4979C74.2157 33.0222 74.2157 33.8743 74.7385 34.4018C75.2614 34.9293 76.1109 34.9293 76.6369 34.4049C77.1628 33.8806 77.1628 33.0285 76.64 32.5011C76.3879 32.2482 76.0456 32.1047 75.6877 32.1047C75.6846 32.1047 75.6815 32.1047 75.6815 32.1047ZM71.7447 32.1047C71.3899 32.1047 71.0538 32.2451 70.8049 32.4979C70.279 33.0222 70.279 33.8743 70.8018 34.4018C71.3246 34.9293 72.1742 34.9293 72.7002 34.4049C73.2261 33.8806 73.226 33.0285 72.7033 32.5011C72.4512 32.2482 72.1089 32.1047 71.751 32.1047C71.751 32.1047 71.7478 32.1047 71.7447 32.1047ZM78.3703 32.4948C77.8444 33.0191 77.8444 33.8712 78.3671 34.3987C78.89 34.9262 79.7395 34.9262 80.2655 34.4018C80.7914 33.8774 80.7914 33.0254 80.2686 32.4979C80.0197 32.2451 79.6773 32.1015 79.3225 32.1015C79.3163 32.1015 79.3101 32.1015 79.3039 32.1015C78.9522 32.1047 78.6161 32.2451 78.3703 32.4948ZM72.2489 15.859V29.3268H81.7749V27.0421H74.9906V15.859H72.2489ZM22.0642 21.0963H16.7053V15.7341H13.9667V29.3237H16.7053V23.3841H22.0642V29.3237H24.7778V15.7373L22.0642 15.7341V21.0963ZM45.5258 16.193V16.1898C43.2416 17.432 41.8848 19.8915 42.0466 22.4914C42.0342 23.743 42.308 24.979 42.8495 26.1057C43.9916 28.3811 46.3817 29.7481 48.9149 29.5703C51.031 29.5671 53.0787 28.8243 54.7032 27.4665V22.0389H48.8214V24.3454H51.9522V26.0558C51.031 26.7737 49.9107 27.1794 48.7436 27.22C46.4128 27.22 44.863 25.6251 44.863 22.3822C44.863 19.414 46.363 17.8627 48.7748 17.8627C50.1722 17.7691 51.448 18.6712 51.8246 20.0258L54.5383 19.5107C54.003 17.0263 52.1141 15.5156 48.778 15.5156C48.7032 15.5125 48.6254 15.5125 48.5507 15.5125C47.5082 15.5094 46.475 15.7435 45.5258 16.193ZM3.28925 15.9807H3.29858C1.9324 16.5176 1.0299 17.8347 1.02056 19.3048C1.02056 21.4459 2.41787 22.6443 5.36186 23.381C6.50087 23.6587 7.22909 23.8554 7.54963 23.9678C8.46146 24.2954 8.80999 24.7386 8.80999 25.366C8.80999 26.3866 7.9044 27.2512 6.13987 27.2512C4.62742 27.3698 3.30169 26.2368 3.18343 24.7169C3.18033 24.6918 3.18033 24.67 3.17723 24.6451L0.519531 24.9041C0.889864 27.941 2.69485 29.5671 6.10564 29.5671C7.11706 29.5983 8.12225 29.4267 9.06517 29.0615C10.5652 28.4529 11.5455 26.9891 11.5424 25.366C11.5673 24.6045 11.3774 23.8523 10.9978 23.1937C10.2571 22.042 9.19904 21.4739 6.54134 20.8341C5.6544 20.6874 4.8017 20.3815 4.02681 19.929C3.57244 19.5762 3.49153 18.9208 3.8463 18.4652C3.90543 18.3871 3.977 18.3185 4.05792 18.2622C4.60875 17.9033 5.25917 17.7317 5.91582 17.766C7.46561 17.766 8.16582 18.3434 8.40856 19.7448L11.1409 19.6199C11.0569 17.1386 9.35461 15.5001 5.94693 15.5001C5.8878 15.5001 5.82867 15.4969 5.76954 15.4969C4.91995 15.5063 4.0766 15.6654 3.28925 15.9807ZM59.6015 22.5351C59.6015 19.4046 61.1109 17.8596 63.3702 17.8596C65.6296 17.8596 67.0954 19.3734 67.0954 22.4945C67.0954 25.6345 65.5455 27.22 63.3702 27.22C61.1949 27.22 59.6015 25.6126 59.6015 22.5351ZM58.6648 17.276C57.3142 18.7149 56.6296 20.6594 56.7759 22.6288C56.7759 26.9578 59.3433 29.5671 63.3671 29.5671C67.3506 29.5671 69.9273 26.9328 69.9273 22.557C69.9273 18.1499 67.3194 15.5125 63.336 15.5125C63.196 15.5032 63.0559 15.4969 62.919 15.4969C61.3256 15.4969 59.7945 16.1337 58.6648 17.276ZM29.9563 22.5289C29.9563 19.3984 31.4656 17.8534 33.7249 17.8534C35.9843 17.8534 37.4501 19.3672 37.4501 22.4883C37.4501 25.6283 35.9002 27.2138 33.7249 27.2138C31.5496 27.2138 29.9563 25.6064 29.9563 22.5289ZM29.0226 17.2697C27.672 18.7086 26.9874 20.6531 27.1337 22.6225C27.1337 26.9516 29.7011 29.5608 33.7249 29.5608C37.7084 29.5608 40.2852 26.9266 40.2852 22.5476C40.2852 18.1406 37.6773 15.5032 33.6939 15.5032C33.5538 15.4938 33.4138 15.4875 33.2737 15.4875C31.6835 15.4938 30.1493 16.1305 29.0226 17.2697Z" fill="white"/>
</mask>
<g mask="url(#mask0_585_160)">
<path d="M81.7784 15.509H0.529297V48.5184H81.7784V15.509Z" fill="#9692A0"/>
</g>
<mask id="mask1_585_160" style="mask-type:luminance" maskUnits="userSpaceOnUse" x="93" y="0" width="63" height="64">
<path d="M135.545 49.6643C135.452 49.7236 135.358 49.7891 135.265 49.836C135.238 49.8547 135.203 49.8765 135.169 49.8922C135.066 49.9577 134.96 50.017 134.855 50.0794C134.749 50.1419 134.653 50.195 134.552 50.2511C134.453 50.3073 134.388 50.3448 134.307 50.3885C134.226 50.4322 134.145 50.4758 134.061 50.5195C133.977 50.5632 133.887 50.61 133.8 50.6537C133.746 50.6818 133.697 50.7068 133.645 50.7318C133.33 50.8909 133.009 51.0376 132.686 51.175C132.63 51.1999 132.57 51.228 132.511 51.2498C132.418 51.2904 132.321 51.331 132.225 51.3747C132.129 51.4184 131.995 51.4653 131.877 51.5121L131.668 51.59L131.634 51.6026C131.519 51.6463 131.404 51.6868 131.289 51.7274L131.086 51.7992C130.961 51.8398 130.84 51.8803 130.709 51.924C130.579 51.9646 130.445 52.0052 130.308 52.0489L130.15 52.0926L129.929 52.1519L129.711 52.2112C129.555 52.2487 129.399 52.2893 129.243 52.3235C129.166 52.3454 129.085 52.361 129.008 52.3766L128.845 52.4109C128.733 52.4359 128.622 52.4578 128.509 52.4797C128.5 52.4828 128.488 52.4859 128.478 52.4859L128.161 52.542C128.036 52.5638 127.921 52.5857 127.797 52.6013L127.579 52.6357C127.352 52.67 127.121 52.6981 126.888 52.7231L126.791 52.7325C126.437 52.7699 126.079 52.7979 125.717 52.8167L125.376 52.8323C125.251 52.8323 125.139 52.8417 125.021 52.8417C124.903 52.8417 124.759 52.8417 124.625 52.8417H124.218C124.103 52.8417 123.994 52.8417 123.879 52.8323L123.549 52.8167C123.381 52.8073 123.219 52.798 123.054 52.7855C122.989 52.7855 122.923 52.7793 122.858 52.7699L122.668 52.7511C122.578 52.7449 122.49 52.7356 122.4 52.7231C122.329 52.7168 122.254 52.7074 122.183 52.6981C122.133 52.6981 122.086 52.6887 122.036 52.6794C121.79 52.6481 121.554 52.6138 121.311 52.5733L121.01 52.5202L120.876 52.4952C120.726 52.4671 120.576 52.4359 120.427 52.4078C120.278 52.3766 120.151 52.3485 120.013 52.3173L119.65 52.2299C119.494 52.1925 119.341 52.1519 119.189 52.1051C119.083 52.077 118.98 52.0489 118.878 52.0145C118.796 51.9927 118.716 51.9677 118.638 51.9428C118.56 51.9178 118.508 51.8991 118.441 51.8803C118.292 51.8335 118.143 51.7836 117.994 51.7305L117.937 51.7118C117.788 51.6588 117.642 51.6088 117.496 51.5527C117.278 51.4715 117.06 51.3841 116.843 51.2935H116.836C116.702 51.2374 116.568 51.1812 116.438 51.125C116.341 51.0813 116.241 51.0408 116.145 50.9939C116.049 50.9471 115.987 50.9222 115.908 50.8847L115.803 50.8317L115.582 50.7224C115.473 50.6693 115.364 50.6131 115.255 50.557C115.146 50.5008 115.034 50.4415 114.925 50.3822C114.85 50.3448 114.776 50.3011 114.704 50.2574C114.602 50.2012 114.502 50.145 114.402 50.0857C114.303 50.0263 114.191 49.9608 114.088 49.8984C114.057 49.8797 114.026 49.861 113.995 49.8422C113.898 49.7891 113.808 49.7299 113.715 49.6706L113.689 49.655L107.6 58.0977L107.622 58.1133C108.845 58.9248 110.12 59.649 111.446 60.2794C111.611 60.3574 111.779 60.4355 111.947 60.5135C112.062 60.5666 112.177 60.6165 112.293 60.6665C112.383 60.7102 112.476 60.7476 112.566 60.7913C112.999 60.9754 113.437 61.1534 113.883 61.3156C113.951 61.3438 114.017 61.3687 114.085 61.3906C114.253 61.453 114.421 61.5154 114.589 61.5715C114.919 61.684 115.252 61.7932 115.588 61.8962C115.766 61.9523 115.946 62.0054 116.126 62.0553C116.307 62.1053 116.484 62.1583 116.668 62.2051C116.851 62.252 117.032 62.3019 117.213 62.3456C117.555 62.4268 117.901 62.5079 118.246 62.5828C118.348 62.6047 118.448 62.6265 118.551 62.6452L118.89 62.7139C119.07 62.7482 119.247 62.7794 119.432 62.8107C119.571 62.8325 119.712 62.8575 119.852 62.8793L119.917 62.8918C120.001 62.9075 120.088 62.9168 120.175 62.9293C120.359 62.9543 120.545 62.9823 120.726 63.0042C120.813 63.0136 120.9 63.026 120.991 63.0353L121.202 63.0604L121.432 63.0853C121.576 63.101 121.718 63.1134 121.862 63.1259C121.946 63.1352 122.03 63.1447 122.114 63.1478C122.201 63.154 122.282 63.1634 122.36 63.1665C122.385 63.1696 122.409 63.1696 122.435 63.1665C122.524 63.1727 122.615 63.1821 122.708 63.1852H122.78C122.845 63.1852 122.905 63.1915 122.976 63.1946C123.122 63.2039 123.268 63.2102 123.415 63.2164C123.515 63.2164 123.617 63.2226 123.716 63.2258H123.891H124.066H124.601H125.136H125.31H125.484C125.587 63.2258 125.686 63.2258 125.789 63.2164C125.935 63.2164 126.082 63.2039 126.228 63.1946C126.293 63.1946 126.353 63.1946 126.422 63.1852H126.496C126.586 63.1852 126.679 63.1758 126.77 63.1665C126.794 63.1696 126.82 63.1696 126.842 63.1665C126.926 63.1665 127.009 63.154 127.093 63.1478C127.177 63.1415 127.261 63.1352 127.345 63.1259C127.489 63.1165 127.631 63.101 127.772 63.0853L128.002 63.0604L128.214 63.0353C128.304 63.026 128.391 63.0167 128.478 63.0042C128.662 62.9792 128.848 62.9543 129.029 62.9293C129.113 62.9168 129.2 62.9075 129.284 62.8918L129.349 62.8793C129.49 62.8575 129.632 62.8356 129.773 62.8107C129.953 62.7794 130.131 62.7482 130.314 62.7139L130.654 62.6452C130.753 62.6265 130.856 62.6047 130.956 62.5828C131.301 62.5111 131.647 62.433 131.988 62.3456C132.172 62.3019 132.352 62.2551 132.533 62.2051C132.714 62.1552 132.897 62.1053 133.074 62.0553C133.252 62.0023 133.432 61.9523 133.613 61.8962C133.949 61.7932 134.282 61.6871 134.612 61.5715C134.78 61.5123 134.948 61.4467 135.116 61.3906C135.185 61.3687 135.253 61.3438 135.319 61.3156C135.761 61.1503 136.199 60.9754 136.635 60.7913C136.725 60.7507 136.819 60.7133 136.908 60.6665C137.021 60.6196 137.139 60.5666 137.254 60.5135C137.422 60.4386 137.59 60.3605 137.755 60.2794C139.081 59.649 140.363 58.9248 141.586 58.1133C141.608 58.1008 141.626 58.0853 141.645 58.0696L135.605 49.6237L135.545 49.6643ZM117.68 41.3183V41.3246C117.683 45.173 120.794 48.291 124.635 48.2879C128.472 48.2848 131.581 45.1636 131.578 41.3152C131.575 37.4668 128.466 34.3487 124.628 34.3487C120.792 34.3487 117.68 37.4699 117.68 41.3183ZM140.693 11.5861C138.52 13.462 138.275 16.7485 140.146 18.9271C147.515 27.5072 146.549 40.4538 137.995 47.8447C137.603 48.1849 137.195 48.5095 136.778 48.8153L142.85 57.2612C156.589 47.183 159.586 27.8443 149.537 14.0612C149.055 13.3995 148.545 12.7566 148.012 12.1354C146.985 10.9401 145.535 10.3252 144.076 10.3252C142.878 10.3252 141.674 10.7403 140.693 11.5861ZM101.248 12.1292C90.1377 25.0633 91.5881 44.5831 104.487 55.7256C105.12 56.2718 105.773 56.7899 106.448 57.2831L112.516 48.8372C107.26 44.9764 104.155 38.837 104.151 32.3044L104.161 32.3013C104.161 27.3917 105.919 22.6413 109.115 18.9209C110.985 16.7423 110.74 13.4557 108.567 11.5799C107.587 10.7341 106.382 10.3189 105.182 10.3189C103.722 10.322 102.272 10.9338 101.248 12.1292ZM124.628 0.774414C121.492 0.774414 118.946 3.32441 118.946 6.47366V24.6201C118.946 27.7693 121.492 30.3194 124.628 30.3194C127.765 30.3194 130.311 27.7693 130.311 24.6201V6.47366C130.311 3.32441 127.768 0.774414 124.628 0.774414Z" fill="white"/>
</mask>
<g mask="url(#mask1_585_160)">
<path d="M159.587 0.774414H90.1387V63.232H159.587V0.774414Z" fill="url(#paint0_linear_585_160)"/>
</g>
</g>
<defs>
<linearGradient id="paint0_linear_585_160" x1="93.3961" y1="32.0186" x2="155.851" y2="32.0186" gradientUnits="userSpaceOnUse">
<stop stop-color="#25B4BA"/>
<stop offset="1" stop-color="#6B78B7"/>
</linearGradient>
<clipPath id="clip0_585_160">
<rect width="154.961" height="62.4514" fill="white" transform="translate(0.519531 0.774414)"/>
</clipPath>
</defs>
</svg>
