<svg width="168" height="53" viewBox="0 0 168 53" fill="#9692A0" xmlns="http://www.w3.org/2000/svg">
<g style="mix-blend-mode:luminosity" clip-path="url(#clip0_103_588)">
<path d="M24.651 19.9938C24.4657 19.8714 24.4773 19.7669 24.6819 19.6804C24.705 19.6696 24.7166 19.6444 24.705 19.6192C24.7011 19.6119 24.6972 19.6048 24.6896 19.6012C24.5236 19.4895 24.4387 19.3382 24.4387 19.1472C24.4387 18.8951 24.4349 18.7582 24.4349 18.7438C24.3963 18.3475 24.4773 17.9801 24.678 17.6414C24.8864 17.292 24.9906 17.1118 24.9945 17.1046C25.0948 16.8957 25.1952 16.6832 25.2917 16.4742C25.4422 16.1427 25.5503 15.8257 25.612 15.5267C25.8397 14.41 25.8397 13.3112 25.6159 12.2232C25.3882 11.1353 24.9288 10.1518 24.2341 9.26563C23.2731 8.04434 22.0304 7.16894 20.498 6.63937C19.3209 6.23229 18.1475 6.08098 16.9743 6.18546C15.6427 6.30434 14.3498 6.72583 13.0993 7.45714C12.9372 7.55081 12.7557 7.52919 12.5512 7.39229C12.528 7.37789 12.4971 7.38148 12.4817 7.4067C12.4778 7.41391 12.474 7.41751 12.474 7.42471C12.4547 7.55081 12.393 7.56882 12.2926 7.47875C12.0803 7.44633 12.0301 7.37428 12.1382 7.2626C12.1691 7.23378 12.1884 7.18335 12.2 7.12211C12.2115 7.04645 12.2771 6.99602 12.3968 6.96359C12.5589 6.92036 12.6631 6.8267 12.7056 6.679C12.721 6.62856 12.7557 6.58533 12.8059 6.56011L14.6431 5.58023C18.8114 4.56072 22.2387 5.537 24.9327 8.50547C25.7046 9.35564 26.272 10.3031 26.6425 11.3514C26.9976 12.3601 27.1481 13.4192 27.0941 14.5216C26.9899 16.5679 26.1793 18.3907 24.651 19.9938Z" fill="#9692A0"/>
<path d="M14.6355 5.5769L12.7983 6.55679C12.7481 6.582 12.7134 6.62523 12.698 6.67567C12.6555 6.82337 12.5513 6.91704 12.3892 6.96027C12.2695 6.99268 12.2039 7.04312 12.1924 7.11877C12.1808 7.17641 12.1615 7.22685 12.1307 7.25927C12.0226 7.37095 12.0766 7.443 12.285 7.47542C12.3854 7.56548 12.4433 7.54747 12.4664 7.42138C12.4703 7.39617 12.4973 7.37815 12.5243 7.38176C12.532 7.38176 12.5398 7.38536 12.5436 7.38896C12.7481 7.52586 12.9296 7.54747 13.0917 7.4538C14.3422 6.7225 15.6351 6.2974 16.9667 6.18212C18.14 6.08125 19.3133 6.23256 20.4905 6.63964C22.0189 7.16561 23.2655 8.04102 24.2266 9.2659C24.9213 10.1521 25.3806 11.1356 25.6083 12.2235C25.8322 13.3079 25.8322 14.4103 25.6044 15.5271C25.5427 15.826 25.4385 16.143 25.2841 16.4744C25.1876 16.687 25.0911 16.896 24.9869 17.1049C24.983 17.1121 24.8788 17.2922 24.6704 17.6417C24.4697 17.9803 24.3887 18.3478 24.4273 18.7441C24.4273 18.7585 24.4311 18.8918 24.4311 19.1475C24.4311 19.3385 24.516 19.4898 24.682 19.6014C24.7052 19.6158 24.709 19.6447 24.6935 19.6626C24.6897 19.6699 24.682 19.6771 24.6743 19.6771C24.4697 19.7635 24.4582 19.868 24.6434 19.9905L23.5009 21.0568C23.3273 21.2154 23.2423 21.3883 23.2462 21.5684C23.3079 25.0016 23.2733 28.4816 23.1458 32.0156L23.0609 30.9349C23.0571 30.8917 23.0147 30.8556 22.9606 30.8521C22.8371 30.8448 22.7561 30.7944 22.7136 30.7079C22.5592 30.3765 22.3122 30.2288 21.9726 30.272C21.9224 30.2792 21.8722 30.3117 21.8452 30.3621C21.7023 30.6179 21.6252 30.571 21.6136 30.2217C21.6136 30.1748 21.6097 30.1748 21.6059 30.2252C21.5635 30.6864 21.521 31.1511 21.4747 31.6122C21.4167 32.203 21.3087 32.6533 21.1505 32.9631C20.7529 33.7557 20.0891 34.278 19.1551 34.5266C18.1091 34.8076 17.0284 34.7536 15.913 34.3572C16.6811 34.4942 17.4453 34.5338 18.2133 34.4834C19.5642 34.3933 20.4905 33.8277 20.9923 32.7866C21.1505 32.4588 21.247 32.0445 21.2894 31.5365C21.3203 31.1655 21.3435 30.7368 21.355 30.2505C21.4206 27.7395 21.4167 25.5095 21.3473 23.557C21.3473 23.5066 21.3049 23.4669 21.2546 23.4669L20.008 23.4958C19.9579 23.4958 19.9193 23.539 19.9193 23.593L19.8344 29.5047C19.815 29.2921 19.7803 29.0832 19.7263 28.8815C19.7224 28.8634 19.6877 28.7194 19.6259 28.4492C19.5526 28.1321 19.3943 27.862 19.1473 27.6422C18.9389 27.4513 18.8309 27.354 18.8231 27.3504C18.414 26.9326 17.9933 26.5291 17.5572 26.1399C17.5186 26.1039 17.4645 26.0787 17.4066 26.0643C17.0284 25.9959 16.7506 25.8662 16.573 25.6825C16.2295 25.3186 15.9439 25.0808 15.7201 24.9692C15.5811 24.8971 15.4692 24.7998 15.392 24.6773C15.3572 24.6234 15.3302 24.6269 15.3147 24.6809L15.28 24.7891C15.2723 24.8215 15.28 24.8575 15.3032 24.8935C15.4306 25.0772 15.4151 25.1061 15.2607 24.98C15.2376 24.9619 15.226 24.9692 15.2221 24.998C15.2144 25.0772 15.1681 25.1276 15.087 25.1493L15.0176 23.5714C15.0137 23.4813 14.9211 23.4129 14.813 23.4129L13.7786 23.4381C13.8365 23.3769 13.8674 23.3084 13.8674 23.2327C13.8674 23.1788 13.8365 23.1318 13.7864 23.1031L12.6555 22.4546C12.6015 22.4222 12.5629 22.3826 12.5398 22.3393C12.3313 21.925 12.0612 21.5576 11.7331 21.237C10.7682 20.5273 10.0001 19.76 9.43281 18.9386C8.27103 17.249 7.76929 15.3938 7.93525 13.3763C8.06647 11.766 8.63383 10.3106 9.64118 9.01371C10.911 7.37455 12.5745 6.23256 14.6355 5.5769Z" fill="#9692A0"/>
<path d="M28.5887 15.0908L28.6891 15.3538C28.7161 15.4186 28.7238 15.4763 28.7161 15.5087L28.1989 17.5621C27.5698 19.2841 26.5277 20.7503 25.0803 21.9571C25.0378 21.9932 25.007 22.0436 24.9993 22.0977C24.9452 22.4003 24.9182 22.7893 24.9144 23.2613C24.8874 26.8314 24.8874 29.0505 24.9144 29.9223C24.9376 30.5996 24.899 31.1976 24.8063 31.7164L24.6982 31.9757L24.7793 22.1661C24.7793 22.0436 24.8333 21.9283 24.9298 21.8491C27.0256 20.0443 28.2452 17.7927 28.5887 15.0908Z" fill="#4492C2"/>
<path d="M13.782 23.4346C13.6315 23.4778 13.5659 23.5679 13.5813 23.7084C13.5929 23.8273 13.6007 23.8921 13.6007 23.9029C13.5736 26.2734 13.6083 28.6402 13.7009 31.0071C13.7318 31.7743 13.8399 32.3472 14.0329 32.7254C14.4035 33.4675 15.0364 34.0116 15.928 34.361C17.0434 34.7537 18.1241 34.8112 19.17 34.5303C20.104 34.2817 20.7679 33.7594 21.1654 32.9668C21.3198 32.657 21.4279 32.2066 21.4896 31.6159C21.5359 31.1548 21.5823 30.6901 21.6209 30.2289C21.6247 30.1784 21.6286 30.1784 21.6286 30.2253C21.6401 30.5748 21.7174 30.6216 21.8601 30.3658C21.8872 30.3153 21.9373 30.2829 21.9875 30.2758C22.3272 30.2325 22.5742 30.3766 22.7285 30.7081C22.771 30.7981 22.852 30.8449 22.9756 30.8558C23.0296 30.8593 23.0721 30.8953 23.0759 30.9386L23.1608 32.0194C23.0141 32.9776 22.6823 33.7701 22.1689 34.397C21.7212 34.941 21.0728 35.33 20.2198 35.5606C18.6837 35.9785 17.1631 36.0289 15.654 35.7119C14.7431 35.521 14.0252 35.2292 13.5003 34.8437C12.8558 34.3682 12.4003 33.7341 12.134 32.9416C11.8986 32.2463 11.7789 31.5366 11.775 30.8053C11.7558 27.6279 11.7441 24.4397 11.7441 21.2371C12.0722 21.5577 12.3424 21.9251 12.5508 22.3395C12.574 22.3827 12.6126 22.4259 12.6666 22.4547L13.7974 23.1032C13.8477 23.132 13.8785 23.1824 13.8785 23.2329C13.8708 23.3049 13.8399 23.3733 13.782 23.4346Z" fill="#9692A0"/>
<path d="M19.8339 29.505C19.8647 30.3336 19.8532 31.0181 19.7952 31.5584C19.7528 31.9692 19.5869 32.315 19.2974 32.596C19.0504 32.8373 18.7107 32.9922 18.2746 33.0715C17.7844 33.1579 17.2981 33.1508 16.8157 33.0534C16.2792 32.9454 15.8739 32.7185 15.6038 32.3762C15.3182 32.0123 15.1676 31.562 15.1561 31.0253C15.0904 28.2405 15.0673 26.2808 15.0827 25.1496C15.1638 25.128 15.2101 25.0776 15.2178 24.9983C15.2217 24.9694 15.2332 24.9623 15.2564 24.9803C15.4108 25.1064 15.4262 25.0776 15.2988 24.8938C15.2757 24.8578 15.2679 24.8217 15.2757 24.7893L15.3104 24.6813C15.3259 24.6236 15.3529 24.6236 15.3877 24.6777C15.4648 24.8001 15.5768 24.8974 15.7157 24.9694C15.9395 25.0812 16.2213 25.3189 16.5687 25.6827C16.7462 25.8665 17.0241 25.9961 17.4023 26.0646C17.4602 26.0755 17.5142 26.1006 17.5528 26.1403C17.989 26.5329 18.4096 26.9364 18.8188 27.3507C18.8227 27.3544 18.9307 27.4516 19.143 27.6425C19.39 27.8659 19.5483 28.1325 19.6216 28.4495C19.6834 28.7196 19.7181 28.8638 19.722 28.8818C19.7798 29.0835 19.8146 29.2925 19.8339 29.505Z" fill="#1999E2"/>
<path d="M0.00771917 11.1107L0.142804 17.0512C0.142804 17.1088 0.150524 17.1088 0.158243 17.0476C0.18912 16.8279 0.204558 16.6081 0.200698 16.3883C0.196839 15.9669 0.200698 15.9525 0.204558 16.3451C0.219996 17.1449 0.239294 17.941 0.270171 18.7336C0.274031 18.9173 0.27789 18.8597 0.274031 18.5678C0.270171 18.3301 0.285609 18.0671 0.324205 17.7789C0.362801 17.4871 0.405256 17.4871 0.451572 17.7789C0.494026 18.0347 0.629113 18.186 0.856828 18.2293C1.11928 18.2796 1.25436 18.3085 1.26595 18.3121C1.75997 18.503 2.18067 18.7948 2.52803 19.1875C2.70171 19.3856 3.29223 19.7567 4.30344 20.2971C5.2143 20.787 5.93218 21.2697 6.46095 21.7417C6.61533 21.8786 6.78901 22.0083 6.97813 22.1235C7.16339 22.2388 7.34093 22.3613 7.51075 22.4981C7.64198 22.6026 7.72689 22.7035 7.76163 22.7936C7.78092 22.8476 7.81952 22.8873 7.86198 22.9089C8.10127 23.0206 8.356 23.2079 8.62231 23.4709C8.88861 23.7338 9.28618 23.9644 9.81489 24.1589C9.84964 24.1734 9.89212 24.1625 9.92299 24.1301C9.98474 24.0653 10.0156 24.0977 10.0156 24.2237C10.0156 24.2814 10.0426 24.3643 10.0967 24.4724C10.116 24.512 10.1314 24.512 10.1391 24.4652L10.2317 23.6798C10.2356 25.7333 10.2511 27.7867 10.282 29.8401C10.3012 31.0073 10.3437 31.8431 10.4171 32.3546C10.6023 33.6911 11.1774 34.7899 12.1384 35.6509C12.7096 36.1624 13.4198 36.5552 14.2689 36.8254C15.0524 37.0775 15.8783 37.2216 16.7467 37.2577C17.8931 37.308 18.9892 37.2468 20.0274 37.0775C20.919 36.9298 21.7102 36.6236 22.401 36.1553C23.0572 35.7122 23.5821 35.1106 23.9757 34.354C24.3655 33.6155 24.6049 32.8265 24.6975 31.9799L24.8055 31.7206C24.794 33.2912 24.242 34.6458 23.1459 35.7842C23.1189 35.8095 23.1267 35.8599 23.1537 35.8995C23.1923 35.9535 23.1768 36.0184 23.1073 36.0976C23.034 36.1805 23.115 36.3642 23.2849 36.5155C23.4585 36.6704 23.6322 36.8254 23.806 36.9766C23.9372 37.092 24.1339 37.2144 24.3925 37.3513C24.6936 37.5098 24.9561 37.7115 25.1877 37.9601C25.3883 38.1799 25.6238 38.3456 25.8901 38.4645C26.388 38.6806 26.6466 38.7959 26.6697 38.8103C26.9785 38.994 27.322 39.2138 27.7002 39.466C28.1055 39.7361 28.3294 40.0892 28.3718 40.5251C28.3756 40.5431 28.3873 40.5575 28.4065 40.5612C28.5146 40.5756 28.5146 40.5936 28.4104 40.6151C27.5652 40.7665 26.7122 40.8602 25.8515 40.8961C18.638 40.9141 11.4282 40.9034 4.21852 40.8673C3.3617 40.8637 2.71329 40.7809 2.2733 40.626C1.28911 40.2766 0.609814 39.6389 0.239294 38.7167C0.0810513 38.3059 0 37.7188 0 36.9406C0 28.3306 0 19.7207 0.00771917 11.1107Z" fill="#1193DD"/>
<path d="M5.65915 0.0219069L3.69462 0.266877C3.63673 0.274082 3.59428 0.310107 3.59813 0.353337L3.62901 0.670357C3.63287 0.709984 3.67918 0.738805 3.73322 0.735202H3.73708C3.94163 0.706382 4.06514 0.78924 4.1076 0.983777C4.11918 1.03781 4.15391 1.08465 4.20023 1.10266C4.43567 1.19993 4.72513 1.22514 5.07249 1.17831C5.62827 1.10266 5.89072 1.308 5.85985 1.78713C5.84441 2.0357 5.83669 2.16179 5.83669 2.16539C5.86371 2.68055 6.10686 3.09123 6.56615 3.39024C6.67422 3.4623 6.7244 3.55956 6.71281 3.68565C6.70896 3.73969 6.73211 3.78652 6.77071 3.81174C7.36123 4.19 7.86683 4.64391 8.29139 5.17708C8.49208 5.42926 8.67349 5.6238 8.8317 5.75709C9.03629 5.93001 9.24466 6.10293 9.45699 6.26865C9.49948 6.30106 9.55348 6.31908 9.61523 6.32268C9.8236 6.3371 9.81595 6.41635 9.58823 6.56405C9.40677 6.68653 9.32189 6.84505 9.33737 7.04318C7.17211 9.30556 6.19563 11.9174 6.41177 14.8786C6.59703 17.404 7.66999 19.5871 9.63062 21.428C9.91244 21.691 10.0591 21.835 10.0707 21.8531C10.171 22.0116 10.225 22.2133 10.225 22.4619C10.2289 22.869 10.225 23.2725 10.2173 23.6759L10.1247 24.4613C10.1169 24.5081 10.1054 24.5117 10.0822 24.4685C10.0282 24.3604 10.0012 24.2775 10.0012 24.2199C10.0012 24.0938 9.97032 24.0614 9.90857 24.1262C9.88157 24.1551 9.83521 24.1659 9.80047 24.1551C9.27175 23.9569 8.87418 23.73 8.60787 23.467C8.34156 23.204 8.08683 23.013 7.84754 22.905C7.80508 22.887 7.77034 22.8438 7.74718 22.7897C7.71245 22.6996 7.62754 22.5988 7.49631 22.4943C7.32649 22.3574 7.14895 22.2313 6.96369 22.1196C6.77071 22.0044 6.60089 21.8783 6.4465 21.7378C5.91774 21.2623 5.19986 20.7832 4.289 20.2932C3.28165 19.7528 2.68727 19.3817 2.51359 19.1836C2.17009 18.791 1.74939 18.4991 1.2515 18.3082C1.24379 18.3046 1.10484 18.2758 0.842389 18.2254C0.610815 18.1821 0.475729 18.0308 0.437133 17.7751C0.390818 17.4868 0.348363 17.4868 0.309767 17.7787C0.271171 18.0668 0.255732 18.3298 0.259592 18.5676C0.263451 18.8593 0.259592 18.917 0.255732 18.7333C0.228716 17.9408 0.205558 17.1446 0.193979 16.3448C0.19012 15.9522 0.18626 15.9666 0.19012 16.388C0.193979 16.6078 0.178541 16.8312 0.147664 17.0474C0.139945 17.1086 0.136085 17.1086 0.132226 17.0474L0.00871907 11.1104C0.000999894 8.49859 0.000999894 5.88678 0.00871907 3.27497C0.00871907 2.72739 0.155383 2.21944 0.440992 1.74751C1.12028 0.634332 2.15465 0.0543294 3.54796 0.00749694C3.94549 -0.00691307 4.64794 0.000291934 5.65915 0.0219069Z" fill="#9692A0"/>
<path d="M5.65892 0.0222836C13.9763 0.00427113 22.2937 0.000668628 30.615 0.00787363C30.9701 0.00787363 31.2711 0.0114761 31.5143 0.0222836C31.8308 0.0330911 32.1241 0.0799237 32.3904 0.166384C34.0423 0.674337 34.876 1.79111 34.8876 3.51671C34.9262 8.62145 34.9223 14.7853 34.8682 22.0047L34.8181 21.1149C34.8181 21.0898 34.8103 21.0898 34.7988 21.1113C34.7872 21.1329 34.7717 21.1473 34.7486 21.1581C34.6869 21.1905 34.6444 21.2266 34.6328 21.2555C34.5865 21.3743 34.5364 21.3923 34.4785 21.3167C34.4437 21.2699 34.3974 21.2374 34.351 21.223C34.1504 21.1761 33.9652 21.0609 33.7914 20.8808C33.7181 20.8051 33.6409 20.7331 33.5598 20.6646C32.7339 20.009 31.9659 19.4506 31.2634 18.9858C31.0858 18.8706 30.8775 18.7517 30.6265 18.6292C30.4065 18.5211 30.1866 18.4095 29.9743 18.2942C29.8778 18.2437 29.654 18.1501 29.3028 18.0203C29.0789 17.9375 28.8704 17.8151 28.6697 17.6565C28.5347 17.5485 28.3765 17.5161 28.195 17.5629L28.7122 15.5095C28.72 15.4771 28.7122 15.4194 28.6852 15.3545L28.5848 15.0916C28.8087 12.3248 28.0368 9.87513 26.2691 7.74965C24.3278 5.40442 21.7341 4.09672 18.4959 3.81932C14.9257 3.51671 11.8767 4.59386 9.3448 7.04716C9.32941 6.85263 9.41042 6.69051 9.59566 6.56803C9.81951 6.42033 9.82725 6.33747 9.62275 6.32667C9.561 6.32306 9.50304 6.30145 9.46451 6.27262C9.25218 6.10691 9.04381 5.93759 8.83922 5.76107C8.68097 5.62418 8.49958 5.43324 8.29887 5.18106C7.87432 4.65149 7.36872 4.19758 6.7782 3.81572C6.73574 3.7905 6.71645 3.74006 6.72031 3.68963C6.72802 3.56355 6.68171 3.46267 6.57364 3.39423C6.11435 3.09522 5.8712 2.68453 5.84418 2.16937C5.84418 2.16578 5.8519 2.03968 5.86733 1.79471C5.89822 1.31198 5.63576 1.11024 5.07998 1.18589C4.73262 1.23272 4.43929 1.20751 4.20771 1.11024C4.1614 1.08862 4.12666 1.04539 4.11509 0.991358C4.07263 0.796822 3.94913 0.713964 3.74456 0.742784C3.68281 0.742784 3.63263 0.713964 3.62877 0.674337V0.670734L3.5979 0.353714C3.59404 0.314086 3.6365 0.274459 3.69439 0.267254L5.65892 0.0222836Z" fill="#33AFF7"/>
<path d="M45.54 33.6297C43.2359 31.7277 41.9198 29.404 41.5956 26.6518C41.5453 26.2195 41.5183 25.1027 41.5183 23.3014C41.5183 18.7082 41.53 14.1114 41.5531 9.51818C41.5608 7.7674 41.5453 6.70466 41.5029 6.33361C41.3756 5.23124 41.0745 4.19372 40.5921 3.22825C40.5457 3.14179 40.5882 3.03371 40.6847 2.99409C40.7117 2.98328 40.7387 2.97607 40.7658 2.97607L47.8597 2.97968C47.9407 2.97968 48.0024 3.04092 48.0024 3.11297C48.0024 3.13098 47.9986 3.14539 47.9909 3.1634C47.5122 4.23335 47.2228 5.35012 47.1148 6.50292C47.0954 6.69746 47.0878 7.81784 47.0878 9.85323V22.761C47.0878 24.6811 47.1032 25.7979 47.1302 26.1077C47.2807 27.736 47.7516 29.2959 48.5466 30.7873C49.581 32.7327 51.094 34.1485 53.0855 35.0311C54.1469 35.503 55.2971 35.7913 56.5322 35.8958C59.4924 36.1515 62.0976 35.2725 64.3555 33.2623C64.3709 33.2479 64.3903 33.2335 64.4057 33.2227C64.8032 32.9381 64.8186 32.9669 64.452 33.3092C63.7148 34.0008 62.8889 34.5808 61.9741 35.0563C60.1949 35.9822 58.2844 36.5298 56.2427 36.6883C53.3789 36.9188 50.6694 36.4361 48.1144 35.2473C47.1843 34.815 46.3235 34.2746 45.54 33.6297Z" fill="#9692A0"/>
<path d="M66.2463 3.00503C67.5547 2.99063 68.9055 2.98342 70.3065 2.98342C70.4571 2.98342 70.4841 3.03746 70.3876 3.14193C69.5616 4.06057 68.7859 5.05847 68.0603 6.13561C67.4659 7.02182 67.1456 8.03412 67.0992 9.17615C67.0992 9.22659 67.0915 9.22659 67.0838 9.17615C66.8909 8.01251 66.5242 7.01462 65.9761 6.17884C65.2698 5.10169 64.4747 4.08219 63.5947 3.12032C63.5368 3.05908 63.5561 3.02304 63.6411 3.01945C64.0772 2.98702 64.5095 2.97622 64.9417 2.98702C65.6674 3.00143 66.1035 3.00864 66.2463 3.00503Z" fill="#9692A0"/>
<path d="M81.2376 36.3421C79.8366 36.3277 78.4008 36.3242 76.9303 36.3349C76.8724 36.3349 76.8262 36.2953 76.8262 36.2413C76.8262 36.2268 76.83 36.2124 76.8338 36.2016C77.4745 34.8327 77.7949 33.4133 77.7949 31.9363C77.791 23.7658 77.7949 15.5953 77.8026 7.42486C77.8065 5.88659 77.5015 4.51043 76.8956 3.28919C76.8416 3.18111 76.8917 3.05142 77.0114 3.00098C77.0423 2.98658 77.077 2.98297 77.1118 2.98297H84.2095C84.2597 2.98297 84.2983 3.019 84.2983 3.06583C84.2983 3.07664 84.2944 3.08744 84.2906 3.09826C83.9432 3.8836 83.6885 4.69056 83.5264 5.51553C83.4144 6.09914 83.3565 6.93131 83.3565 8.01206V29.4253C83.3565 31.4463 83.3681 32.5631 83.3835 32.772C83.4955 33.9501 83.7927 35.0957 84.2789 36.2016C84.3022 36.2485 84.2752 36.3025 84.2249 36.3242C84.2133 36.3277 84.1979 36.3313 84.1863 36.3313C83.1519 36.3457 82.1678 36.353 81.2376 36.3421Z" fill="#9692A0"/>
<path d="M96.1777 22.8011C97.1118 24.3897 98.0415 26 98.9563 27.6356C100.041 29.5701 101.307 31.4002 102.751 33.1186C103.252 33.7167 103.808 34.1994 104.426 34.5669C105.035 34.9307 105.722 35.1145 106.491 35.1216C106.498 35.1216 106.556 35.118 106.653 35.1108C106.923 35.0928 107.008 35.2549 106.9 35.5936C106.865 35.7052 106.78 35.7989 106.668 35.8493C106.024 36.1411 105.352 36.3717 104.653 36.5446C103.931 36.7248 103.225 36.7968 102.538 36.768C100.076 36.6598 98.1541 35.6007 96.7644 33.587C96 32.481 95.2823 31.3462 94.6103 30.1934C93.2522 27.8518 91.9399 25.4957 90.6777 23.1217C90.6082 22.9956 90.4692 22.9163 90.3188 22.9272C89.3187 22.974 88.3468 22.9848 87.4048 22.9631C87.3044 22.9596 87.2967 22.938 87.3816 22.8983C87.397 22.8911 87.4125 22.8875 87.4318 22.8875C89.2809 22.7254 91.1095 22.4625 92.9241 22.0914C93.4255 21.9905 93.9084 21.85 94.379 21.6662C94.8346 21.4897 95.2779 21.2592 95.6992 20.9746C97.22 19.9515 98.3045 18.6113 98.9484 16.947C99.9828 14.292 99.9757 11.6225 98.922 8.93863C97.9914 6.56819 96.3475 4.96147 93.9893 4.12209C93.3525 3.89514 92.2908 3.68618 90.8131 3.49886C89.6899 3.35476 88.5667 3.20345 87.4434 3.04134C87.3855 3.03413 87.3855 3.03053 87.4472 3.02693C89.9986 2.97289 92.2407 2.9765 94.1784 3.03053C97.227 3.11339 99.8174 4.06806 101.951 5.89092C102.874 6.67987 103.6 7.55888 104.133 8.53155C104.615 9.41775 104.951 10.3508 105.143 11.3343C105.324 12.2818 105.344 13.2544 105.205 14.2523C104.85 16.7597 103.638 18.8095 101.57 20.4018C100.821 20.9782 99.9907 21.4573 99.068 21.8392C98.1691 22.2139 97.227 22.4949 96.2472 22.6786C96.197 22.6894 96.1663 22.7326 96.1742 22.7794C96.1698 22.783 96.1742 22.7939 96.1777 22.8011Z" fill="#9692A0"/>
<path d="M132.589 36.3065C132.511 36.3065 132.427 36.2596 132.373 36.1804L108.486 3.10222C108.432 3.03016 108.455 2.99414 108.548 2.99414L114.252 3.01215C114.31 3.01215 114.36 3.03737 114.395 3.08421L133.558 29.1159C133.608 29.1843 133.634 29.2635 133.634 29.3464V36.2236C133.634 36.2777 133.589 36.3245 133.534 36.3245L132.589 36.3065Z" fill="#9692A0"/>
<path d="M136.65 2.97949C136.75 2.97949 136.847 2.98309 136.943 2.9975C137.005 3.00831 137.013 3.03353 136.974 3.07676C135.87 4.2872 135.102 5.26347 134.674 6.00919C133.983 7.20523 133.632 8.48771 133.612 9.85302C133.612 9.91794 133.601 9.94312 133.578 9.92872C133.531 9.90708 133.504 9.86388 133.496 9.81345C133.377 8.34722 133.029 7.15118 132.462 6.21814C131.779 5.10856 130.984 4.07105 130.069 3.11278C130.011 3.05154 130.027 3.02272 130.116 3.01912C132.285 3.0047 134.466 2.9903 136.65 2.97949Z" fill="#9692A0"/>
<path d="M139.822 11.0131C139.741 10.9662 139.694 10.8906 139.683 10.7824C139.671 10.6852 139.668 10.6312 139.668 10.6167C139.177 8.16345 138.714 5.66332 138.27 3.12356C138.259 3.05511 138.309 2.99387 138.382 2.98305C138.39 2.98305 138.401 2.97946 138.409 2.98305C139.938 3.04429 141.489 3.0479 143.06 2.99387C143.809 2.96865 144.573 2.97585 145.353 3.02269C145.484 3.02989 145.488 3.0479 145.356 3.08033C144.006 3.40455 142.925 4.0566 142.115 5.03649C141.47 5.81823 141.018 6.7801 140.772 7.92209C140.555 8.89475 140.339 9.88541 140.123 10.8869C140.1 10.9878 139.996 11.0526 139.888 11.031C139.86 11.0346 139.841 11.0239 139.822 11.0131Z" fill="#9692A0"/>
<path d="M154.512 3.0048C155.268 3.00119 156.013 2.99759 156.75 2.99039C156.812 2.99039 156.859 3.03722 156.859 3.09126C156.859 3.10566 156.854 3.12008 156.851 3.13088C156.337 4.23685 156.036 5.37164 155.944 6.53885C155.889 7.19091 155.866 8.18159 155.87 9.51456C155.889 16.8456 155.901 24.1803 155.901 31.5114C155.901 33.2261 156.229 34.8005 156.885 36.2415C156.896 36.2703 156.885 36.3027 156.854 36.3136C156.846 36.3171 156.839 36.3171 156.831 36.3171L149.482 36.328C149.429 36.328 149.382 36.2847 149.382 36.2342C149.382 36.2235 149.386 36.2091 149.39 36.1982C149.722 35.4741 149.969 34.7284 150.139 33.9611C150.266 33.3883 150.331 32.6137 150.343 31.6411C150.401 24.4469 150.401 17.2491 150.339 10.0549C150.339 9.96126 150.355 9.51456 150.382 8.71837C150.394 8.41936 150.389 8.12035 150.37 7.82134C150.351 7.52594 150.339 7.22693 150.331 6.92792C150.293 5.6022 149.969 4.33772 149.355 3.13088C149.336 3.09126 149.351 3.04442 149.394 3.02641C149.405 3.02281 149.417 3.0192 149.429 3.0192C150.37 2.97238 151.323 2.96157 152.28 2.97597C153.4 3.00119 154.145 3.0084 154.512 3.0048Z" fill="#9692A0"/>
<path d="M160.857 3.04434C160.725 3.0047 160.733 2.98309 160.869 2.98309L167.882 2.97949C167.947 2.97949 168.001 3.02992 168.001 3.08757C168.001 3.09477 168.001 3.09837 168.001 3.10558C167.534 5.68136 167.051 8.22473 166.558 10.7356C166.539 10.8401 166.511 10.9194 166.473 10.9698C166.388 11.0851 166.295 11.0923 166.199 10.9915C166.156 10.9483 166.125 10.8798 166.106 10.7969C165.882 9.81345 165.663 8.82995 165.454 7.84646C164.937 5.44 163.405 3.84049 160.857 3.04434Z" fill="#9692A0"/>
<path d="M28.5885 15.0919C28.245 17.7938 27.0254 20.0454 24.9296 21.8466C24.837 21.9295 24.783 22.0411 24.7791 22.1636L24.698 31.9732C24.6054 32.8198 24.3662 33.6088 23.9763 34.3473C23.5826 35.1038 23.0539 35.7019 22.4016 36.1486C21.7107 36.6168 20.9195 36.9267 20.028 37.0708C18.9859 37.2401 17.8936 37.3013 16.7473 37.2509C15.8789 37.2113 15.053 37.0671 14.2695 36.8186C13.4243 36.5484 12.7141 36.1557 12.139 35.6442C11.178 34.7832 10.6028 33.6844 10.4176 32.3479C10.3442 31.8363 10.3018 31.0006 10.2825 29.8333C10.2516 27.7799 10.2323 25.7265 10.2285 23.6731C10.2362 23.2696 10.2401 22.8625 10.2362 22.459C10.2323 22.2104 10.1822 22.0051 10.0819 21.8502C10.0702 21.8286 9.91975 21.6881 9.6418 21.4251C7.68116 19.5878 6.60819 17.4048 6.42294 14.8794C6.2068 11.9181 7.18327 9.30626 9.34846 7.04392C11.8804 4.59062 14.9295 3.51707 18.4995 3.81968C21.7378 4.09347 24.3314 5.40478 26.2766 7.7464C28.0404 9.87548 28.8124 12.3251 28.5885 15.0919ZM14.6361 5.5777C12.5751 6.22976 10.9117 7.37535 9.64567 9.00726C8.63834 10.3078 8.06712 11.7632 7.93975 13.37C7.77765 15.3873 8.27554 17.2426 9.4373 18.9322C10.0046 19.7535 10.7727 20.5209 11.7376 21.2306C11.7414 24.4332 11.7492 27.6214 11.7684 30.7988C11.7723 31.5301 11.8919 32.2398 12.1274 32.9351C12.3976 33.7276 12.8491 34.3617 13.4937 34.8372C14.0186 35.2263 14.7365 35.5145 15.6473 35.7054C17.1564 36.0224 18.6771 35.972 20.2132 35.5541C21.0662 35.3235 21.7184 34.9345 22.1623 34.3905C22.6756 33.7636 23.0076 32.9711 23.1543 32.0129C23.2854 28.4788 23.3163 24.9988 23.2545 21.5656C23.2508 21.3855 23.3356 21.2162 23.5093 21.0541L24.6518 19.9877C26.1801 18.3882 26.9907 16.5617 27.0871 14.5119C27.1412 13.4095 26.9907 12.354 26.6356 11.3417C26.2651 10.2934 25.6977 9.34593 24.9258 8.49573C22.2318 5.53447 18.8045 4.56179 14.6361 5.5777Z" fill="#9692A0"/>
<path d="M34.8718 22.0049C34.8796 27.0376 34.8834 32.0667 34.8796 37.0994C34.8796 37.7983 34.7986 38.3386 34.6442 38.7241C34.2698 39.6283 33.6059 40.2587 32.6449 40.6154C32.2049 40.7775 31.5565 40.8639 30.7074 40.8747C29.094 40.8927 27.4769 40.9 25.8597 40.8964C26.7204 40.8603 27.5734 40.7667 28.4186 40.6154C28.5267 40.5937 28.5267 40.5757 28.4186 40.5613C28.3993 40.5613 28.3839 40.5433 28.3839 40.5253C28.3415 40.093 28.1176 39.74 27.7123 39.4698C27.3341 39.214 26.9906 38.9942 26.6818 38.8141C26.6587 38.7997 26.3962 38.6844 25.9022 38.4683C25.6359 38.3494 25.4004 38.1837 25.1998 37.964C24.9682 37.7153 24.7057 37.51 24.4046 37.3551C24.1423 37.2182 23.9493 37.0921 23.8181 36.9805C23.6443 36.8291 23.4707 36.6742 23.297 36.5194C23.1233 36.3644 23.0461 36.1807 23.1194 36.1015C23.1889 36.0221 23.2005 35.9573 23.1658 35.9069C23.1349 35.8637 23.131 35.8168 23.158 35.7916C24.2541 34.6532 24.81 33.2986 24.8177 31.728C24.9103 31.2057 24.9488 30.6077 24.9257 29.9339C24.8987 29.0622 24.8987 26.843 24.9257 23.2729C24.9296 22.801 24.9566 22.4119 25.0107 22.1093C25.0183 22.0553 25.0492 22.0084 25.0917 21.9688C26.539 20.762 27.5773 19.2958 28.2102 17.5738C28.3916 17.5305 28.5498 17.5593 28.685 17.6674C28.8857 17.8259 29.0979 17.9448 29.3179 18.0277C29.6691 18.161 29.893 18.2511 29.9895 18.3015C30.2057 18.4168 30.4218 18.5284 30.6418 18.6365C30.8887 18.759 31.1011 18.8779 31.2786 18.9931C31.981 19.4579 32.7453 20.0162 33.5751 20.6719C33.6599 20.7368 33.7372 20.8088 33.8067 20.8881C33.9764 21.0718 34.1655 21.1871 34.3663 21.2303C34.4165 21.2411 34.4627 21.2772 34.4975 21.324C34.5554 21.4032 34.6056 21.3816 34.6519 21.2627C34.6635 21.2339 34.7059 21.2015 34.7677 21.1654C34.787 21.1547 34.8024 21.1366 34.8178 21.115C34.8294 21.0934 34.8372 21.097 34.8372 21.1186L34.8718 22.0049Z" fill="#9692A0"/>
<path d="M13.7829 23.4346L14.8173 23.4093C14.9293 23.4057 15.018 23.4778 15.0219 23.5679L15.0914 25.1458C15.0759 26.2805 15.099 28.2366 15.1647 31.0214C15.1763 31.5581 15.3268 32.0049 15.6124 32.3723C15.8826 32.7146 16.2839 32.9379 16.8205 33.046C17.3029 33.1433 17.7892 33.1505 18.2793 33.0641C18.7155 32.9884 19.0551 32.8299 19.3021 32.5885C19.5878 32.3075 19.7537 31.9617 19.8 31.551C19.8579 31.0106 19.8695 30.3262 19.8387 29.4976L19.9352 23.593C19.9352 23.539 19.9738 23.4994 20.0239 23.4958L21.2705 23.4706C21.3208 23.4706 21.3632 23.5102 21.3632 23.5606C21.4326 25.5132 21.4365 27.7431 21.3709 30.2541C21.3593 30.7404 21.3362 31.1691 21.3053 31.5402C21.2628 32.0445 21.1624 32.4624 21.0081 32.7902C20.5064 33.8278 19.5801 34.3934 18.2292 34.487C17.465 34.5375 16.697 34.4978 15.9288 34.361C15.0373 34.0151 14.4043 33.4711 14.0339 32.7254C13.8447 32.3471 13.7328 31.7743 13.7019 31.007C13.6093 28.6401 13.5784 26.2697 13.6016 23.9028C13.6016 23.8921 13.5938 23.8272 13.5823 23.7083C13.5668 23.5679 13.6324 23.4778 13.7829 23.4346Z" fill="#9692A0"/>
<path d="M112.705 36.3026C111.319 36.2773 109.942 36.2809 108.575 36.3242C108.506 36.3278 108.494 36.3026 108.541 36.2521C109.463 35.2795 110.266 34.2275 110.957 33.0963C111.563 32.1021 111.895 30.888 111.953 29.4506C111.953 29.4254 111.961 29.4037 111.972 29.3966C111.991 29.3786 112.011 29.393 112.029 29.4326C112.037 29.4506 112.042 29.4722 112.042 29.4938C112.022 30.8556 112.357 32.0696 113.041 33.1395C113.632 34.0654 114.434 35.0958 115.441 36.227C115.48 36.2702 115.468 36.2918 115.41 36.2953C114.909 36.3242 114.006 36.3242 112.705 36.3026Z" fill="#9692A0"/>
<path d="M68.894 51.1701L66.4277 51.1737C66.3506 51.1737 66.2811 51.2241 66.2541 51.2961L65.6712 52.7731C65.6481 52.8272 65.6018 52.8632 65.5478 52.8632L64.9263 52.8668C64.8916 52.8668 64.8607 52.8344 64.8646 52.7984C64.8646 52.7911 64.8685 52.784 64.8685 52.7767L67.2035 46.8723C67.2267 46.8182 67.273 46.7786 67.3232 46.7786H67.9793C68.0295 46.7786 68.0758 46.8146 68.0951 46.8723L70.4301 52.7767C70.4455 52.8164 70.4263 52.8596 70.3838 52.8776C70.376 52.8812 70.3645 52.8812 70.3529 52.8812L69.7277 52.874C69.6736 52.874 69.6273 52.8416 69.6042 52.7911L69.0137 51.2529C68.9944 51.2025 68.948 51.1701 68.894 51.1701ZM66.64 50.4604L68.5813 50.4892C68.6316 50.4892 68.6702 50.4531 68.6702 50.4027C68.6702 50.3919 68.6663 50.3811 68.6624 50.3703L67.7323 47.8954C67.6705 47.726 67.6049 47.726 67.5393 47.8954L66.586 50.3919C66.5744 50.4207 66.5898 50.4495 66.6169 50.4568C66.6284 50.4568 66.6362 50.4604 66.64 50.4604Z" fill="#9692A0"/>
<path d="M71.4251 46.764H72.0774C72.1044 46.764 72.1236 46.7821 72.1236 46.8073L72.1121 52.8343C72.1121 52.8595 72.0928 52.8775 72.0657 52.8775H71.4135C71.3864 52.8775 71.3672 52.8595 71.3672 52.8343L71.3788 46.8073C71.3788 46.7857 71.3981 46.764 71.4251 46.764Z" fill="#9692A0"/>
<path d="M73.5746 46.7676H74.196C74.223 46.7676 74.2462 46.7892 74.2462 46.8144V52.8378C74.2462 52.863 74.223 52.8847 74.196 52.8847H73.5746C73.5476 52.8847 73.5244 52.863 73.5244 52.8378V46.8144C73.5283 46.7856 73.5476 46.7676 73.5746 46.7676Z" fill="#9692A0"/>
<path d="M81.5301 50.4528L82.9389 52.7764C82.9581 52.8088 82.9466 52.8521 82.908 52.8738C82.8964 52.8809 82.881 52.8845 82.8694 52.8845H82.194C82.1322 52.8845 82.0782 52.8521 82.0473 52.8053L80.8006 50.6834C80.735 50.5717 80.6154 50.4997 80.4919 50.5032L79.1758 50.5213C79.1256 50.5213 79.087 50.5646 79.087 50.615C79.0793 51.1697 79.0793 51.7245 79.0947 52.2757C79.0985 52.5711 79.1024 52.7224 79.0947 52.7368C79.029 52.8882 78.8129 52.9206 78.4386 52.8377C78.3537 52.8197 78.292 52.7476 78.292 52.6611L78.2881 46.8864C78.2881 46.8215 78.346 46.7675 78.4155 46.7675C79.2298 46.7675 80.0094 46.7747 80.7582 46.7927C81.341 46.8071 81.808 46.9765 82.1592 47.3079C82.4796 47.6069 82.6648 48.0032 82.7189 48.4967C82.8076 49.3108 82.4217 49.9269 81.5687 50.3448C81.5224 50.3628 81.5069 50.4096 81.5301 50.4528ZM81.4259 47.6429C81.2715 47.5276 81.0978 47.4663 80.9318 47.4627L79.1835 47.4376C79.1333 47.4376 79.0947 47.4736 79.0909 47.524V49.7287C79.0909 49.7756 79.1294 49.8152 79.1835 49.8188C79.6081 49.8296 80.0133 49.8296 80.3993 49.8152C80.9126 49.7936 81.2831 49.7107 81.503 49.563C81.8544 49.3252 82.0048 48.9506 81.9508 48.4391C81.92 48.1401 81.7424 47.8771 81.4259 47.6429Z" fill="#9692A0"/>
<path d="M102.827 46.764H103.437C103.48 46.764 103.514 46.7965 103.514 46.8361V52.809C103.514 52.8487 103.48 52.8811 103.437 52.8811H102.831C102.789 52.8811 102.754 52.8487 102.754 52.809V46.8361C102.75 46.7965 102.785 46.764 102.827 46.764Z" fill="#9692A0"/>
<path d="M113.151 48.1152C113.07 48.0036 113.028 48.0144 113.028 48.1513L113.015 52.7517C113.015 52.8129 112.977 52.8633 112.931 52.8633L112.359 52.8489C112.305 52.8489 112.263 52.7985 112.263 52.7408L112.232 46.9048C112.232 46.8507 112.267 46.8039 112.313 46.7895C112.53 46.7174 112.73 46.7211 112.915 46.8003C113.039 46.8507 113.17 46.9733 113.309 47.1678C114.371 48.616 115.431 50.0353 116.49 51.4331C116.601 51.5808 116.659 51.5664 116.659 51.3827L116.671 46.8688C116.671 46.8183 116.709 46.7787 116.76 46.7787L117.327 46.7751C117.377 46.7751 117.419 46.8147 117.419 46.8651V52.7336C117.419 52.7841 117.381 52.8273 117.33 52.8381C117.049 52.8994 116.833 52.8921 116.682 52.8201C116.632 52.7949 116.512 52.6579 116.323 52.4058C115.254 50.9828 114.197 49.5527 113.151 48.1152Z" fill="#9692A0"/>
<path d="M137.54 49.5092L139.165 46.9658C139.227 46.8686 139.323 46.8074 139.416 46.8074L140.084 46.793C140.153 46.7893 140.165 46.8218 140.123 46.8902L137.872 50.3054C137.83 50.3702 137.802 50.4531 137.802 50.5324V52.7767C137.802 52.8307 137.76 52.8704 137.706 52.8704L137.139 52.874C137.089 52.874 137.05 52.838 137.05 52.7875L137.039 50.4459C137.039 50.3846 137.019 50.3234 136.989 50.2766L134.75 46.9082C134.692 46.8254 134.715 46.7821 134.815 46.7821H135.479C135.529 46.7821 135.583 46.8145 135.618 46.8686L137.32 49.5092C137.355 49.5669 137.436 49.5849 137.494 49.5525C137.517 49.538 137.529 49.5236 137.54 49.5092Z" fill="#9692A0"/>
<path d="M95.5326 48.9542C95.5211 49.6855 95.5211 50.4168 95.5211 51.1481C95.5211 51.5912 95.5247 51.8254 95.5326 51.847C95.61 52.1136 95.8686 52.2504 96.3084 52.2577C96.3893 52.2577 96.4588 52.3045 96.4896 52.3729C96.6672 52.7548 96.5828 52.9493 96.2389 52.9566C95.6909 52.9673 95.2854 52.8053 95.0189 52.4738C94.8492 52.2613 94.7568 51.9046 94.7339 51.3967C94.6838 50.3087 94.6794 49.5919 94.7146 49.2424C94.7454 48.9578 94.653 48.8281 94.4322 48.8533C94.2361 48.8749 94.1165 48.8713 94.0734 48.8461C93.9537 48.7777 93.9194 48.6444 93.9696 48.4426C93.981 48.3922 94.0232 48.3489 94.0778 48.3345C94.2361 48.2913 94.3944 48.2841 94.5519 48.3057C94.6337 48.3165 94.7102 48.2589 94.7225 48.1761C94.7225 48.1688 94.7225 48.1652 94.726 48.158L94.7726 47.3007C94.7761 47.243 94.8228 47.1998 94.8799 47.2033L95.3549 47.2069C95.413 47.2069 95.4596 47.2466 95.4631 47.3007L95.5132 48.1652C95.5167 48.2553 95.5862 48.3237 95.668 48.3237C95.8994 48.3237 96.0726 48.3165 96.1923 48.2985C96.501 48.2517 96.6171 48.3994 96.5362 48.7344C96.5168 48.8136 96.4394 48.8713 96.3506 48.8713L95.6249 48.8749C95.5748 48.8677 95.5326 48.9074 95.5326 48.9542Z" fill="#9692A0"/>
<path d="M81.4259 47.6431C81.7462 47.8773 81.9199 48.1403 81.9546 48.4393C82.0087 48.9508 81.862 49.3255 81.5069 49.5632C81.283 49.7109 80.9164 49.7974 80.4031 49.8154C80.0171 49.8298 79.6118 49.8334 79.1873 49.819C79.1371 49.8154 79.0947 49.7794 79.0947 49.7289V47.5242C79.0947 47.4774 79.1333 47.4377 79.1835 47.4377C79.1835 47.4377 79.1835 47.4377 79.1873 47.4377L80.9357 47.463C81.0939 47.4666 81.2676 47.5315 81.4259 47.6431Z" fill="white" fill-opacity="0.8"/>
<path d="M66.64 50.4601C66.6091 50.4601 66.5898 50.4349 66.5898 50.4061C66.5898 50.4025 66.5898 50.3953 66.5936 50.3917L67.547 47.8951C67.6126 47.7258 67.6744 47.7258 67.74 47.8951L68.6701 50.3701C68.6894 50.4169 68.6663 50.4673 68.6199 50.4853C68.6084 50.4889 68.5968 50.4926 68.589 50.4926L66.64 50.4601Z" fill="#9692A0" fill-opacity="0.8"/>
<path d="M130.017 48.8612C130.03 48.8612 130.045 48.8612 130.056 48.8576C130.068 48.854 130.075 48.8468 130.083 48.836C130.439 48.3785 130.921 48.1696 131.531 48.2128C131.588 48.2164 131.635 48.2488 131.654 48.2992C131.727 48.483 131.735 48.6667 131.674 48.8541C131.658 48.9009 131.608 48.9297 131.554 48.9261C130.697 48.854 130.188 49.1242 130.033 49.7366C130.006 49.8411 129.994 50.3202 129.994 51.1741V52.7303C129.994 52.7807 129.956 52.8239 129.906 52.8348C129.416 52.9392 129.188 52.8492 129.215 52.561C129.227 52.4457 129.234 52.3809 129.234 52.3665V48.4613C129.234 48.4109 129.273 48.3677 129.323 48.3568C129.894 48.2344 130.114 48.3857 129.979 48.8036C129.972 48.8288 129.983 48.8576 130.006 48.8648C130.01 48.8612 130.014 48.8612 130.017 48.8612Z" fill="#9692A0"/>
<path d="M84.4552 50.9251C84.6095 52.114 85.3313 52.5427 86.6204 52.204C86.8211 52.15 86.9948 51.9951 87.1338 51.7429C87.1608 51.6961 87.207 51.6673 87.2611 51.6673C87.4888 51.6673 87.678 51.7213 87.8285 51.8365C87.8863 51.8798 87.8979 51.9591 87.8516 52.0167C87.1916 52.8381 86.385 53.1371 85.4355 52.9138C84.9337 52.7949 84.5401 52.5787 84.2545 52.2581C83.9535 51.923 83.7759 51.5051 83.7141 51.0008C83.6485 50.446 83.7141 49.9417 83.9071 49.4914C84.0769 49.0951 84.3471 48.7852 84.7099 48.5547C85.1113 48.3025 85.5436 48.1945 86.0183 48.234C86.659 48.2881 87.1723 48.5511 87.5544 49.0302C87.9211 49.4914 88.0562 50.0534 87.9594 50.7198C87.9519 50.7666 87.9095 50.8027 87.8593 50.8027L84.5362 50.8423C84.4899 50.8423 84.4552 50.8783 84.4552 50.918C84.4552 50.918 84.4552 50.9216 84.4552 50.9251ZM86.2537 48.9582C85.4626 48.742 84.8681 49.0662 84.4744 49.9345C84.432 50.0317 84.4783 50.1434 84.5787 50.183C84.6018 50.1938 84.6289 50.1974 84.6559 50.1974L87.0951 50.1758C87.1453 50.1758 87.1878 50.1362 87.1878 50.0894C87.1878 49.8156 87.1067 49.5778 86.9484 49.3761C86.7902 49.1815 86.5586 49.0411 86.2537 48.9582Z" fill="#9692A0"/>
<path d="M89.9325 48.911C90.2492 48.5471 90.5614 48.3381 90.8622 48.2841C91.719 48.1365 92.3294 48.3202 92.6962 48.8425C92.9002 49.1343 93.0163 49.6423 93.0357 50.37C93.0586 51.1661 93.0665 51.9767 93.0506 52.8017C93.0506 52.8485 93.0084 52.8845 92.9583 52.8845H92.391C92.3364 52.8845 92.2907 52.8413 92.2907 52.7908C92.2907 51.8326 92.2907 50.9139 92.2942 50.0349C92.2942 49.7647 92.2247 49.5234 92.0822 49.3145C91.9468 49.1163 91.7427 48.983 91.4683 48.9146C90.9669 48.7884 90.5614 48.8893 90.2527 49.2244C90.0601 49.4333 89.944 49.7468 89.9132 50.1718C89.8472 51.0292 89.8393 51.8902 89.8973 52.7513C89.9017 52.8017 89.8666 52.8449 89.8208 52.8593C89.6273 52.9097 89.4347 52.9097 89.2377 52.8665C89.1875 52.8557 89.1523 52.8088 89.1523 52.7584V48.4714C89.1523 48.4174 89.1875 48.3742 89.2412 48.3561C89.7698 48.1977 89.9633 48.3237 89.8279 48.7345C89.8129 48.7813 89.8164 48.8389 89.8437 48.9002C89.8551 48.9254 89.8859 48.9398 89.9132 48.929C89.9167 48.9254 89.9281 48.9182 89.9325 48.911Z" fill="#9692A0"/>
<path d="M100.569 52.3697C99.847 53.0794 99.0211 53.191 98.0914 52.7047C97.8978 52.6038 97.7439 52.4489 97.6243 52.2472C97.524 52.0707 97.466 51.8725 97.4581 51.6528C97.4352 51.1916 97.6085 50.8458 97.9717 50.6081C98.1758 50.4748 98.5663 50.3595 99.1451 50.2694C99.5576 50.2046 99.9666 50.1433 100.369 50.082C100.519 50.0605 100.627 49.9343 100.619 49.7939C100.603 49.5453 100.546 49.3507 100.445 49.203C100.349 49.0661 100.179 48.9653 99.9279 48.904C99.3228 48.7527 98.8205 48.9149 98.415 49.394C98.3763 49.4408 98.3262 49.466 98.2725 49.4732C98.0526 49.4949 97.86 49.4372 97.6973 49.3003C97.6586 49.2679 97.6516 49.2139 97.6823 49.1706C98.2646 48.3528 99.102 48.0683 100.191 48.324C100.692 48.4429 101.036 48.6915 101.217 49.0734C101.31 49.2715 101.356 49.6426 101.356 50.1865C101.353 51.0367 101.36 51.8833 101.368 52.7335C101.368 52.784 101.337 52.8308 101.287 52.8524C100.778 53.047 100.553 52.8956 100.616 52.3985C100.623 52.3372 100.608 52.33 100.569 52.3697ZM98.7977 52.2436C99.9631 52.5138 100.581 52.0166 100.65 50.7521C100.654 50.6981 100.608 50.6513 100.546 50.6513C100.538 50.6513 100.53 50.6513 100.523 50.6549C100.063 50.7414 99.6192 50.8062 99.1908 50.8458C98.9445 50.871 98.7282 50.9466 98.5391 51.0692C98.3385 51.2061 98.2303 51.379 98.2189 51.5843C98.2066 51.7537 98.2611 51.9049 98.3807 52.031C98.4731 52.1283 98.6085 52.2004 98.7977 52.2436Z" fill="#9692A0"/>
<path d="M105.054 50.1934C104.819 49.8944 104.768 49.563 104.907 49.2028C105.019 48.9146 105.232 48.684 105.544 48.5111C106.1 48.2013 106.714 48.1472 107.385 48.349C107.667 48.4354 107.899 48.5904 108.08 48.8173C108.216 48.9866 108.292 49.0947 108.308 49.1307C108.373 49.2928 108.208 49.3901 107.81 49.4297C107.752 49.4333 107.698 49.4117 107.663 49.372C107.27 48.8965 106.799 48.7381 106.247 48.8929C105.984 48.9686 105.795 49.0875 105.683 49.246C105.567 49.4153 105.567 49.5954 105.691 49.7828C105.772 49.9088 105.911 50.0025 106.112 50.0674C106.451 50.179 106.884 50.2979 107.408 50.4204C107.652 50.4781 107.872 50.5897 108.064 50.7554C108.242 50.9067 108.358 51.1012 108.42 51.3318C108.57 51.9443 108.327 52.4054 107.69 52.7152C106.841 53.1295 106.039 53.0934 105.274 52.6072C105.082 52.4846 104.935 52.3513 104.83 52.2108C104.595 51.883 104.738 51.6885 105.266 51.6344C105.321 51.6273 105.371 51.6524 105.402 51.6993C105.803 52.3153 106.347 52.5063 107.03 52.2793C107.332 52.1784 107.532 52.0163 107.629 51.793C107.744 51.5228 107.66 51.303 107.37 51.1337C107.258 51.0688 107.042 51.004 106.726 50.9428C106.417 50.8816 106.116 50.7987 105.822 50.687C105.467 50.5537 105.213 50.3916 105.054 50.1934Z" fill="#9692A0"/>
<path d="M119.462 50.9252C119.519 51.7466 119.963 52.2185 120.793 52.341C121.384 52.4274 121.843 52.2221 122.171 51.7322C122.202 51.6853 122.252 51.6565 122.306 51.6565C122.502 51.6602 122.68 51.7141 122.835 51.8259C122.877 51.8583 122.889 51.9124 122.866 51.9592C122.603 52.4887 122.213 52.7985 121.689 52.8886C119.96 53.1804 118.971 52.5392 118.725 50.9613C118.605 50.1831 118.782 49.5203 119.26 48.9799C119.608 48.5908 120.029 48.3531 120.522 48.2666C120.886 48.2054 121.245 48.2305 121.6 48.3387C121.947 48.4467 122.229 48.6304 122.452 48.8899C122.861 49.3654 123.035 49.9814 122.974 50.7379C122.969 50.7956 122.919 50.8388 122.858 50.8388L119.543 50.846C119.496 50.846 119.457 50.882 119.457 50.9252C119.462 50.9216 119.462 50.9216 119.462 50.9252ZM119.538 50.1723L122.113 50.1975C122.194 50.1975 122.256 50.1363 122.256 50.0606C122.256 50.0462 122.252 50.0318 122.248 50.021C121.978 49.142 121.445 48.7745 120.65 48.9187C120.318 48.9799 120.055 49.106 119.866 49.3041C119.666 49.513 119.535 49.776 119.473 50.1003C119.469 50.1327 119.488 50.1651 119.523 50.1687C119.535 50.1723 119.535 50.1723 119.538 50.1723Z" fill="#9692A0"/>
<path d="M127.101 52.4239C127.124 52.2834 127.089 52.269 126.993 52.3771C126.595 52.8382 126.07 53.0436 125.418 52.9895C124.912 52.9462 124.526 52.7661 124.264 52.4419C124.009 52.1285 123.905 51.7791 123.951 51.3972C123.99 51.091 124.14 50.8424 124.411 50.6515C124.581 50.5326 124.846 50.4317 125.213 50.3489C125.761 50.2264 126.302 50.1363 126.834 50.0787C127.015 50.0606 127.143 49.9093 127.124 49.7401C127.043 49.0664 126.622 48.7746 125.866 48.8646C125.444 48.915 125.117 49.0988 124.882 49.4158C124.846 49.4626 124.796 49.4879 124.743 49.4843C124.546 49.4735 124.345 49.4086 124.137 49.2969C124.094 49.2753 124.083 49.2249 124.106 49.1853C124.106 49.1816 124.109 49.1816 124.109 49.178C124.739 48.3494 125.596 48.0613 126.672 48.3062C127.12 48.4071 127.444 48.6233 127.645 48.9511C127.772 49.1565 127.846 49.495 127.865 49.9634C127.904 50.8964 127.899 51.8295 127.854 52.7626C127.849 52.8129 127.815 52.8562 127.765 52.8706C127.251 53.0291 127.028 52.8779 127.101 52.4239ZM125.09 52.1934C125.229 52.2834 125.387 52.3338 125.557 52.3411C126.661 52.3915 127.182 51.8511 127.12 50.7199C127.116 50.6767 127.078 50.6479 127.035 50.6479C127.031 50.6479 127.028 50.6479 127.028 50.6479L125.476 50.8784C125.163 50.9252 124.935 51.0658 124.785 51.2963C124.573 51.6314 124.677 51.9268 125.09 52.1934Z" fill="#9692A0"/>
<path d="M142.418 52.9968C141.175 52.9932 140.172 51.9197 140.172 50.5976C140.176 49.2754 141.183 48.2055 142.426 48.2055C143.669 48.209 144.673 49.2826 144.673 50.6047C144.673 51.9269 143.661 53.0004 142.418 52.9968ZM142.426 52.3591C143.241 52.3591 143.904 51.5738 143.904 50.6047C143.904 49.6321 143.249 48.8467 142.43 48.8431C141.615 48.8431 140.952 49.6285 140.952 50.5976C140.952 51.5702 141.608 52.3556 142.426 52.3591Z" fill="#9692A0"/>
<path d="M148.879 52.2584C148.872 52.1755 148.841 52.1647 148.787 52.226C148.462 52.5826 148.103 52.8023 147.718 52.8888C147.308 52.9789 146.919 52.9176 146.545 52.7051C146.112 52.4601 145.881 52.0602 145.85 51.4983C145.795 50.522 145.776 49.5025 145.795 48.447C145.795 48.3749 145.85 48.3172 145.915 48.3137L146.459 48.2957C146.506 48.292 146.545 48.3425 146.545 48.4073V48.4109C146.556 49.344 146.568 50.2734 146.571 51.2064C146.571 51.4983 146.664 51.7396 146.849 51.9342C147.012 52.1071 147.243 52.2043 147.54 52.2223C148.042 52.2584 148.412 52.0927 148.659 51.7252C148.806 51.5054 148.884 51.1668 148.887 50.7057C148.895 49.978 148.899 49.2323 148.891 48.4614C148.891 48.3965 148.937 48.3388 149.007 48.3245C149.37 48.2488 149.586 48.2813 149.651 48.4253C149.655 48.4325 149.655 48.5838 149.655 48.8793V52.7484C149.655 52.8204 149.601 52.8744 149.535 52.8744H149.532L149.015 52.8636C148.96 52.8636 148.918 52.8204 148.914 52.7663L148.879 52.2584Z" fill="#9692A0"/>
<path d="M86.9445 49.3757C87.1027 49.5775 87.1838 49.8152 87.1838 50.089C87.1838 50.1359 87.1413 50.1755 87.0912 50.1755L84.6519 50.1971C84.5438 50.1971 84.4551 50.1143 84.4551 50.0098C84.4551 49.9846 84.4628 49.9593 84.4705 49.9341C84.8642 49.0659 85.4586 48.7417 86.2498 48.9579C86.5585 49.0407 86.7901 49.1812 86.9445 49.3757Z" fill="#9692A0" fill-opacity="0.8"/>
<path d="M119.538 50.1726C119.504 50.1726 119.477 50.1438 119.477 50.1113C119.477 50.1077 119.477 50.1077 119.477 50.1042C119.538 49.7799 119.666 49.5169 119.871 49.308C120.06 49.1098 120.322 48.9838 120.653 48.9226C121.449 48.7784 121.982 49.1459 122.252 50.0249C122.275 50.0969 122.232 50.1762 122.155 50.1978C122.143 50.2014 122.128 50.205 122.113 50.205L119.538 50.1726Z" fill="#9692A0" fill-opacity="0.8"/>
<path d="M143.905 50.6012C143.901 51.5739 143.241 52.3593 142.426 52.3556C141.612 52.3556 140.952 51.5666 140.952 50.594C140.956 49.6213 141.616 48.836 142.431 48.8396C143.249 48.8431 143.905 49.6321 143.905 50.6012Z" fill="#9692A0" fill-opacity="0.8"/>
<path d="M98.3801 52.0309C98.2605 51.9048 98.2069 51.7535 98.2183 51.5841C98.2297 51.3752 98.3379 51.2023 98.5385 51.069C98.7276 50.9429 98.944 50.8708 99.1911 50.8457C99.6151 50.8025 100.059 50.7375 100.522 50.6547C100.58 50.6439 100.635 50.6799 100.646 50.734C100.646 50.7412 100.649 50.7484 100.649 50.7556C100.58 52.02 99.9625 52.5172 98.7971 52.2471C98.608 52.2002 98.4725 52.1282 98.3801 52.0309Z" fill="#9692A0" fill-opacity="0.8"/>
<path d="M125.09 52.1931C124.677 51.9265 124.573 51.6311 124.781 51.2997C124.927 51.0655 125.159 50.9286 125.472 50.8818L127.023 50.6513C127.07 50.644 127.112 50.6729 127.116 50.7125C127.116 50.7161 127.116 50.7197 127.116 50.7197C127.178 51.8545 126.653 52.3949 125.553 52.3408C125.387 52.3337 125.229 52.2832 125.09 52.1931Z" fill="#9692A0" fill-opacity="0.8"/>
</g>
<defs>
<clipPath id="clip0_103_588">
<rect width="168" height="53" fill="#9692A0"/>
</clipPath>
</defs>
</svg>
