<svg width="41" height="51" viewBox="0 0 41 51" fill="none" xmlns="http://www.w3.org/2000/svg">
<path fill-rule="evenodd" clip-rule="evenodd" d="M17.4146 0.708833C19.2517 1.97279 19.7213 4.49384 18.4633 6.33977C14.6718 11.9034 10.9839 17.463 7.45129 23.1446C6.27158 25.042 3.78442 25.6192 1.89605 24.4338C0.00769288 23.2485 -0.566785 20.7495 0.612924 18.8521C4.22716 13.0392 7.9836 7.37794 11.8103 1.76258C13.0683 -0.0833412 15.5774 -0.555121 17.4146 0.708833Z" fill="#F4C254"/>
<path fill-rule="evenodd" clip-rule="evenodd" d="M35.6657 18.1124C36.8705 19.9938 36.3292 22.5003 34.4567 23.7108C32.4553 25.0046 30.4956 26.2168 28.5776 27.403C24.0588 30.198 19.7721 32.8495 15.7188 36.0883C13.9761 37.4808 11.4399 37.1902 10.054 35.4392C8.6681 33.6882 8.95733 31.1399 10.7 29.7474C15.1542 26.1882 20.0898 23.1346 24.7768 20.2347C26.6011 19.106 28.3878 18.0005 30.0939 16.8976C31.9663 15.6871 34.4609 16.231 35.6657 18.1124Z" fill="#F4C254"/>
<path fill-rule="evenodd" clip-rule="evenodd" d="M36.3162 50.3709C30.6025 49.4307 24.4929 49.8457 18.444 50.9357C16.2524 51.3306 14.1571 49.8657 13.764 47.6636C13.371 45.4615 14.829 43.3563 17.0206 42.9613C23.5815 41.7791 30.6808 41.234 37.6194 42.3758C39.8167 42.7374 41.3062 44.8203 40.9464 47.0281C40.5865 49.2359 38.5135 50.7325 36.3162 50.3709Z" fill="#F4C254"/>
</svg>
