<svg width="149" height="35" viewBox="0 0 149 35" fill="none" xmlns="http://www.w3.org/2000/svg">
<path d="M64.0138 21.0703C61.1247 21.2129 58.2199 21.2526 55.3387 21.522C43.0952 22.655 30.8517 23.8672 18.6083 25.024C17.4682 25.1349 16.3126 25.1032 15.1648 25.0477C11.2294 24.8655 9.82387 22.9243 10.839 19.1371C11.0107 18.4953 11.1669 17.8377 11.3934 16.9266C13.3142 16.7047 15.2819 16.5383 17.234 16.2293C19.0924 15.9362 20.9039 15.3499 22.7701 15.1359C24.4879 14.9379 26.2448 15.1518 27.9704 15.0409C29.3369 14.9537 30.7112 14.7635 32.0386 14.4387C34.4202 13.8682 36.7704 13.171 39.1442 12.5372C39.4956 12.4421 40.1046 12.2836 40.2061 12.4342C41.8224 14.7398 42.6033 12.7194 43.6496 12.1965C56.2523 11.3646 68.6363 8.67071 81.1608 7.03855C71.2833 7.48224 61.3901 7.69618 51.5282 8.43302C36.9813 9.52641 22.4578 11.0001 7.91864 12.3074C6.59122 12.4262 5.26382 12.5451 3.92859 12.5847C1.56266 12.6481 -0.045853 10.3187 0.000997018 7.17323C0.0400387 4.32091 1.79691 4.7567 3.74899 4.71709C9.08989 4.59824 14.423 4.22585 19.7561 3.86931C24.7534 3.53654 29.7508 3.10867 34.7481 2.71252C42.7907 2.07867 50.8177 1.2943 58.8759 0.842679C63.5921 0.581217 68.3474 0.826815 73.0792 0.874354C76.7179 0.91397 80.3176 -0.092274 84.0265 1.11204C85.5882 1.61912 87.6027 0.478209 89.4221 0.438593C97.0508 0.288054 104.68 0.216771 112.308 0.216771C116.634 0.216771 120.952 0.509891 125.278 0.478199C131.587 0.43066 137.896 0.319764 144.198 0.010763C146.727 -0.116007 148.601 0.874375 148.961 3.12454C149.218 4.73293 148.149 6.57902 147.547 8.28248C147.454 8.55187 146.72 8.70239 146.282 8.71031C136.194 8.81331 126.074 8.433 116.025 9.09854C104.531 9.85123 93.0998 11.523 81.645 12.8145C80.6221 12.9333 79.6226 13.2344 78.6153 13.4483C78.6231 13.7019 78.6388 13.9554 78.6466 14.2169C83.0661 14.2169 87.4856 14.1139 91.9051 14.2486C96.0748 14.3753 100.244 14.8507 104.414 15.0013C107.498 15.1122 110.598 15.0726 113.675 14.8507C116.525 14.6526 118.352 16.2373 118.578 19.5174C118.742 21.8785 117.431 23.1145 114.737 23.3364C103.524 24.2871 92.3111 25.2617 81.1062 26.2679C80.1067 26.355 79.1307 26.6958 78.1234 27.187C86.6501 28.4626 95.3642 28.7399 103.266 32.543L103.415 33.7077C102.236 34.1593 101.041 35.0309 99.8853 34.9992C92.2878 34.7535 84.7058 34.294 77.1083 33.9296C68.5113 33.5096 59.9222 33.1373 51.3252 32.6936C50.1071 32.6302 48.9124 32.2816 47.6943 32.0993C43.9307 31.5447 43.4231 29.2787 44.6022 24.9923C44.7427 24.4694 45.4143 23.7642 45.8906 23.7167C49.2013 23.3918 52.6292 22.6154 55.815 23.1779C58.9774 23.7325 61.4292 22.8134 64.0918 21.8864C64.0606 21.6091 64.0372 21.3398 64.0059 21.0625L64.0138 21.0703Z" fill="#F4C254"/>
</svg>
