<svg width="159" height="55" viewBox="0 0 159 55" fill="none" xmlns="http://www.w3.org/2000/svg">
<g style="mix-blend-mode:luminosity" clip-path="url(#clip0_103_558)">
<path d="M0 43.5196V37.2439H2.84218C2.87648 37.2439 2.97448 37.1702 3.14109 37.0179C3.3077 36.8508 3.44001 36.6493 3.53801 36.4035C3.63602 36.1628 3.68993 35.8827 3.68993 35.5633V10.0035H11.5451V23.636C13.6228 20.3827 16.4895 18.4809 20.15 17.9353C20.498 17.9206 20.841 17.9108 21.1742 17.9108C21.9387 17.9108 22.7129 17.955 23.492 18.0336C24.5897 18.1663 25.6531 18.417 26.6821 18.7856C27.7798 19.1542 28.804 19.6407 29.7497 20.25C30.6955 20.8594 31.5236 21.6015 32.2293 22.4762C32.9349 23.351 33.5033 24.3536 33.9247 25.4789C34.3511 26.6043 34.5765 27.8673 34.6108 29.268V29.7446C34.6108 29.8282 34.6206 29.9362 34.6354 30.0689V35.573C34.6354 36.6248 34.4295 37.6076 34.0228 38.5266C33.616 39.4456 33.0721 40.2467 32.391 40.9297C31.5923 41.7455 30.6416 42.3844 29.5341 42.8414C28.4267 43.2985 27.226 43.5295 25.9324 43.5295H0V43.5196ZM11.5745 37.2439H26.0157C26.05 37.2439 26.148 37.1702 26.3146 37.0179C26.4812 36.8508 26.6135 36.6493 26.7116 36.4035C26.8095 36.1628 26.8634 35.8827 26.8634 35.5633V30.5112C26.8634 30.3441 26.8585 30.1672 26.8487 29.9756C26.8389 29.7839 26.834 29.5874 26.834 29.3859C26.7997 28.6831 26.7017 28.0639 26.5351 27.5233C26.3685 26.9827 26.1431 26.5159 25.8638 26.1227C25.5795 25.7295 25.2463 25.4052 24.8641 25.1448C24.4819 24.8843 24.0653 24.673 23.6194 24.5059C23.2029 24.3732 22.757 24.2798 22.2719 24.2307C21.9387 24.1815 21.6054 24.157 21.2722 24.157C21.1056 24.157 20.9292 24.1667 20.7478 24.1815C18.185 24.3142 16.0386 25.3118 14.2991 27.1695C12.5594 29.0271 11.653 31.1501 11.5696 33.5336V37.2439H11.5745ZM65.0809 43.5196H61.4644C61.4302 44.2027 61.2439 45.1168 60.9009 46.2569C60.5579 47.3971 60.112 48.4242 59.5534 49.3334C58.9947 50.2425 58.3332 51.019 57.5687 51.6578C56.8042 52.3016 55.981 52.8373 55.0989 53.2698C54.2022 53.7022 53.276 54.0364 52.3303 54.2723C51.3845 54.5033 50.4192 54.6753 49.4391 54.7834C48.4591 54.8915 47.4643 54.9554 46.4597 54.9702C45.4551 54.9849 44.0341 54.9947 42.2063 54.9947V48.7485C43.838 48.7485 45.0141 48.7436 45.7492 48.7338C46.4794 48.7239 47.1801 48.6895 47.8465 48.6207C48.513 48.5519 49.1059 48.4684 49.6302 48.3603C50.1545 48.2521 50.6152 48.1048 51.0121 47.9229C51.3453 47.7558 51.654 47.5347 51.9481 47.2594C52.2372 46.9842 52.5067 46.6304 52.7468 46.1979C52.9869 45.7655 53.1879 45.22 53.3447 44.5713C53.5015 43.9226 53.5896 43.5786 53.6044 43.5442C52.8742 43.5442 51.8647 43.4704 50.576 43.3181C49.2872 43.1658 48.1258 42.9495 47.0968 42.6694C46.0677 42.3844 45.1416 42.0158 44.3281 41.5588C43.5146 41.1018 42.809 40.5612 42.2063 39.9469C41.5398 39.2441 41.0302 38.4971 40.6725 37.696C40.3148 36.8951 40.0551 36.0497 39.8983 35.1553C39.7414 34.2658 39.6532 33.3076 39.6385 32.2902V29.2876C39.6532 27.9558 39.8247 26.7272 40.1481 25.6116C40.4715 24.496 40.9028 23.4886 41.4468 22.5991C41.9858 21.7096 42.6228 20.9331 43.3529 20.2746C44.0831 19.6161 44.8671 19.0804 45.6953 18.6626C47.1899 17.9304 48.7972 17.5619 50.5074 17.5619H50.7328C52.4969 17.5619 54.1581 17.955 55.7213 18.7364C56.52 19.1542 57.2796 19.6849 58.0049 20.3237C58.7301 20.9675 59.3475 21.7145 59.862 22.5745C60.3766 23.4345 60.7833 24.3929 61.0822 25.4495C61.3812 26.511 61.5331 27.656 61.5331 28.8895V37.2439H65.076V43.5196H65.0809ZM53.6828 28.8895C53.6828 27.5233 53.4623 26.4422 53.0213 25.651C52.5802 24.8597 52.0608 24.3142 51.463 24.0144C51.164 23.8818 50.8896 23.808 50.6397 23.7884C50.4387 23.7884 50.1889 23.8572 49.8899 23.9899C49.2725 24.3044 48.7286 24.8892 48.2582 25.7394C47.7828 26.5895 47.5329 27.7985 47.4986 29.3662C47.4839 29.9658 47.4741 30.526 47.4741 31.042C47.4741 31.2927 47.4839 31.5433 47.4986 31.7939C47.4986 32.5458 47.5378 33.2043 47.6113 33.7695C47.6848 34.3347 47.7877 34.8065 47.925 35.1848C48.0572 35.5583 48.2336 35.8581 48.4492 36.0743C48.7972 36.4429 49.4734 36.7377 50.4682 36.9639C51.4679 37.1899 52.5361 37.3078 53.6877 37.3275V28.8895H53.6828ZM78.0617 19.8323V35.5682C78.0617 35.8188 78.052 35.9662 78.0373 36.0203C78.052 36.1186 78.1108 36.2709 78.2137 36.4724C78.3117 36.6739 78.4391 36.8557 78.5861 37.0228C78.7527 37.1751 78.8605 37.2489 78.9095 37.2489H84.2949V43.5295H78.934C77.851 43.5295 76.8464 43.3771 75.9154 43.0675C74.9844 42.7579 74.3865 42.5121 74.122 42.3304C73.8867 42.5121 73.3035 42.7579 72.3627 43.0675C71.4218 43.3771 70.4124 43.5295 69.3343 43.5295H63.5716V37.2439H69.3589C69.4079 37.2439 69.5157 37.1702 69.6823 37.0179C69.9811 36.7033 70.1576 36.3151 70.2066 35.868V19.8323H78.0617ZM69.7313 50.9502C69.7313 50.3997 69.8391 49.8887 70.0547 49.4119C70.2703 48.9353 70.5545 48.5175 70.9024 48.1637C71.2503 47.805 71.6571 47.5248 72.1226 47.3233C72.5881 47.1218 73.0977 47.0235 73.6417 47.0235C74.1415 47.0235 74.6169 47.1218 75.0774 47.3233C75.5332 47.5248 75.935 47.805 76.2732 48.1637C76.6162 48.5225 76.8857 48.9401 77.0817 49.4119C77.2826 49.8887 77.3806 50.3997 77.3806 50.9502C77.3806 51.5005 77.2826 52.0068 77.0817 52.4638C76.8808 52.9208 76.6113 53.3287 76.2732 53.6777C75.9301 54.0266 75.5332 54.3018 75.0774 54.5033C74.6218 54.7048 74.1415 54.8031 73.6417 54.8031C73.0928 54.8031 72.5832 54.7048 72.1226 54.5033C71.6571 54.3018 71.2503 54.0266 70.9024 53.6777C70.5545 53.3287 70.2703 52.9208 70.0547 52.4638C69.8391 52.0018 69.7313 51.5005 69.7313 50.9502ZM118.421 35.5682C118.421 36.153 118.362 36.7083 118.244 37.2439H122.258V43.5246H82.7758V37.2439H86.6177C86.6519 37.2439 86.75 37.1702 86.9166 37.0179C87.0832 36.8508 87.2155 36.6493 87.3135 36.4035C87.4116 36.1628 87.4657 35.8827 87.4657 35.5633V10.0035H95.3205V23.636C97.398 20.3827 100.265 18.4809 103.926 17.9353C104.273 17.9206 104.617 17.9108 104.95 17.9108C105.714 17.9108 106.488 17.955 107.267 18.0336C108.365 18.1663 109.429 18.417 110.462 18.7856C111.56 19.1542 112.584 19.6407 113.53 20.25C114.476 20.8594 115.304 21.6015 116.01 22.4762C116.716 23.351 117.283 24.3536 117.705 25.4789C118.132 26.6043 118.357 27.8673 118.391 29.268V29.7446C118.391 29.8282 118.401 29.9362 118.416 30.0689V35.5682H118.421ZM95.3502 37.2439H109.791C109.825 37.2439 109.923 37.1702 110.09 37.0179C110.257 36.8508 110.389 36.6493 110.487 36.4035C110.585 36.1628 110.639 35.8827 110.639 35.5633V30.5112C110.639 30.3441 110.634 30.1672 110.624 29.9756C110.614 29.7839 110.61 29.5874 110.61 29.3859C110.575 28.6831 110.477 28.0639 110.311 27.5233C110.144 26.9827 109.919 26.5159 109.639 26.1227C109.355 25.7295 109.022 25.4052 108.64 25.1448C108.257 24.8843 107.84 24.673 107.395 24.5059C106.978 24.3732 106.533 24.2798 106.048 24.2307C105.714 24.1815 105.381 24.157 105.047 24.157C104.881 24.157 104.705 24.1667 104.523 24.1815C101.961 24.3142 99.8144 25.3118 98.0742 27.1695C96.3348 29.0271 95.4288 31.1501 95.345 33.5336V37.2439H95.3502ZM123.551 18.5841C126.31 17.9845 128.432 17.6847 129.912 17.6847C130.162 17.6847 130.402 17.6946 130.637 17.7093C132.318 17.7781 133.832 18.0729 135.189 18.5988C136.547 19.1246 137.747 19.852 138.791 20.7857C139.84 21.7194 140.746 22.8104 141.511 24.0636C142.143 25.0956 142.687 26.2259 143.143 27.4545C143.598 28.6781 143.995 29.9706 144.328 31.3319C144.662 32.6932 144.951 34.0988 145.201 35.5583C145.451 37.0179 145.701 38.5315 145.951 40.0992V40.3744C145.951 40.7086 145.882 41.0476 145.75 41.4015C145.549 41.8536 145.279 42.2173 144.941 42.5024C144.598 42.7874 144.216 43.0183 143.78 43.2051C143.348 43.3869 142.917 43.4902 142.481 43.5048C142.398 43.5196 142.246 43.5295 142.031 43.5295H120.778V37.2439H137.561C137.527 37.013 137.404 36.325 137.189 35.1799C136.973 34.0398 136.733 32.9586 136.464 31.9413C136.199 30.9241 135.9 29.9903 135.576 29.1401C135.253 28.2899 134.881 27.5233 134.464 26.8402C134.096 26.2751 133.695 25.7837 133.254 25.3757C132.813 24.9678 132.308 24.6484 131.735 24.4273C131.161 24.2061 130.515 24.0734 129.804 24.039H129.407C128.706 24.039 127.594 24.1963 126.065 24.5157L123.551 18.5841ZM127.491 11.3796C127.491 10.8292 127.599 10.3181 127.814 9.84134C128.03 9.36468 128.315 8.95183 128.662 8.59311C129.01 8.23436 129.417 7.95425 129.882 7.75276C130.348 7.55126 130.858 7.45298 131.401 7.45298C131.901 7.45298 132.376 7.55126 132.838 7.75276C133.293 7.95425 133.695 8.23436 134.033 8.59311C134.376 8.95183 134.646 9.36956 134.842 9.84134C135.043 10.3181 135.14 10.8292 135.14 11.3796C135.14 11.9299 135.043 12.4361 134.842 12.8932C134.641 13.3503 134.371 13.7581 134.033 14.1071C133.69 14.4559 133.293 14.7312 132.838 14.9327C132.381 15.1342 131.901 15.2325 131.401 15.2325C130.853 15.2325 130.343 15.1342 129.882 14.9327C129.417 14.7312 129.01 14.4559 128.662 14.1071C128.315 13.7581 128.03 13.3551 127.814 12.8932C127.599 12.4312 127.491 11.9299 127.491 11.3796ZM159 7.62498L151.243 8.27368L150.944 6.14575L153.163 6.02289C152.865 5.62483 152.615 5.29557 152.414 5.04493C152.213 4.7943 152.081 4.55349 152.017 4.3176C151.968 4.18491 151.944 4.04239 151.944 3.89005C151.944 3.79176 151.953 3.68365 151.968 3.5657C152.017 3.31507 152.145 2.98089 152.34 2.56317C152.571 2.0275 152.938 1.64418 153.438 1.39846C153.938 1.15765 154.502 0.995482 155.133 0.911934C155.447 0.877537 155.766 0.862793 156.079 0.862793H156.701C157.216 0.911934 157.702 0.980737 158.147 1.06428L157.623 3.08901C157.275 3.02021 156.917 2.97106 156.549 2.93666C156.369 2.92192 156.192 2.91209 156.025 2.91209C155.859 2.91209 155.692 2.92192 155.526 2.93666C154.928 3.00546 154.585 3.12832 154.502 3.31015C154.468 3.37895 154.453 3.45267 154.453 3.53622C154.453 3.6689 154.511 3.82125 154.629 3.98834C154.781 4.25372 155.001 4.53875 155.3 4.83852C155.599 5.1383 155.839 5.43809 156.025 5.73786L158.696 5.48723L159 7.62498ZM158.824 10.0772V43.2444H150.993V10.0772H158.824Z" fill="#9692A0"/>
</g>
<defs>
<clipPath id="clip0_103_558">
<rect width="159" height="55" fill="white"/>
</clipPath>
</defs>
</svg>
