<svg width="1440" height="893" viewBox="0 0 1440 893" fill="none" xmlns="http://www.w3.org/2000/svg">
<mask id="mask0_99_7591" style="mask-type:alpha" maskUnits="userSpaceOnUse" x="0" y="0" width="1440" height="893">
<rect width="1440" height="893" fill="#C4C4C4"/>
</mask>
<g mask="url(#mask0_99_7591)">
<g opacity="0.15">
<path d="M238.308 -337.506L238.812 -297.95C242.389 -16.7811 530.481 164.948 752.01 25.7759L784.48 5.3777C992.737 -125.457 1263.38 46.6149 1264.98 310.879L1265.58 408.639C1266.73 598.975 1445.42 736.652 1609.97 673.998V673.998" stroke="#909090" stroke-width="0.653416"/>
<path d="M226.332 -314.638L226.835 -275.082C230.412 6.08683 518.505 187.816 740.034 48.6438L772.503 28.2456C980.761 -102.589 1251.4 69.4828 1253.01 333.747L1253.6 431.507C1254.76 621.843 1433.44 759.52 1597.99 696.866V696.866" stroke="#909090" stroke-width="0.653416"/>
<path d="M214.357 -291.77L214.86 -252.214C218.438 28.9552 506.53 210.684 728.059 71.5122L760.528 51.114C968.786 -79.7203 1239.43 92.3512 1241.03 356.616L1241.63 454.376C1242.78 644.711 1421.47 782.389 1586.02 719.734V719.734" stroke="#909090" stroke-width="0.653416"/>
<path d="M202.382 -268.902L202.886 -229.347C206.463 51.8227 494.556 233.552 716.085 94.3797L748.554 73.9815C956.812 -56.8529 1227.45 115.219 1229.06 379.483L1229.65 477.243C1230.81 667.579 1409.49 805.256 1574.05 742.602V742.602" stroke="#909090" stroke-width="0.653416"/>
<path d="M190.406 -246.036L190.909 -206.48C194.487 74.6896 482.579 256.418 704.108 117.247L736.577 96.8484C944.835 -33.9859 1215.48 138.086 1217.08 402.35L1217.68 500.11C1218.83 690.446 1397.52 828.123 1562.07 765.469V765.469" stroke="#909090" stroke-width="0.653416"/>
<path d="M178.429 -223.167L178.933 -183.611C182.51 97.5578 470.603 279.287 692.132 140.115L724.601 119.717C932.858 -11.1178 1203.5 160.954 1205.1 425.218L1205.7 522.978C1206.86 713.314 1385.54 850.991 1550.09 788.337V788.337" stroke="#909090" stroke-width="0.653416"/>
<path d="M166.455 -200.299L166.958 -160.743C170.535 120.426 458.628 302.155 680.157 162.983L712.626 142.585C920.884 11.7504 1191.52 183.822 1193.13 448.086L1193.72 545.846C1194.88 736.182 1373.56 873.859 1538.12 811.205V811.205" stroke="#909090" stroke-width="0.653416"/>
<path d="M154.48 -177.432L154.983 -137.876C158.561 143.293 446.653 325.022 668.182 185.85L700.652 165.452C908.909 34.6176 1179.55 206.689 1181.16 470.953L1181.75 568.714C1182.91 759.049 1361.59 896.727 1526.14 834.072V834.072" stroke="#909090" stroke-width="0.653416"/>
<path d="M142.504 -154.564L143.007 -115.008C146.584 166.162 434.677 347.89 656.206 208.719L688.675 188.32C896.933 57.486 1167.57 229.558 1169.18 493.822L1169.77 591.582C1170.93 781.918 1349.61 919.595 1514.17 856.941V856.941" stroke="#909090" stroke-width="0.653416"/>
<path d="M130.529 -131.697L131.032 -92.1407C134.61 189.028 422.702 370.757 644.231 231.585L676.7 211.187C884.958 80.3529 1155.6 252.424 1157.2 516.689L1157.8 614.449C1158.95 804.785 1337.64 942.462 1502.19 879.807V879.807" stroke="#909090" stroke-width="0.653416"/>
<path d="M118.55 -108.829L119.054 -69.2733C122.631 211.896 410.724 393.625 632.253 254.453L664.722 234.055C872.98 103.22 1143.62 275.292 1145.23 539.556L1145.82 637.316C1146.98 827.652 1325.66 965.329 1490.21 902.675V902.675" stroke="#909090" stroke-width="0.653416"/>
<path d="M106.576 -85.961L107.079 -46.4052C110.657 234.764 398.749 416.493 620.278 277.321L652.747 256.923C861.005 126.089 1131.65 298.16 1133.25 562.424L1133.84 660.185C1135 850.52 1313.68 988.198 1478.24 925.543V925.543" stroke="#909090" stroke-width="0.653416"/>
<path d="M94.6032 -63.0939L95.1065 -23.538C98.6839 257.631 386.776 439.36 608.305 300.188L640.775 279.79C849.032 148.956 1119.67 321.027 1121.28 585.292L1121.87 683.052C1123.03 873.387 1301.71 1011.06 1466.27 948.41V948.41" stroke="#909090" stroke-width="0.653416"/>
<path d="M82.6266 -40.2257L83.1299 -0.6698C86.7074 280.499 374.8 462.228 596.329 323.056L628.798 302.658C837.056 171.824 1107.7 343.895 1109.3 608.16L1109.9 705.92C1111.05 896.256 1289.74 1033.93 1454.29 971.278V971.278" stroke="#909090" stroke-width="0.653416"/>
<path d="M70.6501 -17.3575L71.1533 22.1984C74.7308 303.368 362.823 485.096 584.352 345.925L616.821 325.526C825.079 194.692 1095.72 366.764 1097.33 631.028L1097.92 728.788C1099.08 919.124 1277.76 1056.8 1442.31 994.147V994.147" stroke="#909090" stroke-width="0.653416"/>
<path d="M58.9587 4.96865L59.4619 44.5245C63.0394 325.694 351.132 507.423 572.661 368.251L605.13 347.853C813.388 217.018 1084.03 389.09 1085.63 653.354L1086.23 751.114C1087.38 941.45 1266.07 1079.13 1430.62 1016.47V1016.47" stroke="#909090" stroke-width="0.653416"/>
<path d="M47.2653 27.2953L47.7686 66.8512C51.346 348.02 339.438 529.749 560.968 390.577L593.437 370.179C801.694 239.345 1072.33 411.416 1073.94 675.681L1074.53 773.441C1075.69 963.777 1254.37 1101.45 1418.93 1038.8V1038.8" stroke="#909090" stroke-width="0.653416"/>
<path d="M35.5739 49.6215L36.0772 89.1774C39.6546 370.347 327.747 552.075 549.276 412.904L581.745 392.505C790.003 261.671 1060.64 433.743 1062.25 698.007L1062.84 795.767C1064 986.103 1242.68 1123.78 1407.24 1061.13V1061.13" stroke="#909090" stroke-width="0.653416"/>
<path d="M23.8825 71.9481L24.3858 111.504C27.9632 392.673 316.056 574.402 537.585 435.23L570.054 414.832C778.312 283.998 1048.95 456.069 1050.56 720.334L1051.15 818.094C1052.31 1008.43 1230.99 1146.11 1395.55 1083.45V1083.45" stroke="#909090" stroke-width="0.653416"/>
<path d="M12.1891 94.2743L12.6924 133.83C16.2699 414.999 304.362 596.728 525.891 457.556L558.361 437.158C766.618 306.324 1037.26 478.395 1038.86 742.66L1039.46 840.42C1040.61 1030.76 1219.3 1168.43 1383.85 1105.78V1105.78" stroke="#909090" stroke-width="0.653416"/>
<path d="M0.497714 116.6L1.001 156.156C4.57847 437.325 292.671 619.054 514.2 479.882L546.669 459.484C754.927 328.65 1025.57 500.721 1027.17 764.986L1027.77 862.746C1028.92 1053.08 1207.61 1190.76 1372.16 1128.1V1128.1" stroke="#909090" stroke-width="0.653416"/>
<path d="M-11.1937 138.927L-10.6904 178.483C-7.11294 459.652 280.979 641.381 502.509 502.209L534.978 481.811C743.235 350.977 1013.88 523.048 1015.48 787.313L1016.08 885.073C1017.23 1075.41 1195.92 1213.09 1360.47 1150.43V1150.43" stroke="#909090" stroke-width="0.653416"/>
<path d="M-22.8871 161.254L-22.3838 200.809C-18.8063 481.979 269.286 663.708 490.815 524.536L523.284 504.137C731.542 373.303 1002.18 545.375 1003.79 809.639L1004.38 907.399C1005.54 1097.73 1184.22 1235.41 1348.78 1172.76V1172.76" stroke="#909090" stroke-width="0.653416"/>
<path d="M-34.5785 183.58L-34.0752 223.136C-30.4977 504.305 257.595 686.034 479.124 546.862L511.593 526.464C719.851 395.63 990.491 567.701 992.097 831.965L992.691 929.726C993.847 1120.06 1172.53 1257.74 1337.08 1195.08V1195.08" stroke="#909090" stroke-width="0.653416"/>
<path d="M-46.2699 205.907L-45.7666 245.463C-42.1891 526.632 245.903 708.361 467.432 569.189L499.902 548.791C708.159 417.956 978.799 590.028 980.405 854.292L980.999 952.052C982.156 1142.39 1160.84 1280.07 1325.39 1217.41V1217.41" stroke="#909090" stroke-width="0.653416"/>
<path d="M-57.9632 228.233L-57.4599 267.789C-53.8825 548.958 234.21 730.687 455.739 591.515L488.208 571.117C696.466 440.283 967.106 612.354 968.712 876.619L969.306 974.379C970.463 1164.71 1149.15 1302.39 1313.7 1239.74V1239.74" stroke="#909090" stroke-width="0.653416"/>
<path d="M-69.6546 250.56L-69.1513 290.116C-65.5739 571.285 222.519 753.014 444.048 613.842L476.517 593.444C684.774 462.61 955.415 634.681 957.02 898.945L957.614 996.705C958.771 1187.04 1137.45 1324.72 1302.01 1262.06V1262.06" stroke="#909090" stroke-width="0.653416"/>
<path d="M-81.346 272.886L-80.8427 312.442C-77.2653 593.611 210.827 775.34 432.356 636.168L464.825 615.77C673.083 484.935 943.723 657.007 945.329 921.271L945.923 1019.03C947.08 1209.37 1125.76 1347.04 1290.32 1284.39V1284.39" stroke="#909090" stroke-width="0.653416"/>
<path d="M-93.0394 295.212L-92.5361 334.768C-88.9586 615.937 199.134 797.666 420.663 658.494L453.132 638.096C661.39 507.262 932.03 679.333 933.636 943.598L934.23 1041.36C935.386 1231.69 1114.07 1369.37 1278.62 1306.72V1306.72" stroke="#909090" stroke-width="0.653416"/>
</g>
</g>
</svg>
