<svg width="243" height="243" viewBox="0 0 243 243" fill="none" xmlns="http://www.w3.org/2000/svg">
<path fill-rule="evenodd" clip-rule="evenodd" d="M121.5 169.115C148.263 169.115 169.936 147.6 169.936 121.09C169.936 94.5786 148.263 73.0642 121.5 73.0642C94.7369 73.0642 73.0642 94.5786 73.0642 121.09C73.0642 147.6 94.7369 169.115 121.5 169.115ZM121.5 170.757C149.157 170.757 171.578 148.52 171.578 121.09C171.578 93.6591 149.157 71.4223 121.5 71.4223C93.8428 71.4223 71.4223 93.6591 71.4223 121.09C71.4223 148.52 93.8428 170.757 121.5 170.757Z" fill="#F4C254" fill-opacity="0.2"/>
<path fill-rule="evenodd" clip-rule="evenodd" d="M121.5 175.682C151.889 175.682 176.503 151.229 176.503 121.09C176.503 90.9499 151.889 66.4966 121.5 66.4966C91.1112 66.4966 66.4966 90.9499 66.4966 121.09C66.4966 151.229 91.1112 175.682 121.5 175.682ZM121.5 177.324C152.784 177.324 178.145 152.147 178.145 121.09C178.145 90.0319 152.784 64.8547 121.5 64.8547C90.2157 64.8547 64.8547 90.0319 64.8547 121.09C64.8547 152.147 90.2157 177.324 121.5 177.324Z" fill="#F4C254" fill-opacity="0.2"/>
<path fill-rule="evenodd" clip-rule="evenodd" d="M121.5 184.713C156.875 184.713 185.534 156.218 185.534 121.09C185.534 85.961 156.875 57.4662 121.5 57.4662C86.1254 57.4662 57.4662 85.961 57.4662 121.09C57.4662 156.218 86.1254 184.713 121.5 184.713ZM121.5 186.355C157.772 186.355 187.176 157.134 187.176 121.09C187.176 85.0445 157.772 55.8243 121.5 55.8243C85.2283 55.8243 55.8243 85.0445 55.8243 121.09C55.8243 157.134 85.2283 186.355 121.5 186.355Z" fill="#F4C254" fill-opacity="0.2"/>
<path fill-rule="evenodd" clip-rule="evenodd" d="M121.5 192.101C160.954 192.101 192.922 160.3 192.922 121.09C192.922 81.8795 160.954 50.0777 121.5 50.0777C82.0458 50.0777 50.0777 81.8795 50.0777 121.09C50.0777 160.3 82.0458 192.101 121.5 192.101ZM121.5 193.743C161.852 193.743 194.564 161.215 194.564 121.09C194.564 80.964 161.852 48.4358 121.5 48.4358C81.1478 48.4358 48.4358 80.964 48.4358 121.09C48.4358 161.215 81.1478 193.743 121.5 193.743Z" fill="#F4C254" fill-opacity="0.2"/>
<path fill-rule="evenodd" clip-rule="evenodd" d="M121.5 200.311C165.487 200.311 201.132 164.834 201.132 121.09C201.132 77.3446 165.487 41.8682 121.5 41.8682C77.5127 41.8682 41.8682 77.3446 41.8682 121.09C41.8682 164.834 77.5127 200.311 121.5 200.311ZM121.5 201.953C166.386 201.953 202.774 165.749 202.774 121.09C202.774 76.43 166.386 40.2263 121.5 40.2263C76.6138 40.2263 40.2263 76.43 40.2263 121.09C40.2263 165.749 76.6138 201.953 121.5 201.953Z" fill="#F4C254" fill-opacity="0.2"/>
<path fill-rule="evenodd" clip-rule="evenodd" d="M121.5 209.341C170.474 209.341 210.162 169.823 210.162 121.09C210.162 72.3565 170.474 32.8378 121.5 32.8378C72.5262 32.8378 32.8378 72.3565 32.8378 121.09C32.8378 169.823 72.5262 209.341 121.5 209.341ZM121.5 210.983C171.374 210.983 211.804 170.736 211.804 121.09C211.804 71.4427 171.374 31.1959 121.5 31.1959C71.6264 31.1959 31.1959 71.4427 31.1959 121.09C31.1959 170.736 71.6264 210.983 121.5 210.983Z" fill="#F4C254" fill-opacity="0.2"/>
<path fill-rule="evenodd" clip-rule="evenodd" d="M121.5 216.73C174.554 216.73 217.551 173.904 217.551 121.09C217.551 68.2754 174.554 25.4493 121.5 25.4493C68.4462 25.4493 25.4493 68.2754 25.4493 121.09C25.4493 173.904 68.4462 216.73 121.5 216.73ZM121.5 218.372C175.454 218.372 219.193 174.817 219.193 121.09C219.193 67.3621 175.454 23.8074 121.5 23.8074C67.5459 23.8074 23.8074 67.3621 23.8074 121.09C23.8074 174.817 67.5459 218.372 121.5 218.372Z" fill="#F4C254" fill-opacity="0.2"/>
<path fill-rule="evenodd" clip-rule="evenodd" d="M121.5 224.939C179.087 224.939 225.76 178.438 225.76 121.09C225.76 63.7409 179.087 17.2399 121.5 17.2399C63.9127 17.2399 17.2399 63.7409 17.2399 121.09C17.2399 178.438 63.9127 224.939 121.5 224.939ZM121.5 226.581C179.988 226.581 227.402 179.351 227.402 121.09C227.402 62.8281 179.988 15.598 121.5 15.598C63.0119 15.598 15.598 62.8281 15.598 121.09C15.598 179.351 63.0119 226.581 121.5 226.581Z" fill="#F4C254" fill-opacity="0.2"/>
<path fill-rule="evenodd" clip-rule="evenodd" d="M121.5 232.328C183.167 232.328 233.149 182.519 233.149 121.09C233.149 59.66 183.167 9.85135 121.5 9.85135C59.8325 9.85135 9.85135 59.66 9.85135 121.09C9.85135 182.519 59.8325 232.328 121.5 232.328ZM121.5 233.97C184.069 233.97 234.791 183.431 234.791 121.09C234.791 58.7476 184.069 8.20946 121.5 8.20946C58.9314 8.20946 8.20946 58.7476 8.20946 121.09C8.20946 183.431 58.9314 233.97 121.5 233.97Z" fill="#F4C254" fill-opacity="0.2"/>
<path fill-rule="evenodd" clip-rule="evenodd" d="M121.5 240.537C187.701 240.537 241.358 187.053 241.358 121.09C241.358 55.1256 187.701 1.64189 121.5 1.64189C55.299 1.64189 1.64189 55.1256 1.64189 121.09C1.64189 187.053 55.299 240.537 121.5 240.537ZM121.5 242.179C188.603 242.179 243 187.965 243 121.09C243 54.2136 188.603 0 121.5 0C54.3974 0 0 54.2136 0 121.09C0 187.965 54.3974 242.179 121.5 242.179Z" fill="#F4C254" fill-opacity="0.2"/>
</svg>
