<svg width="25" height="26" viewBox="0 0 25 26" fill="none" xmlns="http://www.w3.org/2000/svg">
<path opacity="0.51" d="M10.1955 2.79612C10.4251 2.53964 10.7063 2.33448 11.0206 2.19402C11.3349 2.05356 11.6753 1.98096 12.0195 1.98096C12.3638 1.98096 12.7042 2.05356 13.0185 2.19402C13.3328 2.33448 13.6139 2.53964 13.8436 2.79612L14.7005 3.75344C14.9454 4.02704 15.2488 4.24205 15.588 4.38255C15.9273 4.52304 16.2938 4.58543 16.6605 4.56508L17.9459 4.49408C18.2897 4.47512 18.6336 4.5289 18.9552 4.6519C19.2768 4.7749 19.5689 4.96436 19.8123 5.20789C20.0557 5.45143 20.2451 5.74357 20.3679 6.06525C20.4908 6.38692 20.5444 6.73089 20.5253 7.07469L20.4543 8.35887C20.4341 8.72531 20.4966 9.0916 20.6371 9.43064C20.7775 9.76968 20.9925 10.0728 21.2659 10.3176L22.2232 11.1745C22.4799 11.4042 22.6852 11.6854 22.8258 11.9998C22.9664 12.3142 23.0391 12.6548 23.0391 12.9992C23.0391 13.3436 22.9664 13.6841 22.8258 13.9986C22.6852 14.313 22.4799 14.5942 22.2232 14.8239L21.2659 15.6808C20.9923 15.9257 20.7773 16.229 20.6368 16.5683C20.4963 16.9076 20.4339 17.2741 20.4543 17.6407L20.5253 18.9261C20.5442 19.27 20.4904 19.6139 20.3674 19.9355C20.2444 20.2571 20.055 20.5492 19.8114 20.7926C19.5679 21.036 19.2758 21.2253 18.9541 21.3482C18.6324 21.471 18.2884 21.5246 17.9446 21.5055L16.6605 21.4345C16.294 21.4144 15.9277 21.4768 15.5887 21.6173C15.2497 21.7578 14.9465 21.9727 14.7017 22.2462L13.8448 23.2035C13.6152 23.4602 13.3339 23.6655 13.0195 23.8061C12.7051 23.9467 12.3646 24.0193 12.0201 24.0193C11.6757 24.0193 11.3352 23.9467 11.0208 23.8061C10.7063 23.6655 10.4251 23.4602 10.1955 23.2035L9.33854 22.2462C9.09362 21.9726 8.7903 21.7576 8.45103 21.6171C8.11176 21.4766 7.74524 21.4142 7.3786 21.4345L6.09319 21.5055C5.74938 21.5245 5.40544 21.4707 5.08382 21.3477C4.76221 21.2247 4.47016 21.0352 4.22674 20.7917C3.98331 20.5482 3.794 20.256 3.67115 19.9344C3.5483 19.6127 3.49469 19.2687 3.5138 18.9249L3.58481 17.6407C3.60497 17.2743 3.54249 16.908 3.402 16.569C3.26151 16.2299 3.0466 15.9268 2.77316 15.682L1.81584 14.8251C1.55917 14.5954 1.35383 14.3142 1.21325 13.9998C1.07266 13.6854 1 13.3448 1 13.0004C1 12.656 1.07266 12.3155 1.21325 12.001C1.35383 11.6866 1.55917 11.4054 1.81584 11.1757L2.77316 10.3188C3.04677 10.0739 3.26178 9.77058 3.40227 9.43131C3.54277 9.09204 3.60515 8.72551 3.58481 8.35887L3.5138 7.07346C3.49503 6.72975 3.54894 6.38595 3.67202 6.06448C3.7951 5.74301 3.98458 5.45111 4.2281 5.20783C4.47162 4.96454 4.7637 4.77534 5.08528 4.65256C5.40686 4.52979 5.75072 4.4762 6.09441 4.4953L7.3786 4.56631C7.74504 4.58647 8.11133 4.52399 8.45037 4.3835C8.78941 4.24301 9.09253 4.0281 9.33731 3.75466L10.1955 2.79612Z" fill="#6E5EA8"/>
<path d="M10.1955 2.79611C10.4251 2.53964 10.7063 2.33448 11.0206 2.19402C11.3349 2.05356 11.6753 1.98096 12.0195 1.98096C12.3638 1.98096 12.7042 2.05356 13.0185 2.19402C13.3328 2.33448 13.6139 2.53964 13.8436 2.79611L14.7005 3.75344C14.9454 4.02704 15.2488 4.24205 15.588 4.38255C15.9273 4.52304 16.2938 4.58543 16.6605 4.56508L17.9459 4.49408C18.2897 4.47512 18.6336 4.5289 18.9552 4.6519C19.2768 4.7749 19.5689 4.96436 19.8123 5.20789C20.0557 5.45143 20.2451 5.74357 20.3679 6.06525C20.4908 6.38692 20.5444 6.73089 20.5253 7.07469L20.4543 8.35887C20.4341 8.72531 20.4966 9.0916 20.6371 9.43064C20.7775 9.76968 20.9925 10.0728 21.2659 10.3176L22.2232 11.1745C22.4799 11.4042 22.6852 11.6854 22.8258 11.9998C22.9664 12.3142 23.0391 12.6548 23.0391 12.9992C23.0391 13.3436 22.9664 13.6841 22.8258 13.9986C22.6852 14.313 22.4799 14.5942 22.2232 14.8239L21.2659 15.6808C20.9923 15.9257 20.7773 16.229 20.6368 16.5683C20.4963 16.9076 20.4339 17.2741 20.4543 17.6407L20.5253 18.9261C20.5442 19.27 20.4904 19.6139 20.3674 19.9355C20.2444 20.2571 20.055 20.5492 19.8114 20.7926C19.5679 21.036 19.2758 21.2253 18.9541 21.3482C18.6324 21.471 18.2884 21.5246 17.9446 21.5055L16.6605 21.4345C16.294 21.4144 15.9277 21.4768 15.5887 21.6173C15.2497 21.7578 14.9465 21.9727 14.7017 22.2462L13.8448 23.2035C13.6152 23.4602 13.3339 23.6655 13.0195 23.8061C12.7051 23.9467 12.3646 24.0193 12.0201 24.0193C11.6757 24.0193 11.3352 23.9467 11.0208 23.8061C10.7063 23.6655 10.4251 23.4602 10.1955 23.2035L9.33854 22.2462C9.09362 21.9726 8.7903 21.7576 8.45103 21.6171C8.11177 21.4766 7.74524 21.4142 7.3786 21.4345L6.09319 21.5055C5.74938 21.5245 5.40544 21.4707 5.08382 21.3477C4.76221 21.2247 4.47016 21.0352 4.22674 20.7917C3.98331 20.5482 3.794 20.256 3.67115 19.9344C3.5483 19.6127 3.49469 19.2687 3.5138 18.9249L3.58481 17.6407C3.60497 17.2743 3.54249 16.908 3.402 16.569C3.26151 16.2299 3.0466 15.9268 2.77316 15.682L1.81584 14.8251C1.55917 14.5954 1.35383 14.3142 1.21325 13.9998C1.07266 13.6854 1 13.3448 1 13.0004C1 12.656 1.07266 12.3155 1.21325 12.001C1.35383 11.6866 1.55917 11.4054 1.81584 11.1757L2.77316 10.3188C3.04677 10.0739 3.26178 9.77057 3.40227 9.43131C3.54277 9.09204 3.60515 8.72551 3.58481 8.35887L3.5138 7.07346C3.49503 6.72975 3.54894 6.38595 3.67202 6.06448C3.7951 5.74301 3.98458 5.45111 4.2281 5.20783C4.47162 4.96454 4.7637 4.77534 5.08528 4.65256C5.40686 4.52979 5.75072 4.4762 6.09441 4.4953L7.3786 4.56631C7.74504 4.58647 8.11133 4.52399 8.45037 4.3835C8.78941 4.24301 9.09253 4.0281 9.33731 3.75466L10.1955 2.79611Z" stroke="#6E5EA8" stroke-width="2"/>
<path d="M8.95898 9.93945H8.97123V9.9517H8.95898V9.93945ZM15.08 16.0604H15.0922V16.0727H15.08V16.0604Z" stroke="#6E5EA8" stroke-width="3" stroke-linejoin="round"/>
<path d="M15.6909 9.32764L8.3457 16.6728" stroke="#6E5EA8" stroke-width="2" stroke-linecap="round" stroke-linejoin="round"/>
</svg>
