<svg width="293" height="449" viewBox="0 0 293 449" fill="none" xmlns="http://www.w3.org/2000/svg">
<g opacity="0.32">
<rect opacity="0.203637" x="178.12" y="50.6343" width="256.271" height="256.271" rx="29" transform="rotate(30 178.12 50.6343)" fill="#D1C4E9"/>
<path fill-rule="evenodd" clip-rule="evenodd" d="M231.531 41.9974C227.803 38.2687 221.758 38.2687 218.029 41.9974C214.301 45.7251 214.301 51.7707 218.029 55.4994C221.758 59.2281 227.804 59.2272 231.531 55.4994C235.26 51.7707 235.26 45.726 231.531 41.9974Z" fill="#D1C4E9"/>
<path fill-rule="evenodd" clip-rule="evenodd" d="M172.948 100.582C169.22 96.8531 163.175 96.8531 159.446 100.582C155.718 104.31 155.718 110.355 159.446 114.084C163.175 117.813 169.221 117.812 172.948 114.084C176.677 110.355 176.677 104.311 172.948 100.582Z" fill="#D1C4E9"/>
<path fill-rule="evenodd" clip-rule="evenodd" d="M114.362 159.166C110.634 155.438 104.589 155.438 100.86 159.166C97.1316 162.895 97.1316 168.94 100.86 172.668C104.589 176.397 110.634 176.397 114.362 172.668C118.091 168.94 118.091 162.895 114.362 159.166Z" fill="#D1C4E9"/>
<path fill-rule="evenodd" clip-rule="evenodd" d="M55.7784 217.752C52.0497 214.024 46.0041 214.024 42.2763 217.752C38.5476 221.481 38.5476 227.526 42.2763 231.254C46.005 234.983 52.0497 234.983 55.7784 231.254C59.5061 227.527 59.5071 221.481 55.7784 217.752Z" fill="#D1C4E9"/>
<path fill-rule="evenodd" clip-rule="evenodd" d="M290.119 100.583C286.39 96.8544 280.346 96.8544 276.617 100.583C272.889 104.311 272.888 110.356 276.617 114.085C280.346 117.814 286.391 117.813 290.119 114.085C293.848 110.356 293.848 104.312 290.119 100.583Z" fill="#D1C4E9"/>
<path fill-rule="evenodd" clip-rule="evenodd" d="M231.534 159.168C227.806 155.439 221.761 155.439 218.032 159.168C214.304 162.896 214.303 168.941 218.032 172.67C221.761 176.399 227.806 176.398 231.534 172.67C235.263 168.941 235.263 162.896 231.534 159.168Z" fill="#D1C4E9"/>
<path fill-rule="evenodd" clip-rule="evenodd" d="M172.948 217.752C169.22 214.023 163.175 214.023 159.446 217.752C155.718 221.481 155.718 227.525 159.446 231.254C163.175 234.983 169.22 234.983 172.948 231.254C176.677 227.525 176.677 221.481 172.948 217.752Z" fill="#D1C4E9"/>
<path fill-rule="evenodd" clip-rule="evenodd" d="M114.362 276.336C110.634 272.608 104.588 272.609 100.86 276.336C97.1316 280.065 97.1316 286.11 100.86 289.839C104.589 293.567 110.634 293.567 114.362 289.839C118.09 286.111 118.091 280.065 114.362 276.336Z" fill="#D1C4E9"/>
<path fill-rule="evenodd" clip-rule="evenodd" d="M290.117 217.752C286.389 214.023 280.344 214.023 276.615 217.752C272.887 221.48 272.887 227.525 276.615 231.254C280.344 234.983 286.389 234.982 290.117 231.254C293.846 227.525 293.846 221.481 290.117 217.752Z" fill="#D1C4E9"/>
<path fill-rule="evenodd" clip-rule="evenodd" d="M231.531 276.336C227.803 272.607 221.758 272.607 218.029 276.336C214.301 280.065 214.301 286.109 218.029 289.838C221.758 293.567 227.803 293.567 231.531 289.838C235.26 286.109 235.26 280.065 231.531 276.336Z" fill="#D1C4E9"/>
<path fill-rule="evenodd" clip-rule="evenodd" d="M172.948 334.922C169.22 331.193 163.174 331.194 159.446 334.922C155.718 338.651 155.718 344.696 159.446 348.424C163.175 352.153 169.22 352.153 172.948 348.424C176.676 344.696 176.677 338.651 172.948 334.922Z" fill="#D1C4E9"/>
<path fill-rule="evenodd" clip-rule="evenodd" d="M290.117 334.922C286.389 331.193 280.344 331.193 276.615 334.922C272.887 338.651 272.887 344.696 276.615 348.424C280.344 352.153 286.389 352.153 290.117 348.424C293.846 344.696 293.846 338.651 290.117 334.922Z" fill="#D1C4E9"/>
<path fill-rule="evenodd" clip-rule="evenodd" d="M231.531 393.506C227.803 389.777 221.757 389.778 218.029 393.506C214.301 397.235 214.301 403.28 218.029 407.008C221.758 410.737 227.803 410.737 231.531 407.008C235.259 403.28 235.26 397.235 231.531 393.506Z" fill="#D1C4E9"/>
</g>
</svg>
