<svg width="35" height="35" viewBox="0 0 35 35" fill="none" xmlns="http://www.w3.org/2000/svg">
<g clip-path="url(#clip0_553_6747)">
<path d="M34.9999 13.6784H0V6.63814C0 6.30489 0.270224 6.03467 0.603475 6.03467H34.3965C34.7298 6.03467 35 6.30489 35 6.63814L34.9999 13.6784Z" fill="#FF4B55"/>
<path d="M34.3965 28.9654H0.603475C0.270224 28.9654 0 28.6952 0 28.362V21.3218H34.9999V28.362C34.9999 28.6953 34.7297 28.9654 34.3965 28.9654Z" fill="#464655"/>
<path d="M34.9999 13.6782H0V21.3215H34.9999V13.6782Z" fill="#F5F5F5"/>
<path d="M19.4259 16.3086C19.4259 16.0094 19.1327 15.798 18.8489 15.8927L18.3154 16.0705L18.1858 15.2882C18.1084 14.8216 17.7085 14.4829 17.2352 14.4829H16.7363L16.2144 15.1252H16.9055L16.7121 16.0803L16.1493 15.8928C15.8654 15.7981 15.5723 16.0094 15.5723 16.3086V19.554L16.349 18.7772L15.983 19.8752H15.5723V20.5175H19.4259V19.8752H19.0152L18.6493 18.7772L19.426 19.554V16.3086H19.4259ZM17.178 19.875H16.6603L17.0163 18.9242L17.178 19.1307V19.875ZM17.8202 19.875V19.1307L17.9819 18.9242L18.3379 19.875H17.8202ZM17.4991 18.7109C17.4991 18.7109 16.5056 18.0385 16.5458 16.7842C16.5458 16.7842 17.158 16.6838 17.4991 16.1419C17.8403 16.6837 18.4525 16.7842 18.4525 16.7842C18.4926 18.0386 17.4991 18.7109 17.4991 18.7109Z" fill="#F0C727"/>
</g>
<defs>
<clipPath id="clip0_553_6747">
<rect width="35" height="35" fill="white"/>
</clipPath>
</defs>
</svg>
