<svg width="633" height="633" viewBox="0 0 633 633" fill="none" xmlns="http://www.w3.org/2000/svg">
<path d="M451.387 450.966C525.833 376.979 525.833 257.021 451.387 183.034C376.942 109.046 256.241 109.046 181.796 183.034C107.35 257.021 107.35 376.979 181.796 450.966C256.241 524.954 376.942 524.954 451.387 450.966Z" stroke="white" stroke-opacity="0.3" stroke-width="0.9217" stroke-miterlimit="10" stroke-dasharray="5.53 5.53"/>
<path d="M474.75 474.75C562.149 387.351 562.149 245.649 474.75 158.25C387.351 70.8509 245.649 70.8509 158.25 158.25C70.8509 245.649 70.8509 387.351 158.25 474.75C245.649 562.149 387.351 562.149 474.75 474.75Z" stroke="white" stroke-opacity="0.7" stroke-width="0.9217" stroke-miterlimit="10" stroke-dasharray="5.53 5.53"/>
<circle cx="494.582" cy="436.875" r="33.7248" fill="#7373DD"/>
<circle cx="151.725" cy="169.725" r="33.7248" fill="white"/>
<path d="M139.065 164.659C138.457 164.659 137.937 164.571 137.505 164.395C137.073 164.219 136.741 163.939 136.509 163.555C136.285 163.163 136.173 162.647 136.173 162.007V156.247H137.133V162.031C137.133 162.663 137.301 163.119 137.637 163.399C137.981 163.671 138.457 163.807 139.065 163.807C139.705 163.807 140.197 163.671 140.541 163.399C140.885 163.119 141.057 162.663 141.057 162.031V156.247H142.017V162.007C142.017 162.639 141.901 163.151 141.669 163.543C141.445 163.935 141.113 164.219 140.673 164.395C140.233 164.571 139.697 164.659 139.065 164.659ZM143.175 164.539L145.731 160.483L143.175 156.247H144.267L146.331 159.763L148.419 156.247H149.451L146.907 160.447L149.451 164.539H148.359L146.307 161.131L144.207 164.539H143.175ZM150.886 164.719L150.046 164.419L153.43 156.031L154.27 156.343L150.886 164.719ZM158.483 164.659C157.875 164.659 157.355 164.571 156.923 164.395C156.491 164.219 156.159 163.939 155.927 163.555C155.703 163.163 155.591 162.647 155.591 162.007V156.247H156.551V162.031C156.551 162.663 156.719 163.119 157.055 163.399C157.399 163.671 157.875 163.807 158.483 163.807C159.123 163.807 159.615 163.671 159.959 163.399C160.303 163.119 160.475 162.663 160.475 162.031V156.247H161.435V162.007C161.435 162.639 161.319 163.151 161.087 163.543C160.863 163.935 160.531 164.219 160.091 164.395C159.651 164.571 159.115 164.659 158.483 164.659ZM163.385 164.539V156.247H164.345V164.539H163.385ZM130.18 186.539V178.247H133.144C133.752 178.247 134.256 178.347 134.656 178.547C135.056 178.739 135.372 179.015 135.604 179.375C135.836 179.727 136 180.151 136.096 180.647C136.192 181.135 136.24 181.675 136.24 182.267C136.24 182.867 136.192 183.427 136.096 183.947C136.008 184.459 135.848 184.911 135.616 185.303C135.384 185.695 135.068 185.999 134.668 186.215C134.268 186.431 133.76 186.539 133.144 186.539H130.18ZM131.14 185.687H133.144C133.576 185.687 133.928 185.595 134.2 185.411C134.472 185.227 134.684 184.975 134.836 184.655C134.988 184.335 135.092 183.971 135.148 183.563C135.212 183.155 135.244 182.723 135.244 182.267C135.244 181.819 135.212 181.403 135.148 181.019C135.092 180.635 134.988 180.299 134.836 180.011C134.684 179.723 134.472 179.499 134.2 179.339C133.928 179.179 133.576 179.099 133.144 179.099H131.14V185.687ZM139.883 186.659C139.283 186.659 138.807 186.543 138.455 186.311C138.111 186.079 137.863 185.735 137.711 185.279C137.559 184.823 137.483 184.255 137.483 183.575C137.483 182.815 137.587 182.207 137.795 181.751C138.003 181.287 138.295 180.951 138.671 180.743C139.047 180.527 139.491 180.419 140.003 180.419C140.803 180.419 141.407 180.643 141.815 181.091C142.223 181.531 142.427 182.243 142.427 183.227L142.379 183.935H138.431C138.439 184.559 138.555 185.031 138.779 185.351C139.003 185.671 139.407 185.831 139.991 185.831C140.215 185.831 140.459 185.827 140.723 185.819C140.995 185.803 141.263 185.787 141.527 185.771C141.791 185.755 142.015 185.739 142.199 185.723L142.223 186.455C142.031 186.487 141.795 186.519 141.515 186.551C141.243 186.583 140.963 186.607 140.675 186.623C140.387 186.647 140.123 186.659 139.883 186.659ZM138.431 183.179H141.491C141.491 182.443 141.371 181.931 141.131 181.643C140.899 181.347 140.523 181.199 140.003 181.199C139.499 181.199 139.111 181.351 138.839 181.655C138.567 181.959 138.431 182.467 138.431 183.179ZM145.689 186.659C145.505 186.659 145.281 186.647 145.017 186.623C144.761 186.599 144.505 186.571 144.249 186.539C143.993 186.499 143.765 186.463 143.565 186.431L143.613 185.627C143.813 185.651 144.037 185.679 144.285 185.711C144.541 185.743 144.789 185.771 145.029 185.795C145.269 185.811 145.461 185.819 145.605 185.819C145.933 185.819 146.205 185.791 146.421 185.735C146.637 185.671 146.801 185.567 146.913 185.423C147.025 185.279 147.081 185.075 147.081 184.811C147.081 184.611 147.037 184.455 146.949 184.343C146.869 184.231 146.713 184.139 146.481 184.067C146.257 183.995 145.929 183.927 145.497 183.863C145.049 183.791 144.673 183.703 144.369 183.599C144.073 183.487 143.853 183.323 143.709 183.107C143.565 182.891 143.493 182.583 143.493 182.183C143.493 181.735 143.597 181.383 143.805 181.127C144.013 180.871 144.281 180.691 144.609 180.587C144.945 180.475 145.293 180.419 145.653 180.419C145.877 180.419 146.121 180.431 146.385 180.455C146.657 180.479 146.921 180.511 147.177 180.551C147.433 180.583 147.653 180.615 147.837 180.647L147.813 181.451C147.621 181.419 147.397 181.391 147.141 181.367C146.885 181.335 146.629 181.311 146.373 181.295C146.117 181.271 145.893 181.259 145.701 181.259C145.461 181.259 145.245 181.287 145.053 181.343C144.861 181.391 144.709 181.479 144.597 181.607C144.485 181.735 144.429 181.915 144.429 182.147C144.429 182.323 144.469 182.467 144.549 182.579C144.629 182.683 144.781 182.771 145.005 182.843C145.229 182.915 145.553 182.987 145.977 183.059C146.473 183.139 146.869 183.239 147.165 183.359C147.469 183.479 147.689 183.647 147.825 183.863C147.961 184.079 148.029 184.383 148.029 184.775C148.029 185.479 147.821 185.971 147.405 186.251C146.989 186.523 146.417 186.659 145.689 186.659ZM149.407 186.539V180.539H150.331V186.539H149.407ZM149.407 179.219V178.139H150.331V179.219H149.407ZM154.371 189.359C153.747 189.359 153.243 189.303 152.859 189.191C152.483 189.087 152.207 188.903 152.031 188.639C151.863 188.375 151.779 188.015 151.779 187.559C151.779 187.327 151.815 187.127 151.887 186.959C151.959 186.799 152.063 186.651 152.199 186.515C152.343 186.371 152.519 186.223 152.727 186.071C152.623 185.991 152.539 185.879 152.475 185.735C152.419 185.583 152.391 185.415 152.391 185.231C152.391 185.143 152.435 185.003 152.523 184.811C152.619 184.611 152.711 184.435 152.799 184.283C152.631 184.203 152.475 184.095 152.331 183.959C152.195 183.815 152.083 183.623 151.995 183.383C151.907 183.143 151.863 182.839 151.863 182.471C151.863 181.735 152.071 181.211 152.487 180.899C152.903 180.579 153.443 180.419 154.107 180.419C154.323 180.419 154.551 180.435 154.791 180.467C155.031 180.499 155.219 180.535 155.355 180.575L157.143 180.527V181.319L156.015 181.295C156.127 181.407 156.219 181.555 156.291 181.739C156.371 181.923 156.411 182.167 156.411 182.471C156.411 182.991 156.323 183.399 156.147 183.695C155.971 183.991 155.711 184.199 155.367 184.319C155.023 184.439 154.591 184.499 154.071 184.499C154.015 184.499 153.919 184.495 153.783 184.487C153.655 184.471 153.559 184.459 153.495 184.451C153.447 184.563 153.399 184.691 153.351 184.835C153.303 184.979 153.279 185.079 153.279 185.135C153.279 185.287 153.307 185.403 153.363 185.483C153.419 185.563 153.547 185.615 153.747 185.639C153.955 185.663 154.279 185.675 154.719 185.675C155.295 185.675 155.755 185.723 156.099 185.819C156.443 185.915 156.687 186.091 156.831 186.347C156.983 186.595 157.059 186.959 157.059 187.439C157.059 188.119 156.823 188.607 156.351 188.903C155.879 189.207 155.219 189.359 154.371 189.359ZM154.383 188.567C154.975 188.567 155.411 188.483 155.691 188.315C155.971 188.147 156.111 187.871 156.111 187.487C156.111 187.191 156.063 186.971 155.967 186.827C155.879 186.691 155.727 186.599 155.511 186.551C155.295 186.511 155.007 186.491 154.647 186.491C154.575 186.491 154.475 186.491 154.347 186.491C154.219 186.483 154.087 186.479 153.951 186.479C153.815 186.471 153.691 186.463 153.579 186.455C153.475 186.447 153.403 186.443 153.363 186.443C153.115 186.619 152.943 186.775 152.847 186.911C152.751 187.055 152.703 187.243 152.703 187.475C152.703 187.739 152.751 187.951 152.847 188.111C152.943 188.271 153.111 188.387 153.351 188.459C153.599 188.531 153.943 188.567 154.383 188.567ZM154.107 183.755C154.603 183.755 154.955 183.659 155.163 183.467C155.371 183.267 155.475 182.935 155.475 182.471C155.475 182.007 155.371 181.675 155.163 181.475C154.955 181.275 154.603 181.175 154.107 181.175C153.643 181.175 153.307 181.275 153.099 181.475C152.899 181.675 152.799 182.007 152.799 182.471C152.799 182.935 152.899 183.267 153.099 183.467C153.307 183.659 153.643 183.755 154.107 183.755ZM158.231 186.539V180.539H159.155V180.959C159.291 180.879 159.459 180.799 159.659 180.719C159.867 180.639 160.087 180.571 160.319 180.515C160.551 180.451 160.775 180.419 160.991 180.419C161.543 180.419 161.963 180.519 162.251 180.719C162.547 180.911 162.751 181.223 162.863 181.655C162.975 182.087 163.031 182.655 163.031 183.359V186.539H162.095V183.395C162.095 182.875 162.063 182.459 161.999 182.147C161.943 181.835 161.823 181.611 161.639 181.475C161.463 181.331 161.191 181.259 160.823 181.259C160.623 181.259 160.415 181.283 160.199 181.331C159.991 181.371 159.795 181.427 159.611 181.499C159.427 181.563 159.275 181.627 159.155 181.691V186.539H158.231ZM166.812 186.659C166.212 186.659 165.736 186.543 165.384 186.311C165.04 186.079 164.792 185.735 164.64 185.279C164.488 184.823 164.412 184.255 164.412 183.575C164.412 182.815 164.516 182.207 164.724 181.751C164.932 181.287 165.224 180.951 165.6 180.743C165.976 180.527 166.42 180.419 166.932 180.419C167.732 180.419 168.336 180.643 168.744 181.091C169.152 181.531 169.356 182.243 169.356 183.227L169.308 183.935H165.36C165.368 184.559 165.484 185.031 165.708 185.351C165.932 185.671 166.336 185.831 166.92 185.831C167.144 185.831 167.388 185.827 167.652 185.819C167.924 185.803 168.192 185.787 168.456 185.771C168.72 185.755 168.944 185.739 169.128 185.723L169.152 186.455C168.96 186.487 168.724 186.519 168.444 186.551C168.172 186.583 167.892 186.607 167.604 186.623C167.316 186.647 167.052 186.659 166.812 186.659ZM165.36 183.179H168.42C168.42 182.443 168.3 181.931 168.06 181.643C167.828 181.347 167.452 181.199 166.932 181.199C166.428 181.199 166.04 181.351 165.768 181.655C165.496 181.959 165.36 182.467 165.36 183.179ZM170.747 186.539V180.539H171.671V181.343C171.823 181.239 172.015 181.127 172.247 181.007C172.479 180.879 172.735 180.759 173.015 180.647C173.295 180.535 173.575 180.455 173.855 180.407V181.355C173.583 181.411 173.307 181.487 173.027 181.583C172.747 181.671 172.487 181.767 172.247 181.871C172.015 181.975 171.823 182.067 171.671 182.147V186.539H170.747Z" fill="#403C73"/>
<path d="M473.963 430V421.708H476.987C477.531 421.708 477.983 421.78 478.343 421.924C478.711 422.068 478.987 422.296 479.171 422.608C479.363 422.92 479.459 423.324 479.459 423.82C479.459 424.172 479.415 424.472 479.327 424.72C479.247 424.96 479.131 425.16 478.979 425.32C478.827 425.48 478.639 425.616 478.415 425.728C478.655 425.808 478.871 425.924 479.063 426.076C479.263 426.228 479.419 426.432 479.531 426.688C479.651 426.944 479.711 427.272 479.711 427.672C479.711 428.104 479.651 428.472 479.531 428.776C479.411 429.072 479.235 429.312 479.003 429.496C478.779 429.672 478.507 429.8 478.187 429.88C477.875 429.96 477.523 430 477.131 430H473.963ZM474.923 429.16H477.095C477.431 429.16 477.719 429.116 477.959 429.028C478.207 428.94 478.399 428.788 478.535 428.572C478.671 428.348 478.739 428.036 478.739 427.636C478.739 427.324 478.679 427.072 478.559 426.88C478.447 426.688 478.303 426.544 478.127 426.448C477.951 426.352 477.767 426.288 477.575 426.256C477.383 426.224 477.207 426.208 477.047 426.208H474.923V429.16ZM474.923 425.368H477.035C477.547 425.368 477.915 425.248 478.139 425.008C478.371 424.76 478.487 424.392 478.487 423.904C478.487 423.432 478.359 423.088 478.103 422.872C477.855 422.656 477.471 422.548 476.951 422.548H474.923V425.368ZM482.51 430.12C481.958 430.12 481.538 429.964 481.25 429.652C480.962 429.34 480.818 428.884 480.818 428.284C480.818 427.892 480.886 427.572 481.022 427.324C481.158 427.076 481.362 426.888 481.634 426.76C481.914 426.624 482.258 426.54 482.666 426.508L484.514 426.328V425.812C484.514 425.404 484.422 425.116 484.238 424.948C484.062 424.78 483.798 424.696 483.446 424.696C483.246 424.696 483.006 424.704 482.726 424.72C482.454 424.736 482.182 424.756 481.91 424.78C481.638 424.804 481.398 424.828 481.19 424.852L481.142 424.144C481.334 424.104 481.566 424.064 481.838 424.024C482.11 423.984 482.394 423.952 482.69 423.928C482.986 423.896 483.258 423.88 483.506 423.88C483.962 423.88 484.334 423.952 484.622 424.096C484.91 424.232 485.118 424.444 485.246 424.732C485.382 425.012 485.45 425.372 485.45 425.812V428.848C485.466 429.024 485.534 429.152 485.654 429.232C485.782 429.312 485.942 429.364 486.134 429.388L486.098 430.12C485.922 430.12 485.762 430.108 485.618 430.084C485.474 430.068 485.338 430.04 485.21 430C485.106 429.96 485.006 429.912 484.91 429.856C484.822 429.8 484.734 429.732 484.646 429.652C484.494 429.716 484.298 429.784 484.058 429.856C483.826 429.928 483.574 429.988 483.302 430.036C483.038 430.092 482.774 430.12 482.51 430.12ZM482.666 429.34C482.882 429.34 483.106 429.32 483.338 429.28C483.57 429.24 483.79 429.192 483.998 429.136C484.206 429.08 484.378 429.028 484.514 428.98V427.024L482.774 427.192C482.414 427.224 482.154 427.328 481.994 427.504C481.842 427.68 481.766 427.932 481.766 428.26C481.766 428.596 481.842 428.86 481.994 429.052C482.146 429.244 482.37 429.34 482.666 429.34ZM489.445 430.12C488.813 430.12 488.317 430.016 487.957 429.808C487.597 429.592 487.341 429.248 487.189 428.776C487.045 428.304 486.973 427.68 486.973 426.904C486.973 426.176 487.053 425.592 487.213 425.152C487.381 424.704 487.649 424.38 488.017 424.18C488.385 423.98 488.865 423.88 489.457 423.88C489.593 423.88 489.757 423.892 489.949 423.916C490.149 423.932 490.353 423.956 490.561 423.988C490.769 424.012 490.949 424.036 491.101 424.06L491.065 424.828C490.929 424.812 490.773 424.796 490.597 424.78C490.421 424.764 490.249 424.752 490.081 424.744C489.913 424.728 489.773 424.72 489.661 424.72C489.205 424.72 488.849 424.792 488.593 424.936C488.345 425.08 488.169 425.312 488.065 425.632C487.969 425.944 487.921 426.368 487.921 426.904C487.921 427.488 487.965 427.956 488.053 428.308C488.141 428.652 488.309 428.9 488.557 429.052C488.805 429.204 489.173 429.28 489.661 429.28C489.773 429.28 489.913 429.276 490.081 429.268C490.257 429.252 490.433 429.236 490.609 429.22C490.793 429.204 490.953 429.192 491.089 429.184L491.113 429.952C490.953 429.976 490.769 430 490.561 430.024C490.353 430.048 490.149 430.068 489.949 430.084C489.749 430.108 489.581 430.12 489.445 430.12ZM492.452 430V421.396H493.376V426.46L494.3 426.424L495.98 424H497.048L495.116 426.772L497.144 430H496.076L494.324 427.24L493.376 427.288V430H492.452ZM500.154 430.12C499.554 430.12 499.078 430.004 498.726 429.772C498.382 429.54 498.134 429.196 497.982 428.74C497.83 428.284 497.754 427.716 497.754 427.036C497.754 426.276 497.858 425.668 498.066 425.212C498.274 424.748 498.566 424.412 498.942 424.204C499.318 423.988 499.762 423.88 500.274 423.88C501.074 423.88 501.678 424.104 502.086 424.552C502.494 424.992 502.698 425.704 502.698 426.688L502.65 427.396H498.702C498.71 428.02 498.826 428.492 499.05 428.812C499.274 429.132 499.678 429.292 500.262 429.292C500.486 429.292 500.73 429.288 500.994 429.28C501.266 429.264 501.534 429.248 501.798 429.232C502.062 429.216 502.286 429.2 502.47 429.184L502.494 429.916C502.302 429.948 502.066 429.98 501.786 430.012C501.514 430.044 501.234 430.068 500.946 430.084C500.658 430.108 500.394 430.12 500.154 430.12ZM498.702 426.64H501.762C501.762 425.904 501.642 425.392 501.402 425.104C501.17 424.808 500.794 424.66 500.274 424.66C499.77 424.66 499.382 424.812 499.11 425.116C498.838 425.42 498.702 425.928 498.702 426.64ZM504.089 430V424H505.013V424.42C505.149 424.34 505.317 424.26 505.517 424.18C505.725 424.1 505.945 424.032 506.177 423.976C506.409 423.912 506.633 423.88 506.849 423.88C507.401 423.88 507.821 423.98 508.109 424.18C508.405 424.372 508.609 424.684 508.721 425.116C508.833 425.548 508.889 426.116 508.889 426.82V430H507.953V426.856C507.953 426.336 507.921 425.92 507.857 425.608C507.801 425.296 507.681 425.072 507.497 424.936C507.321 424.792 507.049 424.72 506.681 424.72C506.481 424.72 506.273 424.744 506.057 424.792C505.849 424.832 505.653 424.888 505.469 424.96C505.285 425.024 505.133 425.088 505.013 425.152V430H504.089ZM512.442 430.12C512.202 430.12 511.974 430.092 511.758 430.036C511.542 429.988 511.342 429.9 511.158 429.772C510.982 429.644 510.826 429.468 510.69 429.244C510.554 429.012 510.45 428.716 510.378 428.356C510.306 427.996 510.27 427.56 510.27 427.048C510.27 426.336 510.354 425.748 510.522 425.284C510.69 424.812 510.958 424.46 511.326 424.228C511.694 423.996 512.182 423.88 512.79 423.88C513.022 423.88 513.282 423.9 513.57 423.94C513.858 423.972 514.082 424.004 514.242 424.036V421.396H515.178V430H514.254V429.604C514.126 429.676 513.958 429.752 513.75 429.832C513.55 429.912 513.334 429.98 513.102 430.036C512.878 430.092 512.658 430.12 512.442 430.12ZM512.562 429.28C512.77 429.28 512.978 429.256 513.186 429.208C513.402 429.16 513.602 429.104 513.786 429.04C513.97 428.968 514.122 428.904 514.242 428.848V424.828C514.146 424.812 514.014 424.796 513.846 424.78C513.678 424.756 513.502 424.736 513.318 424.72C513.142 424.704 512.982 424.696 512.838 424.696C512.43 424.696 512.11 424.784 511.878 424.96C511.646 425.136 511.478 425.4 511.374 425.752C511.278 426.096 511.23 426.528 511.23 427.048C511.23 427.528 511.266 427.916 511.338 428.212C511.41 428.5 511.506 428.724 511.626 428.884C511.754 429.036 511.898 429.14 512.058 429.196C512.218 429.252 512.386 429.28 512.562 429.28ZM469.92 452V443.708H472.884C473.492 443.708 473.996 443.808 474.396 444.008C474.796 444.2 475.112 444.476 475.344 444.836C475.576 445.188 475.74 445.612 475.836 446.108C475.932 446.596 475.98 447.136 475.98 447.728C475.98 448.328 475.932 448.888 475.836 449.408C475.748 449.92 475.588 450.372 475.356 450.764C475.124 451.156 474.808 451.46 474.408 451.676C474.008 451.892 473.5 452 472.884 452H469.92ZM470.88 451.148H472.884C473.316 451.148 473.668 451.056 473.94 450.872C474.212 450.688 474.424 450.436 474.576 450.116C474.728 449.796 474.832 449.432 474.888 449.024C474.952 448.616 474.984 448.184 474.984 447.728C474.984 447.28 474.952 446.864 474.888 446.48C474.832 446.096 474.728 445.76 474.576 445.472C474.424 445.184 474.212 444.96 473.94 444.8C473.668 444.64 473.316 444.56 472.884 444.56H470.88V451.148ZM479.623 452.12C479.023 452.12 478.547 452.004 478.195 451.772C477.851 451.54 477.603 451.196 477.451 450.74C477.299 450.284 477.223 449.716 477.223 449.036C477.223 448.276 477.327 447.668 477.535 447.212C477.743 446.748 478.035 446.412 478.411 446.204C478.787 445.988 479.231 445.88 479.743 445.88C480.543 445.88 481.147 446.104 481.555 446.552C481.963 446.992 482.167 447.704 482.167 448.688L482.119 449.396H478.171C478.179 450.02 478.295 450.492 478.519 450.812C478.743 451.132 479.147 451.292 479.731 451.292C479.955 451.292 480.199 451.288 480.463 451.28C480.735 451.264 481.003 451.248 481.267 451.232C481.531 451.216 481.755 451.2 481.939 451.184L481.963 451.916C481.771 451.948 481.535 451.98 481.255 452.012C480.983 452.044 480.703 452.068 480.415 452.084C480.127 452.108 479.863 452.12 479.623 452.12ZM478.171 448.64H481.231C481.231 447.904 481.111 447.392 480.871 447.104C480.639 446.808 480.263 446.66 479.743 446.66C479.239 446.66 478.851 446.812 478.579 447.116C478.307 447.42 478.171 447.928 478.171 448.64ZM484.591 452L482.911 446H483.919L485.287 451.196H485.743L487.159 446H488.119L486.439 452H484.591ZM491.306 452.12C490.706 452.12 490.23 452.004 489.878 451.772C489.534 451.54 489.286 451.196 489.134 450.74C488.982 450.284 488.906 449.716 488.906 449.036C488.906 448.276 489.01 447.668 489.218 447.212C489.426 446.748 489.718 446.412 490.094 446.204C490.47 445.988 490.914 445.88 491.426 445.88C492.226 445.88 492.83 446.104 493.238 446.552C493.646 446.992 493.85 447.704 493.85 448.688L493.802 449.396H489.854C489.862 450.02 489.978 450.492 490.202 450.812C490.426 451.132 490.83 451.292 491.414 451.292C491.638 451.292 491.882 451.288 492.146 451.28C492.418 451.264 492.686 451.248 492.95 451.232C493.214 451.216 493.438 451.2 493.622 451.184L493.646 451.916C493.454 451.948 493.218 451.98 492.938 452.012C492.666 452.044 492.386 452.068 492.098 452.084C491.81 452.108 491.546 452.12 491.306 452.12ZM489.854 448.64H492.914C492.914 447.904 492.794 447.392 492.554 447.104C492.322 446.808 491.946 446.66 491.426 446.66C490.922 446.66 490.534 446.812 490.262 447.116C489.99 447.42 489.854 447.928 489.854 448.64ZM495.313 452V443.396H496.237V452H495.313ZM500.346 452.12C499.674 452.12 499.15 452.004 498.774 451.772C498.406 451.54 498.146 451.188 497.994 450.716C497.85 450.244 497.778 449.648 497.778 448.928C497.778 448.24 497.858 447.672 498.018 447.224C498.186 446.776 498.458 446.44 498.834 446.216C499.21 445.992 499.714 445.88 500.346 445.88C500.986 445.88 501.494 445.992 501.87 446.216C502.246 446.44 502.514 446.776 502.674 447.224C502.842 447.672 502.926 448.24 502.926 448.928C502.926 449.648 502.85 450.244 502.698 450.716C502.554 451.188 502.294 451.54 501.918 451.772C501.55 452.004 501.026 452.12 500.346 452.12ZM500.346 451.316C500.81 451.316 501.158 451.236 501.39 451.076C501.622 450.908 501.774 450.648 501.846 450.296C501.926 449.944 501.966 449.488 501.966 448.928C501.966 448.376 501.918 447.936 501.822 447.608C501.726 447.28 501.562 447.044 501.33 446.9C501.098 446.756 500.77 446.684 500.346 446.684C499.93 446.684 499.602 446.756 499.362 446.9C499.13 447.044 498.966 447.28 498.87 447.608C498.774 447.936 498.726 448.376 498.726 448.928C498.726 449.488 498.762 449.944 498.834 450.296C498.914 450.648 499.07 450.908 499.302 451.076C499.534 451.236 499.882 451.316 500.346 451.316ZM504.393 454.652V446H505.317V446.432C505.445 446.352 505.605 446.272 505.797 446.192C505.997 446.104 506.209 446.032 506.433 445.976C506.657 445.912 506.873 445.88 507.081 445.88C507.841 445.88 508.397 446.124 508.749 446.612C509.101 447.092 509.277 447.864 509.277 448.928C509.277 449.712 509.185 450.34 509.001 450.812C508.825 451.276 508.541 451.612 508.149 451.82C507.765 452.02 507.265 452.12 506.649 452.12C506.401 452.12 506.149 452.104 505.893 452.072C505.645 452.04 505.453 452.012 505.317 451.988V454.652H504.393ZM506.601 451.304C507.033 451.304 507.373 451.224 507.621 451.064C507.877 450.904 508.057 450.652 508.161 450.308C508.265 449.956 508.317 449.496 508.317 448.928C508.317 448.12 508.197 447.552 507.957 447.224C507.717 446.888 507.381 446.72 506.949 446.72C506.757 446.72 506.557 446.744 506.349 446.792C506.149 446.84 505.957 446.9 505.773 446.972C505.589 447.036 505.437 447.104 505.317 447.176V451.184C505.445 451.2 505.633 451.224 505.881 451.256C506.129 451.288 506.369 451.304 506.601 451.304ZM512.857 452.12C512.257 452.12 511.781 452.004 511.429 451.772C511.085 451.54 510.837 451.196 510.685 450.74C510.533 450.284 510.457 449.716 510.457 449.036C510.457 448.276 510.561 447.668 510.769 447.212C510.977 446.748 511.269 446.412 511.645 446.204C512.021 445.988 512.465 445.88 512.977 445.88C513.777 445.88 514.381 446.104 514.789 446.552C515.197 446.992 515.401 447.704 515.401 448.688L515.353 449.396H511.405C511.413 450.02 511.529 450.492 511.753 450.812C511.977 451.132 512.381 451.292 512.965 451.292C513.189 451.292 513.433 451.288 513.697 451.28C513.969 451.264 514.237 451.248 514.501 451.232C514.765 451.216 514.989 451.2 515.173 451.184L515.197 451.916C515.005 451.948 514.769 451.98 514.489 452.012C514.217 452.044 513.937 452.068 513.649 452.084C513.361 452.108 513.097 452.12 512.857 452.12ZM511.405 448.64H514.465C514.465 447.904 514.345 447.392 514.105 447.104C513.873 446.808 513.497 446.66 512.977 446.66C512.473 446.66 512.085 446.812 511.813 447.116C511.541 447.42 511.405 447.928 511.405 448.64ZM516.792 452V446H517.716V446.804C517.868 446.7 518.06 446.588 518.292 446.468C518.524 446.34 518.78 446.22 519.06 446.108C519.34 445.996 519.62 445.916 519.9 445.868V446.816C519.628 446.872 519.352 446.948 519.072 447.044C518.792 447.132 518.532 447.228 518.292 447.332C518.06 447.436 517.868 447.528 517.716 447.608V452H516.792Z" fill="white" fill-opacity="0.7"/>
<circle cx="134.725" cy="436.725" r="33.7248" fill="#FFA631"/>
<path d="M111.528 431V422.708H116.508V423.56H112.488V426.752H115.884V427.604H112.488V431H111.528ZM117.442 431V425H118.366V425.804C118.518 425.7 118.71 425.588 118.942 425.468C119.174 425.34 119.43 425.22 119.71 425.108C119.99 424.996 120.27 424.916 120.55 424.868V425.816C120.278 425.872 120.002 425.948 119.722 426.044C119.442 426.132 119.182 426.228 118.942 426.332C118.71 426.436 118.518 426.528 118.366 426.608V431H117.442ZM123.789 431.12C123.117 431.12 122.593 431.004 122.217 430.772C121.849 430.54 121.589 430.188 121.437 429.716C121.293 429.244 121.221 428.648 121.221 427.928C121.221 427.24 121.301 426.672 121.461 426.224C121.629 425.776 121.901 425.44 122.277 425.216C122.653 424.992 123.157 424.88 123.789 424.88C124.429 424.88 124.937 424.992 125.313 425.216C125.689 425.44 125.957 425.776 126.117 426.224C126.285 426.672 126.369 427.24 126.369 427.928C126.369 428.648 126.293 429.244 126.141 429.716C125.997 430.188 125.737 430.54 125.361 430.772C124.993 431.004 124.469 431.12 123.789 431.12ZM123.789 430.316C124.253 430.316 124.601 430.236 124.833 430.076C125.065 429.908 125.217 429.648 125.289 429.296C125.369 428.944 125.409 428.488 125.409 427.928C125.409 427.376 125.361 426.936 125.265 426.608C125.169 426.28 125.005 426.044 124.773 425.9C124.541 425.756 124.213 425.684 123.789 425.684C123.373 425.684 123.045 425.756 122.805 425.9C122.573 426.044 122.409 426.28 122.313 426.608C122.217 426.936 122.169 427.376 122.169 427.928C122.169 428.488 122.205 428.944 122.277 429.296C122.357 429.648 122.513 429.908 122.745 430.076C122.977 430.236 123.325 430.316 123.789 430.316ZM127.837 431V425H128.761V425.42C128.897 425.34 129.065 425.26 129.265 425.18C129.473 425.1 129.693 425.032 129.925 424.976C130.157 424.912 130.381 424.88 130.597 424.88C131.149 424.88 131.569 424.98 131.857 425.18C132.153 425.372 132.357 425.684 132.469 426.116C132.581 426.548 132.637 427.116 132.637 427.82V431H131.701V427.856C131.701 427.336 131.669 426.92 131.605 426.608C131.549 426.296 131.429 426.072 131.245 425.936C131.069 425.792 130.797 425.72 130.429 425.72C130.229 425.72 130.021 425.744 129.805 425.792C129.597 425.832 129.401 425.888 129.217 425.96C129.033 426.024 128.881 426.088 128.761 426.152V431H127.837ZM136.227 431.132C135.811 431.132 135.479 431.068 135.231 430.94C134.991 430.812 134.819 430.592 134.715 430.28C134.611 429.96 134.559 429.512 134.559 428.936V425.804H133.707V425H134.559V423.164H135.483V425H137.367V425.804H135.483V428.66C135.483 429.084 135.499 429.416 135.531 429.656C135.571 429.888 135.651 430.052 135.771 430.148C135.891 430.244 136.079 430.292 136.335 430.292C136.415 430.292 136.519 430.288 136.647 430.28C136.775 430.272 136.903 430.264 137.031 430.256C137.167 430.24 137.287 430.228 137.391 430.22L137.451 431C137.275 431.024 137.067 431.052 136.827 431.084C136.587 431.116 136.387 431.132 136.227 431.132ZM140.59 431.12C139.99 431.12 139.514 431.004 139.162 430.772C138.818 430.54 138.57 430.196 138.418 429.74C138.266 429.284 138.19 428.716 138.19 428.036C138.19 427.276 138.294 426.668 138.502 426.212C138.71 425.748 139.002 425.412 139.378 425.204C139.754 424.988 140.198 424.88 140.71 424.88C141.51 424.88 142.114 425.104 142.522 425.552C142.93 425.992 143.134 426.704 143.134 427.688L143.086 428.396H139.138C139.146 429.02 139.262 429.492 139.486 429.812C139.71 430.132 140.114 430.292 140.698 430.292C140.922 430.292 141.166 430.288 141.43 430.28C141.702 430.264 141.97 430.248 142.234 430.232C142.498 430.216 142.722 430.2 142.906 430.184L142.93 430.916C142.738 430.948 142.502 430.98 142.222 431.012C141.95 431.044 141.67 431.068 141.382 431.084C141.094 431.108 140.83 431.12 140.59 431.12ZM139.138 427.64H142.198C142.198 426.904 142.078 426.392 141.838 426.104C141.606 425.808 141.23 425.66 140.71 425.66C140.206 425.66 139.818 425.812 139.546 426.116C139.274 426.42 139.138 426.928 139.138 427.64ZM144.524 431V425H145.448V425.42C145.584 425.34 145.752 425.26 145.952 425.18C146.16 425.1 146.38 425.032 146.612 424.976C146.844 424.912 147.068 424.88 147.284 424.88C147.836 424.88 148.256 424.98 148.544 425.18C148.84 425.372 149.044 425.684 149.156 426.116C149.268 426.548 149.324 427.116 149.324 427.82V431H148.388V427.856C148.388 427.336 148.356 426.92 148.292 426.608C148.236 426.296 148.116 426.072 147.932 425.936C147.756 425.792 147.484 425.72 147.116 425.72C146.916 425.72 146.708 425.744 146.492 425.792C146.284 425.832 146.088 425.888 145.904 425.96C145.72 426.024 145.568 426.088 145.448 426.152V431H144.524ZM152.877 431.12C152.637 431.12 152.409 431.092 152.193 431.036C151.977 430.988 151.777 430.9 151.593 430.772C151.417 430.644 151.261 430.468 151.125 430.244C150.989 430.012 150.885 429.716 150.813 429.356C150.741 428.996 150.705 428.56 150.705 428.048C150.705 427.336 150.789 426.748 150.957 426.284C151.125 425.812 151.393 425.46 151.761 425.228C152.129 424.996 152.617 424.88 153.225 424.88C153.457 424.88 153.717 424.9 154.005 424.94C154.293 424.972 154.517 425.004 154.677 425.036V422.396H155.613V431H154.689V430.604C154.561 430.676 154.393 430.752 154.185 430.832C153.985 430.912 153.769 430.98 153.537 431.036C153.313 431.092 153.093 431.12 152.877 431.12ZM152.997 430.28C153.205 430.28 153.413 430.256 153.621 430.208C153.837 430.16 154.037 430.104 154.221 430.04C154.405 429.968 154.557 429.904 154.677 429.848V425.828C154.581 425.812 154.449 425.796 154.281 425.78C154.113 425.756 153.937 425.736 153.753 425.72C153.577 425.704 153.417 425.696 153.273 425.696C152.865 425.696 152.545 425.784 152.313 425.96C152.081 426.136 151.913 426.4 151.809 426.752C151.713 427.096 151.665 427.528 151.665 428.048C151.665 428.528 151.701 428.916 151.773 429.212C151.845 429.5 151.941 429.724 152.061 429.884C152.189 430.036 152.333 430.14 152.493 430.196C152.653 430.252 152.821 430.28 152.997 430.28ZM108.92 453V444.708H111.884C112.492 444.708 112.996 444.808 113.396 445.008C113.796 445.2 114.112 445.476 114.344 445.836C114.576 446.188 114.74 446.612 114.836 447.108C114.932 447.596 114.98 448.136 114.98 448.728C114.98 449.328 114.932 449.888 114.836 450.408C114.748 450.92 114.588 451.372 114.356 451.764C114.124 452.156 113.808 452.46 113.408 452.676C113.008 452.892 112.5 453 111.884 453H108.92ZM109.88 452.148H111.884C112.316 452.148 112.668 452.056 112.94 451.872C113.212 451.688 113.424 451.436 113.576 451.116C113.728 450.796 113.832 450.432 113.888 450.024C113.952 449.616 113.984 449.184 113.984 448.728C113.984 448.28 113.952 447.864 113.888 447.48C113.832 447.096 113.728 446.76 113.576 446.472C113.424 446.184 113.212 445.96 112.94 445.8C112.668 445.64 112.316 445.56 111.884 445.56H109.88V452.148ZM118.623 453.12C118.023 453.12 117.547 453.004 117.195 452.772C116.851 452.54 116.603 452.196 116.451 451.74C116.299 451.284 116.223 450.716 116.223 450.036C116.223 449.276 116.327 448.668 116.535 448.212C116.743 447.748 117.035 447.412 117.411 447.204C117.787 446.988 118.231 446.88 118.743 446.88C119.543 446.88 120.147 447.104 120.555 447.552C120.963 447.992 121.167 448.704 121.167 449.688L121.119 450.396H117.171C117.179 451.02 117.295 451.492 117.519 451.812C117.743 452.132 118.147 452.292 118.731 452.292C118.955 452.292 119.199 452.288 119.463 452.28C119.735 452.264 120.003 452.248 120.267 452.232C120.531 452.216 120.755 452.2 120.939 452.184L120.963 452.916C120.771 452.948 120.535 452.98 120.255 453.012C119.983 453.044 119.703 453.068 119.415 453.084C119.127 453.108 118.863 453.12 118.623 453.12ZM117.171 449.64H120.231C120.231 448.904 120.111 448.392 119.871 448.104C119.639 447.808 119.263 447.66 118.743 447.66C118.239 447.66 117.851 447.812 117.579 448.116C117.307 448.42 117.171 448.928 117.171 449.64ZM123.591 453L121.911 447H122.919L124.287 452.196H124.743L126.159 447H127.119L125.439 453H123.591ZM130.306 453.12C129.706 453.12 129.23 453.004 128.878 452.772C128.534 452.54 128.286 452.196 128.134 451.74C127.982 451.284 127.906 450.716 127.906 450.036C127.906 449.276 128.01 448.668 128.218 448.212C128.426 447.748 128.718 447.412 129.094 447.204C129.47 446.988 129.914 446.88 130.426 446.88C131.226 446.88 131.83 447.104 132.238 447.552C132.646 447.992 132.85 448.704 132.85 449.688L132.802 450.396H128.854C128.862 451.02 128.978 451.492 129.202 451.812C129.426 452.132 129.83 452.292 130.414 452.292C130.638 452.292 130.882 452.288 131.146 452.28C131.418 452.264 131.686 452.248 131.95 452.232C132.214 452.216 132.438 452.2 132.622 452.184L132.646 452.916C132.454 452.948 132.218 452.98 131.938 453.012C131.666 453.044 131.386 453.068 131.098 453.084C130.81 453.108 130.546 453.12 130.306 453.12ZM128.854 449.64H131.914C131.914 448.904 131.794 448.392 131.554 448.104C131.322 447.808 130.946 447.66 130.426 447.66C129.922 447.66 129.534 447.812 129.262 448.116C128.99 448.42 128.854 448.928 128.854 449.64ZM134.313 453V444.396H135.237V453H134.313ZM139.346 453.12C138.674 453.12 138.15 453.004 137.774 452.772C137.406 452.54 137.146 452.188 136.994 451.716C136.85 451.244 136.778 450.648 136.778 449.928C136.778 449.24 136.858 448.672 137.018 448.224C137.186 447.776 137.458 447.44 137.834 447.216C138.21 446.992 138.714 446.88 139.346 446.88C139.986 446.88 140.494 446.992 140.87 447.216C141.246 447.44 141.514 447.776 141.674 448.224C141.842 448.672 141.926 449.24 141.926 449.928C141.926 450.648 141.85 451.244 141.698 451.716C141.554 452.188 141.294 452.54 140.918 452.772C140.55 453.004 140.026 453.12 139.346 453.12ZM139.346 452.316C139.81 452.316 140.158 452.236 140.39 452.076C140.622 451.908 140.774 451.648 140.846 451.296C140.926 450.944 140.966 450.488 140.966 449.928C140.966 449.376 140.918 448.936 140.822 448.608C140.726 448.28 140.562 448.044 140.33 447.9C140.098 447.756 139.77 447.684 139.346 447.684C138.93 447.684 138.602 447.756 138.362 447.9C138.13 448.044 137.966 448.28 137.87 448.608C137.774 448.936 137.726 449.376 137.726 449.928C137.726 450.488 137.762 450.944 137.834 451.296C137.914 451.648 138.07 451.908 138.302 452.076C138.534 452.236 138.882 452.316 139.346 452.316ZM143.393 455.652V447H144.317V447.432C144.445 447.352 144.605 447.272 144.797 447.192C144.997 447.104 145.209 447.032 145.433 446.976C145.657 446.912 145.873 446.88 146.081 446.88C146.841 446.88 147.397 447.124 147.749 447.612C148.101 448.092 148.277 448.864 148.277 449.928C148.277 450.712 148.185 451.34 148.001 451.812C147.825 452.276 147.541 452.612 147.149 452.82C146.765 453.02 146.265 453.12 145.649 453.12C145.401 453.12 145.149 453.104 144.893 453.072C144.645 453.04 144.453 453.012 144.317 452.988V455.652H143.393ZM145.601 452.304C146.033 452.304 146.373 452.224 146.621 452.064C146.877 451.904 147.057 451.652 147.161 451.308C147.265 450.956 147.317 450.496 147.317 449.928C147.317 449.12 147.197 448.552 146.957 448.224C146.717 447.888 146.381 447.72 145.949 447.72C145.757 447.72 145.557 447.744 145.349 447.792C145.149 447.84 144.957 447.9 144.773 447.972C144.589 448.036 144.437 448.104 144.317 448.176V452.184C144.445 452.2 144.633 452.224 144.881 452.256C145.129 452.288 145.369 452.304 145.601 452.304ZM151.857 453.12C151.257 453.12 150.781 453.004 150.429 452.772C150.085 452.54 149.837 452.196 149.685 451.74C149.533 451.284 149.457 450.716 149.457 450.036C149.457 449.276 149.561 448.668 149.769 448.212C149.977 447.748 150.269 447.412 150.645 447.204C151.021 446.988 151.465 446.88 151.977 446.88C152.777 446.88 153.381 447.104 153.789 447.552C154.197 447.992 154.401 448.704 154.401 449.688L154.353 450.396H150.405C150.413 451.02 150.529 451.492 150.753 451.812C150.977 452.132 151.381 452.292 151.965 452.292C152.189 452.292 152.433 452.288 152.697 452.28C152.969 452.264 153.237 452.248 153.501 452.232C153.765 452.216 153.989 452.2 154.173 452.184L154.197 452.916C154.005 452.948 153.769 452.98 153.489 453.012C153.217 453.044 152.937 453.068 152.649 453.084C152.361 453.108 152.097 453.12 151.857 453.12ZM150.405 449.64H153.465C153.465 448.904 153.345 448.392 153.105 448.104C152.873 447.808 152.497 447.66 151.977 447.66C151.473 447.66 151.085 447.812 150.813 448.116C150.541 448.42 150.405 448.928 150.405 449.64ZM155.792 453V447H156.716V447.804C156.868 447.7 157.06 447.588 157.292 447.468C157.524 447.34 157.78 447.22 158.06 447.108C158.34 446.996 158.62 446.916 158.9 446.868V447.816C158.628 447.872 158.352 447.948 158.072 448.044C157.792 448.132 157.532 448.228 157.292 448.332C157.06 448.436 156.868 448.528 156.716 448.608V453H155.792Z" fill="#333333" fill-opacity="0.8"/>
<circle cx="489.725" cy="178.725" r="33.7248" fill="#FF953A"/>
<path d="M470.006 174.452C469.766 174.452 469.486 174.436 469.166 174.404C468.846 174.38 468.526 174.348 468.206 174.308C467.894 174.26 467.618 174.22 467.378 174.188L467.474 173.396C467.706 173.42 467.974 173.448 468.278 173.48C468.59 173.512 468.894 173.54 469.19 173.564C469.494 173.588 469.75 173.6 469.958 173.6C470.542 173.6 470.978 173.468 471.266 173.204C471.554 172.94 471.698 172.528 471.698 171.968C471.698 171.664 471.638 171.424 471.518 171.248C471.406 171.064 471.214 170.92 470.942 170.816C470.678 170.704 470.322 170.604 469.874 170.516C469.298 170.396 468.818 170.256 468.434 170.096C468.058 169.928 467.774 169.692 467.582 169.388C467.398 169.084 467.306 168.672 467.306 168.152C467.306 167.616 467.414 167.184 467.63 166.856C467.854 166.528 468.166 166.288 468.566 166.136C468.974 165.984 469.446 165.908 469.982 165.908C470.222 165.908 470.494 165.924 470.798 165.956C471.11 165.98 471.414 166.012 471.71 166.052C472.014 166.084 472.274 166.12 472.49 166.16L472.406 166.964C472.174 166.932 471.906 166.904 471.602 166.88C471.298 166.848 471.006 166.82 470.726 166.796C470.446 166.772 470.222 166.76 470.054 166.76C469.47 166.76 469.026 166.868 468.722 167.084C468.426 167.3 468.278 167.636 468.278 168.092C468.278 168.444 468.342 168.712 468.47 168.896C468.606 169.08 468.822 169.224 469.118 169.328C469.414 169.432 469.802 169.54 470.282 169.652C470.698 169.748 471.054 169.852 471.35 169.964C471.654 170.076 471.902 170.216 472.094 170.384C472.294 170.544 472.438 170.748 472.526 170.996C472.622 171.236 472.67 171.536 472.67 171.896C472.67 172.504 472.562 172.996 472.346 173.372C472.13 173.748 471.822 174.024 471.422 174.2C471.022 174.368 470.55 174.452 470.006 174.452ZM476.402 174.464C475.73 174.464 475.206 174.348 474.83 174.116C474.462 173.884 474.202 173.532 474.05 173.06C473.906 172.588 473.834 171.992 473.834 171.272C473.834 170.584 473.914 170.016 474.074 169.568C474.242 169.12 474.514 168.784 474.89 168.56C475.266 168.336 475.77 168.224 476.402 168.224C477.042 168.224 477.55 168.336 477.926 168.56C478.302 168.784 478.57 169.12 478.73 169.568C478.898 170.016 478.982 170.584 478.982 171.272C478.982 171.992 478.906 172.588 478.754 173.06C478.61 173.532 478.35 173.884 477.974 174.116C477.606 174.348 477.082 174.464 476.402 174.464ZM476.402 173.66C476.866 173.66 477.214 173.58 477.446 173.42C477.678 173.252 477.83 172.992 477.902 172.64C477.982 172.288 478.022 171.832 478.022 171.272C478.022 170.72 477.974 170.28 477.878 169.952C477.782 169.624 477.618 169.388 477.386 169.244C477.154 169.1 476.826 169.028 476.402 169.028C475.986 169.028 475.658 169.1 475.418 169.244C475.186 169.388 475.022 169.624 474.926 169.952C474.83 170.28 474.782 170.72 474.782 171.272C474.782 171.832 474.818 172.288 474.89 172.64C474.97 172.992 475.126 173.252 475.358 173.42C475.59 173.58 475.938 173.66 476.402 173.66ZM480.655 174.344V169.148H479.899V168.344H480.655V167.816C480.655 167.24 480.707 166.792 480.811 166.472C480.915 166.152 481.087 165.932 481.327 165.812C481.567 165.684 481.883 165.62 482.275 165.62C482.371 165.62 482.503 165.624 482.671 165.632C482.839 165.64 483.003 165.652 483.163 165.668C483.323 165.676 483.435 165.688 483.499 165.704L483.487 166.484C483.343 166.476 483.167 166.472 482.959 166.472C482.759 166.464 482.595 166.46 482.467 166.46C482.243 166.46 482.067 166.5 481.939 166.58C481.811 166.652 481.719 166.788 481.663 166.988C481.615 167.188 481.591 167.468 481.591 167.828V168.344H483.319V169.148H481.591V174.344H480.655ZM486.355 174.476C485.939 174.476 485.607 174.412 485.359 174.284C485.119 174.156 484.947 173.936 484.843 173.624C484.739 173.304 484.687 172.856 484.687 172.28V169.148H483.835V168.344H484.687V166.508H485.611V168.344H487.495V169.148H485.611V172.004C485.611 172.428 485.627 172.76 485.659 173C485.699 173.232 485.779 173.396 485.899 173.492C486.019 173.588 486.207 173.636 486.463 173.636C486.543 173.636 486.647 173.632 486.775 173.624C486.903 173.616 487.031 173.608 487.159 173.6C487.295 173.584 487.415 173.572 487.519 173.564L487.579 174.344C487.403 174.368 487.195 174.396 486.955 174.428C486.715 174.46 486.515 174.476 486.355 174.476ZM489.518 174.344L488.102 168.344H489.038L490.214 173.54H490.418L491.822 168.464H492.794L494.198 173.54H494.402L495.578 168.344H496.514L495.098 174.344H493.55L492.302 169.7L491.066 174.344H489.518ZM498.996 174.464C498.444 174.464 498.024 174.308 497.736 173.996C497.448 173.684 497.304 173.228 497.304 172.628C497.304 172.236 497.372 171.916 497.508 171.668C497.644 171.42 497.848 171.232 498.12 171.104C498.4 170.968 498.744 170.884 499.152 170.852L501 170.672V170.156C501 169.748 500.908 169.46 500.724 169.292C500.548 169.124 500.284 169.04 499.932 169.04C499.732 169.04 499.492 169.048 499.212 169.064C498.94 169.08 498.668 169.1 498.396 169.124C498.124 169.148 497.884 169.172 497.676 169.196L497.628 168.488C497.82 168.448 498.052 168.408 498.324 168.368C498.596 168.328 498.88 168.296 499.176 168.272C499.472 168.24 499.744 168.224 499.992 168.224C500.448 168.224 500.82 168.296 501.108 168.44C501.396 168.576 501.604 168.788 501.732 169.076C501.868 169.356 501.936 169.716 501.936 170.156V173.192C501.952 173.368 502.02 173.496 502.14 173.576C502.268 173.656 502.428 173.708 502.62 173.732L502.584 174.464C502.408 174.464 502.248 174.452 502.104 174.428C501.96 174.412 501.824 174.384 501.696 174.344C501.592 174.304 501.492 174.256 501.396 174.2C501.308 174.144 501.22 174.076 501.132 173.996C500.98 174.06 500.784 174.128 500.544 174.2C500.312 174.272 500.06 174.332 499.788 174.38C499.524 174.436 499.26 174.464 498.996 174.464ZM499.152 173.684C499.368 173.684 499.592 173.664 499.824 173.624C500.056 173.584 500.276 173.536 500.484 173.48C500.692 173.424 500.864 173.372 501 173.324V171.368L499.26 171.536C498.9 171.568 498.64 171.672 498.48 171.848C498.328 172.024 498.252 172.276 498.252 172.604C498.252 172.94 498.328 173.204 498.48 173.396C498.632 173.588 498.856 173.684 499.152 173.684ZM503.712 174.344V168.344H504.636V169.148C504.788 169.044 504.98 168.932 505.212 168.812C505.444 168.684 505.7 168.564 505.98 168.452C506.26 168.34 506.54 168.26 506.82 168.212V169.16C506.548 169.216 506.272 169.292 505.992 169.388C505.712 169.476 505.452 169.572 505.212 169.676C504.98 169.78 504.788 169.872 504.636 169.952V174.344H503.712ZM509.879 174.464C509.279 174.464 508.803 174.348 508.451 174.116C508.107 173.884 507.859 173.54 507.707 173.084C507.555 172.628 507.479 172.06 507.479 171.38C507.479 170.62 507.583 170.012 507.791 169.556C507.999 169.092 508.291 168.756 508.667 168.548C509.043 168.332 509.487 168.224 509.999 168.224C510.799 168.224 511.403 168.448 511.811 168.896C512.219 169.336 512.423 170.048 512.423 171.032L512.375 171.74H508.427C508.435 172.364 508.551 172.836 508.775 173.156C508.999 173.476 509.403 173.636 509.987 173.636C510.211 173.636 510.455 173.632 510.719 173.624C510.991 173.608 511.259 173.592 511.523 173.576C511.787 173.56 512.011 173.544 512.195 173.528L512.219 174.26C512.027 174.292 511.791 174.324 511.511 174.356C511.239 174.388 510.959 174.412 510.671 174.428C510.383 174.452 510.119 174.464 509.879 174.464ZM508.427 170.984H511.487C511.487 170.248 511.367 169.736 511.127 169.448C510.895 169.152 510.519 169.004 509.999 169.004C509.495 169.004 509.107 169.156 508.835 169.46C508.563 169.764 508.427 170.272 508.427 170.984ZM476.725 196.344V188.916H474.193V188.052H480.193V188.916H477.685V196.344H476.725ZM482.556 196.464C481.956 196.464 481.48 196.348 481.128 196.116C480.784 195.884 480.536 195.54 480.384 195.084C480.232 194.628 480.156 194.06 480.156 193.38C480.156 192.62 480.26 192.012 480.468 191.556C480.676 191.092 480.968 190.756 481.344 190.548C481.72 190.332 482.164 190.224 482.676 190.224C483.476 190.224 484.08 190.448 484.488 190.896C484.896 191.336 485.1 192.048 485.1 193.032L485.052 193.74H481.104C481.112 194.364 481.228 194.836 481.452 195.156C481.676 195.476 482.08 195.636 482.664 195.636C482.888 195.636 483.132 195.632 483.396 195.624C483.668 195.608 483.936 195.592 484.2 195.576C484.464 195.56 484.688 195.544 484.872 195.528L484.896 196.26C484.704 196.292 484.468 196.324 484.188 196.356C483.916 196.388 483.636 196.412 483.348 196.428C483.06 196.452 482.796 196.464 482.556 196.464ZM481.104 192.984H484.164C484.164 192.248 484.044 191.736 483.804 191.448C483.572 191.152 483.196 191.004 482.676 191.004C482.172 191.004 481.784 191.156 481.512 191.46C481.24 191.764 481.104 192.272 481.104 192.984ZM488.363 196.464C488.179 196.464 487.955 196.452 487.691 196.428C487.435 196.404 487.179 196.376 486.923 196.344C486.667 196.304 486.439 196.268 486.239 196.236L486.287 195.432C486.487 195.456 486.711 195.484 486.959 195.516C487.215 195.548 487.463 195.576 487.703 195.6C487.943 195.616 488.135 195.624 488.279 195.624C488.607 195.624 488.879 195.596 489.095 195.54C489.311 195.476 489.475 195.372 489.587 195.228C489.699 195.084 489.755 194.88 489.755 194.616C489.755 194.416 489.711 194.26 489.623 194.148C489.543 194.036 489.387 193.944 489.155 193.872C488.931 193.8 488.603 193.732 488.171 193.668C487.723 193.596 487.347 193.508 487.043 193.404C486.747 193.292 486.527 193.128 486.383 192.912C486.239 192.696 486.167 192.388 486.167 191.988C486.167 191.54 486.271 191.188 486.479 190.932C486.687 190.676 486.955 190.496 487.283 190.392C487.619 190.28 487.967 190.224 488.327 190.224C488.551 190.224 488.795 190.236 489.059 190.26C489.331 190.284 489.595 190.316 489.851 190.356C490.107 190.388 490.327 190.42 490.511 190.452L490.487 191.256C490.295 191.224 490.071 191.196 489.815 191.172C489.559 191.14 489.303 191.116 489.047 191.1C488.791 191.076 488.567 191.064 488.375 191.064C488.135 191.064 487.919 191.092 487.727 191.148C487.535 191.196 487.383 191.284 487.271 191.412C487.159 191.54 487.103 191.72 487.103 191.952C487.103 192.128 487.143 192.272 487.223 192.384C487.303 192.488 487.455 192.576 487.679 192.648C487.903 192.72 488.227 192.792 488.651 192.864C489.147 192.944 489.543 193.044 489.839 193.164C490.143 193.284 490.363 193.452 490.499 193.668C490.635 193.884 490.703 194.188 490.703 194.58C490.703 195.284 490.495 195.776 490.079 196.056C489.663 196.328 489.091 196.464 488.363 196.464ZM494.049 196.476C493.633 196.476 493.301 196.412 493.053 196.284C492.813 196.156 492.641 195.936 492.537 195.624C492.433 195.304 492.381 194.856 492.381 194.28V191.148H491.529V190.344H492.381V188.508H493.305V190.344H495.189V191.148H493.305V194.004C493.305 194.428 493.321 194.76 493.353 195C493.393 195.232 493.473 195.396 493.593 195.492C493.713 195.588 493.901 195.636 494.157 195.636C494.237 195.636 494.341 195.632 494.469 195.624C494.597 195.616 494.725 195.608 494.853 195.6C494.989 195.584 495.109 195.572 495.213 195.564L495.273 196.344C495.097 196.368 494.889 196.396 494.649 196.428C494.409 196.46 494.209 196.476 494.049 196.476ZM498.412 196.464C497.812 196.464 497.336 196.348 496.984 196.116C496.64 195.884 496.392 195.54 496.24 195.084C496.088 194.628 496.012 194.06 496.012 193.38C496.012 192.62 496.116 192.012 496.324 191.556C496.532 191.092 496.824 190.756 497.2 190.548C497.576 190.332 498.02 190.224 498.532 190.224C499.332 190.224 499.936 190.448 500.344 190.896C500.752 191.336 500.956 192.048 500.956 193.032L500.908 193.74H496.96C496.968 194.364 497.084 194.836 497.308 195.156C497.532 195.476 497.936 195.636 498.52 195.636C498.744 195.636 498.988 195.632 499.252 195.624C499.524 195.608 499.792 195.592 500.056 195.576C500.32 195.56 500.544 195.544 500.728 195.528L500.752 196.26C500.56 196.292 500.324 196.324 500.044 196.356C499.772 196.388 499.492 196.412 499.204 196.428C498.916 196.452 498.652 196.464 498.412 196.464ZM496.96 192.984H500.02C500.02 192.248 499.9 191.736 499.66 191.448C499.428 191.152 499.052 191.004 498.532 191.004C498.028 191.004 497.64 191.156 497.368 191.46C497.096 191.764 496.96 192.272 496.96 192.984ZM502.346 196.344V190.344H503.27V191.148C503.422 191.044 503.614 190.932 503.846 190.812C504.078 190.684 504.334 190.564 504.614 190.452C504.894 190.34 505.174 190.26 505.454 190.212V191.16C505.182 191.216 504.906 191.292 504.626 191.388C504.346 191.476 504.086 191.572 503.846 191.676C503.614 191.78 503.422 191.872 503.27 191.952V196.344H502.346Z" fill="white" fill-opacity="0.7"/>
<path d="M197.906 404.92C195.8 404.92 193.893 404.533 192.186 403.76C190.48 402.987 189.133 401.907 188.146 400.52C187.16 399.133 186.666 397.547 186.666 395.76C186.666 395.2 186.706 394.467 186.786 393.56C186.893 392.627 187.013 391.6 187.146 390.48C187.306 389.333 187.48 388.187 187.666 387.04C187.853 385.867 188.026 384.76 188.186 383.72L191.266 384.2C190.973 386.04 190.706 387.747 190.466 389.32C190.253 390.867 190.08 392.2 189.946 393.32C189.84 394.413 189.786 395.227 189.786 395.76C189.786 396.987 190.12 398.067 190.786 399C191.48 399.96 192.44 400.707 193.666 401.24C194.893 401.8 196.306 402.08 197.906 402.08C199.506 402.08 200.88 401.827 202.026 401.32C203.173 400.813 204.053 400.107 204.666 399.2C205.28 398.293 205.586 397.227 205.586 396V375H208.706V396C208.706 397.867 208.213 399.467 207.226 400.8C206.266 402.133 204.973 403.147 203.346 403.84C201.72 404.56 199.906 404.92 197.906 404.92ZM196.186 375V371.4H199.306V375H196.186ZM213.307 395V392.16H232.867L231.107 393.96V366.32H234.227V395H213.307ZM219.707 392.16V372H222.787V392.16H219.707ZM241.289 395V366.32H244.369V395H241.289ZM285.34 395V392.16H289.66V395H285.34ZM270.46 395C266.487 395 263.514 394.307 261.54 392.92C259.567 391.533 258.58 389.387 258.58 386.48C258.58 385.84 258.62 385.147 258.7 384.4C258.807 383.653 258.927 382.933 259.06 382.24C259.194 381.52 259.314 380.907 259.42 380.4C259.527 379.867 259.594 379.507 259.62 379.32L262.66 379.88C262.58 380.307 262.46 380.893 262.3 381.64C262.167 382.387 262.034 383.187 261.9 384.04C261.767 384.893 261.7 385.707 261.7 386.48C261.7 387.813 261.98 388.907 262.54 389.76C263.1 390.587 264.02 391.2 265.3 391.6C266.58 391.973 268.3 392.16 270.46 392.16H283.66L282.22 393.32V366.32H285.34V395H270.46ZM289.66 395V392.16C290.007 392.16 290.22 392.293 290.3 392.56C290.407 392.8 290.46 393.133 290.46 393.56C290.46 393.987 290.407 394.333 290.3 394.6C290.22 394.867 290.007 395 289.66 395ZM270.1 381.16C269.674 380.627 269.34 380.107 269.1 379.6C268.887 379.093 268.78 378.56 268.78 378C268.78 377.227 268.967 376.533 269.34 375.92C269.74 375.307 270.26 374.827 270.9 374.48C271.54 374.133 272.234 373.96 272.98 373.96C273.407 373.96 273.834 374.027 274.26 374.16C274.687 374.267 275.06 374.427 275.38 374.64L274.34 376.44C274.127 376.307 273.914 376.227 273.7 376.2C273.514 376.147 273.314 376.12 273.1 376.12C272.487 376.12 271.994 376.293 271.62 376.64C271.274 376.987 271.1 377.44 271.1 378C271.1 378.347 271.167 378.68 271.3 379C271.46 379.32 271.687 379.667 271.98 380.04L270.1 381.16ZM268.02 381.16V379.04H275.9V381.16H268.02ZM310.916 395V392.16H315.236V395H310.916ZM289.676 395V392.16H309.876L307.796 393.96V376.48L309.436 377.84H302.636C301.089 377.84 299.889 378.027 299.036 378.4C298.209 378.773 297.636 379.48 297.316 380.52C296.996 381.533 296.836 383.027 296.836 385C296.836 386.973 296.996 388.48 297.316 389.52C297.636 390.533 298.209 391.227 299.036 391.6C299.889 391.973 301.089 392.16 302.636 392.16V394.2C300.316 394.2 298.502 393.92 297.196 393.36C295.916 392.773 295.009 391.813 294.476 390.48C293.969 389.12 293.716 387.293 293.716 385C293.716 382.707 293.969 380.827 294.476 379.36C295.009 377.867 295.916 376.773 297.196 376.08C298.502 375.36 300.316 375 302.636 375H310.916V395H289.676ZM289.676 395C289.329 395 289.116 394.867 289.036 394.6C288.929 394.333 288.876 393.987 288.876 393.56C288.876 393.133 288.929 392.8 289.036 392.56C289.116 392.293 289.329 392.16 289.676 392.16V395ZM315.236 395V392.16C315.582 392.16 315.796 392.293 315.876 392.56C315.982 392.8 316.036 393.133 316.036 393.56C316.036 393.987 315.982 394.333 315.876 394.6C315.796 394.867 315.582 395 315.236 395ZM298.956 371.4V367.8H302.076V371.4H298.956ZM304.436 371.4V367.8H307.556V371.4H304.436ZM315.223 395V392.16H320.983L319.543 393.32V375H322.663V395H315.223ZM315.223 395C314.876 395 314.663 394.867 314.583 394.6C314.476 394.333 314.423 393.987 314.423 393.56C314.423 393.133 314.476 392.8 314.583 392.56C314.663 392.293 314.876 392.16 315.223 392.16V395ZM316.823 402.2V398.6H319.943V402.2H316.823ZM322.303 402.2V398.6H325.423V402.2H322.303ZM335.97 395V392.16H341.09V395H335.97ZM329.45 403.84C329.103 403.84 328.743 403.813 328.37 403.76C327.97 403.733 327.583 403.707 327.21 403.68L327.57 400.84C327.943 400.867 328.29 400.893 328.61 400.92C328.93 400.973 329.21 401 329.45 401C330.703 401 331.717 400.52 332.49 399.56C333.263 398.627 333.65 397.32 333.65 395.64V375H336.77V395.64C336.77 397.267 336.45 398.693 335.81 399.92C335.197 401.173 334.343 402.133 333.25 402.8C332.157 403.493 330.89 403.84 329.45 403.84ZM341.09 395V392.16C341.437 392.16 341.65 392.293 341.73 392.56C341.837 392.8 341.89 393.133 341.89 393.56C341.89 393.987 341.837 394.333 341.73 394.6C341.65 394.867 341.437 395 341.09 395ZM341.082 395V392.16H361.282L359.202 393.96V376.48L360.842 377.84H354.042C352.495 377.84 351.295 378.027 350.442 378.4C349.615 378.773 349.042 379.48 348.722 380.52C348.402 381.533 348.242 383.027 348.242 385C348.242 386.973 348.402 388.48 348.722 389.52C349.042 390.533 349.615 391.227 350.442 391.6C351.295 391.973 352.495 392.16 354.042 392.16V394.2C351.722 394.2 349.909 393.92 348.602 393.36C347.322 392.773 346.415 391.813 345.882 390.48C345.375 389.12 345.122 387.293 345.122 385C345.122 382.707 345.375 380.827 345.882 379.36C346.415 377.867 347.322 376.773 348.602 376.08C349.909 375.36 351.722 375 354.042 375H362.322V395H341.082ZM341.082 395C340.735 395 340.522 394.867 340.442 394.6C340.335 394.333 340.282 393.987 340.282 393.56C340.282 393.133 340.335 392.8 340.442 392.56C340.522 392.293 340.735 392.16 341.082 392.16V395ZM353.082 371.4V367.8H356.202V371.4H353.082ZM387.008 404.92C384.901 404.92 382.995 404.533 381.288 403.76C379.581 402.987 378.235 401.907 377.248 400.52C376.261 399.133 375.768 397.547 375.768 395.76C375.768 395.2 375.808 394.467 375.888 393.56C375.995 392.627 376.115 391.6 376.248 390.48C376.408 389.333 376.581 388.187 376.768 387.04C376.955 385.867 377.128 384.76 377.288 383.72L380.368 384.2C380.075 386.04 379.808 387.747 379.568 389.32C379.355 390.867 379.181 392.2 379.048 393.32C378.941 394.413 378.888 395.227 378.888 395.76C378.888 396.987 379.221 398.067 379.888 399C380.581 399.96 381.541 400.707 382.768 401.24C383.995 401.8 385.408 402.08 387.008 402.08C388.608 402.08 389.981 401.827 391.128 401.32C392.275 400.813 393.155 400.107 393.768 399.2C394.381 398.293 394.688 397.227 394.688 396V375H397.808V396C397.808 397.867 397.315 399.467 396.328 400.8C395.368 402.133 394.075 403.147 392.448 403.84C390.821 404.56 389.008 404.92 387.008 404.92ZM385.288 375V371.4H388.408V375H385.288ZM419.609 395V392.16H423.929V395H419.609ZM410.129 403.84C409.195 403.84 408.195 403.76 407.129 403.6C406.089 403.467 404.942 403.267 403.689 403L404.169 400.48C405.582 400.667 406.755 400.8 407.689 400.88C408.649 400.96 409.462 401 410.129 401C412.342 401 413.955 400.573 414.969 399.72C415.982 398.893 416.489 397.68 416.489 396.08V376.8L418.089 377.84H411.329C409.782 377.84 408.582 378.027 407.729 378.4C406.902 378.773 406.329 379.48 406.009 380.52C405.689 381.533 405.529 383.027 405.529 385C405.529 386.973 405.689 388.48 406.009 389.52C406.329 390.533 406.902 391.227 407.729 391.6C408.582 391.973 409.782 392.16 411.329 392.16H416.489V395H411.329C409.009 395 407.195 394.653 405.889 393.96C404.609 393.24 403.702 392.147 403.169 390.68C402.662 389.187 402.409 387.293 402.409 385C402.409 382.707 402.662 380.827 403.169 379.36C403.702 377.867 404.609 376.773 405.889 376.08C407.195 375.36 409.009 375 411.329 375H419.609V396.04C419.609 397.693 419.222 399.107 418.449 400.28C417.702 401.453 416.622 402.333 415.209 402.92C413.795 403.533 412.102 403.84 410.129 403.84ZM423.929 395V392.16C424.275 392.16 424.489 392.293 424.569 392.56C424.675 392.8 424.729 393.133 424.729 393.56C424.729 393.987 424.675 394.333 424.569 394.6C424.489 394.867 424.275 395 423.929 395ZM423.934 395V392.16H443.934L442.814 393.16V386.04C442.814 384.6 442.614 383.413 442.214 382.48C441.84 381.52 441.267 380.813 440.494 380.36C439.747 379.88 438.8 379.64 437.654 379.64H428.934L426.654 376.2L428.374 372.88C428.694 372.293 429.027 371.693 429.374 371.08C429.72 370.467 430.147 369.76 430.654 368.96C431.16 368.16 431.8 367.187 432.574 366.04L435.174 367.6C434.4 368.773 433.774 369.747 433.294 370.52C432.814 371.293 432.4 371.96 432.054 372.52C431.734 373.08 431.427 373.64 431.134 374.2L429.134 378.04L428.334 376.8H437.654C439.334 376.8 440.707 377.093 441.774 377.68C442.867 378.24 443.707 378.987 444.294 379.92C444.907 380.853 445.334 381.867 445.574 382.96C445.814 384.027 445.934 385.053 445.934 386.04V395H423.934ZM423.934 395C423.587 395 423.374 394.867 423.294 394.6C423.187 394.333 423.134 393.987 423.134 393.56C423.134 393.133 423.187 392.8 423.294 392.56C423.374 392.293 423.587 392.16 423.934 392.16V395Z" fill="white"/>
<path d="M364.096 236.746C364.066 236.29 364.037 235.842 363.999 235.393C363.983 235.192 363.962 234.987 363.945 234.79C363.911 234.426 363.874 234.065 363.832 233.709C363.828 233.659 363.819 233.609 363.815 233.554C363.773 233.186 363.727 232.821 363.677 232.461C363.673 232.427 363.668 232.398 363.664 232.369C363.643 232.231 363.626 232.092 363.606 231.954C363.593 231.883 363.585 231.812 363.572 231.74C363.551 231.581 363.526 231.426 363.501 231.271C363.471 231.083 363.442 230.894 363.409 230.706C363.346 230.329 363.279 229.956 363.212 229.583C363.107 229.03 362.998 228.481 362.881 227.945C362.805 227.585 362.722 227.229 362.638 226.877C362.596 226.701 362.554 226.525 362.508 226.353C362.47 226.198 362.433 226.043 362.391 225.888C362.164 225.008 361.926 224.15 361.67 223.32C361.57 222.993 361.469 222.671 361.364 222.352C361.255 222.022 361.146 221.699 361.038 221.376C360.87 220.895 360.702 220.425 360.527 219.96C360.409 219.65 360.292 219.345 360.175 219.047C360.116 218.896 360.057 218.746 359.994 218.599C359.936 218.452 359.873 218.302 359.81 218.159C359.752 218.013 359.689 217.866 359.626 217.723C359.563 217.577 359.504 217.434 359.442 217.292C359.379 217.15 359.316 217.007 359.253 216.869C359.194 216.731 359.132 216.588 359.069 216.454C358.943 216.178 358.817 215.905 358.687 215.637C358.499 215.235 358.306 214.846 358.114 214.46C358.051 214.334 357.984 214.209 357.921 214.083C357.791 213.832 357.665 213.589 357.535 213.346C357.473 213.224 357.406 213.103 357.343 212.986C357.213 212.747 357.083 212.512 356.957 212.286C356.895 212.173 356.827 212.056 356.765 211.942C356.635 211.716 356.509 211.494 356.383 211.281C356.258 211.063 356.128 210.853 356.002 210.644C355.877 210.434 355.751 210.233 355.625 210.032C355.5 209.835 355.378 209.638 355.252 209.446C355.152 209.291 355.055 209.136 354.951 208.985C354.854 208.838 354.758 208.692 354.662 208.549C354.662 208.545 354.658 208.545 354.658 208.541C354.561 208.398 354.469 208.26 354.373 208.122C354.327 208.051 354.276 207.98 354.226 207.908C354.134 207.774 354.042 207.644 353.954 207.519C353.95 207.515 353.95 207.51 353.945 207.51C353.853 207.38 353.765 207.259 353.677 207.137C353.677 207.133 353.673 207.129 353.673 207.129C353.585 207.008 353.501 206.89 353.413 206.773C353.367 206.71 353.325 206.652 353.279 206.593C353.154 206.425 353.032 206.262 352.911 206.107C351.859 204.741 351.08 203.891 350.795 203.589C350.783 203.577 350.774 203.568 350.762 203.556C350.745 203.535 350.728 203.518 350.716 203.505C350.707 203.497 350.703 203.493 350.699 203.489C350.695 203.485 350.69 203.485 350.69 203.48L350.678 203.468L350.674 203.464C350.255 203.765 350.158 204.335 350.443 204.766C360.275 219.567 358.671 234.899 352.333 250.315C352.186 250.667 352.043 251.019 351.893 251.367C351.813 251.559 351.729 251.752 351.646 251.945C351.39 252.544 351.13 253.139 350.862 253.733C350.787 253.901 350.716 254.064 350.64 254.232C350.544 254.446 350.447 254.663 350.347 254.877C350.221 255.154 350.096 255.426 349.966 255.698C349.84 255.966 349.714 256.239 349.584 256.507C349.337 257.03 349.082 257.554 348.826 258.073C348.759 258.207 348.692 258.346 348.625 258.48C348.504 258.723 348.382 258.966 348.261 259.204C348.24 259.246 348.219 259.292 348.198 259.334C348.072 259.581 347.946 259.824 347.821 260.072C347.691 260.323 347.565 260.57 347.435 260.821C347.259 261.161 347.079 261.5 346.899 261.839C346.761 262.099 346.623 262.355 346.484 262.61C346.179 263.18 345.864 263.745 345.55 264.307C345.437 264.512 345.32 264.717 345.203 264.918C345.102 265.094 345.006 265.27 344.905 265.446C344.658 265.882 344.407 266.313 344.151 266.741C344.034 266.942 343.912 267.143 343.795 267.344C343.682 267.541 343.565 267.734 343.447 267.93C343.204 268.337 342.957 268.743 342.71 269.145C342.589 269.342 342.467 269.543 342.341 269.74C342.216 269.945 342.086 270.155 341.956 270.356C341.713 270.741 341.466 271.131 341.219 271.516C340.984 271.881 340.75 272.245 340.511 272.606C340.456 272.689 340.402 272.773 340.347 272.853C340.13 273.179 339.912 273.51 339.694 273.837C339.685 273.85 339.681 273.858 339.673 273.871C339.48 274.16 339.283 274.449 339.086 274.738C338.818 275.132 338.55 275.525 338.278 275.915C338.152 276.095 338.031 276.275 337.901 276.455C337.683 276.765 337.465 277.08 337.243 277.39C337.009 277.716 336.774 278.047 336.539 278.374C336.204 278.843 335.861 279.308 335.517 279.773C335.287 280.083 335.056 280.397 334.822 280.707C334.55 281.072 334.277 281.432 334.001 281.792C333.971 281.826 333.946 281.864 333.921 281.897C333.414 282.563 332.899 283.221 332.38 283.883C332.304 283.979 332.229 284.075 332.149 284.172C331.927 284.457 331.697 284.742 331.471 285.026C331.416 285.098 331.357 285.165 331.303 285.232C331.035 285.567 330.763 285.898 330.494 286.229C330.197 286.593 329.904 286.953 329.602 287.314C329.305 287.674 329.003 288.034 328.702 288.394C325.899 291.725 322.967 294.967 319.934 298.138C319.28 298.821 318.509 299.383 317.659 300.032C317.202 300.38 316.557 300.334 316.163 299.915C312.288 295.805 311.187 289.995 312.942 284.913C313.084 284.494 313.248 284.084 313.432 283.677C313.474 283.577 313.52 283.481 313.566 283.38C314.052 282.358 314.668 281.378 315.405 280.46C315.481 280.364 315.56 280.268 315.636 280.171C315.644 280.171 315.652 280.171 315.656 280.167C318.166 277.05 320.642 273.98 323.084 270.913C324.491 269.145 325.891 267.386 327.281 265.614C334.822 256.029 340.93 245.703 343.527 233.705C343.711 232.855 343.879 232 344.025 231.133C344.256 229.78 344.415 228.439 344.499 227.111C344.499 227.107 344.499 227.107 344.499 227.103C344.499 227.099 344.499 227.09 344.499 227.086C345.232 215.453 340.473 204.951 332.593 198.206C331.793 197.519 330.959 196.874 330.092 196.267C323.159 191.407 314.308 189.233 304.823 191.173C296.42 192.894 287.861 197.255 281.021 202.542C267.469 213.04 260.314 228.104 259.907 244.559C259.911 244.568 259.92 244.576 259.924 244.584C259.685 254.689 261.993 265.312 266.92 275.726C270.678 283.677 275.177 291.034 280.267 297.912C282.076 300.359 283.957 302.747 285.909 305.08C292.696 313.19 300.299 320.643 308.434 327.647C325.916 313.592 338.29 300.405 346.861 288.26C347.125 287.888 347.385 287.515 347.641 287.146C361.389 267.235 364.921 250.168 364.096 236.746ZM301.43 213.233C301.51 213.229 301.594 213.22 301.677 213.216C302.033 213.199 302.394 213.187 302.754 213.187C302.884 213.187 303.018 213.187 303.148 213.191C310.843 213.342 317.458 217.895 320.575 224.439C321.798 227.007 322.485 229.88 322.485 232.918C322.485 233.483 322.46 234.044 322.414 234.597C322.414 234.602 322.414 234.602 322.414 234.606C322.338 235.477 322.208 236.332 322.028 237.17C320.084 246.021 312.196 252.648 302.758 252.648C300.006 252.648 297.388 252.083 295.004 251.069C293.165 250.483 291.468 249.477 290.098 248.153C289.893 247.957 289.696 247.751 289.504 247.538C285.524 243.931 283.023 238.715 283.023 232.922C283.015 222.466 291.146 213.911 301.43 213.233ZM346.857 288.252C346.706 287.992 346.556 287.733 346.401 287.477C346.811 287.377 347.222 287.263 347.628 287.15C347.373 287.515 347.117 287.883 346.857 288.252Z" fill="#6E5EA9"/>
<path d="M351.381 301.687C343.92 311.016 335.286 319.495 326.149 327.576C325.316 328.309 324.47 329.025 323.598 329.746C319.87 332.808 314.483 332.758 310.788 329.653C310 328.992 309.213 328.325 308.433 327.651C300.298 320.643 292.695 313.194 285.908 305.084C283.956 302.751 282.075 300.363 280.266 297.916C282.8 287.23 290.072 278.382 299.741 273.707C300.038 273.561 300.34 273.422 300.642 273.288C305.17 271.248 310.193 270.117 315.48 270.117C318.094 270.117 320.645 270.394 323.104 270.922C320.662 273.988 318.186 277.063 315.677 280.175C315.668 280.175 315.66 280.18 315.656 280.18C315.58 280.276 315.501 280.372 315.425 280.469C314.688 281.386 314.076 282.366 313.586 283.388C313.54 283.485 313.494 283.585 313.452 283.686C313.268 284.092 313.104 284.503 312.962 284.922C311.203 290.003 312.308 295.818 316.183 299.923C316.577 300.342 317.222 300.388 317.679 300.04C318.529 299.395 319.3 298.83 319.954 298.151C322.987 294.98 325.919 291.737 328.722 288.407C329.023 288.047 329.325 287.686 329.622 287.326C329.924 286.966 330.217 286.606 330.515 286.241C330.787 285.91 331.055 285.579 331.323 285.244C331.377 285.177 331.432 285.106 331.491 285.039C331.717 284.754 331.943 284.469 332.169 284.184C332.245 284.088 332.324 283.992 332.4 283.895C332.919 283.238 333.434 282.576 333.941 281.91C333.966 281.872 333.996 281.838 334.021 281.805C334.297 281.445 334.57 281.084 334.842 280.72C335.076 280.41 335.307 280.1 335.537 279.786C335.881 279.321 336.224 278.856 336.559 278.387C336.798 278.06 337.033 277.729 337.263 277.402C340.908 280.15 346.094 283.418 348.482 287.33C348.637 287.586 347.485 288.265 347.636 288.524C347.636 288.529 346.869 288.265 346.869 288.269C349.194 292.307 350.765 296.848 351.381 301.687Z" fill="#F4977E"/>
<path d="M344.515 225.276C344.515 225.28 344.515 225.289 344.515 225.293C344.515 225.293 344.515 225.297 344.515 225.301C344.49 227.224 344.31 229.185 343.97 231.166C343.84 231.92 343.698 232.666 343.543 233.407C340.988 245.548 334.838 255.974 327.226 265.651C326.246 266.895 325.262 268.14 324.277 269.384C323.942 269.807 323.603 270.23 323.263 270.653C320.746 273.82 318.195 276.987 315.601 280.204C315.593 280.204 315.585 280.209 315.58 280.209C315.505 280.305 315.425 280.401 315.35 280.498C314.613 281.415 313.997 282.395 313.511 283.417C313.49 283.405 313.469 283.392 313.448 283.38C313.281 283.292 313.121 283.2 312.958 283.107C308.275 280.477 304.106 277.042 300.646 272.986C300.34 272.63 300.039 272.266 299.745 271.897C294.425 265.266 290.932 257.11 290.022 248.187C291.397 249.51 293.093 250.516 294.928 251.102C297.307 252.12 299.93 252.682 302.682 252.682C312.238 252.682 320.205 245.891 322.023 236.868C322.279 235.603 322.413 234.291 322.413 232.951C322.413 232.901 322.413 232.85 322.413 232.8C322.413 232.796 322.413 232.796 322.413 232.792C322.392 229.817 321.709 226.998 320.507 224.476C317.336 217.82 310.549 213.224 302.686 213.224C302.242 213.224 301.802 213.241 301.367 213.266C301.471 213.149 301.576 213.036 301.685 212.918C302.163 212.395 302.653 211.884 303.155 211.385C310.784 203.79 321.102 198.889 332.551 198.244C340.003 204.624 344.662 214.38 344.515 225.276Z" fill="#9F92C6"/>
<path d="M370.998 266.879C370.027 269.694 368.95 272.429 367.773 275.094C363.479 284.804 357.874 293.568 351.376 301.686C343.916 311.016 335.282 319.494 326.145 327.575C325.312 328.308 324.465 329.025 323.594 329.745C319.866 332.807 314.478 332.757 310.784 329.653C309.996 328.991 309.208 328.321 308.429 327.651C308.425 327.651 308.425 327.646 308.421 327.646C325.902 313.592 338.277 300.4 346.848 288.256C347.108 287.887 347.367 287.519 347.619 287.154C361.837 266.569 365.134 249.024 363.986 235.401C363.969 235.2 363.948 234.995 363.931 234.798C363.898 234.434 363.86 234.073 363.818 233.717C363.814 233.667 363.806 233.617 363.801 233.562C363.755 233.194 363.714 232.829 363.663 232.469C363.659 232.435 363.655 232.406 363.651 232.377C363.63 232.239 363.613 232.1 363.592 231.962C363.579 231.891 363.571 231.82 363.559 231.748C363.538 231.593 363.512 231.434 363.487 231.279C363.458 231.091 363.429 230.902 363.395 230.714C363.332 230.337 363.265 229.964 363.198 229.595C363.094 229.042 362.985 228.493 362.867 227.957C362.792 227.597 362.708 227.241 362.624 226.889C362.582 226.713 362.541 226.537 362.494 226.365C362.457 226.21 362.419 226.055 362.377 225.9C362.151 225.021 361.912 224.162 361.657 223.332C361.556 223.006 361.456 222.683 361.351 222.365C361.242 222.038 361.133 221.711 361.024 221.389C360.857 220.907 360.685 220.438 360.513 219.973C360.396 219.663 360.278 219.361 360.161 219.059C360.102 218.909 360.044 218.758 359.981 218.611C359.922 218.465 359.86 218.314 359.797 218.171C359.738 218.025 359.675 217.878 359.612 217.736C359.55 217.589 359.491 217.447 359.428 217.304C359.365 217.162 359.302 217.019 359.24 216.881C359.181 216.743 359.118 216.6 359.055 216.466C358.93 216.19 358.804 215.918 358.674 215.649C358.485 215.247 358.293 214.858 358.1 214.472C358.037 214.347 357.97 214.221 357.907 214.095C357.777 213.844 357.652 213.601 357.522 213.358C357.459 213.237 357.392 213.115 357.329 212.998C357.199 212.759 357.07 212.524 356.944 212.298C356.881 212.185 356.814 212.068 356.751 211.955C356.621 211.728 356.496 211.506 356.37 211.293C356.244 211.075 356.114 210.865 355.989 210.656C355.863 210.447 355.737 210.245 355.612 210.044C355.486 209.848 355.365 209.651 355.239 209.458C355.138 209.303 355.038 209.148 354.937 208.997C354.841 208.85 354.745 208.704 354.648 208.561C354.648 208.557 354.644 208.553 354.644 208.553C354.548 208.411 354.455 208.272 354.359 208.134C354.313 208.063 354.263 207.992 354.213 207.92C354.12 207.786 354.028 207.657 353.94 207.531C353.936 207.527 353.936 207.527 353.932 207.523C353.84 207.393 353.752 207.271 353.664 207.15C353.664 207.145 353.66 207.145 353.66 207.141C353.572 207.02 353.488 206.903 353.4 206.785C353.354 206.722 353.312 206.664 353.266 206.605C353.14 206.438 353.019 206.274 352.897 206.119C351.846 204.749 351.066 203.903 350.782 203.606C350.769 203.593 350.761 203.585 350.748 203.572C350.731 203.551 350.715 203.534 350.702 203.522C350.694 203.518 350.689 203.509 350.685 203.505C350.681 203.501 350.677 203.497 350.677 203.497L350.664 203.484L350.66 203.48C350.656 203.472 350.652 203.472 350.652 203.472L350.664 203.459C351.029 203.195 351.527 203.229 351.862 203.53C355.67 206.99 359.914 210.103 363.027 214.099C375.51 230.089 377.504 248.027 370.998 266.879Z" fill="#F5A86E"/>
<path d="M370.999 266.879C370.027 269.694 368.95 272.43 367.773 275.094C362.311 280.724 355.398 284.943 347.64 287.142C347.636 287.142 347.632 287.146 347.628 287.146C347.221 287.263 346.811 287.372 346.4 287.473C342.827 288.378 339.082 288.859 335.224 288.859C333.016 288.859 330.842 288.7 328.718 288.394C329.019 288.034 329.321 287.674 329.618 287.314C329.92 286.953 330.213 286.593 330.511 286.229C330.783 285.898 331.051 285.567 331.319 285.232C331.374 285.165 331.428 285.093 331.487 285.026C331.713 284.742 331.939 284.457 332.165 284.172C332.241 284.075 332.32 283.979 332.396 283.883C332.915 283.225 333.431 282.563 333.937 281.897C333.963 281.859 333.992 281.826 334.017 281.792C334.294 281.432 334.566 281.072 334.838 280.707C335.073 280.397 335.303 280.087 335.534 279.773C335.877 279.308 336.221 278.843 336.556 278.374C336.794 278.047 337.029 277.716 337.259 277.39C337.481 277.08 337.699 276.765 337.917 276.455C338.043 276.275 338.168 276.095 338.294 275.919C338.566 275.53 338.835 275.136 339.103 274.742C339.3 274.453 339.496 274.164 339.689 273.875C339.698 273.862 339.706 273.85 339.71 273.841C339.932 273.515 340.15 273.184 340.364 272.857C340.418 272.773 340.473 272.689 340.527 272.61C340.766 272.249 341 271.885 341.235 271.521C341.482 271.135 341.729 270.75 341.972 270.36C342.102 270.155 342.232 269.95 342.358 269.744C342.479 269.547 342.605 269.346 342.726 269.15C342.973 268.747 343.221 268.345 343.464 267.939C343.581 267.746 343.698 267.549 343.811 267.352C343.933 267.151 344.05 266.95 344.167 266.749C344.419 266.318 344.67 265.886 344.921 265.455C345.022 265.279 345.122 265.103 345.219 264.927C345.336 264.722 345.449 264.52 345.567 264.315C345.881 263.754 346.195 263.188 346.501 262.619C346.639 262.363 346.777 262.108 346.915 261.848C347.096 261.508 347.276 261.173 347.452 260.83C347.582 260.583 347.711 260.331 347.841 260.08C347.967 259.837 348.093 259.59 348.218 259.343C348.239 259.301 348.26 259.255 348.281 259.213C348.403 258.97 348.524 258.727 348.646 258.484C348.713 258.35 348.78 258.216 348.842 258.078C349.098 257.558 349.349 257.039 349.601 256.511C349.731 256.243 349.856 255.975 349.982 255.702C350.112 255.43 350.237 255.158 350.363 254.881C350.459 254.668 350.56 254.45 350.656 254.236C350.732 254.069 350.807 253.905 350.878 253.738C351.142 253.143 351.406 252.548 351.662 251.949C351.746 251.756 351.825 251.563 351.909 251.371C352.056 251.019 352.202 250.671 352.349 250.319C358.687 234.903 360.291 219.567 350.459 204.771C350.175 204.339 350.271 203.765 350.69 203.468C350.686 203.459 350.681 203.459 350.681 203.459L350.694 203.447C351.059 203.183 351.557 203.216 351.892 203.518C355.7 206.978 359.944 210.091 363.056 214.087C375.511 230.09 377.505 248.028 370.999 266.879Z" fill="#F5C354"/>
<path d="M351.788 195.01C351.788 199.433 348.202 203.019 343.778 203.019C339.354 203.019 335.769 199.433 335.769 195.01C335.769 190.586 339.354 187 343.778 187C348.202 187 351.788 190.586 351.788 195.01Z" fill="#F5C354"/>
</svg>
