<svg width="713" height="821" viewBox="0 0 713 821" fill="none" xmlns="http://www.w3.org/2000/svg">
<g opacity="0.26">
<path d="M178.797 -10.6544C181.505 -11.5858 184.262 -12.391 187.02 -13.1963C188.159 -13.6495 189.524 -13.901 190.713 -14.2281C192.965 -14.8321 195.166 -15.562 197.291 -16.1156C197.544 -16.2163 197.924 -16.3674 198.177 -16.4681C200.428 -17.072 202.68 -17.6759 204.931 -18.2798C205.058 -18.3302 205.311 -18.4309 205.437 -18.4812C206.197 -18.7833 207.183 -18.8837 207.992 -19.0599C208.372 -19.2109 208.878 -19.4123 209.308 -19.4374C210.244 -19.6638 211.306 -19.9406 212.242 -20.167C213.431 -20.4941 214.67 -20.6953 215.733 -20.972C218.034 -21.45 220.462 -21.9782 222.764 -22.4562C226.305 -23.1352 229.719 -23.7639 233.133 -24.3927C235.485 -24.7446 237.66 -25.1721 239.885 -25.4737C240.998 -25.6245 242.11 -25.7753 243.223 -25.926C244.209 -26.0265 245.195 -26.1269 246.258 -26.4037C251.947 -27.208 257.61 -27.7099 262.97 -28.2371C265.119 -28.3623 267.218 -28.6136 269.367 -28.7388C271.515 -28.864 273.664 -28.9892 275.813 -29.1144C278.998 -29.214 282.183 -29.3136 285.368 -29.4133C287.39 -29.4882 289.463 -29.437 291.485 -29.5119C292.521 -29.4863 293.557 -29.4607 294.543 -29.5612C295.58 -29.5356 296.616 -29.51 297.602 -29.6105C298.638 -29.5849 299.548 -29.509 300.534 -29.6094C301.57 -29.5838 302.48 -29.5079 303.516 -29.4824C304.552 -29.4568 305.462 -29.3808 306.498 -29.3553C307.534 -29.3297 308.444 -29.2538 309.353 -29.1778C311.299 -29.0764 313.245 -28.9749 315.064 -28.823C317.92 -28.6456 320.649 -28.4179 323.378 -28.1901C324.287 -28.1142 325.197 -28.0382 326.107 -27.9623C327.926 -27.8105 329.619 -27.6083 331.312 -27.4061C332.221 -27.3302 333.004 -27.2039 333.914 -27.128C335.607 -26.9258 337.3 -26.7236 338.992 -26.5214C339.775 -26.3951 340.685 -26.3192 341.468 -26.193C343.034 -25.9404 344.727 -25.7382 346.293 -25.4857C347.86 -25.2331 349.426 -24.9807 350.992 -24.7281C352.558 -24.4756 353.998 -24.1726 355.388 -23.9957C356.827 -23.6929 358.267 -23.39 359.657 -23.2131C360.793 -22.9355 361.879 -22.7839 363.016 -22.5063C364.102 -22.3548 365.239 -22.0772 366.198 -21.8753C367.285 -21.7237 368.295 -21.3958 369.254 -21.1938C369.734 -21.0928 370.391 -20.9162 370.871 -20.8153C371.831 -20.6133 372.84 -20.2854 373.8 -20.0835C374.76 -19.8815 375.72 -19.6796 376.553 -19.4273C377.513 -19.2254 378.346 -18.9731 379.179 -18.7209C379.659 -18.6199 380.139 -18.5189 380.493 -18.3676C381.806 -18.0144 382.992 -17.6108 384.255 -17.3835C394.684 -14.3812 401.551 -11.859 403.974 -10.9258C403.974 -10.9258 404.101 -10.9762 404.151 -10.8502L404.504 -10.6989C403.685 -7.5999 400.646 -5.66076 397.463 -6.29186C287.794 -29.2108 201.533 15.912 125.797 88.9576C124.123 90.6452 122.273 92.2572 120.599 93.9448C119.661 94.902 118.722 95.8592 117.734 96.6904C114.792 99.6122 111.977 102.484 109.036 105.406C108.174 106.186 107.489 107.043 106.627 107.824C105.562 108.831 104.547 109.965 103.532 111.098C102.188 112.509 100.971 113.869 99.6264 115.28C98.2822 116.69 97.0645 118.05 95.8468 119.411C93.4115 122.131 90.7994 124.776 88.3641 127.496C87.7552 128.176 87.0199 128.907 86.411 129.587C85.3199 130.897 84.0521 132.131 82.961 133.441C82.7079 133.542 82.5551 133.894 82.3521 134.121C81.261 135.431 80.0434 136.791 78.9021 137.975C77.6844 139.335 76.5933 140.645 75.3756 142.005C73.7521 143.819 72.3052 145.708 70.6816 147.522C69.4639 148.882 68.2964 150.368 67.0788 151.729C64.4906 154.802 61.826 158.051 59.2379 161.125C58.2232 162.258 57.3851 163.467 56.4969 164.55C55.7353 165.583 54.9235 166.49 54.1618 167.523C52.2327 170.042 50.2534 172.435 48.3242 174.954C47.4861 176.163 46.4714 177.297 45.6333 178.506C44.7451 179.589 43.9071 180.798 43.0189 181.882C41.1661 184.224 39.3635 186.693 37.6373 188.985C36.7993 190.194 35.911 191.278 34.9464 192.537C33.9818 193.797 33.1438 195.006 32.1792 196.265C30.453 198.558 28.7769 200.976 27.0506 203.268C25.451 205.51 23.8512 207.752 22.2516 209.994C21.8457 210.448 21.4899 211.027 21.1342 211.607C19.7374 213.622 18.3407 215.637 16.8174 217.703C16.8174 217.703 16.6908 217.753 16.6144 217.93C15.4207 219.718 14.1003 221.557 12.9065 223.346C11.2304 225.764 9.6044 228.309 7.80178 230.777C7.09026 231.936 6.25221 233.145 5.49061 234.178C4.22038 236.143 2.82362 238.158 1.60354 240.249C0.256928 242.391 -1.08961 244.532 -2.56281 246.724C-4.5445 249.847 -6.44983 252.795 -8.43158 255.919C-9.65161 258.009 -11.0484 260.025 -12.2684 262.116C-13.7678 264.61 -15.3174 266.978 -16.6903 269.421C-16.8932 269.648 -16.9195 269.951 -17.1224 270.177C-19.842 274.762 -22.485 279.171 -25.2045 283.756C-25.5603 284.335 -25.9924 285.091 -26.298 285.796C-27.4417 287.711 -28.5352 289.752 -29.8054 291.717C-30.0346 292.246 -30.314 292.649 -30.6698 293.228C-32.0928 295.546 -33.3391 297.939 -34.5854 300.332C-36.0347 302.952 -37.5341 305.446 -38.8569 308.016C-40.3061 310.636 -41.6289 313.206 -43.0782 315.826C-56.0478 339.96 -68.3368 364.7 -79.8691 389.868C-82.4143 395.259 -83.8995 401.105 -85.7404 407.529C-86.7122 410.981 -84.955 414.661 -81.6483 415.972C-48.5809 429.087 -11.8579 421.919 13.8945 399.704C15.9479 397.865 18.0012 396.026 19.9542 393.936C20.4867 393.432 20.8926 392.979 21.425 392.475C26.2193 387.21 30.6363 381.366 34.2464 374.967C34.552 374.262 35.0343 373.632 35.3399 372.927C35.3399 372.927 35.3399 372.927 35.2898 372.801C47.6958 350.934 60.0255 329.243 72.3289 307.855C79.4464 295.536 86.5638 283.217 93.6813 270.898C132.318 204.44 178.742 144.663 243.209 101.498C247.693 98.4003 252.404 95.5043 257.114 92.6083C264.535 88.0502 272.029 84.0465 279.674 80.4208C346.175 48.9982 418.881 52.3254 476.788 82.5582C482.692 85.6092 488.444 89.0129 493.993 92.6434C538.558 121.763 571.945 168.466 582.616 228.44C592.046 281.61 586.389 341.805 571.28 394.084C542.477 498.518 470.797 575.496 375.199 616.306C375.199 616.306 375.199 616.306 375.072 616.357C316.403 641.306 248.654 652.646 176.103 648.236C120.686 644.889 67.0568 635.723 14.858 622.047C-3.65258 617.152 -22.0605 611.779 -40.2893 605.75C-103.662 584.989 -165.093 558.056 -224.994 526.865C-183.15 391.847 -134.562 288.882 -83.2734 210.385C-81.7238 208.017 -80.0477 205.598 -78.4981 203.23C6.31199 76.3661 98.2336 16.0008 178.974 -10.5787L178.797 -10.6544ZM462.423 300.638C462.423 300.638 462.022 299.63 461.872 299.252C461.02 297.11 460.344 295.043 459.492 292.901C459.191 292.145 458.89 291.389 458.589 290.633C439.805 246.001 397.713 217.941 352.025 215.103C334.108 213.912 315.674 216.576 297.832 223.675C294.542 224.984 291.302 226.42 288.112 227.981C283.201 230.373 278.44 233.143 273.956 236.24C226.587 268.224 205.962 329.85 227.922 385.041C234.339 401.169 243.696 415.107 255.209 426.727C262.887 436.078 272.795 443.666 283.723 448.659C285.363 449.466 287.08 450.097 288.796 450.727C319.204 465.63 355.592 467.936 389.632 454.392C451.004 429.973 482.213 362.53 462.347 300.814L462.423 300.638ZM-83.3999 210.435C-81.5304 210.713 -79.661 210.991 -77.7915 211.269C-78.1114 208.623 -78.4313 205.977 -78.7512 203.331C-80.3008 205.699 -81.8503 208.067 -83.3999 210.435Z" fill="#6E5EA8"/>
<path d="M-172.689 215.164C-210.134 280.563 -239.81 350.753 -265.879 423.01C-268.226 429.636 -270.446 436.212 -272.743 442.964C-282.038 471.913 -269.251 503.313 -242.456 517.61C-236.678 520.712 -230.95 523.687 -225.223 526.662C-165.195 557.803 -103.841 584.912 -40.5183 605.547C-22.3396 611.45 -3.88154 616.949 14.629 621.844C71.3507 582.053 106.463 518.895 111.461 451.519C111.645 449.402 111.702 447.336 111.76 445.27C113.252 414.025 108.151 382.048 95.8672 351.176C89.8007 335.93 82.1894 321.59 73.487 308.559C61.1836 329.948 48.854 351.638 36.4479 373.505C36.4479 373.505 36.4479 373.505 36.4981 373.631C36.1423 374.211 35.7102 374.966 35.4045 375.672C31.6679 382.121 27.4276 388.041 22.5831 393.18C22.0507 393.683 21.6448 394.137 21.1123 394.64C19.1593 396.731 17.106 398.57 15.0527 400.409C-10.6998 422.623 -47.3464 429.615 -80.4901 416.677C-83.7969 415.365 -85.6806 411.736 -84.5822 408.234C-82.7413 401.809 -81.2562 395.964 -78.711 390.573C-67.1787 365.405 -55.0161 340.715 -41.9201 316.53C-40.4708 313.91 -39.148 311.341 -37.6988 308.721C-36.2495 306.101 -34.9267 303.531 -33.4273 301.037C-32.181 298.644 -30.758 296.326 -29.5116 293.933C-29.2824 293.404 -29.0031 293.001 -28.6473 292.421C-27.5538 290.381 -26.4101 288.466 -25.1399 286.501C-24.8343 285.796 -24.352 285.166 -24.0464 284.46C-21.3269 279.875 -18.734 275.341 -15.9643 270.882C-15.7614 270.655 -15.7351 270.353 -15.5322 270.126C-14.0327 267.632 -12.6097 265.314 -11.1103 262.82C-9.89024 260.729 -8.54363 258.588 -7.27342 256.623C-5.29171 253.499 -3.43652 250.426 -1.40467 247.428C-0.0580638 245.287 1.28855 243.146 2.76169 240.954C-21.7821 226.053 -53.049 203.465 -81.5181 198.592C-83.3876 198.314 -84.6531 206.553 -86.5226 206.275C-86.5226 206.275 -83.1991 210.207 -83.2493 210.081C-112.454 205.938 -142.687 207.313 -172.613 214.987L-172.689 215.164Z" fill="#F4967E"/>
<path d="M291.637 76.976C280.425 81.5831 269.361 87.2989 258.472 93.8211C254.344 96.3394 250.266 98.9837 246.314 101.578C181.038 144.919 134.208 205.149 95.089 272.236C90.0057 280.827 85.0992 289.493 80.0661 298.21C78.3375 301.233 76.6852 304.079 74.9566 307.103C62.221 329.247 49.5357 351.517 36.6975 374.139C36.6975 374.139 36.6975 374.139 36.7476 374.265C36.3919 374.845 35.9597 375.601 35.654 376.306C31.9174 382.755 27.6771 388.675 22.8327 393.814C22.8327 393.814 23.0595 394.015 23.2362 394.091C24.1434 394.898 25.0005 395.578 26.0343 396.335C52.3519 417.535 82.1483 433.849 114.01 444.67C116.863 445.578 119.59 446.537 122.443 447.445C173.675 463.111 229.756 464.442 284.123 448.94C273.195 443.947 263.337 436.484 255.609 427.007C244.146 415.513 234.739 401.45 228.322 385.321C206.111 329.5 227.421 267.018 276.104 235.387C282.968 230.905 290.386 227.077 298.232 223.956C298.485 223.855 298.865 223.704 299.118 223.603C316.63 216.781 334.812 214.217 352.374 215.257C398.846 218.222 441.592 247.189 459.842 293.055C460.894 295.701 461.897 298.222 462.647 300.842C463.029 299.961 463.537 299.029 463.919 298.147C465.853 294.166 467.737 290.06 469.495 286.004C496.289 223.674 501.048 152.014 478.222 83.5947C423.419 54.9001 355.393 50.4407 291.714 76.7996L291.637 76.976Z" fill="#9E91C5"/>
<path d="M-14.0272 19.3677C-28.2214 31.5834 -41.7852 44.2781 -54.7188 57.4517C-101.685 105.184 -140.152 158.438 -172.64 215.297C-210.085 280.696 -239.761 350.886 -265.829 423.143C-268.176 429.769 -270.397 436.345 -272.694 443.097C-281.989 472.046 -269.202 503.447 -242.406 517.743C-236.629 520.845 -230.901 523.82 -225.173 526.796C-183.329 391.777 -134.741 288.812 -83.3264 210.265C-81.7769 207.897 -80.2273 205.529 -78.6777 203.161C9.12882 72.039 104.336 11.826 186.967 -13.3165C188.106 -13.7697 189.471 -14.0212 190.66 -14.3483C192.912 -14.9522 195.113 -15.6821 197.238 -16.2357C197.491 -16.3364 197.871 -16.4875 198.124 -16.5882C200.375 -17.1921 202.627 -17.796 204.878 -18.4C205.005 -18.4503 205.258 -18.551 205.384 -18.6014C206.144 -18.9035 207.13 -19.0039 207.939 -19.18C208.319 -19.331 208.825 -19.5324 209.255 -19.5575C210.191 -19.7839 211.253 -20.0607 212.189 -20.2871C213.378 -20.6143 214.617 -20.8154 215.679 -21.0922C217.981 -21.5701 220.409 -22.0984 222.711 -22.5763C226.252 -23.2554 229.666 -23.8841 233.08 -24.5128C235.432 -24.8647 237.607 -25.2923 239.832 -25.5938C240.945 -25.7446 242.057 -25.8954 243.17 -26.0462C244.156 -26.1466 245.142 -26.2471 246.204 -26.5239C251.894 -27.3281 257.557 -27.83 262.917 -28.3572C265.066 -28.4824 267.165 -28.7337 269.314 -28.8589C271.462 -28.9841 273.611 -29.1093 275.76 -29.2345C278.945 -29.3341 282.13 -29.4338 285.315 -29.5334C287.337 -29.6083 289.41 -29.5572 291.432 -29.632C292.468 -29.6065 293.504 -29.5809 294.49 -29.6813C295.526 -29.6557 296.563 -29.6302 297.549 -29.7306C298.585 -29.705 299.495 -29.6291 300.481 -29.7295C301.517 -29.704 302.426 -29.628 303.463 -29.6025C304.499 -29.5769 305.408 -29.501 306.445 -29.4754C307.481 -29.4498 308.391 -29.3739 309.3 -29.298C311.246 -29.1965 313.192 -29.095 315.011 -28.9431C317.867 -28.7657 320.596 -28.538 323.325 -28.3103C324.234 -28.2343 325.144 -28.1584 326.054 -28.0825C327.873 -27.9306 329.566 -27.7284 331.258 -27.5262C332.168 -27.4503 332.951 -27.3241 333.861 -27.2481C335.554 -27.0459 337.246 -26.8437 338.939 -26.6416C339.722 -26.5153 340.632 -26.4394 341.415 -26.3131C342.981 -26.0606 344.674 -25.8584 346.24 -25.6058C347.807 -25.3533 349.373 -25.1007 350.939 -24.8482C352.505 -24.5956 353.945 -24.2927 355.334 -24.1159C356.774 -23.813 358.214 -23.5101 359.603 -23.3332C360.74 -23.0556 361.826 -22.9041 362.963 -22.6265C364.049 -22.4749 365.185 -22.1973 366.145 -21.9954C367.232 -21.8438 368.242 -21.5159 369.201 -21.3139C369.681 -21.213 370.338 -21.0363 370.818 -20.9354C371.777 -20.7335 372.787 -20.4056 373.747 -20.2036C374.707 -20.0017 375.667 -19.7997 376.5 -19.5475C377.46 -19.3455 378.293 -19.0933 379.126 -18.841C379.606 -18.74 380.086 -18.6391 380.439 -18.4877C381.753 -18.1345 382.939 -17.7309 384.202 -17.5037C394.631 -14.5014 401.498 -11.9792 403.921 -11.046C403.921 -11.046 404.047 -11.0963 404.098 -10.9703L404.451 -10.819C405.244 -13.6156 403.837 -16.4131 401.264 -17.7243C372.143 -31.9714 343.968 -49.3679 313.288 -58.3242C190.416 -93.7963 80.521 -63.4981 -14.9846 18.4351L-14.0272 19.3677Z" fill="#F4A86E"/>
<path d="M-14.0341 19.3561C-28.2282 31.5718 -41.7921 44.2665 -54.7257 57.4401C-75.0683 102.461 -83.7764 152.777 -78.6344 203.275C-78.3146 205.921 -77.9947 208.567 -77.6748 211.213C-74.6669 234.244 -68.7771 257.151 -59.8027 279.706C-54.6888 292.559 -48.7391 304.933 -41.8775 316.652C-40.4283 314.032 -39.1055 311.462 -37.6562 308.842C-36.2069 306.222 -34.8842 303.653 -33.3848 301.159C-32.1384 298.765 -30.7154 296.448 -29.4691 294.054C-29.2399 293.525 -28.9605 293.122 -28.6048 292.543C-27.5113 290.502 -26.3676 288.588 -25.0974 286.623C-24.7918 285.917 -24.3095 285.287 -24.0038 284.582C-21.2844 279.997 -18.6914 275.462 -15.9218 271.003C-15.7188 270.777 -15.6926 270.474 -15.4897 270.248C-13.9902 267.754 -12.5672 265.436 -11.0678 262.942C-9.84773 260.851 -8.50112 258.71 -7.23092 256.745C-5.2492 253.621 -3.39398 250.548 -1.36212 247.55C-0.0155114 245.408 1.33106 243.267 2.80422 241.075C4.07442 239.111 5.47118 237.095 6.69127 235.004C7.40277 233.845 8.24081 232.636 9.00244 231.603C10.6284 229.059 12.3045 226.641 14.1072 224.172C15.3009 222.383 16.6213 220.544 17.8151 218.756C17.8151 218.756 17.9416 218.705 18.0181 218.529C19.4148 216.514 20.8115 214.499 22.3348 212.433C22.6906 211.853 23.0965 211.4 23.4522 210.821C25.0519 208.579 26.6516 206.337 28.2513 204.095C29.9775 201.802 31.6536 199.384 33.3798 197.092C34.2179 195.882 35.1825 194.623 36.1471 193.363C36.9851 192.154 37.8733 191.071 38.8379 189.811C40.6405 187.343 42.3668 185.05 44.2196 182.708C45.1077 181.625 45.9458 180.415 46.834 179.332C47.672 178.123 48.6867 176.989 49.5248 175.78C51.454 173.261 53.4333 170.868 55.3625 168.349C56.1241 167.316 56.9359 166.409 57.6975 165.377C58.5857 164.293 59.5503 163.034 60.4385 161.951C62.9765 158.752 65.5647 155.678 68.2794 152.555C69.497 151.195 70.6646 149.708 71.8822 148.348C73.5058 146.535 74.9527 144.645 76.5762 142.832C77.7939 141.471 78.8851 140.162 80.1027 138.801C81.1939 137.491 82.4115 136.131 83.5528 134.947C83.8059 134.847 83.9587 134.494 84.1616 134.267C85.2528 132.957 86.394 131.773 87.6117 130.413C88.2205 129.733 88.9559 129.003 89.5647 128.323C92.0001 125.602 94.4354 122.882 97.0474 120.237C98.2651 118.877 99.6093 117.466 100.827 116.106C102.171 114.695 103.389 113.335 104.733 111.924C105.748 110.791 106.813 109.783 107.827 108.65C108.689 107.869 109.375 107.013 110.236 106.232C113.178 103.31 115.993 100.438 118.934 97.5165C119.873 96.5594 120.811 95.6022 121.8 94.771C123.473 93.0834 125.273 91.3454 126.997 89.7838C202.734 16.7382 288.994 -28.3847 398.664 -5.46567C401.846 -4.83458 405.062 -6.69804 405.705 -9.8727C406.497 -12.6693 405.091 -15.4668 402.517 -16.778C373.397 -31.0251 345.221 -48.4216 314.542 -57.3778C191.669 -92.85 81.7748 -62.5518 -13.7309 19.3814L-14.0341 19.3561Z" fill="#F4C254"/>
<path d="M424.059 29.2417C413.786 3.42341 426.477 -25.8696 452.405 -36.1861C478.333 -46.5026 507.679 -33.9359 517.952 -8.11756C528.225 17.7008 515.534 46.9938 489.606 57.3103C463.678 67.6267 434.332 55.06 424.059 29.2417Z" fill="#F4C254"/>
</g>
</svg>
