<svg width="245" height="245" viewBox="0 0 245 245" fill="none" xmlns="http://www.w3.org/2000/svg">
<path d="M21.3493 58.7071C14.2241 71.3842 12.336 86.9067 14.983 101.053C16.2495 107.587 18.257 113.851 21.6226 119.618C24.7295 125.061 29.4414 129.917 34.1749 134.066C36.4348 136.039 38.8966 137.799 41.3132 139.435C44.4492 141.509 47.5852 143.582 50.8779 145.318C57.2498 148.589 64.719 149.499 71.7824 149.299C79.2613 149.087 86.6598 147.504 93.7093 145.35C101.5 142.925 109.435 139.747 116.426 135.515C123.618 131.07 129.629 124.537 131.594 116.123C133.257 108.799 131.046 101.21 125.211 96.3444C119.972 91.9606 112.726 90.1286 106.045 90.6093C98.7009 91.192 92.1923 94.8281 87.3597 100.371C77.2123 112.053 75.2264 129.99 77.9302 144.675C79.3106 152.287 82.106 159.942 86.8984 166.168C92.1181 172.798 99.2662 177.045 107.512 178.932C116.341 180.885 125.651 180.704 134.544 180.535C144.146 180.387 153.736 179.824 163.223 178.598C182.12 176.315 200.88 172.123 219.009 166.203C223.499 164.703 227.82 163.125 232.22 161.379C236.126 159.813 233.871 153.639 229.966 155.205C196.899 168.12 161.444 174.49 126.001 173.999C118.263 173.886 109.941 173.706 102.784 170.583C96.4687 167.851 91.6666 162.748 88.6263 156.722C85.4508 150.325 83.8353 143.218 83.5114 136.2C83.1541 129.474 83.7846 122.387 86.0556 115.96C88.2482 109.702 91.8677 103.902 97.5001 100.166C102.111 97.0832 108.332 96.4908 113.814 97.7075C119.049 99.0143 123.59 102.254 125.147 107.283C127.031 113.591 123.727 120.255 119.365 124.787C113.791 130.6 105.564 133.745 98.2458 136.697C92.2409 139.029 85.8871 140.79 79.4313 141.888C73.0539 142.818 66.4511 143.13 60.048 141.69C53.9369 140.283 48.6312 136.483 43.4607 133.054C38.6274 129.781 34.478 125.699 30.7323 121.19C27.1218 117.051 25.0832 112.617 23.313 107.387C19.4903 95.7687 19.3148 82.2592 23.263 70.4623C24.3368 67.2715 25.6693 64.4061 27.2488 61.4504C28.0777 59.8883 27.1877 57.8344 25.6707 57.129C23.9852 56.3452 22.1782 57.145 21.3493 58.7071Z" fill="#F4C254"/>
<path d="M165.468 144.894C181.686 146.388 197.692 149.219 213.521 153.094C217.374 154.066 221.396 155.116 225.171 156.256C226.597 156.715 228.395 157.038 229.71 157.957C230.643 158.596 230.486 158.933 229.847 159.866C228.973 161.305 227.885 162.542 226.798 163.778C225.553 165.352 224.141 166.848 222.728 168.343C220.149 171.244 217.356 173.943 214.395 176.564C207.822 182.322 200.608 187.476 193.078 191.764C191.563 192.597 191.342 195.057 192.377 196.358C193.502 197.907 195.378 198.061 196.971 197.06C204.377 192.816 211.389 187.876 217.839 182.163C221.125 179.283 224.367 176.281 227.271 173.121C229.973 170.175 232.923 167.139 235.074 163.835C237.506 160.148 237.59 155.779 234.015 152.887C230.699 150.319 225.936 149.54 222.038 148.445C213.489 146.109 204.783 144.111 196.089 142.528C186.35 140.767 176.578 139.297 166.739 138.412C164.987 138.213 163.27 139.259 162.947 141.056C162.455 142.775 163.76 144.817 165.468 144.894Z" fill="#F4C254"/>
</svg>
