<svg width="38" height="77" viewBox="0 0 38 77" fill="none" xmlns="http://www.w3.org/2000/svg">
<path d="M3.74345 7.32289C3.83606 7.10366 4.43448 6.01519 4.66236 5.60347C4.72052 5.45862 4.79499 5.31874 4.88566 5.18616C5.99469 3.56591 7.48772 4.49227 7.59116 4.55753C8.04691 4.84505 8.5769 5.36067 8.58636 6.39725C8.59606 7.43041 7.82347 8.19547 7.4429 9.09675C7.08717 9.93877 6.55376 10.7852 6.32726 11.6925C6.38451 11.8919 6.41519 12.1036 6.41519 12.3228C6.41519 13.5155 5.50633 14.4839 4.38692 14.4839C3.71414 14.4839 3.31292 14.2458 3.04113 14.0336C2.60364 13.6921 2.0449 13.0623 2.21336 11.6262C2.39013 10.1198 3.16693 8.68819 3.74345 7.32289Z" fill="#6E5EA8"/>
<path fill-rule="evenodd" clip-rule="evenodd" d="M1.85634 16.0478C1.37539 17.1739 1.2342 19.5991 1.60064 21.693C1.87756 23.2759 2.46263 24.6395 3.11329 25.3329C3.90491 26.1764 5.19026 26.1764 5.98188 25.3329C6.77339 24.4894 6.77339 23.1198 5.98188 22.2765C5.74671 22.026 5.68866 21.4726 5.58852 20.9008C5.38996 19.7659 5.288 18.4484 5.5486 17.8381C6.01233 16.7524 5.56149 15.4699 4.54257 14.9759C3.52364 14.4818 2.31996 14.9622 1.85634 16.0478Z" fill="#6E5EA8"/>
<path fill-rule="evenodd" clip-rule="evenodd" d="M8.98539 30.1184C8.93122 29.0724 8.16765 28.1949 7.15922 28.0889C6.51233 28.021 6.06343 28.2348 5.73405 28.4789C5.29268 28.8058 4.98406 29.2743 4.87183 29.8966C4.79063 30.3469 4.9852 31.2379 5.09503 31.511C5.48622 32.4835 6.10688 33.2591 6.83931 33.9243C7.54106 34.5616 8.37853 35.0568 8.983 35.701C9.77462 36.5445 11.06 36.5445 11.8515 35.701C12.6431 34.8575 12.6431 33.4879 11.8515 32.6446C11.3534 32.1138 10.7391 31.6488 10.123 31.1711C9.71349 30.8536 9.26938 30.5582 8.98539 30.1184Z" fill="#6E5EA8"/>
<path fill-rule="evenodd" clip-rule="evenodd" d="M17.6261 33.346C17.0073 33.3118 15.693 33.2281 15.3971 33.1191C14.339 32.7296 13.1832 33.3287 12.8177 34.4562C12.452 35.5835 13.0143 36.8152 14.0725 37.2046C14.8523 37.4917 17.6079 38.0188 19.1889 37.4789C20.614 36.9921 21.4531 35.9504 21.4531 34.3441C21.4531 33.1513 20.5442 32.1829 19.4247 32.1829C18.6432 32.1829 17.9643 32.6549 17.6261 33.346Z" fill="#6E5EA8"/>
<path fill-rule="evenodd" clip-rule="evenodd" d="M21.3696 28.9821C20.9271 29.2808 20.5927 29.7609 20.4731 30.349C20.2361 31.5147 20.9318 32.6663 22.0259 32.9189C22.8189 33.1019 23.8322 32.8839 24.6089 31.7143C25.4451 30.4548 26.1971 26.9116 26.1971 26.0325C26.1971 24.8397 25.2883 23.8713 24.1688 23.8713C23.0494 23.8713 22.1405 24.8397 22.1405 26.0325C22.1405 26.4345 21.5748 28.3147 21.3696 28.9821Z" fill="#6E5EA8"/>
<path fill-rule="evenodd" clip-rule="evenodd" d="M20.7174 23.2564C21.8516 24.0944 22.8139 23.5244 23.0216 23.3919C23.9818 22.7785 24.2939 21.4501 23.7183 20.427C23.5252 20.0838 23.2565 19.8183 22.9482 19.6405C22.5526 19.3307 20.7877 17.9915 19.5489 17.7396C18.3906 17.5042 17.3147 17.7701 16.4628 18.6778C15.6713 19.5213 15.6713 20.8908 16.4628 21.7342C17.521 22.8617 19.3046 22.2126 20.7174 23.2564Z" fill="#6E5EA8"/>
<path fill-rule="evenodd" clip-rule="evenodd" d="M11.8647 26.3417C11.9478 26.2357 12.2884 25.8099 12.5366 25.5998C12.7177 25.4464 12.9703 25.2825 13.162 25.1661C13.4289 25.212 13.7088 25.201 13.987 25.1244C15.071 24.8263 15.7238 23.6466 15.444 22.4916C15.1778 21.3929 14.3083 20.4007 12.6197 20.7704C11.7797 20.9544 10.2701 21.8275 9.22956 22.9676C8.32696 23.9566 7.81738 25.1378 7.81738 26.1377C7.81738 27.3305 8.72625 28.2989 9.84565 28.2989C10.9005 28.2989 11.7684 27.439 11.8647 26.3417Z" fill="#6E5EA8"/>
<path fill-rule="evenodd" clip-rule="evenodd" d="M8.18927 42.5814C8.25451 41.8364 8.43619 39.7141 8.49709 38.5989C8.52389 38.5408 8.54796 38.4807 8.56975 38.4189C8.96265 37.302 8.43072 36.0553 7.38248 35.6366C6.70571 35.3663 6.10615 35.4703 5.5765 35.8018C5.31818 35.9636 5.06476 36.2001 4.86163 36.5327C4.63866 36.8982 4.46189 37.5568 4.46189 38.0488C4.46189 38.9873 3.98561 42.1975 4.14802 43.443C4.38479 45.2589 5.57068 45.7796 6.40986 45.7796C7.52926 45.7796 8.43813 44.8112 8.43813 43.6184C8.43813 43.2426 8.34792 42.8892 8.18927 42.5814Z" fill="#6E5EA8"/>
<path fill-rule="evenodd" clip-rule="evenodd" d="M13.2435 52.5789C13.101 52.3863 12.7096 51.8466 12.4709 51.4213C11.9383 50.4717 11.3806 49.0218 11.2337 48.6298C11.2086 48.1107 11.0089 47.5997 10.6351 47.2056C9.83921 46.3667 8.55387 46.3742 7.76658 47.2222C7.50951 47.4992 7.21024 47.9442 7.16759 48.6615C7.15299 48.9058 7.19599 49.4565 7.43184 50.1724C7.85234 51.4489 8.96296 53.8703 10.014 55.2127C10.9003 56.3444 11.9302 56.813 12.6699 56.813C13.7893 56.813 14.6982 55.8446 14.6982 54.6517C14.6982 53.6712 14.084 52.8421 13.2435 52.5789Z" fill="#6E5EA8"/>
<path fill-rule="evenodd" clip-rule="evenodd" d="M18.378 59.0019C18.2686 58.8375 18.1351 58.6873 17.9789 58.5567C17.0982 57.8205 15.8221 57.9846 15.1312 58.9232C14.5136 59.7618 14.581 60.488 14.7439 61.0504C14.8947 61.5706 15.285 62.1462 15.9439 62.4973C17.0076 63.0639 18.5027 64.438 19.3572 65.3484C20.1488 66.1919 21.4341 66.1919 22.2256 65.3484C23.0173 64.505 23.0173 63.1355 22.2256 62.292C21.2731 61.2769 19.6838 59.8509 18.378 59.0019Z" fill="#6E5EA8"/>
<path fill-rule="evenodd" clip-rule="evenodd" d="M34.2473 72.6419C34.3438 72.6572 34.4424 72.665 34.5427 72.665C36.4619 72.665 36.5766 70.6701 36.578 70.5256C36.5829 70.0175 36.47 69.3248 35.751 68.7617C35.7087 68.7285 35.4078 68.4326 34.7625 68.3529C34.5837 68.3308 33.2202 68.2236 32.7692 68.1275C32.3376 68.0355 29.8001 67.0088 29.1571 66.747C28.8292 66.2255 28.292 65.8598 27.6603 65.7971C26.5457 65.6863 25.5564 66.5607 25.4525 67.7483C25.3931 68.4269 25.64 69.488 26.7575 70.2824C28.0038 71.1685 31.2837 72.2189 31.9737 72.3659C32.4485 72.4672 33.9597 72.6144 34.2473 72.6419Z" fill="#6E5EA8"/>
</svg>
