<svg width="101" height="36" viewBox="0 0 101 36" fill="none" xmlns="http://www.w3.org/2000/svg">
<path d="M91 19.3178C87.2686 16.3161 83.3842 14.6477 79.494 15.0152C75.6173 15.3828 70.9217 18.8926 68.9087 19.7466C63.5242 22.0349 59.314 21.79 57.8632 21.0404C55.6055 19.8693 52.9781 16.8747 54.1811 14.1576C55.1593 11.9487 58.3591 10.6225 60.9104 11.5234C63.8123 12.5468 64.2565 15.6928 64.3062 16.7378C64.5004 20.8386 60.2219 24.5321 56.0222 25.3393C54.1728 25.6533 52.2668 25.5054 50.4994 24.9105C45.9238 23.4042 40.8577 20.1899 39.4535 19.3178C32.8086 15.1882 23.0663 15.2062 10.459 18.889M16.086 23.172L10 19.3178L12.6786 10.5" stroke="#E5B13D" stroke-width="2" stroke-dasharray="8 4"/>
</svg>
