<svg width="42" height="52" viewBox="0 0 42 52" fill="none" xmlns="http://www.w3.org/2000/svg">
<path d="M37.4267 17.8407C37.419 17.6783 37.4035 17.5159 37.388 17.3535C37.388 17.2839 37.3725 17.2066 37.3647 17.137C37.3492 17.0055 37.3415 16.874 37.326 16.7503C37.326 16.7348 37.326 16.7116 37.326 16.6962C37.3105 16.5647 37.295 16.4332 37.2795 16.3018C37.2795 16.294 37.2795 16.2786 37.2795 16.2708C37.2795 16.2244 37.264 16.1703 37.2563 16.1239C37.2563 16.1007 37.2563 16.0698 37.2485 16.0466C37.2408 15.9924 37.233 15.9306 37.2253 15.8764C37.2175 15.8068 37.202 15.7372 37.1943 15.6753C37.171 15.5439 37.1478 15.4047 37.1246 15.2732C37.0858 15.0721 37.0471 14.8788 37.0084 14.6855C36.9774 14.554 36.9541 14.4303 36.9231 14.3065C36.9076 14.2446 36.8921 14.1828 36.8766 14.1209C36.8611 14.0668 36.8457 14.0126 36.8379 13.9508C36.7604 13.6337 36.6675 13.3244 36.5822 13.0305C36.5435 12.9145 36.5125 12.7985 36.4738 12.6825C36.435 12.5665 36.3963 12.4505 36.3576 12.3345C36.2956 12.1643 36.2336 11.9942 36.1716 11.8241C36.1329 11.7158 36.0864 11.6075 36.0477 11.4993C36.0244 11.4451 36.0012 11.391 35.9857 11.3369C35.9624 11.2827 35.9392 11.2286 35.9237 11.1745C35.9005 11.1203 35.8772 11.0739 35.8617 11.0198C35.8385 10.9656 35.8152 10.9192 35.792 10.8651C35.7688 10.811 35.7455 10.7646 35.7223 10.7104C35.699 10.6563 35.6758 10.6099 35.6525 10.5635C35.6061 10.463 35.5596 10.3624 35.5131 10.2696C35.4434 10.1227 35.3736 9.9835 35.3039 9.84429C35.2807 9.79789 35.2574 9.75149 35.2342 9.70509C35.1877 9.61229 35.1412 9.52722 35.0947 9.44215C35.0715 9.39575 35.0482 9.35708 35.025 9.31068C34.9785 9.22561 34.932 9.14055 34.8855 9.05548C34.8623 9.01681 34.8391 8.97041 34.8158 8.93174C34.7693 8.85441 34.7228 8.76934 34.6764 8.692C34.6299 8.61467 34.5834 8.53733 34.5369 8.46C34.4904 8.38266 34.4439 8.31306 34.4052 8.24346C34.3587 8.17386 34.3122 8.10426 34.2735 8.03466C34.2348 7.98052 34.2038 7.92639 34.165 7.87225C34.134 7.81812 34.0953 7.76398 34.0643 7.71758C34.0333 7.66345 33.9946 7.61705 33.9636 7.57065C33.9481 7.54745 33.9249 7.51651 33.9094 7.49331C33.8784 7.44691 33.8396 7.40051 33.8087 7.35411C33.7777 7.30771 33.7467 7.26131 33.7157 7.22264C33.6847 7.17624 33.6537 7.13757 33.6227 7.0989C33.6072 7.0757 33.5917 7.0525 33.5762 7.03704C33.5297 6.97517 33.4833 6.92103 33.4445 6.85917C33.0649 6.37196 32.786 6.06262 32.6853 5.95435C32.6853 5.95435 32.6853 5.94661 32.6775 5.94661L32.662 5.93115C32.5148 6.03942 32.4761 6.24049 32.5768 6.39516C36.1096 11.7003 35.5363 17.1988 33.2586 22.7283C33.2043 22.852 33.1579 22.9835 33.1036 23.1072C33.0726 23.1768 33.0417 23.2464 33.0184 23.316C32.9254 23.5326 32.8325 23.7414 32.7395 23.9579C32.7163 24.0198 32.6853 24.0739 32.662 24.1358C32.631 24.2131 32.5923 24.2905 32.5536 24.3678C32.5071 24.4683 32.4606 24.5611 32.4141 24.6617C32.3676 24.7622 32.3211 24.855 32.2747 24.9478C32.1817 25.1334 32.0965 25.3267 32.0035 25.5124C31.9803 25.5588 31.957 25.6129 31.9338 25.6593C31.8873 25.7444 31.8485 25.8372 31.8021 25.9222C31.8021 25.9377 31.7866 25.9532 31.7788 25.9686C31.7323 26.0537 31.6858 26.1465 31.6471 26.2316C31.6006 26.3244 31.5541 26.4094 31.5077 26.5022C31.4457 26.626 31.3759 26.742 31.314 26.8657C31.2675 26.9585 31.2133 27.0513 31.1668 27.1441C31.0583 27.3452 30.9421 27.554 30.8336 27.7551C30.7949 27.8324 30.7484 27.902 30.7097 27.9716C30.6709 28.0335 30.6399 28.0953 30.6012 28.1572C30.5082 28.3119 30.423 28.4665 30.33 28.6212C30.2836 28.6908 30.2448 28.7681 30.1983 28.8377C30.1596 28.9074 30.1131 28.977 30.0744 29.0466C29.9892 29.1935 29.8962 29.3404 29.811 29.4796C29.7645 29.5492 29.7257 29.6188 29.6793 29.6962C29.6328 29.7735 29.5863 29.8431 29.5398 29.9204C29.4546 30.0596 29.3616 30.1988 29.2764 30.338C29.1912 30.4695 29.1059 30.601 29.0207 30.7325C29.0052 30.7634 28.982 30.7943 28.9587 30.8253C28.8813 30.9413 28.8038 31.0573 28.7263 31.181C28.7263 31.181 28.7263 31.1887 28.7186 31.1965C28.6488 31.297 28.5791 31.4053 28.5094 31.5058C28.4164 31.645 28.3157 31.7842 28.2227 31.9311C28.1763 31.993 28.1298 32.0626 28.091 32.1245C28.0136 32.2328 27.9361 32.3488 27.8509 32.457C27.7656 32.573 27.6804 32.689 27.5952 32.8128C27.4712 32.9829 27.355 33.1453 27.2311 33.3154C27.1458 33.4237 27.0684 33.5397 26.9831 33.648C26.8824 33.7794 26.7895 33.9109 26.6887 34.0347C26.681 34.0501 26.6655 34.0579 26.6577 34.0733C26.4718 34.3131 26.2936 34.5451 26.1077 34.7848C26.0844 34.8157 26.0534 34.8544 26.0225 34.8853C25.945 34.9859 25.8598 35.0864 25.7823 35.1947C25.759 35.2179 25.7435 35.2411 25.7203 35.272C25.6273 35.3958 25.5266 35.5118 25.4259 35.6278C25.3174 35.7592 25.2167 35.8907 25.1083 36.0144C24.9998 36.1459 24.8913 36.2696 24.7829 36.4011C23.7757 37.5921 22.722 38.7598 21.6297 39.8966C21.3972 40.1441 21.1183 40.3452 20.8162 40.5772C20.6535 40.7009 20.421 40.6855 20.2816 40.5385C18.8871 39.0692 18.4919 36.9811 19.1272 35.156C19.1815 35.0091 19.2357 34.8621 19.3054 34.7152C19.3209 34.6765 19.3364 34.6456 19.3519 34.6069C19.5301 34.2435 19.747 33.8877 20.0104 33.5629C20.0414 33.532 20.0647 33.4933 20.0957 33.4624C20.0957 33.4624 20.0957 33.4624 20.1034 33.4624C21.0021 32.3488 21.8931 31.2429 22.7685 30.1447C23.2721 29.5106 23.7757 28.8764 24.2793 28.2423C26.9909 24.8086 29.1834 21.1043 30.1131 16.7967C30.1828 16.4951 30.2371 16.1858 30.2913 15.8764C30.3765 15.3892 30.4308 14.9097 30.4618 14.4303C30.7252 10.2619 29.013 6.49569 26.1852 4.07511C25.8985 3.82764 25.5963 3.59563 25.2864 3.37909C22.7995 1.63906 19.6153 0.857975 16.2064 1.55399C13.1849 2.17267 10.1092 3.73483 7.65324 5.62954C2.71811 9.34162 0.145955 14.7396 -0.00124618 20.6402C-0.00124618 20.6402 -0.00124618 20.6402 -0.00124618 20.648C-0.0864682 24.2673 0.74251 28.0799 2.50893 31.8151C3.85699 34.6688 5.47621 37.3059 7.30461 39.7729C7.95539 40.6468 8.62942 41.5052 9.33444 42.3404C11.7749 45.2482 14.502 47.924 17.4228 50.4297C23.706 45.3874 28.1453 40.6623 31.2287 36.3083C31.3217 36.1768 31.4147 36.0376 31.5077 35.9062C36.4505 28.7681 37.7134 22.651 37.419 17.833L37.4267 17.8407ZM14.9126 9.41122C14.9126 9.41122 14.9746 9.41122 14.9978 9.41122C15.1295 9.41122 15.2535 9.40348 15.3852 9.40348C15.4317 9.40348 15.4782 9.40348 15.5247 9.40348C18.2905 9.45762 20.669 11.0894 21.7846 13.4404C22.2262 14.3607 22.4741 15.3892 22.4741 16.4796C22.4741 16.6807 22.4664 16.8818 22.4509 17.0828C22.4276 17.3922 22.3812 17.7015 22.3114 18.0031C21.6142 21.1739 18.7786 23.5558 15.3852 23.5558C14.3935 23.5558 13.4561 23.3547 12.5961 22.9912C11.9376 22.7824 11.3255 22.419 10.8297 21.9472C10.7522 21.8776 10.6825 21.8003 10.6128 21.7229C9.17949 20.4314 8.28853 18.5599 8.28853 16.4796C8.28853 12.7289 11.2093 9.66642 14.9049 9.41895L14.9126 9.41122ZM31.2287 36.316C31.1745 36.2232 31.1203 36.1304 31.066 36.0376C31.2133 35.999 31.3605 35.9603 31.5077 35.9216C31.4147 36.0531 31.3217 36.1846 31.2287 36.316Z" fill="#6E5EA8"/>
<path d="M32.8644 41.1266C30.1838 44.4752 27.0848 47.5145 23.7999 50.4068C23.4977 50.6697 23.1956 50.9249 22.8857 51.1879C21.5454 52.286 19.6085 52.2706 18.2837 51.1569C17.997 50.9172 17.7181 50.6775 17.4392 50.4377C14.5184 47.9243 11.7836 45.2563 9.35088 42.3485C8.65361 41.5133 7.97183 40.6549 7.32104 39.781C8.23524 35.9529 10.8461 32.7744 14.317 31.0963C14.4255 31.0421 14.5339 30.9957 14.6424 30.9493C16.2694 30.2146 18.0745 29.8125 19.9726 29.8125C20.9101 29.8125 21.832 29.913 22.7075 30.0986C21.832 31.1968 20.9411 32.3027 20.0424 33.4163C20.0424 33.4163 20.0424 33.4163 20.0346 33.4163C20.0114 33.4472 19.9804 33.4859 19.9494 33.5168C19.686 33.8494 19.4613 34.1974 19.2909 34.5609C19.2754 34.5995 19.2599 34.6305 19.2444 34.6691C19.1747 34.8161 19.1204 34.963 19.0662 35.1099C18.4309 36.935 18.8338 39.0154 20.2206 40.4925C20.36 40.6394 20.5924 40.6626 20.7551 40.5311C21.0573 40.2991 21.3362 40.098 21.5686 39.8506C22.661 38.7137 23.7147 37.5537 24.7218 36.355C24.8303 36.2236 24.9388 36.0998 25.0472 35.9684C25.1557 35.8369 25.2642 35.7132 25.3649 35.5817C25.4656 35.4657 25.5586 35.3419 25.6593 35.2259C25.6825 35.2027 25.698 35.1795 25.7213 35.1486C25.8065 35.0481 25.8839 34.9475 25.9614 34.8393C25.9924 34.8083 26.0157 34.7697 26.0466 34.7387C26.2326 34.499 26.4185 34.267 26.5967 34.0273C26.6045 34.0118 26.62 34.0041 26.6277 33.9886C26.7284 33.8571 26.8214 33.7334 26.9221 33.6019C27.0073 33.4936 27.0926 33.3776 27.17 33.2694C27.294 33.0992 27.4179 32.9368 27.5342 32.7667C27.6194 32.6507 27.7046 32.5347 27.7898 32.411C29.0991 33.3931 30.9585 34.5686 31.8185 35.9684C31.8727 36.0612 31.4621 36.3009 31.5163 36.3937C31.5163 36.3937 31.2374 36.3009 31.2452 36.3009C32.0819 37.7548 32.6475 39.3788 32.8722 41.1189L32.8644 41.1266Z" fill="#F4967E"/>
<path d="M30.3914 13.7251C30.3836 14.4133 30.3139 15.1171 30.1977 15.8286C30.1512 16.0992 30.097 16.3699 30.0427 16.6329C29.1208 20.9868 26.9127 24.7221 24.1779 28.1944C23.8293 28.643 23.4729 29.0838 23.1165 29.5323C22.9925 29.687 22.8763 29.8339 22.7524 29.9886C21.8459 31.1254 20.9317 32.2622 20.002 33.4145C20.002 33.4145 20.002 33.4145 19.9943 33.4145C19.971 33.4455 19.94 33.4841 19.909 33.5151C19.6456 33.8476 19.421 34.1956 19.2505 34.5591C19.2505 34.5591 19.235 34.5514 19.2273 34.5436C19.1653 34.5127 19.1111 34.4818 19.0491 34.4431C17.3679 33.4996 15.8726 32.27 14.6253 30.8161C14.5168 30.6846 14.4084 30.5609 14.2999 30.4294C12.3863 28.0552 11.1312 25.1242 10.8058 21.9303C11.3016 22.402 11.9059 22.7655 12.5722 22.9743C13.4244 23.3378 14.3696 23.5389 15.3613 23.5389C18.7934 23.5389 21.66 21.1028 22.3108 17.8702C22.4037 17.4139 22.4502 16.9422 22.4502 16.4627C22.4502 16.4473 22.4502 16.4241 22.4502 16.4086C22.4425 15.3414 22.1945 14.3283 21.7684 13.4235C20.6296 11.0338 18.1891 9.38658 15.369 9.38658C15.2063 9.38658 15.0514 9.38657 14.8964 9.40204C14.9352 9.36337 14.9739 9.31697 15.0127 9.27831C15.1831 9.0927 15.3613 8.9071 15.5395 8.72923C18.2821 6.00704 21.9854 4.25154 26.0993 4.01953C28.7799 6.30865 30.4533 9.80418 30.3991 13.7173L30.3914 13.7251Z" fill="#9E91C5"/>
<path d="M39.9065 28.6478C39.5579 29.6532 39.1705 30.6353 38.7444 31.5943C37.2027 35.0744 35.1883 38.2219 32.8563 41.1297C30.1757 44.4783 27.0767 47.5175 23.7918 50.4099C23.4897 50.6728 23.1875 50.928 22.8776 51.191C21.5373 52.2891 19.6004 52.2736 18.2756 51.16C17.989 50.9203 17.7101 50.6805 17.4312 50.4408C23.7143 45.3986 28.1536 40.6734 31.2371 36.3117C31.3301 36.1802 31.4231 36.0488 31.516 35.9173C36.6216 28.5318 37.807 22.2445 37.3963 17.3569C37.3963 17.2873 37.3809 17.21 37.3731 17.1404C37.3576 17.0089 37.3499 16.8774 37.3344 16.7537C37.3344 16.7382 37.3344 16.715 37.3344 16.6996C37.3189 16.5681 37.3034 16.4366 37.2879 16.3052C37.2879 16.2974 37.2879 16.282 37.2879 16.2742C37.2879 16.2278 37.2724 16.1737 37.2646 16.1273C37.2646 16.1041 37.2646 16.0732 37.2569 16.05C37.2491 15.9958 37.2414 15.934 37.2337 15.8798C37.2259 15.8102 37.2104 15.7406 37.2027 15.6788C37.1794 15.5473 37.1562 15.4081 37.1329 15.2766C37.0942 15.0755 37.0555 14.8822 37.0167 14.6889C36.9857 14.5574 36.9625 14.4337 36.9315 14.3099C36.916 14.2481 36.9005 14.1862 36.885 14.1243C36.8695 14.0702 36.854 14.0161 36.8463 13.9542C36.7688 13.6371 36.6758 13.3278 36.5906 13.0339C36.5519 12.9179 36.5209 12.8019 36.4821 12.6859C36.4434 12.5699 36.4047 12.4539 36.3659 12.3379C36.304 12.1678 36.242 11.9976 36.18 11.8275C36.1413 11.7192 36.0948 11.6109 36.056 11.5027C36.0328 11.4485 36.0096 11.3944 35.9941 11.3403C35.9708 11.2861 35.9476 11.232 35.9321 11.1779C35.9088 11.1237 35.8856 11.0773 35.8701 11.0232C35.8469 10.9691 35.8236 10.9227 35.8004 10.8685C35.7771 10.8144 35.7539 10.768 35.7306 10.7139C35.7074 10.6597 35.6842 10.6133 35.6609 10.5669C35.6144 10.4664 35.5679 10.3658 35.5215 10.273C35.4517 10.1261 35.382 9.98691 35.3123 9.8477C35.289 9.8013 35.2658 9.7549 35.2426 9.7085C35.1961 9.6157 35.1496 9.53063 35.1031 9.44556C35.0799 9.39916 35.0566 9.3605 35.0334 9.31409C34.9869 9.22903 34.9404 9.14396 34.8939 9.05889C34.8707 9.02022 34.8474 8.97382 34.8242 8.93515C34.7777 8.85782 34.7312 8.77275 34.6847 8.69541C34.6383 8.61808 34.5918 8.54074 34.5453 8.46341C34.4988 8.38607 34.4523 8.31647 34.4136 8.24687C34.3671 8.17727 34.3206 8.10767 34.2819 8.03807C34.2431 7.98393 34.2121 7.9298 34.1734 7.87566C34.1424 7.82153 34.1037 7.7674 34.0727 7.72099C34.0417 7.66686 34.003 7.62046 33.972 7.57406C33.9565 7.55086 33.9332 7.51992 33.9177 7.49672C33.8867 7.45032 33.848 7.40392 33.817 7.35752C33.786 7.31112 33.755 7.26472 33.7241 7.22605C33.6931 7.17965 33.6621 7.14098 33.6311 7.10232C33.6156 7.07912 33.6001 7.05591 33.5846 7.04045C33.5381 6.97858 33.4916 6.92444 33.4529 6.86258C33.0733 6.37537 32.7944 6.06603 32.6936 5.95776C32.6936 5.95776 32.6936 5.95002 32.6859 5.95002L32.6704 5.93456C32.8021 5.83402 32.9803 5.84949 33.1043 5.95776C34.4756 7.19512 35.9941 8.31647 37.1174 9.74717C41.5955 15.4854 42.3082 21.9197 39.9762 28.6788L39.9065 28.6478Z" fill="#F4A86E"/>
<path d="M39.9054 28.6434C39.5568 29.6488 39.1694 30.631 38.7433 31.5899C36.7832 33.6083 34.2962 35.1241 31.5072 35.9129C31.36 35.9516 31.2128 35.9903 31.0656 36.0289C29.7795 36.3537 28.4392 36.5239 27.0524 36.5239C26.2621 36.5239 25.4796 36.4697 24.7126 36.3537C24.8211 36.2223 24.9296 36.0985 25.038 35.9671C25.1465 35.8356 25.255 35.7119 25.3557 35.5804C25.4564 35.4644 25.5494 35.3406 25.6501 35.2246C25.6733 35.2014 25.6888 35.1782 25.7121 35.1473C25.7973 35.0468 25.8748 34.9462 25.9522 34.838C25.9832 34.807 26.0065 34.7684 26.0375 34.7374C26.2234 34.4977 26.4093 34.2657 26.5875 34.026C26.5953 34.0105 26.6108 34.0028 26.6185 33.9873C26.7192 33.8558 26.8122 33.7321 26.9129 33.6006C26.9981 33.4923 27.0834 33.3763 27.1608 33.2681C27.2848 33.0979 27.4088 32.9355 27.525 32.7654C27.6102 32.6494 27.6954 32.5334 27.7806 32.4097C27.8581 32.3014 27.9356 32.1854 28.0208 32.0771C28.0673 32.0152 28.1138 31.9456 28.1525 31.8838C28.2532 31.7446 28.3462 31.6054 28.4392 31.4584C28.5089 31.3579 28.5786 31.2496 28.6484 31.1491C28.6484 31.1491 28.6484 31.1414 28.6561 31.1336C28.7336 31.0176 28.8111 30.9016 28.8885 30.7779C28.9118 30.747 28.9273 30.716 28.9505 30.6851C29.0357 30.5536 29.1209 30.4221 29.2062 30.2907C29.2914 30.1515 29.3844 30.0123 29.4696 29.8731C29.5161 29.8035 29.5626 29.7261 29.609 29.6488C29.6555 29.5792 29.6943 29.5096 29.7407 29.4323C29.8337 29.2853 29.9189 29.1461 30.0042 28.9992C30.0429 28.9296 30.0894 28.86 30.1281 28.7904C30.1746 28.7208 30.2133 28.6434 30.2598 28.5738C30.3528 28.4192 30.438 28.2645 30.531 28.1098C30.5697 28.048 30.6007 27.9861 30.6395 27.9242C30.6782 27.8546 30.7247 27.7773 30.7634 27.7077C30.8796 27.5066 30.9881 27.3056 31.0965 27.0967C31.143 27.0039 31.1973 26.9111 31.2438 26.8183C31.3057 26.6946 31.3755 26.5786 31.4374 26.4549C31.4839 26.3621 31.5304 26.277 31.5769 26.1842C31.6234 26.0991 31.6699 26.0063 31.7086 25.9213C31.7086 25.9058 31.7241 25.8903 31.7318 25.8749C31.7783 25.7898 31.8171 25.7047 31.8635 25.6119C31.8868 25.5655 31.91 25.5114 31.9333 25.465C32.0262 25.2794 32.1192 25.0938 32.2044 24.9004C32.2509 24.8076 32.2974 24.7071 32.3439 24.6143C32.3904 24.5138 32.4369 24.421 32.4833 24.3204C32.5221 24.2431 32.5531 24.1658 32.5918 24.0884C32.6151 24.0266 32.646 23.9724 32.6693 23.9105C32.7623 23.694 32.8552 23.4852 32.9482 23.2687C32.9792 23.1991 33.0102 23.1295 33.0334 23.0599C33.0876 22.9361 33.1419 22.8047 33.1884 22.6809C35.4661 17.1515 36.0394 11.653 32.5066 6.34779C32.4059 6.19312 32.4369 5.98431 32.5918 5.88378C32.7235 5.78324 32.9017 5.79871 33.0257 5.90698C34.397 7.14434 35.9155 8.26569 37.0388 9.69639C41.5169 15.4346 42.2296 21.8689 39.8977 28.628L39.9054 28.6434Z" fill="#F4C254"/>
<path d="M30.1289 5.73825C31.7164 5.73825 33.0032 4.4537 33.0032 2.86913C33.0032 1.28455 31.7164 0 30.1289 0C28.5415 0 27.2546 1.28455 27.2546 2.86913C27.2546 4.4537 28.5415 5.73825 30.1289 5.73825Z" fill="#F4C254"/>
</svg>
