<svg width="146" height="57" viewBox="0 0 146 57" fill="none" xmlns="http://www.w3.org/2000/svg">
<g clip-path="url(#clip0_553_6698)">
<path d="M40.9385 19.5566C40.9301 19.3786 40.9132 19.2006 40.8963 19.0225C40.8963 18.9462 40.8795 18.8615 40.871 18.7852C40.8541 18.6411 40.8457 18.497 40.8288 18.3613C40.8288 18.3444 40.8288 18.3189 40.8288 18.302C40.8119 18.1579 40.795 18.0138 40.7782 17.8696C40.7782 17.8612 40.7782 17.8442 40.7782 17.8357C40.7782 17.7849 40.7613 17.7255 40.7528 17.6747C40.7528 17.6492 40.7528 17.6153 40.7444 17.5899C40.736 17.5306 40.7275 17.4627 40.7191 17.4034C40.7106 17.3271 40.6937 17.2508 40.6853 17.183C40.66 17.0389 40.6347 16.8863 40.6093 16.7422C40.5671 16.5218 40.5249 16.3099 40.4827 16.0979C40.449 15.9538 40.4236 15.8182 40.3899 15.6826C40.373 15.6147 40.3561 15.5469 40.3392 15.4791C40.3223 15.4198 40.3055 15.3604 40.297 15.2926C40.2126 14.9451 40.1113 14.606 40.0185 14.2838C39.9762 14.1567 39.9425 14.0295 39.9003 13.9024C39.8581 13.7752 39.8159 13.6481 39.7737 13.5209C39.7061 13.3344 39.6386 13.1479 39.5711 12.9614C39.5289 12.8427 39.4782 12.7241 39.436 12.6054C39.4107 12.546 39.3854 12.4867 39.3685 12.4274C39.3432 12.368 39.3178 12.3087 39.3009 12.2493C39.2756 12.19 39.2503 12.1391 39.2334 12.0798C39.2081 12.0205 39.1828 11.9696 39.1574 11.9103C39.1321 11.8509 39.1068 11.8 39.0815 11.7407C39.0561 11.6814 39.0308 11.6305 39.0055 11.5796C38.9549 11.4694 38.9042 11.3592 38.8536 11.2575C38.7776 11.0964 38.7016 10.9439 38.6256 10.7913C38.6003 10.7404 38.575 10.6895 38.5497 10.6387C38.499 10.537 38.4484 10.4437 38.3977 10.3505C38.3724 10.2996 38.3471 10.2572 38.3218 10.2064C38.2711 10.1131 38.2205 10.0199 38.1698 9.92661C38.1445 9.88422 38.1192 9.83336 38.0938 9.79098C38.0432 9.70621 37.9925 9.61296 37.9419 9.52819C37.8913 9.44341 37.8406 9.35864 37.79 9.27387C37.7393 9.1891 37.6887 9.11281 37.6465 9.03651C37.5958 8.96022 37.5452 8.88393 37.503 8.80763C37.4608 8.74829 37.427 8.68895 37.3848 8.62961C37.351 8.57027 37.3088 8.51093 37.275 8.46007C37.2413 8.40073 37.1991 8.34987 37.1653 8.29901C37.1484 8.27358 37.1231 8.23967 37.1062 8.21424C37.0725 8.16337 37.0302 8.11251 36.9965 8.06165C36.9627 8.01079 36.929 7.95992 36.8952 7.91754C36.8614 7.86668 36.8277 7.82429 36.7939 7.7819C36.777 7.75647 36.7601 7.73104 36.7432 7.71409C36.6926 7.64627 36.6419 7.58693 36.5997 7.51911C36.1861 6.98506 35.8822 6.64597 35.7725 6.52729C35.7725 6.52729 35.7725 6.51882 35.7641 6.51882L35.7472 6.50186C35.5868 6.62054 35.5446 6.84095 35.6543 7.01049C39.5035 12.8258 38.8789 18.853 36.3972 24.9141C36.3381 25.0498 36.2874 25.1939 36.2283 25.3295C36.1946 25.4058 36.1608 25.4821 36.1355 25.5584C36.0342 25.7957 35.9329 26.0246 35.8316 26.262C35.8063 26.3298 35.7725 26.3891 35.7472 26.4569C35.7134 26.5417 35.6712 26.6265 35.629 26.7113C35.5784 26.8215 35.5277 26.9232 35.4771 27.0334C35.4264 27.1436 35.3758 27.2453 35.3251 27.347C35.2238 27.5505 35.131 27.7624 35.0297 27.9659C35.0043 28.0167 34.979 28.0761 34.9537 28.1269C34.903 28.2202 34.8608 28.3219 34.8102 28.4152C34.8102 28.4321 34.7933 28.4491 34.7849 28.466C34.7342 28.5593 34.6836 28.661 34.6414 28.7542C34.5907 28.856 34.5401 28.9492 34.4894 29.0509C34.4219 29.1866 34.3459 29.3137 34.2784 29.4494C34.2277 29.5511 34.1687 29.6528 34.118 29.7545C33.9998 29.9749 33.8732 30.2038 33.755 30.4242C33.7128 30.509 33.6622 30.5853 33.62 30.6616C33.5778 30.7294 33.544 30.7972 33.5018 30.865C33.4005 31.0346 33.3077 31.2041 33.2064 31.3737C33.1557 31.45 33.1135 31.5347 33.0629 31.611C33.0206 31.6873 32.97 31.7636 32.9278 31.8399C32.8349 32.001 32.7336 32.162 32.6408 32.3146C32.5901 32.3909 32.5479 32.4672 32.4973 32.552C32.4466 32.6368 32.396 32.713 32.3453 32.7978C32.2525 32.9504 32.1512 33.103 32.0583 33.2556C31.9655 33.3997 31.8726 33.5438 31.7798 33.6879C31.7629 33.7218 31.7376 33.7557 31.7123 33.7896C31.6278 33.9168 31.5434 34.044 31.459 34.1796C31.459 34.1796 31.459 34.1881 31.4506 34.1965C31.3746 34.3067 31.2986 34.4254 31.2227 34.5356C31.1214 34.6882 31.0116 34.8408 30.9103 35.0019C30.8597 35.0697 30.809 35.146 30.7668 35.2138C30.6824 35.3325 30.598 35.4596 30.5052 35.5783C30.4123 35.7055 30.3194 35.8326 30.2266 35.9683C30.0915 36.1548 29.9649 36.3328 29.8299 36.5193C29.737 36.6379 29.6526 36.7651 29.5597 36.8838C29.45 37.0279 29.3487 37.172 29.239 37.3076C29.2305 37.3246 29.2136 37.3331 29.2052 37.35C29.0026 37.6128 28.8085 37.8671 28.6059 38.1299C28.5805 38.1638 28.5468 38.2062 28.513 38.2401C28.4286 38.3503 28.3357 38.4605 28.2513 38.5792C28.226 38.6046 28.2091 38.6301 28.1838 38.664C28.0825 38.7996 27.9728 38.9268 27.863 39.0539C27.7449 39.198 27.6351 39.3421 27.5169 39.4778C27.3988 39.6219 27.2806 39.7575 27.1624 39.9016C26.0651 41.2071 24.917 42.4871 23.7268 43.7333C23.4736 44.0045 23.1697 44.2249 22.8405 44.4793C22.6632 44.6149 22.41 44.5979 22.258 44.4369C20.7386 42.8262 20.3081 40.5374 21.0003 38.5368C21.0594 38.3757 21.1185 38.2147 21.1944 38.0536C21.2113 38.0112 21.2282 37.9773 21.2451 37.9349C21.4392 37.5365 21.6756 37.1466 21.9626 36.7905C21.9964 36.7566 22.0217 36.7142 22.0555 36.6803C22.0555 36.6803 22.0555 36.6803 22.0639 36.6803C23.0431 35.4596 24.0138 34.2474 24.9677 33.0437C25.5164 32.3485 26.0651 31.6534 26.6137 30.9583C29.5682 27.1945 31.957 23.1339 32.97 18.4122C33.046 18.0816 33.1051 17.7425 33.1641 17.4034C33.257 16.8694 33.3161 16.3438 33.3499 15.8182C33.6369 11.249 31.7713 7.12069 28.6903 4.46736C28.378 4.19609 28.0487 3.94178 27.7111 3.70442C25.0015 1.79707 21.5321 0.940886 17.8179 1.70382C14.5259 2.38199 11.1747 4.09437 8.4988 6.17126C3.12171 10.2403 0.319217 16.1573 0.158833 22.6253C0.158833 22.6253 0.158833 22.6253 0.158833 22.6338C0.0659793 26.6011 0.969194 30.7803 2.8938 34.8747C4.36258 38.0028 6.1268 40.8934 8.11894 43.5976C8.828 44.5556 9.56239 45.4965 10.3305 46.412C12.9895 49.5994 15.9609 52.5325 19.1432 55.2791C25.9891 49.752 30.8259 44.5725 34.1855 39.7999C34.2868 39.6558 34.3881 39.5032 34.4894 39.3591C39.8749 31.5347 41.2509 24.8293 40.9301 19.5481L40.9385 19.5566ZM16.4083 10.3166C16.4083 10.3166 16.4758 10.3166 16.5011 10.3166C16.6446 10.3166 16.7797 10.3081 16.9232 10.3081C16.9738 10.3081 17.0245 10.3081 17.0751 10.3081C20.0886 10.3674 22.6801 12.1561 23.8957 14.7331C24.3768 15.7419 24.6469 16.8694 24.6469 18.0646C24.6469 18.285 24.6385 18.5054 24.6216 18.7258C24.5963 19.0649 24.5456 19.404 24.4697 19.7346C23.7099 23.2102 20.6204 25.8212 16.9232 25.8212C15.8427 25.8212 14.8213 25.6008 13.8843 25.2023C13.1668 24.9735 12.5 24.575 11.9597 24.0579C11.8753 23.9816 11.7993 23.8969 11.7234 23.8121C10.1617 22.3964 9.19098 20.345 9.19098 18.0646C9.19098 13.9532 12.3733 10.5963 16.3998 10.325L16.4083 10.3166ZM34.1855 39.8084C34.1265 39.7067 34.0674 39.6049 34.0083 39.5032C34.1687 39.4608 34.329 39.4184 34.4894 39.376C34.3881 39.5202 34.2868 39.6643 34.1855 39.8084Z" fill="#6E5EA8"/>
<path d="M35.9666 45.0812C33.0459 48.7518 29.6694 52.0833 26.0903 55.2537C25.7611 55.5419 25.4319 55.8217 25.0942 56.1099C23.6339 57.3136 21.5236 57.2967 20.0801 56.076C19.7678 55.8132 19.4639 55.5504 19.16 55.2876C15.9777 52.5326 12.9979 49.608 10.3474 46.4206C9.58764 45.505 8.84481 44.5641 8.13574 43.6062C9.13181 39.41 11.9765 35.9259 15.7582 34.0864C15.8764 34.0271 15.9946 33.9762 16.1127 33.9253C17.8854 33.12 19.8522 32.6792 21.9203 32.6792C22.9417 32.6792 23.9462 32.7894 24.9001 32.9929C23.9462 34.1966 22.9755 35.4088 21.9963 36.6295C21.9963 36.6295 21.9963 36.6295 21.9878 36.6295C21.9625 36.6634 21.9288 36.7058 21.895 36.7397C21.608 37.1042 21.3632 37.4857 21.1775 37.8841C21.1606 37.9265 21.1437 37.9604 21.1268 38.0028C21.0509 38.1639 20.9918 38.3249 20.9327 38.486C20.2405 40.4866 20.6795 42.7669 22.1904 44.3861C22.3424 44.5471 22.5956 44.5726 22.7729 44.4285C23.1021 44.1741 23.406 43.9537 23.6592 43.6825C24.8494 42.4363 25.9974 41.1648 27.0948 39.8508C27.213 39.7067 27.3312 39.5711 27.4493 39.427C27.5675 39.2829 27.6857 39.1472 27.7954 39.0031C27.9052 38.876 28.0065 38.7403 28.1162 38.6132C28.1415 38.5877 28.1584 38.5623 28.1837 38.5284C28.2766 38.4182 28.361 38.308 28.4454 38.1893C28.4792 38.1554 28.5045 38.113 28.5383 38.0791C28.7409 37.8163 28.9434 37.562 29.1376 37.2992C29.146 37.2823 29.1629 37.2738 29.1714 37.2568C29.2811 37.1127 29.3824 36.9771 29.4921 36.833C29.585 36.7143 29.6778 36.5871 29.7622 36.4685C29.8973 36.282 30.0324 36.1039 30.159 35.9175C30.2518 35.7903 30.3447 35.6631 30.4375 35.5275C31.8641 36.6041 33.89 37.8926 34.827 39.427C34.8861 39.5287 34.4387 39.7915 34.4978 39.8932C34.4978 39.8932 34.1939 39.7915 34.2023 39.7915C35.114 41.3852 35.7302 43.1654 35.975 45.0727L35.9666 45.0812Z" fill="#F4967E"/>
<path d="M33.2741 15.047C33.2656 15.8014 33.1897 16.5728 33.063 17.3527C33.0124 17.6494 32.9533 17.9461 32.8942 18.2344C31.8897 23.007 29.4839 27.1014 26.5042 30.9076C26.1243 31.3993 25.736 31.8825 25.3477 32.3741C25.2127 32.5437 25.0861 32.7048 24.951 32.8743C23.9634 34.1204 22.9673 35.3666 21.9543 36.6296C21.9543 36.6296 21.9543 36.6296 21.9459 36.6296C21.9206 36.6636 21.8868 36.7059 21.853 36.7399C21.566 37.1044 21.3212 37.4858 21.1355 37.8843C21.1355 37.8843 21.1187 37.8758 21.1102 37.8673C21.0427 37.8334 20.9836 37.7995 20.9161 37.7571C19.0843 36.7229 17.4552 35.375 16.0961 33.7813C15.9779 33.6372 15.8598 33.5016 15.7416 33.3575C13.6566 30.755 12.2891 27.5422 11.9346 24.0412C12.4748 24.5583 13.1332 24.9567 13.8592 25.1856C14.7877 25.584 15.8175 25.8044 16.898 25.8044C20.6375 25.8044 23.7608 23.1341 24.4698 19.5907C24.5711 19.0905 24.6218 18.5734 24.6218 18.0479C24.6218 18.0309 24.6218 18.0055 24.6218 17.9885C24.6133 16.8187 24.3432 15.7082 23.879 14.7164C22.6381 12.0969 19.9791 10.2913 16.9065 10.2913C16.7292 10.2913 16.5604 10.2913 16.3916 10.3083C16.4338 10.2659 16.476 10.215 16.5182 10.1726C16.7039 9.96918 16.898 9.76573 17.0922 9.57076C20.0804 6.58682 24.1153 4.66252 28.5976 4.4082C31.5183 6.91742 33.3416 10.7491 33.2825 15.0385L33.2741 15.047Z" fill="#9E91C5"/>
<path d="M43.6395 31.3993C43.2596 32.5013 42.8375 33.5779 42.3733 34.6291C40.6935 38.4438 38.4987 41.894 35.9579 45.0813C33.0372 48.7519 29.6607 52.0834 26.0816 55.2539C25.7524 55.5421 25.4232 55.8218 25.0856 56.11C23.6252 57.3138 21.5149 57.2968 20.0715 56.0761C19.7591 55.8133 19.4553 55.5506 19.1514 55.2878C25.9972 49.7607 30.8341 44.5812 34.1937 39.8001C34.295 39.656 34.3963 39.5119 34.4976 39.3678C40.0604 31.2721 41.3519 24.3803 40.9045 19.0227C40.9045 18.9465 40.8876 18.8617 40.8792 18.7854C40.8623 18.6413 40.8538 18.4972 40.837 18.3615C40.837 18.3446 40.837 18.3191 40.837 18.3022C40.8201 18.1581 40.8032 18.014 40.7863 17.8699C40.7863 17.8614 40.7863 17.8444 40.7863 17.836C40.7863 17.7851 40.7694 17.7257 40.761 17.6749C40.761 17.6495 40.761 17.6155 40.7525 17.5901C40.7441 17.5308 40.7357 17.463 40.7272 17.4036C40.7188 17.3273 40.7019 17.251 40.6935 17.1832C40.6681 17.0391 40.6428 16.8865 40.6175 16.7424C40.5753 16.522 40.5331 16.3101 40.4909 16.0981C40.4571 15.954 40.4318 15.8184 40.398 15.6828C40.3811 15.615 40.3643 15.5471 40.3474 15.4793C40.3305 15.42 40.3136 15.3606 40.3052 15.2928C40.2207 14.9453 40.1195 14.6062 40.0266 14.284C39.9844 14.1569 39.9506 14.0297 39.9084 13.9026C39.8662 13.7754 39.824 13.6483 39.7818 13.5211C39.7143 13.3346 39.6467 13.1481 39.5792 12.9616C39.537 12.8429 39.4864 12.7243 39.4442 12.6056C39.4188 12.5462 39.3935 12.4869 39.3766 12.4276C39.3513 12.3682 39.326 12.3089 39.3091 12.2495C39.2838 12.1902 39.2584 12.1393 39.2416 12.08C39.2162 12.0207 39.1909 11.9698 39.1656 11.9105C39.1403 11.8511 39.1149 11.8003 39.0896 11.7409C39.0643 11.6816 39.039 11.6307 39.0136 11.5799C38.963 11.4696 38.9124 11.3594 38.8617 11.2577C38.7857 11.0967 38.7098 10.9441 38.6338 10.7915C38.6085 10.7406 38.5831 10.6898 38.5578 10.6389C38.5072 10.5372 38.4565 10.4439 38.4059 10.3507C38.3806 10.2998 38.3552 10.2574 38.3299 10.2066C38.2793 10.1133 38.2286 10.0201 38.178 9.92682C38.1526 9.88443 38.1273 9.83357 38.102 9.79118C38.0513 9.70641 38.0007 9.61317 37.95 9.52839C37.8994 9.44362 37.8488 9.35885 37.7981 9.27408C37.7475 9.18931 37.6968 9.11302 37.6546 9.03672C37.604 8.96043 37.5533 8.88414 37.5111 8.80784C37.4689 8.7485 37.4351 8.68916 37.3929 8.62982C37.3592 8.57048 37.317 8.51114 37.2832 8.46028C37.2494 8.40094 37.2072 8.35008 37.1735 8.29922C37.1566 8.27378 37.1312 8.23988 37.1144 8.21444C37.0806 8.16358 37.0384 8.11272 37.0046 8.06186C36.9709 8.01099 36.9371 7.96013 36.9033 7.91775C36.8696 7.86688 36.8358 7.8245 36.802 7.78211C36.7852 7.75668 36.7683 7.73125 36.7514 7.7143C36.7007 7.64648 36.6501 7.58714 36.6079 7.51932C36.1943 6.98527 35.8904 6.64618 35.7806 6.5275C35.7806 6.5275 35.7806 6.51903 35.7722 6.51903L35.7553 6.50207C35.8988 6.39187 36.093 6.40882 36.228 6.5275C37.7221 7.88384 39.3766 9.11302 40.6006 10.6813C45.4797 16.9713 46.2562 24.0242 43.7154 31.4332L43.6395 31.3993Z" fill="#F4A86E"/>
<path d="M43.6402 31.3994C43.2604 32.5014 42.8383 33.578 42.374 34.6292C40.2384 36.8417 37.5287 38.5032 34.4899 39.3679C34.3295 39.4102 34.1691 39.4526 34.0087 39.495C32.6075 39.8511 31.1472 40.0375 29.6362 40.0375C28.7752 40.0375 27.9226 39.9782 27.0869 39.8511C27.2051 39.7069 27.3233 39.5713 27.4414 39.4272C27.5596 39.2831 27.6778 39.1475 27.7875 39.0033C27.8973 38.8762 27.9986 38.7406 28.1083 38.6134C28.1336 38.588 28.1505 38.5625 28.1758 38.5286C28.2687 38.4184 28.3531 38.3082 28.4375 38.1895C28.4713 38.1556 28.4966 38.1132 28.5304 38.0793C28.733 37.8165 28.9355 37.5622 29.1297 37.2994C29.1381 37.2825 29.155 37.274 29.1635 37.2571C29.2732 37.113 29.3745 36.9773 29.4842 36.8332C29.5771 36.7145 29.6699 36.5874 29.7544 36.4687C29.8894 36.2822 30.0245 36.1042 30.1511 35.9177C30.2439 35.7905 30.3368 35.6634 30.4297 35.5277C30.5141 35.4091 30.5985 35.2819 30.6913 35.1632C30.742 35.0954 30.7926 35.0191 30.8348 34.9513C30.9446 34.7987 31.0459 34.6461 31.1472 34.4851C31.2231 34.3748 31.2991 34.2562 31.3751 34.146C31.3751 34.146 31.3751 34.1375 31.3835 34.129C31.4679 34.0019 31.5523 33.8747 31.6368 33.7391C31.6621 33.7052 31.679 33.6712 31.7043 33.6373C31.7971 33.4932 31.89 33.3491 31.9828 33.205C32.0757 33.0524 32.177 32.8998 32.2698 32.7472C32.3205 32.671 32.3711 32.5862 32.4218 32.5014C32.4724 32.4251 32.5146 32.3488 32.5653 32.2641C32.6666 32.103 32.7594 31.9504 32.8523 31.7893C32.8945 31.713 32.9451 31.6367 32.9874 31.5605C33.038 31.4842 33.0802 31.3994 33.1309 31.3231C33.2322 31.1536 33.325 30.984 33.4263 30.8145C33.4685 30.7466 33.5023 30.6788 33.5445 30.611C33.5867 30.5347 33.6373 30.45 33.6795 30.3737C33.8062 30.1533 33.9243 29.9328 34.0425 29.704C34.0932 29.6022 34.1522 29.5005 34.2029 29.3988C34.2704 29.2632 34.3464 29.136 34.4139 29.0004C34.4646 28.8986 34.5152 28.8054 34.5659 28.7037C34.6165 28.6104 34.6672 28.5087 34.7094 28.4154C34.7094 28.3985 34.7263 28.3815 34.7347 28.3646C34.7853 28.2713 34.8275 28.1781 34.8782 28.0764C34.9035 28.0255 34.9288 27.9662 34.9542 27.9153C35.0555 27.7118 35.1568 27.5084 35.2496 27.2965C35.3003 27.1947 35.3509 27.0845 35.4016 26.9828C35.4522 26.8726 35.5028 26.7709 35.5535 26.6607C35.5957 26.5759 35.6295 26.4911 35.6717 26.4064C35.697 26.3386 35.7308 26.2792 35.7561 26.2114C35.8574 25.974 35.9587 25.7452 36.06 25.5078C36.0937 25.4315 36.1275 25.3552 36.1528 25.2789C36.2119 25.1433 36.271 24.9992 36.3217 24.8635C38.8034 18.8024 39.428 12.7752 35.5788 6.95992C35.4691 6.79037 35.5028 6.56149 35.6717 6.45129C35.8152 6.34109 36.0093 6.35804 36.1444 6.47672C37.6385 7.83306 39.293 9.06224 40.517 10.6305C45.396 16.9205 46.1726 23.9734 43.6318 31.3824L43.6402 31.3994Z" fill="#F4C254"/>
<path d="M32.9872 6.29001C34.7168 6.29001 36.1189 4.88194 36.1189 3.145C36.1189 1.40807 34.7168 0 32.9872 0C31.2576 0 29.8555 1.40807 29.8555 3.145C29.8555 4.88194 31.2576 6.29001 32.9872 6.29001Z" fill="#F4C254"/>
<path d="M72.4975 39.4931H64.4867C62.8997 39.4931 61.6082 38.2046 61.6082 36.6025V35.9158C61.6082 34.3221 62.8997 33.0251 64.4867 33.0251H70.5306C71.3241 33.0251 72.0416 32.703 72.565 32.1774C73.0883 31.6518 73.4091 30.9313 73.4091 30.1344C73.4091 28.5407 72.126 27.2437 70.5306 27.2437H64.4867C62.8997 27.2437 61.6082 25.9467 61.6082 24.353V24.0563C61.6082 22.4627 62.8997 21.1657 64.4867 21.1657H72.4975C73.2909 21.1657 74.0084 20.8435 74.5318 20.3179C75.0552 19.7924 75.3759 19.0718 75.3759 18.275C75.3759 16.6813 74.0844 15.3843 72.4975 15.3843H58.0123C56.4253 15.3843 55.1338 16.6728 55.1338 18.275V42.3499C55.1338 43.9436 56.4253 45.2406 58.0123 45.2406H72.4975C73.2909 45.2406 74.0084 44.9185 74.5318 44.3929C75.0552 43.8673 75.3759 43.1468 75.3759 42.3499C75.3759 40.7562 74.0844 39.4592 72.4975 39.4592V39.4931Z" fill="white"/>
<path d="M114.206 15.4185C112.796 15.4185 111.589 16.4188 111.311 17.8005L108.93 29.7448L107.352 38.0438H107.225L105.393 29.7448L102.599 17.7073C102.287 16.3679 101.097 15.4185 99.7294 15.4185H97.3489C95.973 15.4185 94.7828 16.3764 94.4705 17.7157L91.7186 29.7448L89.8447 38.0438H89.718L88.1395 29.7448L85.8013 17.809C85.5312 16.4188 84.3156 15.4185 82.906 15.4185H82.6358C80.745 15.4185 79.3437 17.1817 79.7574 19.0382L85.1513 42.969C85.4552 44.3169 86.6539 45.2748 88.0298 45.2748H90.7394C92.1154 45.2748 93.3056 44.3254 93.6095 42.986L96.8256 29.109L98.3197 22.5647H98.4463L99.8898 29.109L103.106 42.986C103.418 44.3254 104.608 45.2748 105.984 45.2748H108.669C110.045 45.2748 111.235 44.3254 111.547 42.986L117.076 19.0551C117.127 18.8262 117.152 18.6058 117.152 18.377C117.152 16.7833 115.869 15.4185 114.198 15.4185H114.206Z" fill="white"/>
<path d="M145.97 44.2914L137.858 19.2501C137.487 18.1057 136.769 17.1478 135.849 16.4781C134.929 15.8084 133.798 15.4185 132.608 15.4185C130.227 15.4185 128.108 16.9528 127.366 19.2247L119.144 44.2914C118.983 44.7746 119.346 45.2663 119.844 45.2663H124.825C125.154 45.2663 125.441 45.0544 125.534 44.7323L127.349 38.6966C127.442 38.3829 127.729 38.171 128.058 38.171H136.879C137.208 38.171 137.495 38.3829 137.588 38.6966L139.394 44.7323C139.487 45.0459 139.774 45.2663 140.104 45.2663H145.261C145.768 45.2663 146.122 44.7746 145.962 44.2914H145.97ZM134.861 32.6524H130.025C129.527 32.6524 129.172 32.1777 129.316 31.703L132.321 21.3185H132.532L135.571 31.6945C135.706 32.1692 135.351 32.6524 134.861 32.6524Z" fill="white"/>
<path d="M138.635 12.1716L139.031 11.8919C139.437 11.6037 140.002 11.7054 140.289 12.1123L142.543 15.2573C142.839 15.6727 142.737 16.2576 142.315 16.5458C141.944 16.8001 141.446 16.7408 141.142 16.4102L138.491 13.5364C138.111 13.1295 138.187 12.4853 138.643 12.1631L138.635 12.1716Z" fill="white"/>
</g>
<defs>
<clipPath id="clip0_553_6698">
<rect width="145.848" height="57.0024" fill="white" transform="translate(0.152344)"/>
</clipPath>
</defs>
</svg>
