<svg width="146" height="57" viewBox="0 0 146 57" fill="none" xmlns="http://www.w3.org/2000/svg">
<g clip-path="url(#clip0_1366_417)">
<path d="M40.7784 19.5566C40.77 19.3786 40.7531 19.2006 40.7362 19.0225C40.7362 18.9462 40.7193 18.8615 40.7109 18.7852C40.694 18.6411 40.6855 18.497 40.6687 18.3613C40.6687 18.3444 40.6687 18.3189 40.6687 18.302C40.6518 18.1579 40.6349 18.0138 40.618 17.8696C40.618 17.8612 40.618 17.8442 40.618 17.8357C40.618 17.7849 40.6011 17.7255 40.5927 17.6747C40.5927 17.6492 40.5927 17.6153 40.5842 17.5899C40.5758 17.5306 40.5674 17.4627 40.5589 17.4034C40.5505 17.3271 40.5336 17.2508 40.5252 17.183C40.4998 17.0389 40.4745 16.8863 40.4492 16.7422C40.407 16.5218 40.3648 16.3099 40.3226 16.0979C40.2888 15.9538 40.2635 15.8182 40.2297 15.6826C40.2128 15.6147 40.1959 15.5469 40.1791 15.4791C40.1622 15.4198 40.1453 15.3604 40.1369 15.2926C40.0524 14.9451 39.9511 14.606 39.8583 14.2838C39.8161 14.1567 39.7823 14.0295 39.7401 13.9024C39.6979 13.7752 39.6557 13.6481 39.6135 13.5209C39.546 13.3344 39.4784 13.1479 39.4109 12.9614C39.3687 12.8427 39.3181 12.7241 39.2758 12.6054C39.2505 12.546 39.2252 12.4867 39.2083 12.4274C39.183 12.368 39.1577 12.3087 39.1408 12.2493C39.1155 12.19 39.0901 12.1391 39.0733 12.0798C39.0479 12.0205 39.0226 11.9696 38.9973 11.9103C38.972 11.8509 38.9466 11.8 38.9213 11.7407C38.896 11.6814 38.8707 11.6305 38.8453 11.5796C38.7947 11.4694 38.744 11.3592 38.6934 11.2575C38.6174 11.0964 38.5415 10.9439 38.4655 10.7913C38.4402 10.7404 38.4148 10.6895 38.3895 10.6387C38.3389 10.537 38.2882 10.4437 38.2376 10.3505C38.2122 10.2996 38.1869 10.2572 38.1616 10.2064C38.111 10.1131 38.0603 10.0199 38.0097 9.92661C37.9843 9.88422 37.959 9.83336 37.9337 9.79098C37.883 9.70621 37.8324 9.61296 37.7817 9.52819C37.7311 9.44341 37.6805 9.35864 37.6298 9.27387C37.5792 9.1891 37.5285 9.11281 37.4863 9.03651C37.4357 8.96022 37.385 8.88393 37.3428 8.80763C37.3006 8.74829 37.2668 8.68895 37.2246 8.62961C37.1909 8.57027 37.1487 8.51093 37.1149 8.46007C37.0811 8.40073 37.0389 8.34987 37.0051 8.29901C36.9883 8.27358 36.9629 8.23967 36.9461 8.21424C36.9123 8.16337 36.8701 8.11251 36.8363 8.06165C36.8026 8.01079 36.7688 7.95992 36.735 7.91754C36.7013 7.86668 36.6675 7.82429 36.6337 7.7819C36.6169 7.75647 36.6 7.73104 36.5831 7.71409C36.5324 7.64627 36.4818 7.58693 36.4396 7.51911C36.026 6.98506 35.7221 6.64597 35.6123 6.52729C35.6123 6.52729 35.6123 6.51882 35.6039 6.51882L35.587 6.50186C35.4266 6.62054 35.3844 6.84095 35.4942 7.01049C39.3434 12.8258 38.7187 18.853 36.237 24.9141C36.1779 25.0498 36.1273 25.1939 36.0682 25.3295C36.0344 25.4058 36.0006 25.4821 35.9753 25.5584C35.874 25.7957 35.7727 26.0246 35.6714 26.262C35.6461 26.3298 35.6123 26.3891 35.587 26.4569C35.5533 26.5417 35.511 26.6265 35.4688 26.7113C35.4182 26.8215 35.3675 26.9232 35.3169 27.0334C35.2663 27.1436 35.2156 27.2453 35.165 27.347C35.0637 27.5505 34.9708 27.7624 34.8695 27.9659C34.8442 28.0167 34.8189 28.0761 34.7935 28.1269C34.7429 28.2202 34.7007 28.3219 34.65 28.4152C34.65 28.4321 34.6332 28.4491 34.6247 28.466C34.5741 28.5593 34.5234 28.661 34.4812 28.7542C34.4306 28.856 34.3799 28.9492 34.3293 29.0509C34.2617 29.1866 34.1858 29.3137 34.1182 29.4494C34.0676 29.5511 34.0085 29.6528 33.9579 29.7545C33.8397 29.9749 33.7131 30.2038 33.5949 30.4242C33.5527 30.509 33.502 30.5853 33.4598 30.6616C33.4176 30.7294 33.3839 30.7972 33.3416 30.865C33.2403 31.0346 33.1475 31.2041 33.0462 31.3737C32.9956 31.45 32.9533 31.5347 32.9027 31.611C32.8605 31.6873 32.8098 31.7636 32.7676 31.8399C32.6748 32.001 32.5735 32.162 32.4806 32.3146C32.43 32.3909 32.3878 32.4672 32.3371 32.552C32.2865 32.6368 32.2358 32.713 32.1852 32.7978C32.0923 32.9504 31.991 33.103 31.8982 33.2556C31.8053 33.3997 31.7125 33.5438 31.6196 33.6879C31.6027 33.7218 31.5774 33.7557 31.5521 33.7896C31.4677 33.9168 31.3833 34.044 31.2989 34.1796C31.2989 34.1796 31.2989 34.1881 31.2904 34.1965C31.2144 34.3067 31.1385 34.4254 31.0625 34.5356C30.9612 34.6882 30.8515 34.8408 30.7502 35.0019C30.6995 35.0697 30.6489 35.146 30.6067 35.2138C30.5223 35.3325 30.4379 35.4596 30.345 35.5783C30.2521 35.7055 30.1593 35.8326 30.0664 35.9683C29.9314 36.1548 29.8048 36.3328 29.6697 36.5193C29.5768 36.6379 29.4924 36.7651 29.3996 36.8838C29.2898 37.0279 29.1885 37.172 29.0788 37.3076C29.0704 37.3246 29.0535 37.3331 29.045 37.35C28.8425 37.6128 28.6483 37.8671 28.4457 38.1299C28.4204 38.1638 28.3866 38.2062 28.3529 38.2401C28.2684 38.3503 28.1756 38.4605 28.0912 38.5792C28.0659 38.6046 28.049 38.6301 28.0237 38.664C27.9224 38.7996 27.8126 38.9268 27.7029 39.0539C27.5847 39.198 27.475 39.3421 27.3568 39.4778C27.2386 39.6219 27.1204 39.7575 27.0023 39.9016C25.9049 41.2071 24.7569 42.4871 23.5667 43.7333C23.3134 44.0045 23.0095 44.2249 22.6803 44.4793C22.5031 44.6149 22.2498 44.5979 22.0979 44.4369C20.5785 42.8262 20.148 40.5374 20.8401 38.5368C20.8992 38.3757 20.9583 38.2147 21.0343 38.0536C21.0512 38.0112 21.0681 37.9773 21.0849 37.9349C21.2791 37.5365 21.5154 37.1466 21.8024 36.7905C21.8362 36.7566 21.8615 36.7142 21.8953 36.6803C21.8953 36.6803 21.8953 36.6803 21.9037 36.6803C22.8829 35.4596 23.8537 34.2474 24.8075 33.0437C25.3562 32.3485 25.9049 31.6534 26.4536 30.9583C29.408 27.1945 31.7969 23.1339 32.8098 18.4122C32.8858 18.0816 32.9449 17.7425 33.004 17.4034C33.0968 16.8694 33.1559 16.3438 33.1897 15.8182C33.4767 11.249 31.6112 7.12069 28.5301 4.46736C28.2178 4.19609 27.8886 3.94178 27.5509 3.70442C24.8413 1.79707 21.3719 0.940886 17.6578 1.70382C14.3657 2.38199 11.0145 4.09437 8.33864 6.17126C2.96156 10.2403 0.159061 16.1573 -0.00132316 22.6253C-0.00132316 22.6253 -0.00132316 22.6253 -0.00132316 22.6338C-0.094177 26.6011 0.809038 30.7803 2.73364 34.8747C4.20242 38.0028 5.96665 40.8934 7.95878 43.5976C8.66785 44.5556 9.40224 45.4965 10.1704 46.412C12.8294 49.5994 15.8007 52.5325 18.9831 55.2791C25.8289 49.752 30.6658 44.5725 34.0254 39.7999C34.1267 39.6558 34.228 39.5032 34.3293 39.3591C39.7148 31.5347 41.0907 24.8293 40.7699 19.5481L40.7784 19.5566ZM16.2481 10.3166C16.2481 10.3166 16.3156 10.3166 16.341 10.3166C16.4845 10.3166 16.6195 10.3081 16.763 10.3081C16.8137 10.3081 16.8643 10.3081 16.915 10.3081C19.9285 10.3674 22.52 12.1561 23.7355 14.7331C24.2166 15.7419 24.4868 16.8694 24.4868 18.0646C24.4868 18.285 24.4783 18.5054 24.4614 18.7258C24.4361 19.0649 24.3855 19.404 24.3095 19.7346C23.5498 23.2102 20.4603 25.8212 16.763 25.8212C15.6825 25.8212 14.6611 25.6008 13.7242 25.2023C13.0067 24.9735 12.3398 24.575 11.7996 24.0579C11.7151 23.9816 11.6392 23.8969 11.5632 23.8121C10.0016 22.3964 9.03082 20.345 9.03082 18.0646C9.03082 13.9532 12.2132 10.5963 16.2397 10.325L16.2481 10.3166ZM34.0254 39.8084C33.9663 39.7067 33.9072 39.6049 33.8481 39.5032C34.0085 39.4608 34.1689 39.4184 34.3293 39.376C34.228 39.5202 34.1267 39.6643 34.0254 39.8084Z" fill="#6E5EA8"/>
<path d="M35.8074 45.0812C32.8867 48.7518 29.5102 52.0833 25.9311 55.2537C25.6019 55.5419 25.2727 55.8217 24.935 56.1099C23.4747 57.3136 21.3644 57.2967 19.9209 56.076C19.6086 55.8132 19.3047 55.5504 19.0008 55.2876C15.8185 52.5326 12.8387 49.608 10.1882 46.4206C9.42846 45.505 8.68563 44.5641 7.97656 43.6062C8.97263 39.41 11.8173 35.9259 15.599 34.0864C15.7172 34.0271 15.8354 33.9762 15.9536 33.9253C17.7262 33.12 19.693 32.6792 21.7611 32.6792C22.7825 32.6792 23.787 32.7894 24.7409 32.9929C23.787 34.1966 22.8163 35.4088 21.8371 36.6295C21.8371 36.6295 21.8371 36.6295 21.8287 36.6295C21.8033 36.6634 21.7696 36.7058 21.7358 36.7397C21.4488 37.1042 21.204 37.4857 21.0183 37.8841C21.0014 37.9265 20.9845 37.9604 20.9677 38.0028C20.8917 38.1639 20.8326 38.3249 20.7735 38.486C20.0813 40.4866 20.5203 42.7669 22.0313 44.3861C22.1832 44.5471 22.4364 44.5726 22.6137 44.4285C22.9429 44.1741 23.2468 43.9537 23.5 43.6825C24.6903 42.4363 25.8383 41.1648 26.9356 39.8508C27.0538 39.7067 27.172 39.5711 27.2902 39.427C27.4083 39.2829 27.5265 39.1472 27.6363 39.0031C27.746 38.876 27.8473 38.7403 27.957 38.6132C27.9823 38.5877 27.9992 38.5623 28.0245 38.5284C28.1174 38.4182 28.2018 38.308 28.2862 38.1893C28.32 38.1554 28.3453 38.113 28.3791 38.0791C28.5817 37.8163 28.7843 37.562 28.9784 37.2992C28.9869 37.2823 29.0037 37.2738 29.0122 37.2568C29.1219 37.1127 29.2232 36.9771 29.3329 36.833C29.4258 36.7143 29.5187 36.5871 29.6031 36.4685C29.7381 36.282 29.8732 36.1039 29.9998 35.9175C30.0927 35.7903 30.1855 35.6631 30.2784 35.5275C31.7049 36.6041 33.7308 37.8926 34.6678 39.427C34.7269 39.5287 34.2795 39.7915 34.3386 39.8932C34.3386 39.8932 34.0347 39.7915 34.0432 39.7915C34.9548 41.3852 35.571 43.1654 35.8158 45.0727L35.8074 45.0812Z" fill="#F4967E"/>
<path d="M33.1129 15.047C33.1045 15.8014 33.0285 16.5728 32.9019 17.3527C32.8513 17.6494 32.7922 17.9461 32.7331 18.2344C31.7286 23.007 29.3228 27.1014 26.343 30.9076C25.9632 31.3993 25.5749 31.8825 25.1866 32.3741C25.0515 32.5437 24.9249 32.7048 24.7899 32.8743C23.8022 34.1204 22.8062 35.3666 21.7932 36.6296C21.7932 36.6296 21.7932 36.6296 21.7848 36.6296C21.7594 36.6636 21.7257 36.7059 21.6919 36.7399C21.4049 37.1044 21.1601 37.4858 20.9744 37.8843C20.9744 37.8843 20.9575 37.8758 20.9491 37.8673C20.8816 37.8334 20.8225 37.7995 20.7549 37.7571C18.9232 36.7229 17.294 35.375 15.935 33.7813C15.8168 33.6372 15.6986 33.5016 15.5804 33.3575C13.4955 30.755 12.128 27.5422 11.7734 24.0412C12.3137 24.5583 12.9721 24.9567 13.698 25.1856C14.6266 25.584 15.6564 25.8044 16.7369 25.8044C20.4764 25.8044 23.5996 23.1341 24.3087 19.5907C24.41 19.0905 24.4606 18.5734 24.4606 18.0479C24.4606 18.0309 24.4606 18.0055 24.4606 17.9885C24.4522 16.8187 24.1821 15.7082 23.7178 14.7164C22.477 12.0969 19.818 10.2913 16.7453 10.2913C16.5681 10.2913 16.3992 10.2913 16.2304 10.3083C16.2726 10.2659 16.3148 10.215 16.357 10.1726C16.5427 9.96918 16.7369 9.76573 16.931 9.57076C19.9193 6.58682 23.9542 4.66252 28.4365 4.4082C31.3572 6.91742 33.1805 10.7491 33.1214 15.0385L33.1129 15.047Z" fill="#9E91C5"/>
<path d="M43.4803 31.3993C43.1004 32.5013 42.6784 33.5779 42.2141 34.6291C40.5343 38.4438 38.3396 41.894 35.7987 45.0813C32.8781 48.7519 29.5016 52.0834 25.9225 55.2539C25.5933 55.5421 25.264 55.8218 24.9264 56.11C23.4661 57.3138 21.3557 57.2968 19.9123 56.0761C19.6 55.8133 19.2961 55.5506 18.9922 55.2878C25.838 49.7607 30.6749 44.5812 34.0345 39.8001C34.1358 39.656 34.2371 39.5119 34.3384 39.3678C39.9012 31.2721 41.1927 24.3803 40.7453 19.0227C40.7453 18.9465 40.7284 18.8617 40.72 18.7854C40.7031 18.6413 40.6947 18.4972 40.6778 18.3615C40.6778 18.3446 40.6778 18.3191 40.6778 18.3022C40.6609 18.1581 40.644 18.014 40.6271 17.8699C40.6271 17.8614 40.6271 17.8444 40.6271 17.836C40.6271 17.7851 40.6102 17.7257 40.6018 17.6749C40.6018 17.6495 40.6018 17.6155 40.5934 17.5901C40.5849 17.5308 40.5765 17.463 40.568 17.4036C40.5596 17.3273 40.5427 17.251 40.5343 17.1832C40.509 17.0391 40.4836 16.8865 40.4583 16.7424C40.4161 16.522 40.3739 16.3101 40.3317 16.0981C40.2979 15.954 40.2726 15.8184 40.2388 15.6828C40.222 15.615 40.2051 15.5471 40.1882 15.4793C40.1713 15.42 40.1544 15.3606 40.146 15.2928C40.0616 14.9453 39.9603 14.6062 39.8674 14.284C39.8252 14.1569 39.7914 14.0297 39.7492 13.9026C39.707 13.7754 39.6648 13.6483 39.6226 13.5211C39.5551 13.3346 39.4876 13.1481 39.42 12.9616C39.3778 12.8429 39.3272 12.7243 39.285 12.6056C39.2596 12.5462 39.2343 12.4869 39.2174 12.4276C39.1921 12.3682 39.1668 12.3089 39.1499 12.2495C39.1246 12.1902 39.0993 12.1393 39.0824 12.08C39.0571 12.0207 39.0317 11.9698 39.0064 11.9105C38.9811 11.8511 38.9558 11.8003 38.9304 11.7409C38.9051 11.6816 38.8798 11.6307 38.8545 11.5799C38.8038 11.4696 38.7532 11.3594 38.7025 11.2577C38.6266 11.0967 38.5506 10.9441 38.4746 10.7915C38.4493 10.7406 38.424 10.6898 38.3986 10.6389C38.348 10.5372 38.2973 10.4439 38.2467 10.3507C38.2214 10.2998 38.1961 10.2574 38.1707 10.2066C38.1201 10.1133 38.0694 10.0201 38.0188 9.92682C37.9935 9.88443 37.9681 9.83357 37.9428 9.79118C37.8922 9.70641 37.8415 9.61317 37.7909 9.52839C37.7402 9.44362 37.6896 9.35885 37.6389 9.27408C37.5883 9.18931 37.5376 9.11302 37.4954 9.03672C37.4448 8.96043 37.3941 8.88414 37.3519 8.80784C37.3097 8.7485 37.276 8.68916 37.2337 8.62982C37.2 8.57048 37.1578 8.51114 37.124 8.46028C37.0902 8.40094 37.048 8.35008 37.0143 8.29922C36.9974 8.27378 36.9721 8.23988 36.9552 8.21444C36.9214 8.16358 36.8792 8.11272 36.8454 8.06186C36.8117 8.01099 36.7779 7.96013 36.7442 7.91775C36.7104 7.86688 36.6766 7.8245 36.6429 7.78211C36.626 7.75668 36.6091 7.73125 36.5922 7.7143C36.5416 7.64648 36.4909 7.58714 36.4487 7.51932C36.0351 6.98527 35.7312 6.64618 35.6215 6.5275C35.6215 6.5275 35.6215 6.51903 35.613 6.51903L35.5961 6.50207C35.7396 6.39187 35.9338 6.40882 36.0689 6.5275C37.563 7.88384 39.2174 9.11302 40.4414 10.6813C45.3205 16.9713 46.0971 24.0242 43.5562 31.4332L43.4803 31.3993Z" fill="#F4A86E"/>
<path d="M43.4791 31.3994C43.0992 32.5014 42.6772 33.578 42.2129 34.6292C40.0773 36.8417 37.3676 38.5032 34.3288 39.3679C34.1684 39.4102 34.008 39.4526 33.8476 39.495C32.4464 39.8511 30.986 40.0375 29.475 40.0375C28.614 40.0375 27.7615 39.9782 26.9258 39.8511C27.044 39.7069 27.1621 39.5713 27.2803 39.4272C27.3985 39.2831 27.5167 39.1475 27.6264 39.0033C27.7361 38.8762 27.8374 38.7406 27.9472 38.6134C27.9725 38.588 27.9894 38.5625 28.0147 38.5286C28.1076 38.4184 28.192 38.3082 28.2764 38.1895C28.3101 38.1556 28.3355 38.1132 28.3692 38.0793C28.5718 37.8165 28.7744 37.5622 28.9686 37.2994C28.977 37.2825 28.9939 37.274 29.0023 37.2571C29.1121 37.113 29.2134 36.9773 29.3231 36.8332C29.416 36.7145 29.5088 36.5874 29.5932 36.4687C29.7283 36.2822 29.8633 36.1042 29.99 35.9177C30.0828 35.7905 30.1757 35.6634 30.2685 35.5277C30.3529 35.4091 30.4373 35.2819 30.5302 35.1632C30.5808 35.0954 30.6315 35.0191 30.6737 34.9513C30.7834 34.7987 30.8847 34.6461 30.986 34.4851C31.062 34.3748 31.138 34.2562 31.2139 34.146C31.2139 34.146 31.2139 34.1375 31.2224 34.129C31.3068 34.0019 31.3912 33.8747 31.4756 33.7391C31.5009 33.7052 31.5178 33.6712 31.5431 33.6373C31.636 33.4932 31.7289 33.3491 31.8217 33.205C31.9146 33.0524 32.0159 32.8998 32.1087 32.7472C32.1594 32.671 32.21 32.5862 32.2607 32.5014C32.3113 32.4251 32.3535 32.3488 32.4042 32.2641C32.5055 32.103 32.5983 31.9504 32.6912 31.7893C32.7334 31.713 32.784 31.6367 32.8262 31.5605C32.8769 31.4842 32.9191 31.3994 32.9697 31.3231C33.071 31.1536 33.1639 30.984 33.2652 30.8145C33.3074 30.7466 33.3411 30.6788 33.3833 30.611C33.4255 30.5347 33.4762 30.45 33.5184 30.3737C33.645 30.1533 33.7632 29.9328 33.8814 29.704C33.932 29.6022 33.9911 29.5005 34.0418 29.3988C34.1093 29.2632 34.1853 29.136 34.2528 29.0004C34.3034 28.8986 34.3541 28.8054 34.4047 28.7037C34.4554 28.6104 34.506 28.5087 34.5482 28.4154C34.5482 28.3985 34.5651 28.3815 34.5736 28.3646C34.6242 28.2713 34.6664 28.1781 34.7171 28.0764C34.7424 28.0255 34.7677 27.9662 34.793 27.9153C34.8943 27.7118 34.9956 27.5084 35.0885 27.2965C35.1391 27.1947 35.1898 27.0845 35.2404 26.9828C35.2911 26.8726 35.3417 26.7709 35.3924 26.6607C35.4346 26.5759 35.4683 26.4911 35.5105 26.4064C35.5359 26.3386 35.5696 26.2792 35.595 26.2114C35.6962 25.974 35.7975 25.7452 35.8988 25.5078C35.9326 25.4315 35.9664 25.3552 35.9917 25.2789C36.0508 25.1433 36.1099 24.9992 36.1605 24.8635C38.6422 18.8024 39.2669 12.7752 35.4177 6.95992C35.3079 6.79037 35.3417 6.56149 35.5105 6.45129C35.654 6.34109 35.8482 6.35804 35.9833 6.47672C37.4774 7.83306 39.1318 9.06224 40.3558 10.6305C45.2349 16.9205 46.0115 23.9734 43.4706 31.3824L43.4791 31.3994Z" fill="#F4C254"/>
<path d="M32.827 6.29001C34.5566 6.29001 35.9587 4.88194 35.9587 3.145C35.9587 1.40807 34.5566 0 32.827 0C31.0974 0 29.6953 1.40807 29.6953 3.145C29.6953 4.88194 31.0974 6.29001 32.827 6.29001Z" fill="#F4C254"/>
<path d="M72.4926 39.4946H64.4818C62.8949 39.4946 61.6034 38.2061 61.6034 36.6039V35.9173C61.6034 34.3236 62.8949 33.0266 64.4818 33.0266H70.5258C71.3192 33.0266 72.0367 32.7045 72.5601 32.1789C73.0835 31.6533 73.4042 30.9327 73.4042 30.1359C73.4042 28.5422 72.1212 27.2452 70.5258 27.2452H64.4818C62.8949 27.2452 61.6034 25.9482 61.6034 24.3545V24.0578C61.6034 22.4641 62.8949 21.1671 64.4818 21.1671H72.4926C73.2861 21.1671 74.0036 20.845 74.5269 20.3194C75.0503 19.7938 75.371 19.0733 75.371 18.2764C75.371 16.6827 74.0795 15.3857 72.4926 15.3857H58.0074C56.4204 15.3857 55.1289 16.6743 55.1289 18.2764V42.3514C55.1289 43.9451 56.4204 45.2421 58.0074 45.2421H72.4926C73.2861 45.2421 74.0036 44.92 74.5269 44.3944C75.0503 43.8688 75.371 43.1482 75.371 42.3514C75.371 40.7577 74.0795 39.4607 72.4926 39.4607V39.4946Z" fill="#403C73"/>
<path d="M114.201 15.4199C112.792 15.4199 111.584 16.4202 111.306 17.802L108.925 29.7462L107.347 38.0453H107.22L105.389 29.7462L102.595 17.7087C102.282 16.3694 101.092 15.4199 99.7245 15.4199H97.3441C95.9681 15.4199 94.7779 16.3778 94.4656 17.7172L91.7137 29.7462L89.8398 38.0453H89.7132L88.1347 29.7462L85.7964 17.8105C85.5263 16.4202 84.3108 15.4199 82.9011 15.4199H82.6309C80.7401 15.4199 79.3389 17.1832 79.7525 19.0396L85.1464 42.9705C85.4503 44.3183 86.649 45.2763 88.0249 45.2763H90.7346C92.1105 45.2763 93.3007 44.3268 93.6046 42.9874L96.8207 29.1104L98.3148 22.5661H98.4414L99.8849 29.1104L103.101 42.9874C103.413 44.3268 104.604 45.2763 105.979 45.2763H108.664C110.04 45.2763 111.23 44.3268 111.542 42.9874L117.071 19.0566C117.122 18.8277 117.147 18.6073 117.147 18.3784C117.147 16.7847 115.864 15.4199 114.193 15.4199H114.201Z" fill="#403C73"/>
<path d="M145.964 44.2929L137.852 19.2516C137.481 18.1072 136.763 17.1492 135.843 16.4796C134.923 15.8099 133.792 15.4199 132.602 15.4199C130.221 15.4199 128.103 16.9543 127.36 19.2261L119.138 44.2929C118.978 44.7761 119.341 45.2678 119.839 45.2678H124.819C125.148 45.2678 125.435 45.0559 125.528 44.7337L127.343 38.698C127.436 38.3844 127.723 38.1724 128.052 38.1724H136.873C137.202 38.1724 137.489 38.3844 137.582 38.698L139.389 44.7337C139.481 45.0474 139.768 45.2678 140.098 45.2678H145.255C145.762 45.2678 146.116 44.7761 145.956 44.2929H145.964ZM134.856 32.6539H130.019C129.521 32.6539 129.166 32.1791 129.31 31.7044L132.315 21.32H132.526L135.565 31.6959C135.7 32.1707 135.345 32.6539 134.856 32.6539Z" fill="#403C73"/>
<path d="M138.629 12.1731L139.026 11.8933C139.431 11.6051 139.996 11.7068 140.283 12.1137L142.537 15.2587C142.833 15.6741 142.731 16.259 142.309 16.5473C141.938 16.8016 141.44 16.7422 141.136 16.4116L138.485 13.5379C138.106 13.131 138.182 12.4867 138.637 12.1646L138.629 12.1731Z" fill="#403C73"/>
</g>
<defs>
<clipPath id="clip0_1366_417">
<rect width="146" height="57" fill="white"/>
</clipPath>
</defs>
</svg>
