<svg width="24" height="47" viewBox="0 0 24 47" fill="none" xmlns="http://www.w3.org/2000/svg">
<path d="M2.3647 4.4702C2.42319 4.33639 2.80114 3.67199 2.94506 3.42068C2.98179 3.33227 3.02883 3.24689 3.08609 3.16596C3.78653 2.17698 4.7295 2.74242 4.79483 2.78225C5.08267 2.95775 5.4174 3.27248 5.42338 3.9052C5.4295 4.53583 4.94155 5.00281 4.70119 5.55294C4.47652 6.06691 4.13963 6.58354 3.99657 7.13734C4.03273 7.25906 4.05211 7.38828 4.05211 7.52209C4.05211 8.25013 3.47809 8.84124 2.7711 8.84124C2.34619 8.84124 2.09278 8.69585 1.92113 8.56634C1.64481 8.35791 1.29193 7.97345 1.39832 7.09692C1.50997 6.17743 2.00058 5.30356 2.3647 4.4702Z" fill="#E6E2F0"/>
<path fill-rule="evenodd" clip-rule="evenodd" d="M1.17217 9.79543C0.868413 10.4827 0.779238 11.9631 1.01068 13.2412C1.18557 14.2073 1.55509 15.0397 1.96603 15.4629C2.466 15.9778 3.2778 15.9778 3.77777 15.4629C4.27767 14.9481 4.27767 14.1121 3.77777 13.5973C3.62924 13.4444 3.59258 13.1066 3.52933 12.7576C3.40393 12.0649 3.33953 11.2607 3.50412 10.8882C3.797 10.2255 3.51226 9.44264 2.86873 9.14112C2.2252 8.83952 1.46498 9.13274 1.17217 9.79543Z" fill="#E6E2F0"/>
<path fill-rule="evenodd" clip-rule="evenodd" d="M5.67468 18.3837C5.64046 17.7453 5.15821 17.2097 4.5213 17.145C4.11274 17.1035 3.82922 17.234 3.6212 17.383C3.34243 17.5826 3.14752 17.8685 3.07664 18.2484C3.02535 18.5233 3.14824 19.0671 3.2176 19.2338C3.46467 19.8274 3.85667 20.3008 4.31925 20.7069C4.76247 21.0958 5.2914 21.3981 5.67316 21.7913C6.17314 22.3062 6.98493 22.3062 7.48483 21.7913C7.9848 21.2764 7.9848 20.4405 7.48483 19.9257C7.17027 19.6017 6.78231 19.3179 6.39319 19.0263C6.13452 18.8325 5.85403 18.6522 5.67468 18.3837Z" fill="#E6E2F0"/>
<path fill-rule="evenodd" clip-rule="evenodd" d="M11.1318 20.354C10.741 20.3331 9.9109 20.282 9.72405 20.2155C9.05574 19.9778 8.32577 20.3434 8.09491 21.0317C7.86398 21.7198 8.21909 22.4716 8.8874 22.7093C9.37995 22.8845 11.1203 23.2063 12.1188 22.8767C13.0189 22.5796 13.5489 21.9437 13.5489 20.9633C13.5489 20.2351 12.9748 19.644 12.2678 19.644C11.7742 19.644 11.3454 19.9321 11.1318 20.354Z" fill="#E6E2F0"/>
<path fill-rule="evenodd" clip-rule="evenodd" d="M13.4969 17.6903C13.2174 17.8727 13.0062 18.1657 12.9306 18.5247C12.7809 19.2362 13.2203 19.9391 13.9113 20.0933C14.4122 20.2051 15.0522 20.072 15.5427 19.358C16.0708 18.5893 16.5458 16.4265 16.5458 15.8899C16.5458 15.1619 15.9718 14.5708 15.2647 14.5708C14.5577 14.5708 13.9837 15.1619 13.9837 15.8899C13.9837 16.1353 13.6265 17.283 13.4969 17.6903Z" fill="#E6E2F0"/>
<path fill-rule="evenodd" clip-rule="evenodd" d="M13.0845 14.1952C13.8009 14.7067 14.4086 14.3589 14.5398 14.2779C15.1462 13.9036 15.3434 13.0927 14.9798 12.4682C14.8579 12.2587 14.6882 12.0966 14.4935 11.9881C14.2436 11.799 13.1289 10.9816 12.3465 10.8279C11.6149 10.6842 10.9355 10.8465 10.3974 11.4005C9.89749 11.9154 9.89749 12.7513 10.3974 13.2661C11.0657 13.9544 12.1922 13.5581 13.0845 14.1952Z" fill="#E6E2F0"/>
<path fill-rule="evenodd" clip-rule="evenodd" d="M7.49369 16.0786C7.5462 16.0139 7.76129 15.754 7.91803 15.6258C8.03241 15.5322 8.19196 15.4321 8.31305 15.361C8.4816 15.3891 8.65837 15.3823 8.83413 15.3356C9.51871 15.1536 9.93102 14.4335 9.75433 13.7286C9.58621 13.0579 9.03704 12.4523 7.97054 12.6779C7.44003 12.7902 6.48662 13.3232 5.8294 14.0191C5.25934 14.6228 4.9375 15.3437 4.9375 15.9541C4.9375 16.6822 5.51152 17.2733 6.21851 17.2733C6.88473 17.2733 7.43289 16.7484 7.49369 16.0786Z" fill="#E6E2F0"/>
<path fill-rule="evenodd" clip-rule="evenodd" d="M5.17233 25.9914C5.21353 25.5366 5.32827 24.2412 5.36674 23.5605C5.38367 23.525 5.39887 23.4883 5.41262 23.4506C5.66077 22.7689 5.32482 22.0079 4.66278 21.7523C4.23534 21.5873 3.85667 21.6508 3.52215 21.8532C3.359 21.9519 3.19895 22.0962 3.07066 22.2993C2.92984 22.5224 2.81819 22.9244 2.81819 23.2247C2.81819 23.7975 2.51738 25.757 2.61996 26.5173C2.76949 27.6257 3.51848 27.9435 4.04849 27.9435C4.75548 27.9435 5.3295 27.3524 5.3295 26.6243C5.3295 26.395 5.27252 26.1793 5.17233 25.9914Z" fill="#E6E2F0"/>
<path fill-rule="evenodd" clip-rule="evenodd" d="M8.36441 32.0935C8.27445 31.9759 8.02723 31.6465 7.87647 31.3869C7.54008 30.8073 7.18785 29.9223 7.09507 29.683C7.07923 29.3661 6.9531 29.0542 6.71698 28.8137C6.21434 28.3016 5.40254 28.3062 4.90531 28.8238C4.74295 28.9929 4.55394 29.2645 4.527 29.7024C4.51778 29.8515 4.54494 30.1876 4.6939 30.6246C4.95948 31.4037 5.66092 32.8818 6.32477 33.7011C6.88452 34.3919 7.53497 34.6779 8.00217 34.6779C8.70916 34.6779 9.28318 34.0868 9.28318 33.3587C9.28318 32.7602 8.89529 32.2542 8.36441 32.0935Z" fill="#E6E2F0"/>
<path fill-rule="evenodd" clip-rule="evenodd" d="M11.6072 36.0143C11.5381 35.9139 11.4538 35.8222 11.3551 35.7425C10.7989 35.2931 9.99294 35.3933 9.55657 35.9662C9.16652 36.4781 9.20909 36.9214 9.31202 37.2646C9.40724 37.5822 9.65374 37.9335 10.0699 38.1478C10.7417 38.4937 11.686 39.3324 12.2256 39.8881C12.7256 40.403 13.5374 40.403 14.0373 39.8881C14.5373 39.3733 14.5373 38.5374 14.0373 38.0225C13.4357 37.4029 12.4319 36.5325 11.6072 36.0143Z" fill="#E6E2F0"/>
<path fill-rule="evenodd" clip-rule="evenodd" d="M21.6301 44.3401C21.691 44.3494 21.7533 44.3541 21.8166 44.3541C23.0288 44.3541 23.1012 43.1365 23.1021 43.0483C23.1052 42.7382 23.0339 42.3153 22.5798 41.9716C22.5531 41.9514 22.3631 41.7707 21.9555 41.7221C21.8426 41.7086 20.9814 41.6432 20.6965 41.5845C20.424 41.5283 18.8213 40.9016 18.4152 40.7419C18.2081 40.4236 17.8689 40.2003 17.4699 40.162C16.7659 40.0944 16.1411 40.6281 16.0755 41.3531C16.038 41.7673 16.1939 42.415 16.8997 42.8999C17.6868 43.4407 19.7583 44.0818 20.1941 44.1716C20.494 44.2334 21.4485 44.3233 21.6301 44.3401Z" fill="#E6E2F0"/>
</svg>
