<svg width="48" height="35" viewBox="0 0 48 35" fill="none" xmlns="http://www.w3.org/2000/svg">
<path d="M10.7747 0.0108795C10.7612 0.0243492 10.5008 0.0557823 10.191 0.0827217C9.28853 0.15905 9.14485 0.17701 9.09546 0.221909C9.07301 0.244362 8.96974 0.262321 8.86198 0.262321C8.75422 0.262321 8.66891 0.280281 8.66891 0.30722C8.66891 0.32967 8.58809 0.352119 8.48931 0.352119C8.39053 0.352119 8.30971 0.370079 8.30971 0.397022C8.30971 0.419472 8.21991 0.441921 8.10766 0.441921C7.99541 0.441921 7.90561 0.459881 7.90561 0.48682C7.90561 0.50927 7.87418 0.531719 7.83826 0.531719C7.80234 0.531719 7.69907 0.563152 7.60478 0.603561C7.51049 0.64397 7.38477 0.697849 7.32191 0.724792C7.25905 0.747242 7.17374 0.783161 7.13333 0.805611C7.08843 0.82806 7.0121 0.84602 6.96271 0.84602C6.91332 0.84602 6.87291 0.863979 6.87291 0.890919C6.87291 0.913372 6.82352 0.935822 6.76066 0.935822C6.6978 0.935822 6.64841 0.953781 6.64841 0.980721C6.64841 1.00317 6.608 1.02562 6.55861 1.02562C6.50922 1.02562 6.46881 1.04358 6.46881 1.07052C6.46881 1.09297 6.4284 1.11542 6.37901 1.11542C6.32962 1.11542 6.28921 1.13338 6.28921 1.16032C6.28921 1.18277 6.26227 1.20522 6.22635 1.20522C6.15451 1.20522 5.73245 1.43421 5.71449 1.4836C5.70551 1.50156 5.66061 1.51952 5.61122 1.51952C5.56632 1.51952 5.52591 1.53748 5.52591 1.56442C5.52591 1.58687 5.49448 1.60932 5.45856 1.60932C5.42264 1.60932 5.39121 1.62728 5.39121 1.65422C5.39121 1.67667 5.35529 1.69912 5.31039 1.69912C5.26549 1.69912 5.20263 1.73953 5.16671 1.78892C5.13079 1.83831 5.07691 1.87872 5.04548 1.87872C5.01854 1.87872 4.93772 1.92811 4.87037 1.99097C4.80302 2.05383 4.72669 2.10322 4.69975 2.10322C4.67281 2.10322 4.61893 2.14363 4.583 2.19302C4.54709 2.24241 4.49769 2.28282 4.47076 2.28282C4.44382 2.28282 4.34952 2.35017 4.25973 2.4265C4.17442 2.50732 4.04421 2.61508 3.97686 2.66447C3.81072 2.78121 2.83639 3.76003 2.71965 3.92167C2.67026 3.99351 2.55352 4.12821 2.45923 4.2225C2.36943 4.32128 2.2931 4.41557 2.2931 4.43353C2.2931 4.45149 2.24371 4.52782 2.18085 4.59966C2.11799 4.6715 2.0686 4.74334 2.0686 4.7613C2.0686 4.77926 2.01921 4.84212 1.95635 4.90498C1.89349 4.96784 1.8441 5.04866 1.8441 5.08907C1.8441 5.12499 1.82614 5.15642 1.7992 5.15642C1.77675 5.15642 1.7543 5.18336 1.7543 5.21928C1.7543 5.2552 1.74083 5.29112 1.72287 5.3001C1.70042 5.30459 1.63756 5.40337 1.57919 5.51562C1.51633 5.62787 1.44 5.74461 1.40857 5.77604C1.37714 5.80747 1.3502 5.86584 1.3502 5.90176C1.3502 5.93768 1.33224 5.96462 1.3053 5.96462C1.28285 5.96462 1.2604 6.00503 1.2604 6.05442C1.2604 6.10381 1.24244 6.14422 1.2155 6.14422C1.19305 6.14422 1.1706 6.18463 1.1706 6.23402C1.1706 6.28341 1.15264 6.32382 1.1257 6.32382C1.10325 6.32382 1.0808 6.36423 1.0808 6.41362C1.0808 6.46301 1.06284 6.50342 1.0359 6.50342C1.01345 6.50342 0.991005 6.55281 0.991005 6.61567C0.991005 6.67853 0.973045 6.72792 0.955085 6.72792C0.937125 6.72792 0.892225 6.82221 0.856305 6.93895C0.824875 7.06018 0.766505 7.18141 0.735075 7.21284C0.703645 7.24427 0.676705 7.3206 0.676705 7.38346C0.676705 7.44183 0.658745 7.49122 0.631805 7.49122C0.609355 7.49122 0.586905 7.54959 0.586905 7.62592C0.586905 7.69776 0.568945 7.76062 0.542005 7.76062C0.519555 7.76062 0.497105 7.83246 0.497105 7.91777C0.497105 8.00308 0.479145 8.07492 0.452205 8.07492C0.429755 8.07492 0.407305 8.15574 0.407305 8.25452C0.407305 8.3533 0.389345 8.43412 0.362405 8.43412C0.339955 8.43412 0.317505 8.51494 0.317505 8.61372C0.317505 8.7125 0.299545 8.79332 0.277095 8.79332C0.254645 8.79332 0.223215 8.88761 0.209745 9.00435C0.142395 9.62397 0.0974946 9.90684 0.0525946 10.0191C-0.0237354 10.2211 -0.0102654 12.2551 0.0705546 12.5874C0.106475 12.7355 0.133415 12.9735 0.137905 13.1127C0.137905 13.2519 0.155865 13.3821 0.182805 13.3956C0.205255 13.409 0.227705 13.5348 0.227705 13.6695C0.227705 13.8042 0.250155 13.9119 0.272605 13.9119C0.299545 13.9119 0.317505 14.0017 0.317505 14.1095C0.317505 14.2217 0.339955 14.325 0.362405 14.3385C0.389345 14.3519 0.407305 14.4462 0.407305 14.545C0.407305 14.6393 0.429755 14.7201 0.452205 14.7201C0.479145 14.7201 0.497105 14.8009 0.497105 14.8997C0.497105 14.9985 0.519555 15.0793 0.542005 15.0793C0.568945 15.0793 0.586905 15.1377 0.586905 15.214C0.586905 15.2859 0.604865 15.3487 0.627315 15.3487C0.649765 15.3487 0.676705 15.4026 0.690175 15.47C0.730585 15.6675 0.829365 15.9324 0.865285 15.9324C0.887735 15.9324 0.901205 15.9818 0.901205 16.0402C0.901205 16.103 0.923655 16.1659 0.946105 16.1794C0.973045 16.1928 0.991005 16.2557 0.991005 16.3186C0.991005 16.3769 1.01345 16.4263 1.0359 16.4263C1.06284 16.4263 1.0808 16.4667 1.0808 16.5161C1.0808 16.5655 1.10325 16.6059 1.1257 16.6059C1.15264 16.6059 1.1706 16.6463 1.1706 16.6957C1.1706 16.7451 1.19305 16.7855 1.2155 16.7855C1.24244 16.7855 1.2604 16.8349 1.2604 16.8978C1.2604 16.9606 1.27836 17.01 1.29632 17.01C1.31877 17.01 1.37265 17.0908 1.42204 17.1896C1.46694 17.2884 1.52082 17.3692 1.54327 17.3692C1.56123 17.3692 1.5747 17.4096 1.5747 17.4545C1.5747 17.5039 1.59266 17.5578 1.6196 17.5713C1.64205 17.5847 1.6645 17.6341 1.6645 17.6745C1.6645 17.7194 1.70491 17.7823 1.7543 17.8182C1.80369 17.8541 1.8441 17.9125 1.8441 17.9529C1.8441 17.9933 1.88451 18.0517 1.9339 18.0876C1.98329 18.1235 2.0237 18.1729 2.0237 18.1999C2.0237 18.2223 2.08656 18.3121 2.1584 18.3974C2.23474 18.4783 2.2931 18.5636 2.2931 18.586C2.2931 18.604 2.34249 18.6713 2.40535 18.7342C2.46821 18.797 2.5176 18.8599 2.5176 18.8734C2.5176 18.9407 3.46499 19.8836 3.53235 19.8836C3.54581 19.8836 3.61316 19.942 3.68052 20.0138C3.74338 20.0812 3.86012 20.1755 3.93196 20.2159C4.16094 20.3416 4.24177 20.3955 4.3181 20.4763C4.35851 20.5212 4.42586 20.5571 4.46627 20.5571C4.50668 20.5571 4.53811 20.5751 4.53811 20.602C4.53811 20.6245 4.57852 20.6469 4.62791 20.6469C4.6773 20.6469 4.71771 20.6649 4.71771 20.6918C4.71771 20.7143 4.74914 20.7367 4.78506 20.7367C4.82098 20.7367 4.88833 20.7547 4.93323 20.7771C5.09936 20.8669 5.57979 21.051 5.64265 21.051C5.67857 21.051 5.70551 21.069 5.70551 21.0959C5.70551 21.1184 5.78633 21.1408 5.88511 21.1408C5.98389 21.1408 6.06471 21.1588 6.06471 21.1857C6.06471 21.2082 6.10063 21.2306 6.14553 21.2306C6.24431 21.2306 6.59453 21.3968 6.68433 21.4821C6.71576 21.518 6.76066 21.5449 6.78311 21.5449C6.84148 21.5449 7.33089 22.0433 7.45661 22.2319C7.51947 22.3217 7.58233 22.398 7.60478 22.398C7.62274 22.398 7.63621 22.4384 7.63621 22.4878C7.63621 22.5372 7.65866 22.5776 7.68111 22.5776C7.70805 22.5776 7.72601 22.618 7.72601 22.6674C7.72601 22.7168 7.74846 22.7572 7.77091 22.7572C7.79785 22.7572 7.81581 22.7976 7.81581 22.847C7.81581 22.8964 7.83826 22.9368 7.86071 22.9368C7.88765 22.9368 7.90561 22.9862 7.90561 23.0491C7.90561 23.1119 7.92806 23.1613 7.95051 23.1613C7.97745 23.1613 7.99541 23.2062 7.99541 23.2646C7.99541 23.323 8.01786 23.3903 8.04929 23.4217C8.14807 23.5205 8.18848 23.9156 8.18848 24.7553C8.18848 25.6578 8.15705 25.9586 8.05827 26.1023C8.02235 26.1517 7.99541 26.246 7.99541 26.3133C7.99541 26.3851 7.97745 26.439 7.95051 26.439C7.92806 26.439 7.90561 26.4974 7.90561 26.5737C7.90561 26.6456 7.88765 26.7084 7.86071 26.7084C7.83826 26.7084 7.81581 26.7578 7.81581 26.8207C7.81581 26.8835 7.79785 26.9329 7.77091 26.9329C7.74846 26.9329 7.72601 26.9733 7.72601 27.0227C7.72601 27.0721 7.70805 27.1125 7.68111 27.1125C7.65866 27.1125 7.63621 27.1529 7.63621 27.1978C7.63621 27.2472 7.61376 27.3011 7.59131 27.3146C7.56886 27.328 7.54641 27.3729 7.54641 27.4089C7.54641 27.4493 7.51947 27.5076 7.49253 27.5391C7.34885 27.6962 7.32191 27.7411 7.32191 27.8085C7.32191 27.8444 7.30395 27.8758 7.27701 27.8758C7.25456 27.8758 7.23211 27.9073 7.23211 27.9432C7.23211 27.9791 7.21415 28.0105 7.18721 28.0105C7.16476 28.0105 7.14231 28.042 7.14231 28.0779C7.14231 28.1138 7.12435 28.1452 7.09741 28.1452C7.07496 28.1452 7.05251 28.1677 7.05251 28.1901C7.05251 28.2171 7.00312 28.2889 6.94026 28.3518C6.8774 28.4146 6.82801 28.482 6.82801 28.4999C6.82801 28.5224 6.71576 28.6526 6.58106 28.7963C6.44636 28.9355 6.33411 29.0657 6.33411 29.0836C6.33411 29.1285 5.67857 29.8065 5.63367 29.8065C5.61571 29.8065 5.55734 29.8559 5.49897 29.9188C5.4406 29.9816 5.38223 30.031 5.36876 30.031C5.3508 30.031 5.261 30.1118 5.16671 30.2106C5.07242 30.3094 4.96466 30.3902 4.93323 30.3902C4.9018 30.3902 4.84343 30.4306 4.80751 30.4845C4.77159 30.5339 4.68179 30.6102 4.60546 30.6462C4.53362 30.6866 4.43933 30.7539 4.39892 30.7988C4.35851 30.8482 4.30463 30.8841 4.2732 30.8841C4.24625 30.8841 4.2238 30.9021 4.2238 30.929C4.2238 30.9515 4.19238 30.9739 4.15646 30.9739C4.12053 30.9739 4.08911 30.9919 4.08911 31.0188C4.08911 31.0413 4.06217 31.0637 4.02625 31.0637C3.99032 31.0637 3.95441 31.0772 3.94543 31.0996C3.92746 31.149 3.29437 31.5576 3.236 31.5576C3.21355 31.5576 3.1911 31.5756 3.1911 31.6025C3.1911 31.625 3.15069 31.6474 3.10131 31.6474C3.05191 31.6474 3.0115 31.6654 3.0115 31.6923C3.0115 31.7148 2.98007 31.7372 2.94415 31.7372C2.90823 31.7372 2.8768 31.7507 2.8768 31.7687C2.8768 31.7911 2.79598 31.845 2.6972 31.8899C2.59842 31.9393 2.5176 31.9932 2.5176 32.0156C2.5176 32.0336 2.47719 32.0515 2.4278 32.0515C2.37841 32.0515 2.338 32.0695 2.338 32.0964C2.338 32.1189 2.2976 32.1413 2.2482 32.1413C2.19881 32.1413 2.1584 32.1593 2.1584 32.1862C2.1584 32.2087 2.12248 32.2311 2.07758 32.2311C2.03268 32.2311 1.95186 32.2715 1.89798 32.3209C1.8441 32.3703 1.76328 32.4107 1.71389 32.4107C1.6645 32.4107 1.6196 32.4242 1.61062 32.4422C1.58817 32.496 1.32326 32.6352 1.24244 32.6352C1.20203 32.6352 1.1706 32.6532 1.1706 32.6801C1.1706 32.7026 1.13019 32.725 1.0808 32.725C1.03141 32.725 0.991005 32.743 0.991005 32.7699C0.991005 32.7924 0.950595 32.8148 0.901205 32.8148C0.851815 32.8148 0.811405 32.8328 0.811405 32.8597C0.811405 32.8822 0.762015 32.9046 0.699155 32.9046C0.636295 32.9046 0.586905 32.9226 0.586905 32.9495C0.586905 32.972 0.555475 32.9944 0.515065 32.9944C0.434245 32.9944 0.151375 33.2818 0.110965 33.4075C0.0974946 33.4524 0.0660646 33.4883 0.0436146 33.4883C-0.0282254 33.4883 -0.00577544 34.1484 0.0705546 34.2247C0.106475 34.2606 0.137905 34.3145 0.137905 34.3414C0.137905 34.4133 0.438735 34.7006 0.519555 34.7006C0.555475 34.7006 0.586905 34.7186 0.586905 34.7455C0.586905 34.8039 1.56123 34.8039 1.59715 34.7455C1.61062 34.7186 1.76328 34.7006 1.93839 34.7006C2.1135 34.7006 2.2482 34.6827 2.2482 34.6557C2.2482 34.6288 2.36943 34.6108 2.5176 34.6108C2.66577 34.6108 2.787 34.5929 2.787 34.5659C2.787 34.539 2.89925 34.521 3.03395 34.521C3.16865 34.521 3.28091 34.4986 3.28091 34.4761C3.28091 34.4492 3.39315 34.4312 3.52785 34.4312C3.66255 34.4312 3.77481 34.4088 3.77481 34.3863C3.77481 34.3594 3.83767 34.3414 3.914 34.3414C3.99032 34.3414 4.15646 34.31 4.28666 34.2696C4.70872 34.1394 4.78955 34.1169 4.91078 34.1169C4.97813 34.1169 5.03201 34.0945 5.03201 34.072C5.03201 34.0451 5.11283 34.0271 5.21161 34.0271C5.31039 34.0271 5.39121 34.0047 5.39121 33.9822C5.39121 33.9553 5.48101 33.9373 5.59326 33.9373C5.70551 33.9373 5.79531 33.9149 5.79531 33.8924C5.79531 33.8655 5.85817 33.8475 5.93001 33.8475C6.00634 33.8475 6.06471 33.8251 6.06471 33.8026C6.06471 33.7757 6.14553 33.7577 6.24431 33.7577C6.34309 33.7577 6.42391 33.7353 6.42391 33.7128C6.42391 33.6859 6.46881 33.6679 6.52718 33.6679C6.58555 33.6679 6.67086 33.6365 6.72025 33.6006C6.76515 33.5647 6.85944 33.5332 6.93128 33.5332C6.99863 33.5332 7.05251 33.5108 7.05251 33.4883C7.05251 33.4614 7.11537 33.4434 7.18721 33.4434C7.26354 33.4434 7.32191 33.421 7.32191 33.3985C7.32191 33.3716 7.38477 33.3536 7.45661 33.3536C7.53294 33.3536 7.59131 33.3312 7.59131 33.3087C7.59131 33.2818 7.66315 33.2638 7.74846 33.2638C7.83377 33.2638 7.90561 33.2414 7.90561 33.2189C7.90561 33.192 7.94602 33.174 7.99541 33.174C8.0448 33.174 8.08521 33.1516 8.08521 33.1291C8.08521 33.1022 8.14807 33.0842 8.21991 33.0842C8.29624 33.0842 8.35461 33.0618 8.35461 33.0393C8.35461 33.0124 8.39502 32.9944 8.4489 32.9944C8.49829 32.9944 8.57013 32.963 8.60605 32.9271C8.64646 32.8912 8.71381 32.8597 8.75871 32.8597C8.80361 32.8597 8.85749 32.8373 8.87096 32.8148C8.88443 32.7879 8.93831 32.7699 8.9877 32.7699C9.0326 32.7699 9.07301 32.7475 9.07301 32.725C9.07301 32.6981 9.13587 32.6801 9.20771 32.6801C9.28404 32.6801 9.34241 32.6577 9.34241 32.6352C9.34241 32.6083 9.38282 32.5903 9.43221 32.5903C9.4816 32.5903 9.52201 32.5679 9.52201 32.5454C9.52201 32.5185 9.5714 32.5005 9.63426 32.5005C9.69712 32.5005 9.74651 32.4781 9.74651 32.4556C9.74651 32.4287 9.78692 32.4107 9.83631 32.4107C9.8857 32.4107 9.92611 32.3928 9.92611 32.3748C9.92611 32.3524 10.0114 32.303 10.1192 32.2581C10.2224 32.2177 10.3437 32.1638 10.3841 32.1368C10.429 32.1144 10.4963 32.0964 10.5323 32.0964C10.5682 32.0964 10.5996 32.074 10.5996 32.0515C10.5996 32.0246 10.64 32.0066 10.6894 32.0066C10.7388 32.0066 10.7792 31.9842 10.7792 31.9617C10.7792 31.9348 10.8196 31.9168 10.869 31.9168C10.9184 31.9168 10.9588 31.8944 10.9588 31.8719C10.9588 31.845 10.9902 31.827 11.0262 31.827C11.0621 31.827 11.0935 31.8046 11.0935 31.7821C11.0935 31.7552 11.1339 31.7372 11.1788 31.7372C11.2282 31.7372 11.2731 31.7193 11.2821 31.7013C11.3 31.6519 11.7221 31.4229 11.7939 31.4229C11.8299 31.4229 11.8568 31.4005 11.8568 31.378C11.8568 31.3511 11.8927 31.3331 11.9376 31.3331C11.9825 31.3331 12.0454 31.2927 12.0813 31.2433C12.1172 31.1939 12.1801 31.1535 12.225 31.1535C12.2699 31.1535 12.3058 31.1356 12.3058 31.1131C12.3058 31.0907 12.3552 31.0592 12.4181 31.0458C12.4809 31.0278 12.5303 31.0009 12.5303 30.9784C12.5303 30.956 12.5887 30.9156 12.665 30.8841C12.7368 30.8527 12.7997 30.8123 12.7997 30.7898C12.7997 30.7674 12.8311 30.7494 12.8671 30.7494C12.903 30.7494 12.9344 30.727 12.9344 30.7045C12.9344 30.6776 12.9703 30.6596 13.0152 30.6596C13.0601 30.6596 13.123 30.6192 13.1589 30.5698C13.1948 30.5204 13.2577 30.48 13.3026 30.48C13.3475 30.48 13.3834 30.4666 13.3834 30.4441C13.3834 30.4261 13.4732 30.3498 13.5855 30.278C13.6932 30.2016 13.7875 30.1298 13.7875 30.1074C13.7875 30.0894 13.8234 30.0759 13.8683 30.0759C13.9132 30.0759 13.9761 30.0355 14.012 29.9861C14.0479 29.9367 14.1018 29.8963 14.1332 29.8963C14.1647 29.8963 14.1916 29.8739 14.1916 29.8514C14.1916 29.8245 14.2141 29.8065 14.241 29.8065C14.2679 29.8065 14.3128 29.7796 14.3443 29.7526C14.3757 29.7212 14.4565 29.6539 14.5284 29.6045C14.5957 29.5551 14.699 29.4698 14.7573 29.4159C14.8157 29.3575 14.8786 29.3126 14.8965 29.3126C14.919 29.3126 14.9639 29.2722 14.9998 29.2228C15.0357 29.1734 15.0896 29.133 15.1255 29.133C15.1929 29.133 15.3141 29.0253 15.3141 28.9669C15.3141 28.9489 15.368 28.8906 15.4308 28.8457C15.4937 28.7963 15.597 28.711 15.6643 28.6526C15.7317 28.5942 15.8035 28.5493 15.8215 28.5493C15.8709 28.5493 15.9876 28.4326 15.9876 28.3832C15.9921 28.3652 16.0819 28.2665 16.1941 28.1677C16.477 27.9207 16.8048 27.5974 16.935 27.4313C16.9934 27.355 17.0607 27.2921 17.0787 27.2921C17.1326 27.2921 17.3346 27.0811 17.3346 27.0227C17.3346 27.0003 17.3571 26.9778 17.3795 26.9778C17.4064 26.9778 17.4244 26.9554 17.4244 26.9284C17.4244 26.906 17.4828 26.8207 17.5591 26.7399C17.6309 26.659 17.6938 26.5827 17.6938 26.5603C17.6938 26.5423 17.7163 26.5288 17.7432 26.5288C17.8061 26.5288 17.9183 26.4166 17.9183 26.3537C17.9183 26.3268 17.9408 26.3043 17.9632 26.3043C17.9901 26.3043 18.0081 26.2729 18.0081 26.237C18.0081 26.2011 18.0306 26.1696 18.053 26.1696C18.0799 26.1696 18.0979 26.1472 18.0979 26.1247C18.0979 26.0978 18.1653 26.008 18.2461 25.9227C18.4436 25.7116 18.502 25.6398 18.502 25.5994C18.502 25.5769 18.5424 25.532 18.5918 25.4961C18.6412 25.4602 18.6816 25.4063 18.6816 25.3704C18.6816 25.339 18.7265 25.2626 18.7849 25.2043C18.8388 25.1459 18.9555 24.9843 19.0408 24.8496C19.1261 24.7104 19.2114 24.5981 19.2339 24.5981C19.2518 24.5981 19.2653 24.5667 19.2653 24.5308C19.2653 24.4904 19.3057 24.4185 19.3551 24.3646C19.4045 24.3108 19.4449 24.2389 19.4449 24.2075C19.4449 24.1761 19.4674 24.1491 19.4898 24.1491C19.5167 24.1491 19.5347 24.1177 19.5347 24.0818C19.5347 24.0459 19.5572 24.0144 19.5796 24.0144C19.6065 24.0144 19.6245 23.983 19.6245 23.9471C19.6245 23.8797 19.6514 23.8348 19.7951 23.6777C19.8221 23.6462 19.849 23.5834 19.849 23.5475C19.849 23.5071 19.8715 23.4756 19.8939 23.4756C19.9208 23.4756 19.9388 23.4442 19.9388 23.4083C19.9388 23.3724 19.9613 23.3409 19.9837 23.3409C20.0106 23.3409 20.0286 23.3005 20.0286 23.2511C20.0286 23.2017 20.0511 23.1613 20.0735 23.1613C20.1004 23.1613 20.1184 23.1209 20.1184 23.0715C20.1184 23.0221 20.1409 22.9817 20.1633 22.9817C20.1902 22.9817 20.2082 22.9548 20.2082 22.9189C20.2082 22.838 20.3519 22.5776 20.4013 22.5776C20.4192 22.5776 20.4327 22.5372 20.4327 22.4878C20.4327 22.4384 20.4552 22.398 20.4776 22.398C20.5045 22.398 20.5225 22.3576 20.5225 22.3082C20.5225 22.2588 20.545 22.2184 20.5674 22.2184C20.5943 22.2184 20.6123 22.169 20.6123 22.1062C20.6123 22.0433 20.6348 21.9939 20.6572 21.9939C20.6841 21.9939 20.7021 21.9535 20.7021 21.9041C20.7021 21.8547 20.7246 21.8143 20.747 21.8143C20.7739 21.8143 20.7919 21.7739 20.7919 21.7245C20.7919 21.6751 20.8099 21.5943 20.8368 21.5449C20.8593 21.4955 20.8997 21.4147 20.9266 21.3653C20.9535 21.3159 20.9715 21.2531 20.9715 21.2261C20.9715 21.1992 21.0029 21.1498 21.0389 21.1139C21.0748 21.0735 21.1062 20.9971 21.1062 20.9343C21.1062 20.8759 21.1287 20.8265 21.1511 20.8265C21.178 20.8265 21.196 20.7637 21.196 20.6918C21.196 20.6155 21.2185 20.5571 21.2409 20.5571C21.2678 20.5571 21.2858 20.5077 21.2858 20.4449C21.2858 20.382 21.3083 20.3326 21.3307 20.3326C21.3576 20.3326 21.3756 20.2698 21.3756 20.1979C21.3756 20.1216 21.3981 20.0632 21.4205 20.0632C21.4474 20.0632 21.4654 20.0004 21.4654 19.9285C21.4654 19.8522 21.4879 19.7938 21.5103 19.7938C21.5372 19.7938 21.5552 19.731 21.5552 19.6591C21.5552 19.5828 21.5732 19.4885 21.5956 19.4436C21.6719 19.2865 21.7483 19.0485 21.7662 18.8824C21.7797 18.7926 21.8066 18.7162 21.8291 18.7162C21.8515 18.7162 21.8695 18.6354 21.8695 18.5366C21.8695 18.4378 21.892 18.357 21.9144 18.357C21.9413 18.357 21.9593 18.2672 21.9593 18.155C21.9593 18.0427 21.9818 17.9529 22.0042 17.9529C22.0311 17.9529 22.0491 17.8497 22.0491 17.7284C22.0491 17.6027 22.0671 17.5039 22.0895 17.5039C22.112 17.5039 22.1434 17.3872 22.1569 17.2435C22.1703 17.1043 22.2018 16.8574 22.2242 16.6957C22.2512 16.5341 22.2916 16.2333 22.3185 16.0222C22.341 15.8112 22.3814 15.5328 22.4083 15.3981C22.4308 15.2634 22.4532 14.8548 22.4532 14.4866C22.4532 14.0736 22.4712 13.8221 22.4981 13.8221C22.525 13.8221 22.543 13.6291 22.543 13.3282C22.543 13.0543 22.525 12.8343 22.5026 12.8343C22.4801 12.8343 22.4532 12.5245 22.4352 12.1474C22.4218 11.7747 22.3814 11.2628 22.341 11.0159C22.3005 10.7689 22.2556 10.4546 22.2422 10.3199C22.2332 10.1852 22.2018 10.055 22.1793 10.0281C22.1569 10.0056 22.1389 9.90235 22.1389 9.79908C22.1389 9.69132 22.1209 9.59254 22.094 9.57907C22.0716 9.5656 22.0491 9.45335 22.0491 9.32763C22.0491 9.2064 22.0311 9.10762 22.0042 9.10762C21.9818 9.10762 21.9593 9.03578 21.9593 8.95047C21.9593 8.86516 21.9413 8.79332 21.9144 8.79332C21.892 8.79332 21.8695 8.7125 21.8695 8.61372C21.8695 8.51494 21.8515 8.43412 21.8246 8.43412C21.8022 8.43412 21.7797 8.37575 21.7797 8.30391C21.7797 8.22758 21.7617 8.16023 21.7393 8.14676C21.7168 8.1288 21.663 8.00308 21.6181 7.8594C21.5777 7.72021 21.5238 7.58551 21.5013 7.55857C21.4834 7.53612 21.4654 7.45979 21.4654 7.39244C21.4654 7.32509 21.4474 7.26672 21.4205 7.26672C21.3981 7.26672 21.3756 7.22631 21.3756 7.17692C21.3756 7.12753 21.3576 7.08712 21.3307 7.08712C21.3083 7.08712 21.2858 7.02426 21.2858 6.95242C21.2858 6.87609 21.2678 6.81772 21.2409 6.81772C21.2185 6.81772 21.196 6.76833 21.196 6.70547C21.196 6.64261 21.178 6.59322 21.1511 6.59322C21.1287 6.59322 21.1062 6.55281 21.1062 6.50342C21.1062 6.45403 21.0882 6.41362 21.0658 6.41362C21.0433 6.41362 20.9895 6.32382 20.9401 6.21157C20.8952 6.09932 20.8458 6.00952 20.8278 6.00952C20.8054 6.00952 20.7919 5.96911 20.7919 5.91972C20.7919 5.87033 20.7739 5.82992 20.747 5.82992C20.7246 5.82992 20.7021 5.78951 20.7021 5.74012C20.7021 5.69073 20.6841 5.65032 20.6572 5.65032C20.6348 5.65032 20.6123 5.60991 20.6123 5.56052C20.6123 5.51113 20.5943 5.47072 20.5674 5.47072C20.545 5.47072 20.5225 5.43929 20.5225 5.40337C20.5225 5.36745 20.5045 5.33602 20.4776 5.33602C20.4552 5.33602 20.4327 5.30459 20.4327 5.26867C20.4327 5.22826 20.4103 5.17438 20.3878 5.14295C20.1768 4.89151 20.1184 4.81069 20.1184 4.7613C20.1184 4.73436 20.1004 4.70742 20.0735 4.70742C20.0511 4.70742 20.0286 4.67599 20.0286 4.64007C20.0286 4.60415 20.0106 4.57272 19.9837 4.57272C19.9613 4.57272 19.9388 4.54129 19.9388 4.50537C19.9388 4.46496 19.8939 4.38863 19.84 4.33026C19.6829 4.17311 19.5347 3.99351 19.5347 3.96208C19.5347 3.94861 19.4763 3.87677 19.4 3.80942C19.3282 3.74207 19.2653 3.67023 19.2653 3.65676C19.2653 3.58043 18.1473 2.46242 18.071 2.46242C18.0575 2.46242 17.9857 2.39956 17.9183 2.32772C17.851 2.25139 17.7791 2.19302 17.7656 2.19302C17.7477 2.19302 17.7118 2.17506 17.6803 2.14812C17.4289 1.94607 17.3391 1.87872 17.3032 1.87872C17.2807 1.87872 17.2358 1.83831 17.1999 1.78892C17.164 1.73953 17.1011 1.69912 17.0562 1.69912C17.0113 1.69912 16.9754 1.67667 16.9754 1.65422C16.9754 1.62728 16.944 1.60932 16.9081 1.60932C16.8721 1.60932 16.8407 1.59585 16.8407 1.5734C16.8407 1.55544 16.7374 1.49258 16.6117 1.42972C16.486 1.37135 16.3648 1.29502 16.3378 1.26359C16.3109 1.23216 16.2615 1.20522 16.2301 1.20522C16.1941 1.20522 16.1672 1.18277 16.1672 1.16032C16.1672 1.13338 16.1268 1.11542 16.0774 1.11542C16.028 1.11542 15.9876 1.09297 15.9876 1.07052C15.9876 1.04358 15.9472 1.02562 15.8978 1.02562C15.8484 1.02562 15.808 1.00317 15.808 0.980721C15.808 0.953781 15.7676 0.935822 15.7182 0.935822C15.6688 0.935822 15.5925 0.917862 15.5476 0.895412C15.5072 0.872959 15.4219 0.83704 15.359 0.81459C15.1076 0.711319 15.0133 0.6754 14.8516 0.603561C14.7573 0.563152 14.6541 0.531719 14.6182 0.531719C14.5822 0.531719 14.5508 0.50927 14.5508 0.48682C14.5508 0.459881 14.47 0.441921 14.3712 0.441921C14.2724 0.441921 14.1916 0.423962 14.1916 0.401512C14.1916 0.361099 14.0345 0.32967 13.5989 0.280281C13.4777 0.266811 13.3834 0.235382 13.3834 0.217419C13.3834 0.181499 13.3026 0.16803 12.3956 0.0872116C11.6952 0.0198593 10.8061 -0.0205498 10.7747 0.0108795Z" fill="#F4C254"/>
<path d="M35.4251 0.0108795C35.4116 0.0243492 35.1512 0.0557823 34.8414 0.0827217C33.9389 0.15905 33.7952 0.17701 33.7503 0.221909C33.7234 0.244362 33.6201 0.262321 33.5124 0.262321C33.4046 0.262321 33.3193 0.280281 33.3193 0.30722C33.3193 0.32967 33.2385 0.352119 33.1397 0.352119C33.0409 0.352119 32.9601 0.370079 32.9601 0.397022C32.9601 0.419472 32.8703 0.441921 32.758 0.441921C32.6458 0.441921 32.556 0.459881 32.556 0.48682C32.556 0.50927 32.5246 0.531719 32.4886 0.531719C32.4527 0.531719 32.3495 0.563152 32.2552 0.603561C32.1609 0.64397 32.0352 0.697849 31.9723 0.724792C31.9094 0.747242 31.8241 0.783161 31.7837 0.805611C31.7388 0.82806 31.6625 0.84602 31.6131 0.84602C31.5637 0.84602 31.5233 0.863979 31.5233 0.890919C31.5233 0.913372 31.4739 0.935822 31.411 0.935822C31.3482 0.935822 31.2988 0.953781 31.2988 0.980721C31.2988 1.00317 31.2584 1.02562 31.209 1.02562C31.1596 1.02562 31.1192 1.04358 31.1192 1.07052C31.1192 1.09297 31.0788 1.11542 31.0294 1.11542C30.98 1.11542 30.9396 1.13338 30.9396 1.16032C30.9396 1.18277 30.9127 1.20522 30.8767 1.20522C30.8049 1.20522 30.3828 1.43421 30.3649 1.4836C30.3559 1.50156 30.311 1.51952 30.2616 1.51952C30.2167 1.51952 30.1763 1.53748 30.1763 1.56442C30.1763 1.58687 30.1449 1.60932 30.1089 1.60932C30.073 1.60932 30.0416 1.62728 30.0416 1.65422C30.0416 1.67667 30.0057 1.69912 29.9608 1.69912C29.9159 1.69912 29.853 1.73953 29.8171 1.78892C29.7812 1.83831 29.7273 1.87872 29.6959 1.87872C29.6689 1.87872 29.5881 1.92811 29.5208 1.99097C29.4534 2.05383 29.3771 2.10322 29.3501 2.10322C29.3232 2.10322 29.2693 2.14363 29.2334 2.19302C29.1975 2.24241 29.1481 2.28282 29.1211 2.28282C29.0942 2.28282 28.9999 2.35017 28.9101 2.4265C28.8248 2.50732 28.6946 2.61508 28.6272 2.66447C28.4611 2.78121 27.4868 3.76003 27.37 3.92167C27.3207 3.99351 27.2039 4.12821 27.1141 4.2225C27.0198 4.32128 26.9435 4.41557 26.9435 4.43353C26.9435 4.45149 26.8941 4.52782 26.8312 4.59966C26.7684 4.6715 26.719 4.74334 26.719 4.7613C26.719 4.77926 26.6696 4.84212 26.6067 4.90498C26.5439 4.96784 26.4945 5.04866 26.4945 5.08907C26.4945 5.12499 26.4765 5.15642 26.4496 5.15642C26.4271 5.15642 26.4047 5.18336 26.4047 5.21928C26.4047 5.2552 26.3912 5.29112 26.3733 5.3001C26.3508 5.30459 26.288 5.40337 26.2296 5.51562C26.1667 5.62787 26.0904 5.74461 26.059 5.77604C26.0275 5.80747 26.0006 5.86584 26.0006 5.90176C26.0006 5.93768 25.9826 5.96462 25.9557 5.96462C25.9332 5.96462 25.9108 6.00503 25.9108 6.05442C25.9108 6.10381 25.8928 6.14422 25.8659 6.14422C25.8434 6.14422 25.821 6.18463 25.821 6.23402C25.821 6.28341 25.803 6.32382 25.7761 6.32382C25.7536 6.32382 25.7312 6.36423 25.7312 6.41362C25.7312 6.46301 25.7132 6.50342 25.6863 6.50342C25.6638 6.50342 25.6414 6.55281 25.6414 6.61567C25.6414 6.67853 25.6234 6.72792 25.6055 6.72792C25.5875 6.72792 25.5426 6.82221 25.5067 6.93895C25.4753 7.06018 25.4169 7.18141 25.3855 7.21284C25.354 7.24427 25.3271 7.3206 25.3271 7.38346C25.3271 7.44183 25.3091 7.49122 25.2822 7.49122C25.2597 7.49122 25.2373 7.54959 25.2373 7.62592C25.2373 7.69776 25.2193 7.76062 25.1924 7.76062C25.1699 7.76062 25.1475 7.83246 25.1475 7.91777C25.1475 8.00308 25.1295 8.07492 25.1026 8.07492C25.0801 8.07492 25.0577 8.15574 25.0577 8.25452C25.0577 8.3533 25.0397 8.43412 25.0128 8.43412C24.9903 8.43412 24.9679 8.51494 24.9679 8.61372C24.9679 8.7125 24.9499 8.79332 24.9275 8.79332C24.905 8.79332 24.8736 8.88761 24.8601 9.00435C24.7928 9.62397 24.7479 9.90684 24.703 10.0191C24.6267 10.2211 24.6401 12.2551 24.7209 12.5874C24.7569 12.7355 24.7838 12.9735 24.7883 13.1127C24.7883 13.2519 24.8107 13.3821 24.8332 13.3956C24.8601 13.409 24.8781 13.5348 24.8781 13.6695C24.8781 13.8042 24.9005 13.9119 24.923 13.9119C24.9499 13.9119 24.9679 14.0017 24.9679 14.1095C24.9679 14.2217 24.9903 14.325 25.0128 14.3385C25.0397 14.3519 25.0577 14.4462 25.0577 14.545C25.0577 14.6393 25.0801 14.7201 25.1026 14.7201C25.1295 14.7201 25.1475 14.8009 25.1475 14.8997C25.1475 14.9985 25.1699 15.0793 25.1924 15.0793C25.2193 15.0793 25.2373 15.1377 25.2373 15.214C25.2373 15.2859 25.2553 15.3487 25.2777 15.3487C25.3002 15.3487 25.3271 15.4026 25.3406 15.47C25.381 15.6675 25.4798 15.9324 25.5157 15.9324C25.5381 15.9324 25.5516 15.9818 25.5516 16.0402C25.5516 16.103 25.574 16.1659 25.5965 16.1794C25.6234 16.1928 25.6414 16.2557 25.6414 16.3186C25.6414 16.3769 25.6638 16.4263 25.6863 16.4263C25.7132 16.4263 25.7312 16.4667 25.7312 16.5161C25.7312 16.5655 25.7536 16.6059 25.7761 16.6059C25.803 16.6059 25.821 16.6463 25.821 16.6957C25.821 16.7451 25.8434 16.7855 25.8659 16.7855C25.8928 16.7855 25.9108 16.8349 25.9108 16.8978C25.9108 16.9606 25.9288 17.01 25.9467 17.01C25.9692 17.01 26.023 17.0908 26.0724 17.1896C26.1173 17.2884 26.1712 17.3692 26.1937 17.3692C26.2116 17.3692 26.2251 17.4096 26.2251 17.4545C26.2251 17.5039 26.2475 17.5578 26.27 17.5713C26.2969 17.5847 26.3149 17.6341 26.3149 17.6745C26.3149 17.7194 26.3553 17.7823 26.4047 17.8182C26.4541 17.8541 26.4945 17.9125 26.4945 17.9529C26.4945 17.9933 26.5349 18.0517 26.5843 18.0876C26.6337 18.1235 26.6741 18.1729 26.6741 18.1999C26.6741 18.2223 26.737 18.3121 26.8088 18.3974C26.8851 18.4783 26.9435 18.5636 26.9435 18.586C26.9435 18.604 26.9929 18.6713 27.0557 18.7342C27.1186 18.797 27.168 18.8599 27.168 18.8734C27.168 18.9407 28.1154 19.8836 28.1827 19.8836C28.1962 19.8836 28.2636 19.942 28.3309 20.0138C28.3938 20.0812 28.5105 20.1755 28.5823 20.2159C28.8113 20.3416 28.8922 20.3955 28.9685 20.4763C29.0089 20.5212 29.0762 20.5571 29.1167 20.5571C29.1571 20.5571 29.1885 20.5751 29.1885 20.602C29.1885 20.6245 29.2289 20.6469 29.2783 20.6469C29.3277 20.6469 29.3681 20.6649 29.3681 20.6918C29.3681 20.7143 29.3995 20.7367 29.4354 20.7367C29.4714 20.7367 29.5387 20.7547 29.5836 20.7771C29.7497 20.8669 30.2302 21.051 30.293 21.051C30.329 21.051 30.3559 21.069 30.3559 21.0959C30.3559 21.1184 30.4367 21.1408 30.5355 21.1408C30.6343 21.1408 30.7151 21.1588 30.7151 21.1857C30.7151 21.2082 30.751 21.2306 30.7959 21.2306C30.8947 21.2306 31.2449 21.3968 31.3347 21.4821C31.3661 21.518 31.411 21.5449 31.4335 21.5449C31.4919 21.5449 31.9813 22.0433 32.107 22.2319C32.1699 22.3217 32.2327 22.398 32.2552 22.398C32.2731 22.398 32.2866 22.4384 32.2866 22.4878C32.2866 22.5372 32.309 22.5776 32.3315 22.5776C32.3584 22.5776 32.3764 22.618 32.3764 22.6674C32.3764 22.7168 32.3988 22.7572 32.4213 22.7572C32.4482 22.7572 32.4662 22.7976 32.4662 22.847C32.4662 22.8964 32.4886 22.9368 32.5111 22.9368C32.538 22.9368 32.556 22.9862 32.556 23.0491C32.556 23.1119 32.5784 23.1613 32.6009 23.1613C32.6278 23.1613 32.6458 23.2062 32.6458 23.2646C32.6458 23.323 32.6682 23.3903 32.6997 23.4217C32.7985 23.5205 32.8389 23.9156 32.8389 24.7553C32.8389 25.6578 32.8074 25.9586 32.7087 26.1023C32.6727 26.1517 32.6458 26.246 32.6458 26.3133C32.6458 26.3851 32.6278 26.439 32.6009 26.439C32.5784 26.439 32.556 26.4974 32.556 26.5737C32.556 26.6456 32.538 26.7084 32.5111 26.7084C32.4886 26.7084 32.4662 26.7578 32.4662 26.8207C32.4662 26.8835 32.4482 26.9329 32.4213 26.9329C32.3988 26.9329 32.3764 26.9733 32.3764 27.0227C32.3764 27.0721 32.3584 27.1125 32.3315 27.1125C32.309 27.1125 32.2866 27.1529 32.2866 27.1978C32.2866 27.2472 32.2686 27.3011 32.2417 27.3146C32.2192 27.328 32.1968 27.3729 32.1968 27.4089C32.1968 27.4493 32.1699 27.5076 32.1429 27.5391C31.9992 27.6962 31.9723 27.7411 31.9723 27.8085C31.9723 27.8444 31.9543 27.8758 31.9274 27.8758C31.9049 27.8758 31.8825 27.9073 31.8825 27.9432C31.8825 27.9791 31.8645 28.0105 31.8376 28.0105C31.8151 28.0105 31.7927 28.042 31.7927 28.0779C31.7927 28.1138 31.7747 28.1452 31.7478 28.1452C31.7253 28.1452 31.7029 28.1677 31.7029 28.1901C31.7029 28.2171 31.6535 28.2889 31.5906 28.3518C31.5278 28.4146 31.4784 28.482 31.4784 28.4999C31.4784 28.5224 31.3661 28.6526 31.2314 28.7963C31.0967 28.9355 30.9845 29.0657 30.9845 29.0836C30.9845 29.1285 30.329 29.8065 30.2841 29.8065C30.2661 29.8065 30.2077 29.8559 30.1494 29.9188C30.091 29.9816 30.0326 30.031 30.0191 30.031C30.0012 30.031 29.9114 30.1118 29.8171 30.2106C29.7228 30.3094 29.615 30.3902 29.5836 30.3902C29.5522 30.3902 29.4938 30.4306 29.4579 30.4845C29.422 30.5339 29.3322 30.6102 29.2558 30.6462C29.184 30.6866 29.0897 30.7539 29.0493 30.7988C29.0089 30.8482 28.955 30.8841 28.9236 30.8841C28.8966 30.8841 28.8742 30.9021 28.8742 30.929C28.8742 30.9515 28.8428 30.9739 28.8068 30.9739C28.7709 30.9739 28.7395 30.9919 28.7395 31.0188C28.7395 31.0413 28.7126 31.0637 28.6766 31.0637C28.6407 31.0637 28.6048 31.0772 28.5958 31.0996C28.5779 31.149 27.9448 31.5576 27.8864 31.5576C27.8639 31.5576 27.8415 31.5756 27.8415 31.6025C27.8415 31.625 27.8011 31.6474 27.7517 31.6474C27.7023 31.6474 27.6619 31.6654 27.6619 31.6923C27.6619 31.7148 27.6305 31.7372 27.5945 31.7372C27.5586 31.7372 27.5272 31.7507 27.5272 31.7687C27.5272 31.7911 27.4464 31.845 27.3476 31.8899C27.2488 31.9393 27.168 31.9932 27.168 32.0156C27.168 32.0336 27.1276 32.0515 27.0782 32.0515C27.0288 32.0515 26.9884 32.0695 26.9884 32.0964C26.9884 32.1189 26.948 32.1413 26.8986 32.1413C26.8492 32.1413 26.8088 32.1593 26.8088 32.1862C26.8088 32.2087 26.7729 32.2311 26.728 32.2311C26.6831 32.2311 26.6023 32.2715 26.5484 32.3209C26.4945 32.3703 26.4137 32.4107 26.3643 32.4107C26.3149 32.4107 26.27 32.4242 26.261 32.4422C26.2386 32.496 25.9737 32.6352 25.8928 32.6352C25.8524 32.6352 25.821 32.6532 25.821 32.6801C25.821 32.7026 25.7806 32.725 25.7312 32.725C25.6818 32.725 25.6414 32.743 25.6414 32.7699C25.6414 32.7924 25.601 32.8148 25.5516 32.8148C25.5022 32.8148 25.4618 32.8328 25.4618 32.8597C25.4618 32.8822 25.4124 32.9046 25.3495 32.9046C25.2867 32.9046 25.2373 32.9226 25.2373 32.9495C25.2373 32.972 25.2059 32.9944 25.1655 32.9944C25.0846 32.9944 24.8018 33.2818 24.7614 33.4075C24.7479 33.4524 24.7165 33.4883 24.694 33.4883C24.6222 33.4883 24.6446 34.1484 24.7209 34.2247C24.7569 34.2606 24.7883 34.3145 24.7883 34.3414C24.7883 34.4133 25.0891 34.7006 25.1699 34.7006C25.2059 34.7006 25.2373 34.7186 25.2373 34.7455C25.2373 34.8039 26.2116 34.8039 26.2475 34.7455C26.261 34.7186 26.4137 34.7006 26.5888 34.7006C26.7639 34.7006 26.8986 34.6827 26.8986 34.6557C26.8986 34.6288 27.0198 34.6108 27.168 34.6108C27.3162 34.6108 27.4374 34.5929 27.4374 34.5659C27.4374 34.539 27.5496 34.521 27.6843 34.521C27.819 34.521 27.9313 34.4986 27.9313 34.4761C27.9313 34.4492 28.0435 34.4312 28.1782 34.4312C28.3129 34.4312 28.4252 34.4088 28.4252 34.3863C28.4252 34.3594 28.4881 34.3414 28.5644 34.3414C28.6407 34.3414 28.8068 34.31 28.9371 34.2696C29.3591 34.1394 29.4399 34.1169 29.5612 34.1169C29.6285 34.1169 29.6824 34.0945 29.6824 34.072C29.6824 34.0451 29.7632 34.0271 29.862 34.0271C29.9608 34.0271 30.0416 34.0047 30.0416 33.9822C30.0416 33.9553 30.1314 33.9373 30.2436 33.9373C30.3559 33.9373 30.4457 33.9149 30.4457 33.8924C30.4457 33.8655 30.5086 33.8475 30.5804 33.8475C30.6567 33.8475 30.7151 33.8251 30.7151 33.8026C30.7151 33.7757 30.7959 33.7577 30.8947 33.7577C30.9935 33.7577 31.0743 33.7353 31.0743 33.7128C31.0743 33.6859 31.1192 33.6679 31.1776 33.6679C31.2359 33.6679 31.3212 33.6365 31.3706 33.6006C31.4155 33.5647 31.5098 33.5332 31.5817 33.5332C31.649 33.5332 31.7029 33.5108 31.7029 33.4883C31.7029 33.4614 31.7658 33.4434 31.8376 33.4434C31.9139 33.4434 31.9723 33.421 31.9723 33.3985C31.9723 33.3716 32.0352 33.3536 32.107 33.3536C32.1833 33.3536 32.2417 33.3312 32.2417 33.3087C32.2417 33.2818 32.3135 33.2638 32.3988 33.2638C32.4842 33.2638 32.556 33.2414 32.556 33.2189C32.556 33.192 32.5964 33.174 32.6458 33.174C32.6952 33.174 32.7356 33.1516 32.7356 33.1291C32.7356 33.1022 32.7985 33.0842 32.8703 33.0842C32.9466 33.0842 33.005 33.0618 33.005 33.0393C33.005 33.0124 33.0454 32.9944 33.0993 32.9944C33.1487 32.9944 33.2205 32.963 33.2564 32.9271C33.2968 32.8912 33.3642 32.8597 33.4091 32.8597C33.454 32.8597 33.5079 32.8373 33.5213 32.8148C33.5348 32.7879 33.5887 32.7699 33.6381 32.7699C33.683 32.7699 33.7234 32.7475 33.7234 32.725C33.7234 32.6981 33.7863 32.6801 33.8581 32.6801C33.9344 32.6801 33.9928 32.6577 33.9928 32.6352C33.9928 32.6083 34.0332 32.5903 34.0826 32.5903C34.132 32.5903 34.1724 32.5679 34.1724 32.5454C34.1724 32.5185 34.2218 32.5005 34.2846 32.5005C34.3475 32.5005 34.3969 32.4781 34.3969 32.4556C34.3969 32.4287 34.4373 32.4107 34.4867 32.4107C34.5361 32.4107 34.5765 32.3928 34.5765 32.3748C34.5765 32.3524 34.6618 32.303 34.7696 32.2581C34.8728 32.2177 34.9941 32.1638 35.0345 32.1368C35.0794 32.1144 35.1467 32.0964 35.1826 32.0964C35.2186 32.0964 35.25 32.074 35.25 32.0515C35.25 32.0246 35.2904 32.0066 35.3398 32.0066C35.3892 32.0066 35.4296 31.9842 35.4296 31.9617C35.4296 31.9348 35.47 31.9168 35.5194 31.9168C35.5688 31.9168 35.6092 31.8944 35.6092 31.8719C35.6092 31.845 35.6406 31.827 35.6765 31.827C35.7125 31.827 35.7439 31.8046 35.7439 31.7821C35.7439 31.7552 35.7843 31.7372 35.8292 31.7372C35.8786 31.7372 35.9235 31.7193 35.9325 31.7013C35.9504 31.6519 36.3725 31.4229 36.4443 31.4229C36.4803 31.4229 36.5072 31.4005 36.5072 31.378C36.5072 31.3511 36.5431 31.3331 36.588 31.3331C36.6329 31.3331 36.6958 31.2927 36.7317 31.2433C36.7676 31.1939 36.8305 31.1535 36.8754 31.1535C36.9203 31.1535 36.9562 31.1356 36.9562 31.1131C36.9562 31.0907 37.0056 31.0592 37.0684 31.0458C37.1313 31.0278 37.1807 31.0009 37.1807 30.9784C37.1807 30.956 37.2436 30.9156 37.3154 30.8841C37.3917 30.8527 37.4501 30.8123 37.4501 30.7898C37.4501 30.7674 37.4815 30.7494 37.5174 30.7494C37.5534 30.7494 37.5848 30.727 37.5848 30.7045C37.5848 30.6776 37.6207 30.6596 37.6656 30.6596C37.7105 30.6596 37.7734 30.6192 37.8093 30.5698C37.8452 30.5204 37.9081 30.48 37.953 30.48C37.9979 30.48 38.0338 30.4666 38.0338 30.4441C38.0338 30.4261 38.1236 30.3498 38.2358 30.278C38.3436 30.2016 38.4379 30.1298 38.4379 30.1074C38.4379 30.0894 38.4738 30.0759 38.5187 30.0759C38.5636 30.0759 38.6265 30.0355 38.6624 29.9861C38.6983 29.9367 38.7522 29.8963 38.7836 29.8963C38.8151 29.8963 38.842 29.8739 38.842 29.8514C38.842 29.8245 38.8644 29.8065 38.8914 29.8065C38.9183 29.8065 38.9632 29.7796 38.9947 29.7526C39.0261 29.7212 39.1069 29.6539 39.1787 29.6045C39.2461 29.5551 39.3494 29.4698 39.4077 29.4159C39.4661 29.3575 39.529 29.3126 39.5469 29.3126C39.5694 29.3126 39.6143 29.2722 39.6502 29.2228C39.6861 29.1734 39.74 29.133 39.7759 29.133C39.8433 29.133 39.9645 29.0253 39.9645 28.9669C39.9645 28.9489 40.0184 28.8906 40.0812 28.8457C40.1441 28.7963 40.2474 28.711 40.3147 28.6526C40.3821 28.5942 40.4539 28.5493 40.4719 28.5493C40.5213 28.5493 40.638 28.4326 40.638 28.3832C40.6425 28.3652 40.7323 28.2665 40.8445 28.1677C41.1274 27.9207 41.4552 27.5974 41.5854 27.4313C41.6438 27.355 41.7111 27.2921 41.7291 27.2921C41.7829 27.2921 41.985 27.0811 41.985 27.0227C41.985 27.0003 42.0074 26.9778 42.0299 26.9778C42.0568 26.9778 42.0748 26.9554 42.0748 26.9284C42.0748 26.906 42.1332 26.8207 42.2095 26.7399C42.2813 26.659 42.3442 26.5827 42.3442 26.5603C42.3442 26.5423 42.3666 26.5288 42.3936 26.5288C42.4564 26.5288 42.5687 26.4166 42.5687 26.3537C42.5687 26.3268 42.5911 26.3043 42.6136 26.3043C42.6405 26.3043 42.6585 26.2729 42.6585 26.237C42.6585 26.2011 42.6809 26.1696 42.7034 26.1696C42.7303 26.1696 42.7483 26.1472 42.7483 26.1247C42.7483 26.0978 42.8156 26.008 42.8965 25.9227C43.094 25.7116 43.1524 25.6398 43.1524 25.5994C43.1524 25.5769 43.1928 25.532 43.2422 25.4961C43.2916 25.4602 43.332 25.4063 43.332 25.3704C43.332 25.339 43.3769 25.2626 43.4353 25.2043C43.4891 25.1459 43.6059 24.9843 43.6912 24.8496C43.7765 24.7104 43.8618 24.5981 43.8843 24.5981C43.9022 24.5981 43.9157 24.5667 43.9157 24.5308C43.9157 24.4904 43.9561 24.4185 44.0055 24.3646C44.0549 24.3108 44.0953 24.2389 44.0953 24.2075C44.0953 24.1761 44.1177 24.1491 44.1402 24.1491C44.1671 24.1491 44.1851 24.1177 44.1851 24.0818C44.1851 24.0459 44.2075 24.0144 44.23 24.0144C44.2569 24.0144 44.2749 23.983 44.2749 23.9471C44.2749 23.8797 44.3018 23.8348 44.4455 23.6777C44.4725 23.6462 44.4994 23.5834 44.4994 23.5475C44.4994 23.5071 44.5218 23.4756 44.5443 23.4756C44.5712 23.4756 44.5892 23.4442 44.5892 23.4083C44.5892 23.3724 44.6116 23.3409 44.6341 23.3409C44.661 23.3409 44.679 23.3005 44.679 23.2511C44.679 23.2017 44.7014 23.1613 44.7239 23.1613C44.7508 23.1613 44.7688 23.1209 44.7688 23.0715C44.7688 23.0221 44.7912 22.9817 44.8137 22.9817C44.8406 22.9817 44.8586 22.9548 44.8586 22.9189C44.8586 22.838 45.0023 22.5776 45.0517 22.5776C45.0696 22.5776 45.0831 22.5372 45.0831 22.4878C45.0831 22.4384 45.1055 22.398 45.128 22.398C45.1549 22.398 45.1729 22.3576 45.1729 22.3082C45.1729 22.2588 45.1953 22.2184 45.2178 22.2184C45.2447 22.2184 45.2627 22.169 45.2627 22.1062C45.2627 22.0433 45.2851 21.9939 45.3076 21.9939C45.3345 21.9939 45.3525 21.9535 45.3525 21.9041C45.3525 21.8547 45.3749 21.8143 45.3974 21.8143C45.4243 21.8143 45.4423 21.7739 45.4423 21.7245C45.4423 21.6751 45.4647 21.5943 45.4872 21.5449C45.5141 21.4955 45.5545 21.4147 45.577 21.3653C45.6039 21.3159 45.6219 21.2531 45.6219 21.2261C45.6219 21.1992 45.6533 21.1498 45.6892 21.1139C45.7252 21.0735 45.7566 20.9971 45.7566 20.9343C45.7566 20.8759 45.779 20.8265 45.8015 20.8265C45.8284 20.8265 45.8464 20.7637 45.8464 20.6918C45.8464 20.6155 45.8688 20.5571 45.8913 20.5571C45.9182 20.5571 45.9362 20.5077 45.9362 20.4449C45.9362 20.382 45.9586 20.3326 45.9811 20.3326C46.008 20.3326 46.026 20.2698 46.026 20.1979C46.026 20.1216 46.0484 20.0632 46.0709 20.0632C46.0978 20.0632 46.1158 20.0004 46.1158 19.9285C46.1158 19.8522 46.1382 19.7938 46.1607 19.7938C46.1876 19.7938 46.2056 19.731 46.2056 19.6591C46.2056 19.5828 46.2236 19.4885 46.246 19.4436C46.3223 19.2865 46.3987 19.0485 46.4166 18.8824C46.4301 18.7926 46.457 18.7162 46.4795 18.7162C46.5019 18.7162 46.5199 18.6354 46.5199 18.5366C46.5199 18.4378 46.5423 18.357 46.5648 18.357C46.5917 18.357 46.6097 18.2672 46.6097 18.155C46.6097 18.0427 46.6321 17.9529 46.6546 17.9529C46.6815 17.9529 46.6995 17.8497 46.6995 17.7284C46.6995 17.6027 46.7175 17.5039 46.7399 17.5039C46.7624 17.5039 46.7938 17.3872 46.8073 17.2435C46.8207 17.1043 46.8522 16.8574 46.8746 16.6957C46.9015 16.5341 46.942 16.2333 46.9689 16.0222C46.9913 15.8112 47.0318 15.5328 47.0587 15.3981C47.0812 15.2634 47.1036 14.8548 47.1036 14.4866C47.1036 14.0736 47.1216 13.8221 47.1485 13.8221C47.1754 13.8221 47.1934 13.6291 47.1934 13.3282C47.1934 13.0543 47.1754 12.8343 47.153 12.8343C47.1305 12.8343 47.1036 12.5245 47.0856 12.1474C47.0722 11.7747 47.0318 11.2628 46.9913 11.0159C46.9509 10.7689 46.906 10.4546 46.8926 10.3199C46.8836 10.1852 46.8522 10.055 46.8297 10.0281C46.8073 10.0056 46.7893 9.90235 46.7893 9.79908C46.7893 9.69132 46.7713 9.59254 46.7444 9.57907C46.7219 9.5656 46.6995 9.45335 46.6995 9.32763C46.6995 9.2064 46.6815 9.10762 46.6546 9.10762C46.6321 9.10762 46.6097 9.03578 46.6097 8.95047C46.6097 8.86516 46.5917 8.79332 46.5648 8.79332C46.5423 8.79332 46.5199 8.7125 46.5199 8.61372C46.5199 8.51494 46.5019 8.43412 46.475 8.43412C46.4525 8.43412 46.4301 8.37575 46.4301 8.30391C46.4301 8.22758 46.4121 8.16023 46.3897 8.14676C46.3672 8.1288 46.3134 8.00308 46.2685 7.8594C46.228 7.72021 46.1742 7.58551 46.1517 7.55857C46.1338 7.53612 46.1158 7.45979 46.1158 7.39244C46.1158 7.32509 46.0978 7.26672 46.0709 7.26672C46.0484 7.26672 46.026 7.22631 46.026 7.17692C46.026 7.12753 46.008 7.08712 45.9811 7.08712C45.9586 7.08712 45.9362 7.02426 45.9362 6.95242C45.9362 6.87609 45.9182 6.81772 45.8913 6.81772C45.8688 6.81772 45.8464 6.76833 45.8464 6.70547C45.8464 6.64261 45.8284 6.59322 45.8015 6.59322C45.779 6.59322 45.7566 6.55281 45.7566 6.50342C45.7566 6.45403 45.7386 6.41362 45.7162 6.41362C45.6937 6.41362 45.6399 6.32382 45.5905 6.21157C45.5456 6.09932 45.4962 6.00952 45.4782 6.00952C45.4558 6.00952 45.4423 5.96911 45.4423 5.91972C45.4423 5.87033 45.4243 5.82992 45.3974 5.82992C45.3749 5.82992 45.3525 5.78951 45.3525 5.74012C45.3525 5.69073 45.3345 5.65032 45.3076 5.65032C45.2851 5.65032 45.2627 5.60991 45.2627 5.56052C45.2627 5.51113 45.2447 5.47072 45.2178 5.47072C45.1953 5.47072 45.1729 5.43929 45.1729 5.40337C45.1729 5.36745 45.1549 5.33602 45.128 5.33602C45.1055 5.33602 45.0831 5.30459 45.0831 5.26867C45.0831 5.22826 45.0606 5.17438 45.0382 5.14295C44.8272 4.89151 44.7688 4.81069 44.7688 4.7613C44.7688 4.73436 44.7508 4.70742 44.7239 4.70742C44.7014 4.70742 44.679 4.67599 44.679 4.64007C44.679 4.60415 44.661 4.57272 44.6341 4.57272C44.6116 4.57272 44.5892 4.54129 44.5892 4.50537C44.5892 4.46496 44.5443 4.38863 44.4904 4.33026C44.3333 4.17311 44.1851 3.99351 44.1851 3.96208C44.1851 3.94861 44.1267 3.87677 44.0504 3.80942C43.9786 3.74207 43.9157 3.67023 43.9157 3.65676C43.9157 3.58043 42.7977 2.46242 42.7214 2.46242C42.7079 2.46242 42.636 2.39956 42.5687 2.32772C42.5013 2.25139 42.4295 2.19302 42.416 2.19302C42.3981 2.19302 42.3622 2.17506 42.3307 2.14812C42.0793 1.94607 41.9895 1.87872 41.9536 1.87872C41.9311 1.87872 41.8862 1.83831 41.8503 1.78892C41.8144 1.73953 41.7515 1.69912 41.7066 1.69912C41.6617 1.69912 41.6258 1.67667 41.6258 1.65422C41.6258 1.62728 41.5944 1.60932 41.5584 1.60932C41.5225 1.60932 41.4911 1.59585 41.4911 1.5734C41.4911 1.55544 41.3878 1.49258 41.2621 1.42972C41.1364 1.37135 41.0152 1.29502 40.9882 1.26359C40.9613 1.23216 40.9119 1.20522 40.8805 1.20522C40.8445 1.20522 40.8176 1.18277 40.8176 1.16032C40.8176 1.13338 40.7772 1.11542 40.7278 1.11542C40.6784 1.11542 40.638 1.09297 40.638 1.07052C40.638 1.04358 40.5976 1.02562 40.5482 1.02562C40.4988 1.02562 40.4584 1.00317 40.4584 0.980721C40.4584 0.953781 40.418 0.935822 40.3686 0.935822C40.3192 0.935822 40.2429 0.917862 40.198 0.895412C40.1576 0.872959 40.0723 0.83704 40.0094 0.81459C39.758 0.711319 39.6637 0.6754 39.502 0.603561C39.4077 0.563152 39.3045 0.531719 39.2685 0.531719C39.2326 0.531719 39.2012 0.50927 39.2012 0.48682C39.2012 0.459881 39.1204 0.441921 39.0216 0.441921C38.9228 0.441921 38.842 0.423962 38.842 0.401512C38.842 0.361099 38.6848 0.32967 38.2493 0.280281C38.1281 0.266811 38.0338 0.235382 38.0338 0.217419C38.0338 0.181499 37.953 0.16803 37.046 0.0872116C36.3456 0.0198593 35.4565 -0.0205498 35.4251 0.0108795Z" fill="#F4C254"/>
</svg>
