<svg width="82" height="13" viewBox="0 0 82 13" fill="none" xmlns="http://www.w3.org/2000/svg">
<path d="M6.7617 0.256426C6.95242 -0.0854748 7.44431 -0.0854754 7.63502 0.256425L9.4245 3.46445C9.49369 3.58848 9.61236 3.67724 9.75089 3.70856L13.2586 4.50168C13.6258 4.58471 13.773 5.02842 13.5282 5.31445L11.1145 8.13501C11.0262 8.23828 10.9837 8.37307 10.9968 8.50835L11.3596 12.2497C11.3968 12.6337 11.0034 12.9134 10.6529 12.7521L7.40736 11.2588C7.27472 11.1978 7.12201 11.1978 6.98936 11.2588L3.74384 12.7521C3.39331 12.9134 2.99993 12.6337 3.03717 12.2497L3.39996 8.50835C3.41307 8.37307 3.37055 8.23828 3.28218 8.13501L0.868545 5.31446C0.623776 5.02842 0.77097 4.58471 1.13817 4.50168L4.64584 3.70856C4.78436 3.67724 4.90304 3.58848 4.97222 3.46445L6.7617 0.256426Z" fill="#FFCB37"/>
<path d="M23.6621 0.256426C23.8528 -0.0854748 24.3447 -0.0854754 24.5354 0.256425L26.3249 3.46445C26.3941 3.58848 26.5128 3.67724 26.6513 3.70856L30.159 4.50168C30.5261 4.58471 30.6733 5.02842 30.4286 5.31445L28.0149 8.13501C27.9266 8.23828 27.884 8.37307 27.8972 8.50835L28.2599 12.2497C28.2972 12.6337 27.9038 12.9134 27.5533 12.7521L24.3078 11.2588C24.1751 11.1978 24.0224 11.1978 23.8898 11.2588L20.6442 12.7521C20.2937 12.9134 19.9003 12.6337 19.9376 12.2497L20.3003 8.50835C20.3135 8.37307 20.2709 8.23828 20.1826 8.13501L17.7689 5.31446C17.5242 5.02842 17.6714 4.58471 18.0386 4.50168L21.5462 3.70856C21.6848 3.67724 21.8034 3.58848 21.8726 3.46445L23.6621 0.256426Z" fill="#FFCB37"/>
<path d="M40.5625 0.256426C40.7532 -0.0854748 41.2451 -0.0854754 41.4358 0.256425L43.2253 3.46445C43.2945 3.58848 43.4131 3.67724 43.5517 3.70856L47.0593 4.50168C47.4265 4.58471 47.5737 5.02842 47.329 5.31445L44.9153 8.13501C44.827 8.23828 44.7844 8.37307 44.7976 8.50835L45.1603 12.2497C45.1976 12.6337 44.8042 12.9134 44.4537 12.7521L41.2081 11.2588C41.0755 11.1978 40.9228 11.1978 40.7901 11.2588L37.5446 12.7521C37.1941 12.9134 36.8007 12.6337 36.838 12.2497L37.2007 8.50835C37.2139 8.37307 37.1713 8.23828 37.083 8.13501L34.6693 5.31446C34.4246 5.02842 34.5718 4.58471 34.9389 4.50168L38.4466 3.70856C38.5851 3.67724 38.7038 3.58848 38.773 3.46445L40.5625 0.256426Z" fill="#FFCB37"/>
<path d="M57.4639 0.256426C57.6546 -0.0854748 58.1465 -0.0854754 58.3372 0.256425L60.1267 3.46445C60.1958 3.58848 60.3145 3.67724 60.453 3.70856L63.9607 4.50168C64.3279 4.58471 64.4751 5.02842 64.2303 5.31445L61.8167 8.13501C61.7283 8.23828 61.6858 8.37307 61.6989 8.50835L62.0617 12.2497C62.0989 12.6337 61.7056 12.9134 61.355 12.7521L58.1095 11.2588C57.9769 11.1978 57.8242 11.1978 57.6915 11.2588L54.446 12.7521C54.0955 12.9134 53.7021 12.6337 53.7393 12.2497L54.1021 8.50835C54.1152 8.37307 54.0727 8.23828 53.9843 8.13501L51.5707 5.31446C51.3259 5.02842 51.4731 4.58471 51.8403 4.50168L55.348 3.70856C55.4865 3.67724 55.6052 3.58848 55.6744 3.46445L57.4639 0.256426Z" fill="#FFCB37"/>
<path d="M74.3642 0.256426C74.555 -0.0854748 75.0468 -0.0854754 75.2376 0.256425L77.027 3.46445C77.0962 3.58848 77.2149 3.67724 77.3534 3.70856L80.8611 4.50168C81.2283 4.58471 81.3755 5.02842 81.1307 5.31445L78.7171 8.13501C78.6287 8.23828 78.5862 8.37307 78.5993 8.50835L78.9621 12.2497C78.9993 12.6337 78.606 12.9134 78.2554 12.7521L75.0099 11.2588C74.8773 11.1978 74.7246 11.1978 74.5919 11.2588L71.3464 12.7521C70.9958 12.9134 70.6025 12.6337 70.6397 12.2497L71.0025 8.50835C71.0156 8.37307 70.9731 8.23828 70.8847 8.13501L68.4711 5.31446C68.2263 5.02842 68.3735 4.58471 68.7407 4.50168L72.2484 3.70856C72.3869 3.67724 72.5056 3.58848 72.5748 3.46445L74.3642 0.256426Z" fill="#FFCB37"/>
</svg>
