<svg width="35" height="35" viewBox="0 0 35 35" fill="none" xmlns="http://www.w3.org/2000/svg">
<g clip-path="url(#clip0_553_6743)">
<path d="M34.3974 28.9657H0.604452C0.271201 28.9657 0.000976562 28.6955 0.000976562 28.3622V6.63814C0.000976562 6.30489 0.271201 6.03467 0.604452 6.03467H34.3975C34.7308 6.03467 35.001 6.30489 35.001 6.63814V28.3622C35.0009 28.6956 34.7307 28.9657 34.3974 28.9657Z" fill="#73AF00"/>
<path d="M7.24195 13.8277C7.30142 14.209 7.53186 14.3286 7.73222 14.313C7.96847 14.2946 8.17567 14.0786 8.17567 13.8504V12.5422C8.17567 12.4767 8.22899 12.4232 8.29461 12.4232C8.36024 12.4232 8.41356 12.4766 8.41356 12.5422V13.856C8.41356 14.014 8.49163 14.1613 8.62253 14.2498C8.70245 14.3039 8.79548 14.3318 8.8892 14.3318C8.94888 14.3318 9.00883 14.3203 9.06598 14.2976L9.18486 14.2501C9.1958 15.3483 9.12901 16.3134 9.12778 16.3311C9.11848 16.4622 9.21706 16.576 9.3481 16.5853C9.35391 16.5858 9.35958 16.586 9.36533 16.586C9.48906 16.586 9.59344 16.4903 9.6024 16.365C9.60793 16.2877 9.68121 15.2307 9.65927 14.0603L9.73119 14.0316C9.79421 14.0065 9.86503 14.0095 9.92567 14.0397C10.1877 14.1703 10.503 14.1194 10.71 13.9124L10.7529 13.8696C10.9451 13.677 11.0112 13.3973 10.9251 13.1392L10.7226 12.5316C10.8321 12.5645 10.9524 12.5161 11.0053 12.4106C11.0641 12.2931 11.0165 12.1502 10.899 12.0914L10.4233 11.8535C10.3372 11.8103 10.2339 11.8236 10.161 11.8865C10.0882 11.9497 10.0607 12.0503 10.0912 12.1415L10.4739 13.2898C10.5026 13.3758 10.4805 13.4691 10.4165 13.5333L10.3737 13.576C10.3117 13.6381 10.2172 13.6532 10.1383 13.6141C9.98411 13.5371 9.80857 13.5227 9.64389 13.5646C9.61046 12.8011 9.52823 12.0408 9.35309 11.5152C9.3116 11.3907 9.17713 11.3231 9.0521 11.3649C8.92748 11.4063 8.86015 11.5409 8.90171 11.6657C9.07309 12.1797 9.14774 12.9631 9.17426 13.742L8.88948 13.8558V12.542C8.88948 12.214 8.62267 11.9473 8.29475 11.9473C7.96683 11.9473 7.70003 12.2139 7.70003 12.542V13.6935L7.45735 12.4948C7.43151 12.3659 7.30614 12.2818 7.17708 12.3087C7.04822 12.335 6.96496 12.4604 6.99114 12.5891L7.24195 13.8277Z" fill="#F5F5F5"/>
<path d="M7.6998 11.8284C7.83119 11.8284 7.93769 11.722 7.93769 11.5905V11.3526C7.93769 11.2212 7.83119 11.1147 7.6998 11.1147C7.56842 11.1147 7.46191 11.2211 7.46191 11.3526V11.5905C7.46191 11.722 7.56842 11.8284 7.6998 11.8284Z" fill="#F5F5F5"/>
<path d="M10.0787 11.5905H10.3166C10.448 11.5905 10.5545 11.4842 10.5545 11.3526C10.5545 11.2212 10.448 11.1147 10.3166 11.1147H10.0787C9.94732 11.1147 9.84082 11.2211 9.84082 11.3526C9.84082 11.4842 9.94732 11.5905 10.0787 11.5905Z" fill="#F5F5F5"/>
<path d="M8.52951 14.7171L7.34013 15.4307C7.22741 15.4984 7.19097 15.6444 7.25858 15.7572C7.30315 15.8315 7.3819 15.8726 7.46277 15.8726C7.50447 15.8726 7.54664 15.8617 7.58499 15.8386L8.77438 15.125C8.8871 15.0574 8.92354 14.9113 8.85593 14.7986C8.78832 14.6859 8.64231 14.6495 8.52951 14.7171Z" fill="#F5F5F5"/>
<path d="M11.7362 15.1375L11.7418 15.1338C11.7618 15.2142 11.796 15.2919 11.8516 15.3573C11.9483 15.4711 12.0932 15.5283 12.257 15.5148C12.4893 15.4978 12.6472 15.3917 12.7518 15.2546C12.7678 15.2656 12.7845 15.2755 12.802 15.2844C12.9306 15.3492 13.0793 15.3443 13.2208 15.2708C13.5803 15.0857 13.6578 14.6574 13.6469 14.4334C13.6404 14.3029 13.5294 14.2107 13.3992 14.2081C13.2686 14.2137 13.1668 14.3245 13.1716 14.4551C13.1717 14.4581 13.177 14.7404 13.0044 14.8452C12.9763 14.8059 12.9429 14.7176 12.9303 14.6447C12.9102 14.5222 12.7978 14.437 12.6768 14.4468C12.5535 14.4565 12.4582 14.5601 12.4578 14.6839C12.4576 14.7185 12.45 15.0237 12.2143 15.0493C12.1869 15.0119 12.1864 14.8544 12.2134 14.738C12.2362 14.6425 12.1979 14.5428 12.1171 14.4871C12.0362 14.4311 11.9295 14.4311 11.8482 14.4862L11.7154 14.5765C11.6524 13.197 11.5071 11.5895 11.5054 11.569C11.4935 11.4384 11.3786 11.3411 11.247 11.3536C11.1161 11.3655 11.0197 11.4812 11.0316 11.6122C11.0336 11.6342 11.2016 13.4941 11.2534 14.9144C11.2412 14.926 11.2287 14.9386 11.2168 14.9497C11.1228 14.7125 10.9363 14.5632 10.6961 14.5404C10.3572 14.5105 9.98998 14.7411 9.85832 15.0705C9.74485 15.3539 9.81628 15.6325 10.0402 15.78C10.2011 15.8861 10.4441 15.9196 10.7496 15.8125C10.675 16.0745 10.5392 16.3403 10.3627 16.5459C10.2046 16.7301 9.94056 16.9426 9.60273 16.9331C9.40606 16.9254 9.25499 16.8611 9.14076 16.7361C8.86534 16.4353 8.88906 15.8908 8.88926 15.885C8.8961 15.7539 8.79575 15.6422 8.66484 15.635C8.53298 15.621 8.42141 15.7281 8.41417 15.8594C8.41253 15.8895 8.378 16.6051 8.78768 17.0551C8.98934 17.2769 9.25724 17.3956 9.584 17.4084C9.59993 17.4091 9.61585 17.4093 9.63185 17.4093C10.0298 17.4093 10.4159 17.2141 10.7234 16.8557C11.0127 16.5189 11.2092 16.0613 11.2681 15.6365C11.2673 16.4502 10.7769 17.368 10.1268 17.7724C9.85067 17.9438 9.42021 18.0985 8.93534 17.8595C8.3376 17.5644 8.40883 16.8812 8.41198 16.8533C8.42832 16.723 8.33583 16.6041 8.20547 16.5878C8.07572 16.572 7.95609 16.6638 7.93996 16.7943C7.93463 16.8369 7.82033 17.8397 8.72486 18.2859C8.95721 18.4007 9.20016 18.4576 9.44502 18.4576C9.75954 18.4576 10.077 18.3635 10.3779 18.1763C11.1695 17.6842 11.7441 16.6152 11.7441 15.6345C11.744 15.4812 11.7411 15.3137 11.7362 15.1375ZM10.3018 15.3827C10.2593 15.3546 10.2925 15.2647 10.2997 15.2468C10.3498 15.1214 10.5065 15.0129 10.6317 15.0129C10.6381 15.0129 10.6446 15.0131 10.6508 15.0138C10.6812 15.0166 10.762 15.0243 10.7967 15.2038C10.8004 15.2229 10.8035 15.2424 10.806 15.2623C10.5409 15.4181 10.3632 15.423 10.3018 15.3827Z" fill="#F5F5F5"/>
<path d="M7.82031 17.5708C7.70758 17.5046 7.56198 17.5424 7.49512 17.6552C7.48418 17.6735 7.46969 17.6935 7.45493 17.7116C7.45233 17.7055 7.4498 17.699 7.4472 17.692C7.34801 17.4274 7.41863 17.0198 7.45431 16.885C7.48787 16.7582 7.41234 16.6281 7.2856 16.5941C7.159 16.5616 7.02877 16.6354 6.99473 16.7623C6.97744 16.8266 6.83122 17.4041 7.0017 17.859C7.11087 18.1499 7.27849 18.2233 7.39997 18.2332C7.41077 18.2341 7.42143 18.2346 7.43203 18.2346C7.6881 18.2346 7.85852 17.9765 7.90589 17.8948C7.97158 17.7815 7.9331 17.6372 7.82031 17.5708Z" fill="#F5F5F5"/>
<path d="M12.2097 13.256C12.2612 13.256 12.313 13.2395 12.3565 13.2052L13.5558 12.2637C13.5723 12.2507 13.5829 12.2337 13.595 12.2177C13.7678 12.1135 13.8846 11.9259 13.8846 11.71C13.8846 11.382 13.6178 11.1152 13.2899 11.1152C12.962 11.1152 12.6952 11.3819 12.6952 11.71C12.6952 11.8935 12.7805 12.0557 12.9114 12.1649L12.0626 12.8313C11.9593 12.9123 11.9414 13.0619 12.0224 13.1651C12.0694 13.2249 12.1393 13.256 12.2097 13.256ZM13.29 11.5909C13.3556 11.5909 13.4089 11.6443 13.4089 11.7099C13.4089 11.7754 13.3556 11.8288 13.29 11.8288C13.2243 11.8288 13.171 11.7754 13.171 11.7099C13.171 11.6443 13.2243 11.5909 13.29 11.5909Z" fill="#F5F5F5"/>
<path d="M13.009 13.0304C12.8837 12.9887 12.7495 13.0562 12.708 13.1807C12.6826 13.2569 12.5676 13.6494 12.8007 13.8823C12.8912 13.9728 13.0101 14.0181 13.1561 14.0179C13.2537 14.0179 13.3633 13.9979 13.4847 13.9572C13.6093 13.9159 13.6767 13.7812 13.6351 13.6564C13.5936 13.5318 13.4591 13.464 13.3341 13.5061C13.2012 13.5502 13.1451 13.5431 13.1399 13.5476C13.1259 13.5124 13.1351 13.4061 13.1595 13.3302C13.2007 13.206 13.1334 13.0718 13.009 13.0304Z" fill="#F5F5F5"/>
<path d="M15.7308 12.047C15.7532 12.0534 15.7755 12.0565 15.7976 12.0565C15.9006 12.0565 15.9955 11.9891 16.0259 11.8852L16.1646 11.4095C16.2014 11.2834 16.129 11.1512 16.003 11.1145C15.8765 11.078 15.7448 11.15 15.7079 11.2761L15.5692 11.7518C15.5323 11.8782 15.6048 12.0103 15.7308 12.047Z" fill="#F5F5F5"/>
<path d="M14.3451 12.019C14.3828 12.0411 14.4243 12.0516 14.4649 12.0516C14.5467 12.0516 14.6263 12.0095 14.6705 11.9339C14.7368 11.8205 14.6987 11.6746 14.5853 11.6084C14.5374 11.5805 14.5439 11.5018 14.5457 11.4862C14.5528 11.4237 14.59 11.3475 14.6548 11.3273C14.7803 11.2884 14.8504 11.155 14.8113 11.0295C14.7721 10.9039 14.639 10.8344 14.5133 10.8729C14.2762 10.9468 14.1033 11.1663 14.0729 11.4321C14.0447 11.6794 14.1491 11.9043 14.3451 12.019Z" fill="#F5F5F5"/>
<path d="M12.4576 15.8726C12.3262 15.8726 12.2197 15.9789 12.2197 16.1104C12.2197 16.2266 12.3029 16.3233 12.413 16.3441C12.4255 16.3624 12.4575 16.4254 12.4575 16.5862C12.4575 16.7176 12.5641 16.824 12.6954 16.824C12.8268 16.824 12.9333 16.7177 12.9333 16.5862C12.9334 15.8807 12.477 15.8726 12.4576 15.8726Z" fill="#F5F5F5"/>
<path d="M16.4929 14.8873C16.5228 14.8922 16.5525 14.8945 16.5824 14.8945C16.7693 14.8945 16.9581 14.8002 17.1451 14.6132C17.238 14.5203 17.238 14.3698 17.1451 14.2769C17.0522 14.184 16.9017 14.184 16.8088 14.2769C16.6665 14.4192 16.59 14.4223 16.5703 14.4178C16.525 14.4113 16.4838 14.3521 16.4746 14.3359C16.415 14.2201 16.2735 14.174 16.157 14.2322C16.0395 14.291 15.9917 14.4339 16.0506 14.5514C16.0653 14.5809 16.2026 14.8401 16.4929 14.8873Z" fill="#F5F5F5"/>
<path d="M20.5365 13.2156C20.535 13.2119 20.5335 13.2084 20.5324 13.2052C20.4902 13.0816 20.3555 13.0144 20.2321 13.0565C20.1074 13.0978 20.0401 13.2325 20.0816 13.3573C20.1001 13.413 20.2062 13.6928 20.4687 13.728C20.4862 13.7304 20.5037 13.7315 20.521 13.7315C20.6858 13.7315 20.8403 13.6249 20.981 13.4139C21.0538 13.3048 21.0243 13.157 20.915 13.0841C20.8055 13.0114 20.6578 13.0406 20.5852 13.1501C20.5664 13.1782 20.5501 13.1996 20.5365 13.2156Z" fill="#F5F5F5"/>
<path d="M20.0692 17.5378C20.0692 16.5234 20.0247 15.5718 19.9627 14.7379C20.3005 15.3237 20.6044 15.9156 20.798 16.432C20.8338 16.5275 20.9244 16.5863 21.0207 16.5863C21.0484 16.5863 21.0767 16.5814 21.1041 16.5712C21.2272 16.525 21.2895 16.3879 21.2434 16.2648C20.9423 15.4621 20.4011 14.5062 19.8677 13.6576C19.7377 12.3762 19.5921 11.5628 19.5896 11.5484C19.5661 11.419 19.4425 11.3317 19.3131 11.3569C19.1838 11.3803 19.0981 11.5041 19.1215 11.6333C19.1234 11.6436 19.1983 12.0626 19.288 12.7677C19.1052 12.4966 18.9354 12.2519 18.7929 12.0505L18.8045 12.0542C18.9298 12.096 19.0639 12.0284 19.1055 11.9039C19.1471 11.7791 19.0797 11.6444 18.9551 11.603L18.2415 11.3652C18.1425 11.3317 18.0338 11.3671 17.9733 11.4516C17.9571 11.4742 17.946 11.4989 17.9385 11.5245C17.7961 11.4192 17.6134 11.3336 17.442 11.4054C17.3383 11.4484 17.2147 11.5566 17.2147 11.8286C17.2147 12.0375 17.2943 12.2633 17.3788 12.5025C17.5189 12.8993 17.6066 13.191 17.4583 13.3302C17.3763 13.407 17.2943 13.4361 17.2145 13.4159C17.0678 13.3787 16.9226 13.1834 16.8259 12.8933C16.8216 12.8807 16.8129 12.8715 16.8069 12.8602C16.8569 12.4918 16.8351 12.0479 16.7343 11.5441C16.7086 11.4152 16.5836 11.3313 16.4543 11.3576C16.3255 11.3833 16.242 11.5086 16.2678 11.6375C16.4231 12.4143 16.3765 13.048 16.1432 13.3326C16.0529 13.4427 15.9399 13.4938 15.7874 13.4938C15.7392 13.4938 15.7064 13.4785 15.6736 13.4408C15.486 13.2245 15.4867 12.5267 15.5473 12.0999C15.5569 12.0319 15.5365 11.9627 15.4913 11.9106C15.4461 11.8586 15.3806 11.8286 15.3117 11.8286C14.9024 11.8286 14.7473 12.2942 14.6103 12.7049C14.5503 12.8854 14.4383 13.221 14.3602 13.2559C14.2163 13.2559 14.1232 12.8331 14.1223 12.542C14.1219 12.4108 14.0156 12.3046 13.8844 12.3046C13.8844 12.3046 13.8842 12.3046 13.884 12.3046C13.7528 12.3046 13.6465 12.411 13.6465 12.5422C13.6465 13.0909 13.8334 13.7316 14.3602 13.7316C14.7524 13.7316 14.9113 13.3042 15.0443 12.9069C15.0674 13.2228 15.1388 13.5501 15.3141 13.7523C15.4374 13.8944 15.6009 13.9694 15.7874 13.9694C16.0811 13.9694 16.3312 13.8535 16.511 13.6342C16.5436 13.5946 16.5716 13.549 16.5993 13.503C16.7374 13.6993 16.9069 13.8288 17.0978 13.877C17.1538 13.8912 17.2101 13.8983 17.2658 13.8983C17.4494 13.8983 17.6289 13.8226 17.7839 13.6769C17.8161 13.6466 17.8388 13.6136 17.8633 13.5809C17.9215 13.5976 17.9805 13.6074 18.039 13.6074C18.2317 13.6074 18.4173 13.5298 18.5324 13.4559C18.6425 13.3853 18.6744 13.2394 18.6044 13.1288C18.5344 13.0185 18.3878 12.9855 18.2769 13.0547C18.2749 13.0557 18.116 13.147 18.0077 13.1255C18.0079 12.8648 17.9136 12.5878 17.8275 12.3439C17.7785 12.2049 17.7281 12.0626 17.7044 11.9462C17.724 11.9628 17.7432 11.9799 17.7603 11.9966C17.853 12.0895 18.0037 12.0895 18.0966 11.9966C18.112 11.9812 18.1209 11.9625 18.1311 11.9446C18.3777 12.2842 18.8849 12.9981 19.4065 13.8209C19.5061 14.8323 19.5935 16.1224 19.5935 17.5374C19.5935 17.6689 19.7 17.7753 19.8314 17.7753C19.9627 17.7756 20.0692 17.6693 20.0692 17.5378Z" fill="#F5F5F5"/>
<path d="M20.3073 12.3044C20.3073 12.4358 20.4138 12.5423 20.5452 12.5423C20.6766 12.5423 20.7831 12.4359 20.7831 12.3044C20.7831 12.0244 20.564 11.5722 20.5201 11.4843C20.4613 11.367 20.3186 11.3197 20.2009 11.378C20.0834 11.4368 20.0357 11.5796 20.0946 11.6971C20.1803 11.8688 20.3073 12.1803 20.3073 12.3044Z" fill="#F5F5F5"/>
<path d="M19.225 17.5637C19.1084 17.5042 18.9651 17.5514 18.9057 17.6685C18.8801 17.7184 18.8406 17.774 18.8071 17.8097C18.7966 17.7152 18.8218 17.5263 18.8698 17.3698C18.9017 17.2653 18.8583 17.1523 18.7648 17.0961C18.6715 17.0397 18.5513 17.0544 18.4741 17.1317L17.9984 17.6074C17.9055 17.7003 17.9055 17.8508 17.9984 17.9437C18.0913 18.0366 18.2418 18.0366 18.3347 17.9437L18.3468 17.9316C18.3674 18.0271 18.4068 18.1142 18.4742 18.1816C18.5634 18.2708 18.6712 18.318 18.7832 18.318C18.805 18.318 18.8268 18.3161 18.8486 18.3127C19.1181 18.269 19.2859 17.9719 19.3308 17.8819C19.3893 17.7646 19.3419 17.6228 19.225 17.5637Z" fill="#F5F5F5"/>
<path d="M19.1326 15.6494H17.4561C17.4709 15.5902 17.4862 15.5337 17.5019 15.4801C18.1704 15.3411 18.5678 15.1253 18.6846 14.8374C18.725 14.7375 18.7672 14.5356 18.5951 14.3035C18.44 14.0944 18.2211 14.0006 17.9938 14.0471C17.6557 14.1156 17.3545 14.4798 17.1385 15.0629C16.467 15.1779 16.0371 15.4189 15.765 15.6567C15.6685 14.6819 15.2901 14.1028 15.2716 14.0753C15.1987 13.9659 15.0509 13.9363 14.9418 14.0093C14.8325 14.0822 14.803 14.2297 14.8758 14.3391C14.8801 14.3456 15.3116 15.0055 15.3116 16.1101C15.3116 17.1959 14.4458 18.0131 13.8844 18.0131C13.6173 18.0131 13.5003 17.6957 13.449 17.4272C13.9987 17.0419 14.4838 16.596 14.5909 16.1677C14.7359 15.5881 14.5535 15.1609 14.4327 14.8782C14.4271 14.8653 14.4211 14.8513 14.4151 14.8369C14.4202 14.8415 14.4251 14.8464 14.4299 14.851C14.5226 14.9439 14.6733 14.9439 14.7662 14.851C14.8591 14.7581 14.8591 14.6076 14.7662 14.5147C14.6271 14.3755 14.3571 14.1569 14.1116 14.2597C14.0079 14.3027 13.8844 14.4109 13.8844 14.6829C13.8844 14.8058 13.9357 14.9258 13.9952 15.0652C14.1023 15.3159 14.2355 15.6279 14.1293 16.0524C14.0665 16.3037 13.7579 16.6086 13.3507 16.9112C13.307 16.859 13.244 16.824 13.1707 16.824H13.1703C13.039 16.8242 12.9327 16.9303 12.9327 17.0616C12.9327 17.1044 12.9346 17.1501 12.9374 17.1971C12.4283 17.5268 11.8522 17.8319 11.4069 18.0344C11.2875 18.0888 11.2346 18.2298 11.289 18.3494C11.3288 18.437 11.4152 18.4888 11.5056 18.4888C11.5385 18.4888 11.572 18.4821 11.6039 18.4674C11.7376 18.4067 12.3725 18.1109 13.0246 17.7067C13.1447 18.1145 13.3992 18.4889 13.8843 18.4889C14.4549 18.4889 15.1023 18.0223 15.4759 17.3256C15.521 17.4053 15.5728 17.4816 15.6347 17.5527C16.2334 18.2432 17.4029 18.251 17.4524 18.251C17.5805 18.251 17.6855 18.1497 17.6902 18.0217C17.6947 17.8937 17.5971 17.785 17.4695 17.776C17.4675 17.7758 17.278 17.7549 17.1726 17.6318C17.1089 17.5574 17.0835 17.4552 17.0947 17.3194C17.119 17.0262 18.0647 16.8071 18.898 16.7941C18.9974 16.7925 19.0853 16.7295 19.1186 16.636L19.3564 15.967C19.3823 15.8943 19.3712 15.8132 19.3266 15.7503C19.2825 15.687 19.2098 15.6494 19.1326 15.6494ZM18.0884 14.5135C18.093 14.5126 18.099 14.5112 18.1066 14.5112C18.1293 14.5112 18.1652 14.5223 18.2131 14.5869C18.2221 14.599 18.2511 14.6403 18.2438 14.6585C18.2165 14.7258 18.0522 14.8371 17.7101 14.9379C17.8605 14.6442 18.0077 14.5297 18.0884 14.5135ZM16.6519 17.6404C16.4102 17.5619 16.1639 17.4374 15.9934 17.2402C15.8061 17.0235 15.7369 16.7494 15.7823 16.4025C15.7891 16.3843 15.8047 16.3484 15.8319 16.3017C16.1669 16.271 17.0618 16.403 17.1238 16.6593C16.8477 16.8002 16.6444 16.9983 16.6209 17.2799C16.6091 17.4212 16.6235 17.5408 16.6519 17.6404Z" fill="#F5F5F5"/>
<path d="M21.7229 12.229L21.485 11.5153C21.4467 11.4006 21.3277 11.332 21.2096 11.358C21.091 11.3834 21.0105 11.4936 21.0226 11.6142C21.1868 13.2557 21.4973 16.4567 21.4973 16.8238C21.4973 17.1535 20.9109 17.8025 19.9636 18.2762C19.8461 18.335 19.7984 18.4778 19.8572 18.5954C19.8989 18.6788 19.9829 18.7268 20.0703 18.7268C20.1059 18.7268 20.1423 18.7187 20.1764 18.7017C21.0418 18.269 21.973 17.4968 21.973 16.8238C21.973 16.4724 21.7299 13.9436 21.5907 12.5231C21.7034 12.4749 21.7624 12.3475 21.7229 12.229Z" fill="#F5F5F5"/>
<path d="M23.707 14.3755C23.7528 14.4213 23.8137 14.4452 23.8753 14.4452C23.9155 14.4452 23.9561 14.435 23.9928 14.414C24.0859 14.3611 24.1321 14.2524 24.1058 14.1485C24.0632 13.9813 24.049 13.7722 24.0715 13.6868C24.1907 13.6904 24.3013 13.6057 24.3188 13.4828C24.3373 13.3527 24.247 13.2321 24.117 13.2136C23.9597 13.1922 23.8216 13.2385 23.7252 13.3457C23.6627 13.4154 23.6255 13.5049 23.6053 13.601L23.3298 13.3255C23.2369 13.2326 23.0864 13.2326 22.9935 13.3255C22.9006 13.4184 22.9006 13.569 22.9935 13.6619L23.707 14.3755Z" fill="#F5F5F5"/>
<path d="M24.2423 14.6235L23.3503 15.2628C23.2436 15.3393 23.2189 15.4879 23.2955 15.5948C23.342 15.6596 23.415 15.694 23.4892 15.694C23.5372 15.694 23.5855 15.6795 23.6275 15.6494L24.5195 15.0101C24.6263 14.9337 24.6509 14.785 24.5744 14.6782C24.4977 14.5712 24.3488 14.5464 24.2423 14.6235Z" fill="#F5F5F5"/>
<path d="M24.1634 15.5182C24.0885 15.6145 24.0993 15.7502 24.1842 15.8336C24.1944 15.8509 24.2408 15.9419 24.2324 16.1761C24.2278 16.3075 24.3304 16.4176 24.4617 16.4223C24.4646 16.4225 24.4675 16.4225 24.4703 16.4225C24.5979 16.4225 24.7033 16.3214 24.7079 16.1932C24.7252 15.7077 24.5664 15.5303 24.4972 15.4765C24.3937 15.3955 24.244 15.4146 24.1634 15.5182Z" fill="#F5F5F5"/>
<path d="M26.2398 17.2699C26.3712 17.2699 26.4777 17.1636 26.4777 17.032C26.4777 16.6811 26.4596 16.2893 26.4302 15.8816C26.6661 16.2681 26.862 16.6245 26.9876 16.9175C27.0262 17.0079 27.114 17.0618 27.2063 17.0618C27.2376 17.0618 27.2694 17.0558 27.2999 17.0425C27.4206 16.9907 27.4765 16.8508 27.4247 16.7303C27.2069 16.2221 26.7999 15.5489 26.3364 14.8538C26.2431 13.9808 26.1212 13.1252 26.0264 12.5116C26.0768 12.5167 26.1291 12.5044 26.175 12.4746C26.2501 12.4265 26.2853 12.3429 26.2803 12.2597C26.2863 12.2831 26.2929 12.3065 26.3066 12.328C26.3082 12.3304 26.4611 12.5828 26.3933 12.9105C26.3666 13.0389 26.4494 13.1648 26.578 13.1915C26.5943 13.1947 26.6106 13.1964 26.6264 13.1964C26.7368 13.1964 26.8358 13.119 26.8592 13.0066C26.9666 12.487 26.7185 12.0893 26.708 12.0726C26.6374 11.962 26.4903 11.9295 26.3794 11.9996C26.304 12.0477 26.2684 12.1314 26.2732 12.2148C26.2671 12.1913 26.2603 12.1676 26.2464 12.1461L25.8449 11.5217C25.7836 11.4264 25.6636 11.3878 25.5583 11.4288C25.4527 11.4701 25.3909 11.58 25.4105 11.6915C25.4139 11.7102 25.5956 12.7541 25.7568 14.0122C25.5744 13.7547 25.3921 13.5029 25.2152 13.2626C25.1865 12.9027 25.1577 12.57 25.1327 12.2948C25.1458 12.2909 25.1588 12.2858 25.1714 12.2795C25.2889 12.2207 25.3366 12.0778 25.2778 11.9603L25.0399 11.4846C24.9885 11.382 24.8714 11.3308 24.761 11.3624C24.6509 11.3945 24.579 11.5003 24.5904 11.6146C24.6188 11.8985 24.6483 12.2128 24.6773 12.5429C24.5268 12.3446 24.3877 12.163 24.2685 12.0093C24.2918 11.9893 24.3116 11.9645 24.3262 11.9352C24.385 11.8177 24.3374 11.6748 24.2198 11.616L23.7441 11.3781C23.6443 11.3284 23.5232 11.3545 23.4527 11.4414C23.3826 11.5282 23.3822 11.6522 23.452 11.7396C23.4649 11.7556 24.0506 12.4898 24.7512 13.4374C24.8727 15.009 24.9537 16.644 24.8394 16.9867C24.8185 17.0494 24.782 17.1233 24.7477 17.1259C24.604 17.1459 24.2608 16.8244 24.0885 16.4799C23.9891 16.2815 23.8463 16.2609 23.7698 16.2643C23.5142 16.2801 23.4144 16.5614 23.2331 17.072C23.1032 17.4379 22.9417 17.8928 22.7604 18.0788C22.6622 17.9588 22.5352 17.5561 22.4647 17.1423C22.4977 17.2338 22.5834 17.2999 22.6863 17.2999C22.8177 17.2999 22.9242 17.1936 22.9242 17.0621C22.9242 16.7073 22.6762 14.0056 22.5376 12.5251C22.6533 12.4786 22.7142 12.3492 22.6742 12.2293L22.4363 11.5157C22.3981 11.401 22.2807 11.3333 22.1613 11.3582C22.043 11.3832 21.9623 11.4931 21.9738 11.6135C22.1354 13.3104 22.4385 16.5881 22.448 17.0405C22.4474 17.0364 22.4465 17.0325 22.446 17.0284C22.4275 16.8983 22.3061 16.8091 22.1769 16.8265C22.0468 16.8453 21.9565 16.9657 21.9751 17.0957C22.0445 17.5819 22.2221 18.4179 22.6308 18.5541C22.6631 18.565 22.7066 18.5747 22.7576 18.5747C22.8514 18.5747 22.9704 18.5415 23.0923 18.4195C23.3514 18.1605 23.5268 17.6666 23.6814 17.2311C23.7164 17.1326 23.7578 17.016 23.7968 16.9161C24.015 17.2348 24.3957 17.6316 24.7815 17.6005C24.9171 17.5908 25.1638 17.5179 25.2907 17.1373C25.4172 16.7579 25.3672 15.4345 25.2819 14.1675C25.4824 14.4484 25.6829 14.7361 25.8743 15.0201C25.9486 15.7325 26.0016 16.4461 26.0016 17.0323C26.002 17.1635 26.1085 17.2699 26.2398 17.2699Z" fill="#F5F5F5"/>
<path d="M28.0444 16.019C27.8759 14.7636 27.6411 13.3094 27.4924 12.4169C27.5596 12.4335 27.6327 12.4199 27.6917 12.3746C27.7962 12.295 27.8163 12.1456 27.7365 12.0413L27.3053 11.4763C27.2388 11.3894 27.1214 11.3588 27.021 11.4027C26.9205 11.4466 26.8631 11.5535 26.8818 11.6615C26.8862 11.6858 27.3103 14.1278 27.5727 16.0822C27.6729 16.829 27.5266 17.4964 27.1811 17.8672C26.959 18.1053 26.6647 18.2131 26.3085 18.1923C26.1777 18.1854 26.0643 18.2838 26.0561 18.4148C26.0479 18.5459 26.1474 18.6588 26.2786 18.6671C26.3188 18.6697 26.3584 18.6708 26.3976 18.6708C26.8462 18.6708 27.2355 18.5064 27.529 18.1913C27.9774 17.7106 28.1652 16.9187 28.0444 16.019Z" fill="#F5F5F5"/>
<path d="M25.4277 17.587C25.3403 17.682 25.347 17.8316 25.4395 17.9214C25.4524 17.9339 25.4679 17.9585 25.4679 17.9706C25.4681 17.9773 25.4584 17.9974 25.432 18.0238C25.3391 18.1167 25.3391 18.2672 25.432 18.3601C25.4785 18.4066 25.5393 18.4299 25.6002 18.4299C25.661 18.4299 25.722 18.4066 25.7684 18.3601C25.9193 18.2093 25.947 18.0563 25.9436 17.9543C25.9363 17.7348 25.7868 17.5931 25.757 17.5668C25.6597 17.4823 25.5151 17.4925 25.4277 17.587Z" fill="#F5F5F5"/>
<path d="M24.5891 22.8034H24.3512H22.924V22.5655C22.924 22.4341 22.8175 22.3276 22.6861 22.3276C22.5547 22.3276 22.4482 22.434 22.4482 22.5655V22.8034H9.84082C10.3165 23.2791 11.268 23.5171 11.9817 23.5171C12.4935 23.5171 18.8777 23.5171 22.4482 23.5171V23.9928C22.4482 24.1243 22.5547 24.2307 22.6861 24.2307H24.5891C24.9826 24.2307 25.3027 23.9106 25.3027 23.517C25.3027 23.1235 24.9826 22.8034 24.5891 22.8034ZM24.5891 23.7549H22.9239V23.517C24.0703 23.517 24.8269 23.517 24.8269 23.517L24.7842 23.389C24.8089 23.4264 24.8269 23.4688 24.8269 23.517C24.8269 23.6483 24.7202 23.7549 24.5891 23.7549Z" fill="#F5F5F5"/>
</g>
<defs>
<clipPath id="clip0_553_6743">
<rect width="35" height="35" fill="white"/>
</clipPath>
</defs>
</svg>
