<svg width="119" height="19" viewBox="0 0 119 19" fill="none" xmlns="http://www.w3.org/2000/svg">
<path d="M118.753 3.82772C117.589 4.16458 116.367 4.93736 115.275 4.77223C106.408 3.45784 98.3729 6.74713 90.2014 9.26364C84.0647 11.1527 78.2334 11.9849 71.9732 8.73522C69.4118 7.40762 65.3618 8.2993 62.2025 9.06547C57.1253 10.294 52.1717 12.1368 47.2506 13.9532C42.6025 15.6639 38.5655 14.4155 35.6467 10.9017C32.4418 7.04435 28.6973 6.91885 24.6668 8.05491C17.5354 10.0562 11.2231 13.8145 5.3594 18.3521C3.53267 19.7656 0.28226 18.7484 0.009226 16.4433C-0.0947869 15.5516 0.698317 14.0324 1.49792 13.6229C6.57505 11.0139 11.7107 8.48424 16.9503 6.21873C21.6309 4.1976 26.5195 2.16986 31.6747 3.75506C34.2165 4.54105 36.6868 6.19892 38.689 8.02189C41.2308 10.3402 43.7987 10.1091 46.633 9.30986C53.0428 7.49348 59.4006 5.45916 65.8884 3.97303C68.1572 3.45124 71.0046 3.66921 73.0978 4.64014C77.7784 6.80658 82.2964 6.7207 87.016 5.26761C92.6392 3.53049 98.2234 1.59523 103.938 0.247809C106.434 -0.340035 109.223 0.280846 111.875 0.445971C113.221 0.531836 114.605 0.644109 115.873 1.05362C116.985 1.41029 117.96 2.2029 119 2.80396C118.922 3.14081 118.844 3.48426 118.759 3.82111L118.753 3.82772Z" fill="#F4C254"/>
</svg>
