<svg width="24" height="24" viewBox="0 0 24 24" fill="none" xmlns="http://www.w3.org/2000/svg">
<g clip-path="url(#clip0_1496_2328)">
<path d="M12 7.875C12.4142 7.875 12.75 8.21078 12.75 8.625V11.25H15.375C15.7892 11.25 16.125 11.5858 16.125 12C16.125 12.4142 15.7892 12.75 15.375 12.75H12.75V15.375C12.75 15.7892 12.4142 16.125 12 16.125C11.5858 16.125 11.25 15.7892 11.25 15.375V12.75H8.625C8.21078 12.75 7.875 12.4142 7.875 12C7.875 11.5858 8.21078 11.25 8.625 11.25H11.25V8.625C11.25 8.21078 11.5858 7.875 12 7.875Z" fill="url(#paint0_linear_1496_2328)"/>
<path fill-rule="evenodd" clip-rule="evenodd" d="M12 0.75C5.78681 0.75 0.75 5.78681 0.75 12C0.75 18.2132 5.78681 23.25 12 23.25C18.2132 23.25 23.25 18.2132 23.25 12C23.25 10.0238 22.7398 8.16439 21.8433 6.54885C21.7784 6.43189 21.6834 6.33442 21.5682 6.26655L12.3807 0.853804C12.2654 0.785842 12.1339 0.75 12 0.75ZM2.25 12C2.25 6.84135 6.25627 2.61843 11.3272 2.27284C11.5797 4.10239 12.3004 5.78288 13.7956 6.86768C15.3864 8.02181 17.6833 8.37739 20.785 7.76516C21.4032 9.04519 21.75 10.4812 21.75 12C21.75 17.3848 17.3848 21.75 12 21.75C6.61522 21.75 2.25 17.3848 2.25 12Z" fill="url(#paint1_linear_1496_2328)"/>
</g>
<defs>
<linearGradient id="paint0_linear_1496_2328" x1="29.4915" y1="27.7961" x2="9.53437" y2="4.44862" gradientUnits="userSpaceOnUse">
<stop offset="0.00265844" stop-color="#6E5EA8"/>
<stop offset="1" stop-color="#6E00FF" stop-opacity="0.62"/>
</linearGradient>
<linearGradient id="paint1_linear_1496_2328" x1="29.4915" y1="27.7961" x2="9.53438" y2="4.44862" gradientUnits="userSpaceOnUse">
<stop offset="0.00265844" stop-color="#F600EC" stop-opacity="0.47"/>
<stop offset="0.00275844" stop-color="#2B11CA" stop-opacity="0.620926"/>
<stop offset="1" stop-color="#403C73"/>
</linearGradient>
<clipPath id="clip0_1496_2328">
<rect width="24" height="24" fill="white"/>
</clipPath>
</defs>
</svg>
