<svg width="24" height="24" viewBox="0 0 24 24" fill="none" xmlns="http://www.w3.org/2000/svg">
<path d="M21.0912 10.9011C20.886 10.8293 20.6686 10.7988 20.4515 10.8113C20.2344 10.8238 20.022 10.879 19.8263 10.9738C19.6306 11.0686 19.4556 11.2011 19.3113 11.3637C19.1669 11.5263 19.0561 11.7158 18.9852 11.9214C18.8952 12.1797 18.8033 12.4104 18.7088 12.6318C18.3005 12.5842 17.8867 12.6223 17.494 12.7439C17.1012 12.8654 16.7382 13.0676 16.4282 13.3376C16.0876 12.4673 15.152 12.2215 14.2619 12.2997C11.0255 12.2361 6.74004 12.9123 4.96106 16.1787C4.76136 16.0096 4.52035 15.8966 4.26267 15.8513C4.005 15.8059 3.73989 15.8297 3.49445 15.9204L2.78968 16.1767C2.41702 16.3143 2.11376 16.5934 1.94587 16.9534C1.77798 17.3134 1.75906 17.7251 1.89322 18.099L3.4322 22.3276C3.56971 22.7004 3.8489 23.0037 4.20898 23.1716C4.56907 23.3395 4.9809 23.3584 5.35482 23.2241L6.05957 22.9678C6.34707 22.8632 6.59554 22.6729 6.7714 22.4226C6.94725 22.1723 7.04201 21.874 7.04287 21.5681C13.8689 22.5031 20.5005 19.1939 22.124 12.9455C22.2518 12.5374 22.2154 12.0955 22.0225 11.7137C21.8297 11.332 21.4956 11.0405 21.0912 10.9011ZM16.5061 14.3251C16.7178 14.0287 16.9968 13.7868 17.3201 13.6192C17.6435 13.4515 18.0019 13.3629 18.3661 13.3606C17.7176 14.6695 16.7084 15.7657 15.4574 16.5199C15.5776 16.0807 15.737 15.6531 15.9335 15.2423C16.2229 15.0103 16.4248 14.6869 16.5061 14.3251ZM6.2262 21.8753C6.08629 22.2684 5.42858 22.376 5.09827 22.5195C4.91131 22.5866 4.7054 22.5772 4.52537 22.4932C4.34533 22.4093 4.20574 22.2576 4.13697 22.0712L2.59797 17.8426C2.34173 17.0182 3.16197 16.8303 3.75103 16.625C3.938 16.5582 4.14376 16.5678 4.32371 16.6517C4.50365 16.7356 4.64327 16.8871 4.71229 17.0732L6.25129 21.3019C6.28526 21.3944 6.30053 21.4927 6.29622 21.5911C6.29191 21.6896 6.26812 21.7862 6.2262 21.8753ZM21.4055 12.7314C19.8718 18.7096 13.3536 21.7982 6.86159 20.7859L5.44878 16.904C7.02284 13.4092 11.5423 12.9637 14.8539 13.0533C15.9988 13.0499 16.1446 14.6942 15.0249 14.8478C13.9917 14.9565 13.161 15.0755 12.6195 15.1924C11.5645 15.43 10.1895 16.4162 9.22163 17.2025C9.0882 17.3139 8.99247 17.4639 8.94754 17.6319C8.9026 17.7998 8.91067 17.9775 8.97062 18.1407C9.03058 18.3039 9.13949 18.4446 9.28247 18.5435C9.42544 18.6424 9.59549 18.6948 9.76934 18.6933C14.7145 18.6782 18.2553 16.4628 19.6952 12.1623C19.7752 11.9413 19.9384 11.7603 20.1499 11.6578C20.3614 11.5554 20.6046 11.5396 20.8276 11.6138C21.0506 11.688 21.2358 11.8463 21.3437 12.0551C21.4517 12.2639 21.4738 12.5066 21.4055 12.7314ZM14.9634 15.6089C14.7977 16.0565 14.6682 16.5166 14.576 16.9849C13.0546 17.645 11.4095 17.9718 9.75135 17.9433C9.73279 17.9435 9.71463 17.9379 9.69941 17.9273C9.68419 17.9167 9.67265 17.9016 9.66641 17.8841C9.66017 17.8666 9.65952 17.8476 9.66457 17.8297C9.66963 17.8119 9.68012 17.796 9.69459 17.7844C12.005 15.9648 12.4566 15.8739 14.9634 15.6089Z" fill="white"/>
<path d="M13.4219 11.1838C14.8138 11.1823 16.1482 10.6286 17.1325 9.64441C18.1167 8.66018 18.6703 7.32573 18.6719 5.93382C18.3836 -1.03103 8.45914 -1.02902 8.17188 5.93384C8.17344 7.32575 8.72707 8.66019 9.7113 9.64441C10.6955 10.6286 12.03 11.1823 13.4219 11.1838ZM13.4219 1.43382C14.6149 1.43515 15.7588 1.90969 16.6024 2.75331C17.446 3.59694 17.9205 4.74075 17.9219 5.93382C17.6748 11.9037 9.16808 11.9019 8.92188 5.93377C8.92322 4.74072 9.39776 3.59691 10.2414 2.75329C11.085 1.90968 12.2288 1.43515 13.4219 1.43382Z" fill="white"/>
<path d="M12.969 7.69748C13.0038 7.73231 13.0451 7.75994 13.0906 7.77879C13.1361 7.79764 13.1849 7.80734 13.2341 7.80734C13.2834 7.80734 13.3321 7.79764 13.3776 7.77879C13.4231 7.75994 13.4644 7.73231 13.4993 7.69748L16.3118 4.88498C16.3798 4.8142 16.4174 4.71955 16.4165 4.62136C16.4155 4.52317 16.3761 4.42927 16.3066 4.35984C16.2372 4.2904 16.1433 4.25097 16.0451 4.25002C15.9469 4.24906 15.8523 4.28666 15.7815 4.35473L13.2341 6.90207L11.8117 5.47969C11.741 5.41163 11.6463 5.37403 11.5481 5.37499C11.4499 5.37595 11.356 5.41538 11.2866 5.48482C11.2172 5.55426 11.1777 5.64816 11.1768 5.74635C11.1758 5.84454 11.2134 5.93919 11.2815 6.00997L12.969 7.69748Z" fill="white"/>
<path d="M19.4219 5.93359C19.4219 5.98284 19.4316 6.03161 19.4504 6.07712C19.4692 6.12262 19.4969 6.16396 19.5317 6.19879C19.5665 6.23361 19.6079 6.26123 19.6534 6.28007C19.6989 6.29892 19.7476 6.30861 19.7969 6.30859H20.9219C21.0213 6.30859 21.1167 6.26908 21.187 6.19876C21.2574 6.12843 21.2969 6.03305 21.2969 5.93359C21.2969 5.83414 21.2574 5.73875 21.187 5.66843C21.1167 5.5981 21.0213 5.55859 20.9219 5.55859H19.7969C19.7476 5.55858 19.6989 5.56827 19.6534 5.58711C19.6079 5.60595 19.5665 5.63358 19.5317 5.6684C19.4969 5.70322 19.4692 5.74457 19.4504 5.79007C19.4316 5.83558 19.4219 5.88434 19.4219 5.93359Z" fill="white"/>
<path d="M19.0597 3.8802C19.0939 3.97358 19.1636 4.04961 19.2537 4.09162C19.3438 4.13363 19.4469 4.1382 19.5404 4.10432L20.5976 3.71944C20.6911 3.68539 20.7672 3.61563 20.8092 3.52548C20.8512 3.43534 20.8556 3.33221 20.8216 3.23878C20.7875 3.14534 20.7178 3.06926 20.6276 3.02726C20.5375 2.98527 20.4343 2.9808 20.3409 3.01484L19.2837 3.39973C19.2374 3.41658 19.1949 3.44236 19.1587 3.47563C19.1224 3.50889 19.093 3.54897 19.0722 3.59359C19.0514 3.6382 19.0396 3.68648 19.0375 3.73566C19.0353 3.78483 19.0429 3.83395 19.0597 3.8802Z" fill="white"/>
<path d="M18.3056 2.20863C18.3937 2.20869 18.479 2.17755 18.5463 2.12074L19.408 1.39784C19.4461 1.3663 19.4775 1.32755 19.5006 1.28382C19.5236 1.24009 19.5377 1.19223 19.5422 1.14301C19.5467 1.09379 19.5413 1.04417 19.5265 0.997015C19.5117 0.949857 19.4878 0.906091 19.456 0.868234C19.4242 0.830377 19.3853 0.799178 19.3414 0.776432C19.2975 0.753686 19.2496 0.739841 19.2003 0.735696C19.1511 0.73155 19.1015 0.737186 19.0544 0.752277C19.0074 0.767369 18.9638 0.791619 18.9261 0.823632L18.0644 1.54653C18.0068 1.5966 17.9657 1.66298 17.9466 1.73688C17.9275 1.81079 17.9312 1.88876 17.9574 1.96049C17.9835 2.03222 18.0307 2.09434 18.0929 2.13864C18.1551 2.18294 18.2292 2.20735 18.3056 2.20863Z" fill="white"/>
</svg>
