<svg width="24" height="24" viewBox="0 0 24 24" fill="none" xmlns="http://www.w3.org/2000/svg">
<g clip-path="url(#clip0_1817_12182)">
<path d="M18.0176 22.248C17.8235 22.2239 17.6469 22.3618 17.6228 22.5559C17.5709 22.9762 17.2119 23.2932 16.7873 23.2932H2.90654C2.44229 23.2932 2.06443 22.9158 2.06443 22.4511V8.11077L3.99094 14.4622C4.03721 14.6152 4.17797 14.7139 4.32957 14.7139C4.36355 14.7139 4.39852 14.7087 4.4325 14.6983C4.62 14.6417 4.7258 14.4438 4.66866 14.2567L2.90133 8.42957C3.14222 9.02891 3.72975 9.45351 4.41502 9.45351C5.31427 9.45351 6.04632 8.72146 6.04632 7.82221C6.04632 7.19291 6.04632 4.23993 6.04632 3.75337C8.40661 3.03702 11.2412 2.17766 13.8676 1.38102C14.0546 1.32388 14.1604 1.12644 14.1037 0.938944C14.0466 0.751913 13.8487 0.646116 13.6616 0.702788L7.1085 2.69066C6.73018 1.94915 5.95894 1.44051 5.07057 1.44051C3.80954 1.44051 2.78372 2.46632 2.78372 3.72735V4.00269L2.46727 4.09855C1.80891 4.29791 1.36683 4.89398 1.36683 5.58163L1.35596 6.00102V22.4511C1.35596 23.3064 2.05163 24.0016 2.90649 24.0016H16.7873C17.5689 24.0016 18.2301 23.4174 18.326 22.6428C18.3502 22.4487 18.2118 22.2716 18.0176 22.248ZM3.49224 3.7274C3.49224 2.85698 4.20019 2.14898 5.07066 2.14898C5.63836 2.14898 6.13711 2.45029 6.4148 2.90137L5.80364 3.08652C5.24194 2.4404 4.17488 2.76149 4.06889 3.61265C4.05643 3.71034 4.06079 7.12012 4.06088 7.25076C4.06088 7.44627 4.21955 7.60499 4.41511 7.60499C4.61068 7.60499 4.76935 7.44632 4.76935 7.25076C4.76935 6.9899 4.76935 3.89127 4.76935 3.7364C4.76935 3.5796 4.89685 3.45205 5.05369 3.45205C5.21054 3.45205 5.33804 3.57955 5.33804 3.7364C5.33804 4.22188 5.33804 7.28207 5.33804 7.82221C5.33804 8.33085 4.92385 8.74508 4.41516 8.74508C3.90647 8.74508 3.49229 8.3309 3.49229 7.82221C3.49224 6.9479 3.49224 4.61216 3.49224 3.7274ZM2.32186 4.9889C2.32233 4.98796 2.3228 4.98749 2.32327 4.98796C2.35557 4.96588 2.51114 4.80416 2.78377 4.76549C2.79525 7.94873 2.75785 7.86468 2.81775 8.15423L2.11172 5.82674C2.0183 5.5154 2.11121 5.20087 2.32186 4.9889Z" fill="#333333"/>
<path d="M17.684 1.10118C17.4281 0.257807 16.5494 -0.177006 15.7504 0.0678222L15.0174 0.289822C14.8304 0.346963 14.7246 0.5444 14.7812 0.7319C14.8379 0.918932 15.0358 1.02473 15.2229 0.968057C15.9175 0.767291 15.9938 0.70926 16.201 0.70926C16.568 0.70926 16.8995 0.954838 17.0063 1.3072L18.0241 4.66335L18.3377 5.69676L21.8978 17.4343C22.0369 17.8891 21.7674 18.354 21.3367 18.4846C7.14761 22.7885 7.99876 22.5502 7.80873 22.5502C7.44128 22.5502 7.1102 22.3046 7.00347 21.9522L5.07981 15.6107C5.02314 15.4237 4.82523 15.3179 4.6382 15.3745C4.4507 15.4317 4.34537 15.6296 4.40205 15.8166L6.32523 22.1581C6.52501 22.8165 7.12103 23.2586 7.80873 23.2586C7.9608 23.2586 8.11244 23.2359 8.2593 23.1915L17.6292 20.3492V21.1814C17.6292 21.3769 17.7874 21.5356 17.9834 21.5356C18.1789 21.5356 18.3377 21.377 18.3377 21.1814V20.1343L21.5422 19.1623C22.2005 18.9625 22.6431 18.3665 22.6431 17.6793C22.6431 17.2482 22.8178 18.1058 17.684 1.10118Z" fill="#333333"/>
<path d="M12.0952 8.61549C11.7957 7.62825 11.0037 7.5811 10.5306 7.55302C10.1033 7.52171 9.80634 7.54135 9.70964 7.22241C9.61678 6.91627 9.8324 6.75797 10.1392 6.66488C10.5879 6.52875 10.744 6.70613 10.9596 6.64069C11.2132 6.56377 11.2751 6.26274 11.2208 6.0841C11.1055 5.70375 10.5255 5.74294 10.2148 5.79357L10.1716 5.65116C10.1006 5.41683 9.85214 5.28403 9.61781 5.3551C9.38348 5.42616 9.25068 5.6746 9.32179 5.90897L9.38114 6.10453C8.88651 6.4298 8.71162 6.92372 8.88853 7.50699C9.14339 8.34718 9.81304 8.39072 10.3511 8.42569C10.8878 8.46057 11.1512 8.49525 11.274 8.90011C11.3797 9.2483 11.2477 9.46543 10.859 9.58332C10.2325 9.7733 10.1384 9.31111 9.79682 9.41475C9.57192 9.48296 9.46875 9.77086 9.53006 9.97303C9.63065 10.3047 10.1432 10.5144 10.7046 10.4678L10.7474 10.609C10.8185 10.8434 11.0669 10.9762 11.3013 10.9051C11.5356 10.834 11.6684 10.5855 11.5973 10.3512L11.5516 10.2006C12.104 9.86897 12.3021 9.2978 12.0952 8.61549Z" fill="#333333"/>
<path d="M17.5381 10.4741C17.4813 10.2869 17.2834 10.1813 17.0963 10.238L6.99856 13.3009C6.81139 13.3577 6.70564 13.5556 6.7624 13.7427C6.81894 13.9291 7.01604 14.0359 7.2042 13.9789L17.3019 10.9159C17.4891 10.8591 17.5949 10.6613 17.5381 10.4741Z" fill="#333333"/>
<path d="M18.1276 12.4155C18.0704 12.2285 17.8725 12.1227 17.6855 12.1794L17.6293 12.1964L7.58787 15.2422C7.40084 15.2994 7.29504 15.4968 7.35171 15.6843C7.40871 15.8721 7.60756 15.9766 7.79379 15.9204C7.79932 15.9188 17.8711 12.8638 17.8915 12.8576C18.0785 12.8004 18.1843 12.6025 18.1276 12.4155Z" fill="#333333"/>
<path d="M18.7172 14.3606C18.6614 14.1772 18.4677 14.0676 18.2756 14.1244L17.6295 14.3204L8.17745 17.1877C7.78933 17.3053 7.8752 17.881 8.28039 17.881C8.31437 17.881 8.34887 17.8758 8.38333 17.8654C10.6311 17.1837 16.0946 15.5264 18.481 14.8026C18.6681 14.746 18.7739 14.5481 18.7172 14.3606Z" fill="#333333"/>
<path d="M19.3064 16.3061C19.2497 16.1191 19.0518 16.0133 18.8648 16.07L18.3377 16.2301C9.40979 18.9379 8.79788 19.1235 8.76802 19.1326C8.76793 19.1326 8.76788 19.1326 8.76779 19.1326L8.76793 19.1326C8.7676 19.1326 8.76732 19.1327 8.76713 19.1328L8.76727 19.1327C8.76718 19.1327 8.76708 19.1328 8.76708 19.1328C8.37816 19.2504 8.46512 19.8262 8.86955 19.8262C8.94933 19.8262 8.35585 19.9996 19.0702 16.7477C19.2577 16.691 19.3635 16.4931 19.3064 16.3061Z" fill="#333333"/>
</g>
<defs>
<clipPath id="clip0_1817_12182">
<rect width="24" height="24" fill="white"/>
</clipPath>
</defs>
</svg>
