<svg width="24" height="24" viewBox="0 0 24 24" fill="none" xmlns="http://www.w3.org/2000/svg">
<g clip-path="url(#clip0_1817_12180)">
<path d="M21.2787 10.8678C21.2787 11.0749 21.1108 11.2428 20.9037 11.2428H12.0352C11.8281 11.2428 11.6602 11.0749 11.6602 10.8678C11.6602 10.6607 11.8281 10.4928 12.0352 10.4928H20.9037C21.1108 10.4928 21.2787 10.6606 21.2787 10.8678ZM12.0352 13.5073H17.5252C17.7323 13.5073 17.9002 13.3394 17.9002 13.1323C17.9002 12.9252 17.7323 12.7573 17.5252 12.7573H12.0352C11.8281 12.7573 11.6602 12.9252 11.6602 13.1323C11.6602 13.3394 11.8281 13.5073 12.0352 13.5073ZM9.38092 5.55295C9.48499 5.88895 9.42733 6.22997 9.2186 6.51314C9.00981 6.79631 8.70114 6.95227 8.34939 6.95227H3.80331C3.45156 6.95227 3.14289 6.79631 2.93411 6.51314C2.72533 6.22992 2.66772 5.88895 2.77178 5.55291C3.08791 4.53206 3.83538 3.74662 4.77953 3.36792C4.38836 3.01373 4.14217 2.50219 4.14217 1.9342C4.14213 0.867656 5.00983 0 6.07633 0C7.14283 0 8.01053 0.867656 8.01053 1.9342C8.01053 2.50223 7.76435 3.01378 7.37313 3.36797C8.31733 3.74667 9.0648 4.53211 9.38092 5.55295ZM4.89213 1.9342C4.89213 2.58717 5.42336 3.11841 6.07633 3.11841C6.7293 3.11841 7.26053 2.58717 7.26053 1.9342C7.26053 1.28123 6.7293 0.75 6.07633 0.75C5.42336 0.75 4.89213 1.28123 4.89213 1.9342ZM8.66449 5.77481C8.31138 4.63453 7.27127 3.86841 6.07633 3.86841C4.88139 3.86841 3.84128 4.63453 3.48822 5.77477C3.45503 5.88188 3.47125 5.97783 3.53781 6.06811C3.60433 6.15839 3.69119 6.20227 3.80331 6.20227H8.34935C8.46147 6.20227 8.54833 6.15839 8.61485 6.06811C8.68141 5.97783 8.69763 5.88188 8.66449 5.77481ZM9.38092 14.0768C9.48499 14.4128 9.42733 14.7538 9.2186 15.037C9.00981 15.3202 8.70114 15.4762 8.34939 15.4762H3.80331C3.45156 15.4762 3.14289 15.3202 2.93411 15.037C2.72533 14.7538 2.66772 14.4128 2.77178 14.0768C3.08791 13.056 3.83538 12.2706 4.77953 11.8918C4.38836 11.5376 4.14217 11.0261 4.14217 10.4581C4.14217 9.39159 5.00988 8.52389 6.07638 8.52389C7.14288 8.52389 8.01058 9.39159 8.01058 10.4581C8.01058 11.0261 7.76439 11.5377 7.37317 11.8918C8.31733 12.2706 9.0648 13.056 9.38092 14.0768ZM4.89213 10.4581C4.89213 11.1111 5.42336 11.6423 6.07633 11.6423C6.7293 11.6423 7.26053 11.1111 7.26053 10.4581C7.26053 9.80513 6.7293 9.27389 6.07633 9.27389C5.42336 9.27389 4.89213 9.80513 4.89213 10.4581ZM8.66449 14.2987C8.31138 13.1584 7.27127 12.3923 6.07633 12.3923C4.88139 12.3923 3.84128 13.1584 3.48822 14.2987C3.45503 14.4058 3.47125 14.5017 3.53781 14.592C3.60438 14.6823 3.69119 14.7262 3.80331 14.7262H8.34935C8.46147 14.7262 8.54828 14.6822 8.61485 14.592C8.68141 14.5018 8.69763 14.4058 8.66449 14.2987ZM9.38092 22.6007C9.48499 22.9366 9.42733 23.2777 9.2186 23.5608C9.00986 23.844 8.70114 24 8.34939 24H3.80331C3.45156 24 3.14285 23.844 2.93411 23.5609C2.72533 23.2777 2.66772 22.9366 2.77178 22.6006C3.08791 21.5798 3.83538 20.7944 4.77953 20.4157C4.38836 20.0615 4.14217 19.5499 4.14217 18.9819C4.14217 17.9154 5.00988 17.0477 6.07638 17.0477C7.14288 17.0477 8.01058 17.9154 8.01058 18.9819C8.01058 19.5499 7.76439 20.0615 7.37317 20.4157C8.31733 20.7944 9.0648 21.5798 9.38092 22.6007ZM4.89213 18.9819C4.89213 19.6349 5.42336 20.1661 6.07633 20.1661C6.7293 20.1661 7.26053 19.6349 7.26053 18.9819C7.26053 18.329 6.7293 17.7977 6.07633 17.7977C5.42336 17.7977 4.89213 18.329 4.89213 18.9819ZM8.66449 22.8226C8.31138 21.6823 7.27127 20.9161 6.07633 20.9161C4.88139 20.9161 3.84128 21.6823 3.48822 22.8225C3.45503 22.9297 3.47125 23.0256 3.53781 23.1159C3.60433 23.2062 3.69119 23.25 3.80331 23.25H8.34935C8.46147 23.25 8.54833 23.2061 8.61485 23.1159C8.68141 23.0256 8.69763 22.9297 8.66449 22.8226ZM12.0352 4.98337H17.5252C17.7323 4.98337 17.9002 4.81547 17.9002 4.60837C17.9002 4.40128 17.7323 4.23337 17.5252 4.23337H12.0352C11.8281 4.23337 11.6602 4.40128 11.6602 4.60837C11.6602 4.81547 11.8281 4.98337 12.0352 4.98337ZM12.0352 2.71889H20.9037C21.1108 2.71889 21.2787 2.55098 21.2787 2.34389C21.2787 2.1368 21.1108 1.96889 20.9037 1.96889H12.0352C11.8281 1.96889 11.6602 2.1368 11.6602 2.34389C11.6602 2.55098 11.8281 2.71889 12.0352 2.71889ZM20.9037 19.0166H12.0352C11.8281 19.0166 11.6602 19.1845 11.6602 19.3916C11.6602 19.5987 11.8281 19.7666 12.0352 19.7666H20.9037C21.1108 19.7666 21.2787 19.5987 21.2787 19.3916C21.2787 19.1845 21.1108 19.0166 20.9037 19.0166ZM17.5252 21.2811H12.0352C11.8281 21.2811 11.6602 21.449 11.6602 21.6561C11.6602 21.8632 11.8281 22.0311 12.0352 22.0311H17.5252C17.7323 22.0311 17.9002 21.8632 17.9002 21.6561C17.9002 21.449 17.7324 21.2811 17.5252 21.2811Z" fill="#333333"/>
</g>
<defs>
<clipPath id="clip0_1817_12180">
<rect width="24" height="24" fill="white"/>
</clipPath>
</defs>
</svg>
