<svg width="24" height="24" viewBox="0 0 24 24" fill="none" xmlns="http://www.w3.org/2000/svg">
<mask id="mask0_1817_12228" style="mask-type:luminance" maskUnits="userSpaceOnUse" x="0" y="0" width="24" height="24">
<path d="M0 0H24V24H0V0Z" fill="white"/>
</mask>
<g mask="url(#mask0_1817_12228)">
<path d="M8.38473 3.02675C7.79195 3.79634 7.43945 4.76047 7.43945 5.80705C7.43945 8.32555 9.48114 10.3672 11.9996 10.3672C14.5182 10.3672 16.5598 8.32555 16.5598 5.80705C16.5598 3.2885 14.5182 1.24681 11.9996 1.24681C11.0365 1.24681 10.1432 1.54541 9.40703 2.05508" stroke="#333333" stroke-miterlimit="10" stroke-linecap="round" stroke-linejoin="round"/>
<path d="M15.1525 9.10156C14.6458 7.81667 13.7023 7.02416 12.9578 6.6192C13.3708 6.32136 13.6399 5.83644 13.6399 5.28833C13.6399 4.38256 12.9056 3.64827 11.9998 3.64827C11.094 3.64827 10.3597 4.38256 10.3597 5.28833C10.3597 5.83644 10.6288 6.32136 11.0419 6.6192C10.2973 7.02416 9.35379 7.81672 8.84717 9.10156" stroke="#333333" stroke-miterlimit="10" stroke-linecap="round" stroke-linejoin="round"/>
<path d="M20.4791 13.8494C20.0338 13.7042 19.5583 13.6257 19.0646 13.6257C16.546 13.6257 14.5044 15.6674 14.5044 18.1859C14.5044 20.7044 16.546 22.7461 19.0646 22.7461C21.5831 22.7461 23.6247 20.7044 23.6247 18.1859C23.6247 16.6549 22.8703 15.3001 21.7129 14.4731" stroke="#333333" stroke-miterlimit="10" stroke-linecap="round" stroke-linejoin="round"/>
<path d="M22.2174 21.4805C21.7108 20.1956 20.7673 19.4031 20.0228 18.9982C20.4357 18.7003 20.7048 18.2154 20.7048 17.6673C20.7048 16.7615 19.9705 16.0272 19.0648 16.0272C18.159 16.0272 17.4246 16.7615 17.4246 17.6673C17.4246 18.2154 17.6938 18.7003 18.1068 18.9982C17.3622 19.4031 16.4187 20.1956 15.9121 21.4805" stroke="#333333" stroke-miterlimit="10" stroke-linecap="round" stroke-linejoin="round"/>
<path d="M5.34378 22.7383C7.6662 22.527 9.48556 20.5745 9.48556 18.197C9.48556 15.6785 7.44392 13.6368 4.92542 13.6368C2.40687 13.6368 0.365234 15.6785 0.365234 18.197C0.365234 20.376 1.89341 22.198 3.93645 22.6497" stroke="#333333" stroke-miterlimit="10" stroke-linecap="round" stroke-linejoin="round"/>
<path d="M8.08752 21.4805C7.5809 20.1956 6.6374 19.4031 5.89288 18.9982C6.30585 18.7003 6.57496 18.2154 6.57496 17.6673C6.57496 16.7615 5.84066 16.0272 4.93485 16.0272C4.02904 16.0272 3.29474 16.7615 3.29474 17.6673C3.29474 18.2154 3.5639 18.7003 3.97687 18.9982C3.23235 19.4031 2.2888 20.1956 1.78223 21.4805" stroke="#333333" stroke-miterlimit="10" stroke-linecap="round" stroke-linejoin="round"/>
<path d="M15.2332 15.7148L12 13.6279V10.3702" stroke="#333333" stroke-miterlimit="10" stroke-linecap="round" stroke-linejoin="round"/>
<path d="M8.7666 15.7148L11.9998 13.6279" stroke="#333333" stroke-miterlimit="10" stroke-linecap="round" stroke-linejoin="round"/>
</g>
</svg>
