<svg width="24" height="24" viewBox="0 0 24 24" fill="none" xmlns="http://www.w3.org/2000/svg">
<g clip-path="url(#clip0_1817_12250)">
<path d="M11.8912 12.9788L16.3912 16.3538C16.7227 16.6024 17.1926 16.5352 17.4412 16.2037C17.6899 15.8722 17.6228 15.4024 17.2913 15.1537L13.125 12V5.625C13.125 5.21062 12.7894 4.875 12.375 4.875C11.9606 4.875 11.625 5.21062 11.625 5.625V12.375C11.625 12.624 11.7292 12.8483 11.8912 12.9788Z" fill="#333333"/>
<path d="M12.7501 0.75C7.2605 0.75 2.57263 4.71225 1.65763 10.125L1.37263 9.70125C1.1405 9.35738 0.674004 9.26663 0.33013 9.49875C-0.0137455 9.73088 -0.104495 10.1974 0.12763 10.5413L1.62763 12.7913C1.751 12.9788 1.952 13.1014 2.17513 13.125H2.25013C2.44888 13.1243 2.639 13.0448 2.77888 12.9037L4.65388 11.0287C4.94675 10.7359 4.94675 10.2604 4.65388 9.9675C4.361 9.67463 3.8855 9.67463 3.59263 9.9675L3.12763 10.4362C3.99125 5.121 9.00013 1.51275 14.315 2.37637C19.6299 3.24 23.2389 8.2485 22.3753 13.5637C21.6084 18.2835 17.5318 21.7507 12.7501 21.75C9.73438 21.8048 6.88213 20.382 5.11138 17.94C4.871 17.6025 4.40263 17.5234 4.06513 17.7638C3.72763 18.0041 3.6485 18.4725 3.88888 18.81C5.93938 21.6495 9.24838 23.3074 12.7501 23.25C18.9635 23.25 24.0001 18.2134 24.0001 12C24.0001 5.78662 18.9635 0.75 12.7501 0.75Z" fill="#333333"/>
</g>
<defs>
<clipPath id="clip0_1817_12250">
<rect width="24" height="24" fill="white"/>
</clipPath>
</defs>
</svg>
