<svg width="24" height="24" viewBox="0 0 24 24" fill="none" xmlns="http://www.w3.org/2000/svg">
<g clip-path="url(#clip0_1817_12167)">
<path d="M14.3771 13.8469C15.2901 12.2622 15.5904 10.3977 15.2211 8.60646C14.8518 6.81524 13.8385 5.22159 12.3731 4.12725C12.3677 3.48741 12.1948 2.86015 11.8717 2.30786C11.5486 1.75556 11.0866 1.29746 10.5315 0.979125C9.8389 0.583511 9.05513 0.375289 8.2575 0.375H7.4925C6.69487 0.375289 5.9111 0.583511 5.2185 0.979125C4.66317 1.29762 4.20095 1.75601 3.87785 2.30867C3.55474 2.86132 3.38202 3.48897 3.37687 4.12912C2.29377 4.94073 1.45067 6.0305 0.937084 7.28272C0.423502 8.53494 0.258614 9.90287 0.459927 11.2413C0.66124 12.5797 1.22124 13.8386 2.08046 14.8843C2.93969 15.93 4.06607 16.7235 5.34 17.1806L4.6575 18.375H1.5C1.20163 18.375 0.915483 18.4935 0.704505 18.7045C0.493526 18.9155 0.375 19.2016 0.375 19.5V22.5C0.375 22.7984 0.493526 23.0845 0.704505 23.2955C0.915483 23.5065 1.20163 23.625 1.5 23.625H11.25C11.5484 23.625 11.8345 23.5065 12.0455 23.2955C12.2565 23.0845 12.375 22.7984 12.375 22.5V19.5C12.375 19.2016 12.2565 18.9155 12.0455 18.7045C11.8345 18.4935 11.5484 18.375 11.25 18.375H8.0925L7.66012 17.6182C7.73175 17.6205 7.80337 17.625 7.875 17.625C9.18172 17.6249 10.4654 17.2808 11.5969 16.6271L18.0187 23.049C18.3884 23.413 18.887 23.6162 19.4058 23.6142C19.9246 23.6123 20.4216 23.4053 20.7885 23.0385C21.1554 22.6716 21.3624 22.1747 21.3644 21.6559C21.3665 21.137 21.1634 20.6385 20.7994 20.2687L14.3771 13.8469ZM5.5905 1.63013C6.16987 1.29943 6.82539 1.12534 7.4925 1.125H8.2575C8.92461 1.12534 9.58013 1.29943 10.1595 1.63013C10.8264 2.00881 11.3157 2.63662 11.5202 3.37575C11.7246 4.11489 11.6275 4.90494 11.25 5.5725V5.18138C11.2507 4.66301 11.0972 4.15615 10.809 3.72525L10.437 3.16687C10.4087 3.12445 10.3721 3.08825 10.3293 3.06048C10.2865 3.0327 10.2385 3.01394 10.1883 3.00534C10.138 2.99674 10.0865 2.99849 10.037 3.01046C9.98739 3.02244 9.94079 3.0444 9.9 3.075L9.40012 3.45C8.81527 3.8869 8.10515 4.1236 7.37512 4.125H6.375C5.94196 4.12579 5.5225 4.27622 5.18764 4.5508C4.85278 4.82538 4.62311 5.20725 4.5375 5.63175C4.33902 5.30114 4.20871 4.93415 4.15426 4.55241C4.09981 4.17066 4.12231 3.78188 4.22044 3.40896C4.31857 3.03604 4.49035 2.68654 4.72564 2.38104C4.96094 2.07554 5.255 1.82022 5.5905 1.63013ZM6.375 9.76875V10.9312L5.77238 11.0317C5.02779 11.158 4.34387 11.5213 3.82237 12.0675C3.43495 11.2677 3.29464 10.3707 3.41934 9.49083C3.54404 8.61097 3.9281 7.78823 4.5225 7.12762C4.58648 7.68744 4.78949 8.22235 5.11305 8.68365C5.43661 9.14495 5.87043 9.51797 6.375 9.76875ZM7.125 10.038C7.61827 10.154 8.13173 10.154 8.625 10.038V11.0359C8.39281 11.1546 8.13577 11.2165 7.875 11.2165C7.61423 11.2165 7.35719 11.1546 7.125 11.0359V10.038ZM7.875 9.375C7.17905 9.37421 6.51183 9.09739 6.01972 8.60528C5.52761 8.11317 5.25079 7.44595 5.25 6.75V6C5.25 5.70163 5.36853 5.41548 5.5795 5.2045C5.79048 4.99353 6.07663 4.875 6.375 4.875H7.37512C8.26733 4.87301 9.13517 4.58373 9.85013 4.05L10.0324 3.91313L10.1846 4.14113C10.3906 4.44892 10.5004 4.81102 10.5 5.18138V6.75C10.4992 7.44595 10.2224 8.11317 9.73028 8.60528C9.23817 9.09739 8.57095 9.37421 7.875 9.375ZM5.89537 11.7727L6.68287 11.6415C7.04415 11.8546 7.45593 11.967 7.87537 11.967C8.29482 11.967 8.7066 11.8546 9.06787 11.6415L9.85538 11.7727C10.5119 11.8836 11.1062 12.2282 11.5286 12.7429C11.1138 13.325 10.5658 13.7995 9.93039 14.1269C9.29499 14.4543 8.59054 14.6251 7.87575 14.6251C7.16096 14.6251 6.45651 14.4543 5.82111 14.1269C5.18571 13.7995 4.63774 13.325 4.22287 12.7429C4.64507 12.2283 5.23909 11.8838 5.89537 11.7727ZM11.9272 12.0686C11.4058 11.5224 10.7218 11.1591 9.97725 11.0329L9.375 10.9324V9.76987C9.87957 9.5191 10.3134 9.14607 10.637 8.68477C10.9605 8.22348 11.1635 7.68856 11.2275 7.12875C11.8221 7.78949 12.2062 8.61246 12.3308 9.49254C12.4555 10.3726 12.315 11.2699 11.9272 12.0697V12.0686ZM11.25 19.125C11.3495 19.125 11.4448 19.1645 11.5152 19.2348C11.5855 19.3052 11.625 19.4005 11.625 19.5V22.5C11.625 22.5995 11.5855 22.6948 11.5152 22.7652C11.4448 22.8355 11.3495 22.875 11.25 22.875H1.5C1.40054 22.875 1.30516 22.8355 1.23483 22.7652C1.16451 22.6948 1.125 22.5995 1.125 22.5V19.5C1.125 19.4005 1.16451 19.3052 1.23483 19.2348C1.30516 19.1645 1.40054 19.125 1.5 19.125H4.875C4.94095 19.1251 5.00577 19.1079 5.06292 19.0749C5.12007 19.042 5.16752 18.9946 5.2005 18.9375L6.375 16.881L7.5495 18.936C7.58228 18.9934 7.62966 19.0411 7.68682 19.0743C7.74398 19.1075 7.8089 19.125 7.875 19.125H11.25ZM7.21537 16.8397L6.7005 15.9398C6.66497 15.8859 6.61663 15.8417 6.55982 15.8111C6.50302 15.7806 6.43951 15.7646 6.375 15.7646C6.31049 15.7646 6.24698 15.7806 6.19018 15.8111C6.13337 15.8417 6.08503 15.8859 6.0495 15.9398L5.71875 16.518C4.58927 16.1383 3.58059 15.466 2.79541 14.5696C2.01023 13.6733 1.47659 12.5849 1.24882 11.4153C1.02105 10.2456 1.10729 9.03653 1.49875 7.91106C1.89022 6.78559 2.57293 5.78395 3.47738 5.00812C3.59374 5.49373 3.80785 5.95052 4.10663 6.35063L4.16175 6.42562C3.42758 7.15987 2.92762 8.09533 2.72509 9.11372C2.52256 10.1321 2.62656 11.1877 3.02393 12.147C3.42131 13.1062 4.09422 13.9261 4.95756 14.503C5.82091 15.0799 6.83592 15.3877 7.87425 15.3877C8.91258 15.3877 9.92759 15.0799 10.7909 14.503C11.6543 13.9261 12.3272 13.1062 12.7246 12.147C13.1219 11.1877 13.2259 10.1321 13.0234 9.11372C12.8209 8.09533 12.3209 7.15987 11.5868 6.42562L11.6419 6.35063C11.9407 5.95052 12.1548 5.49373 12.2711 5.00812C13.3169 5.90593 14.0626 7.10245 14.408 8.43674C14.7534 9.77104 14.6819 11.1791 14.2031 12.4715C13.7243 13.764 12.8612 14.8788 11.7299 15.666C10.5986 16.4533 9.25328 16.8752 7.875 16.875C7.65487 16.875 7.434 16.8611 7.21537 16.8397ZM19.4093 22.875C19.2495 22.8755 19.0912 22.8443 18.9436 22.7831C18.796 22.722 18.662 22.6321 18.5494 22.5187L12.2411 16.2109C12.9036 15.7344 13.4844 15.1536 13.9609 14.4911L20.2687 20.799C20.4388 20.9691 20.5546 21.1857 20.6015 21.4216C20.6484 21.6574 20.6244 21.9019 20.5324 22.1241C20.4404 22.3463 20.2846 22.5362 20.0847 22.6699C19.8848 22.8035 19.6497 22.8749 19.4093 22.875Z" fill="#333333"/>
<path d="M16.8288 4.98302L16.1392 7.39577C16.1173 7.47275 16.1207 7.5547 16.1488 7.62964C16.1768 7.70458 16.2281 7.76857 16.2951 7.81227C16.3622 7.85597 16.4414 7.87708 16.5213 7.87251C16.6012 7.86795 16.6776 7.83795 16.7392 7.7869L18.7499 6.1114L20.7592 7.78615C20.8208 7.83713 20.8971 7.86709 20.9769 7.87165C21.0567 7.87621 21.1359 7.85513 21.2029 7.81149C21.2699 7.76786 21.3212 7.70395 21.3493 7.62909C21.3774 7.55423 21.3809 7.47235 21.3592 7.3954L20.6699 4.98227L22.3889 3.26327C22.441 3.21086 22.4765 3.14421 22.4908 3.07171C22.5052 2.99921 22.4978 2.92409 22.4696 2.85577C22.4414 2.78746 22.3936 2.729 22.3323 2.68775C22.271 2.64649 22.1988 2.62428 22.1249 2.6239H20.107L19.0874 0.581271C19.0528 0.523155 19.0036 0.475032 18.9448 0.441613C18.886 0.408194 18.8195 0.390625 18.7518 0.390625C18.6841 0.390625 18.6176 0.408194 18.5588 0.441613C18.5 0.475032 18.4508 0.523155 18.4162 0.581271L17.3935 2.6239H15.3749C15.3008 2.62391 15.2283 2.64591 15.1666 2.68712C15.105 2.72833 15.0569 2.78689 15.0285 2.8554C15.0002 2.92391 14.9927 2.9993 15.0072 3.07203C15.0217 3.14477 15.0574 3.21158 15.1098 3.26402L16.8288 4.98302ZM17.6249 3.3739C17.6949 3.37428 17.7636 3.35506 17.8233 3.31841C17.8829 3.28176 17.9311 3.22914 17.9624 3.16652L18.7499 1.5874L19.5393 3.16652C19.5704 3.22886 19.6183 3.28128 19.6776 3.31791C19.7369 3.35454 19.8052 3.37393 19.8749 3.3739H21.2197L19.9848 4.60877C19.9375 4.65601 19.9037 4.71502 19.8869 4.7797C19.8701 4.84437 19.8709 4.91237 19.8892 4.97665L20.3047 6.43165L18.9922 5.3359C18.9248 5.27967 18.8398 5.24888 18.752 5.24888C18.6642 5.24888 18.5792 5.27967 18.5118 5.3359L17.1967 6.43165L17.6122 4.97702C17.6305 4.91269 17.6313 4.84462 17.6145 4.77987C17.5977 4.71512 17.5639 4.65604 17.5165 4.60877L16.2802 3.3739H17.6249Z" fill="#333333"/>
<path d="M23.5968 10.3553C23.5684 10.2867 23.5202 10.2281 23.4585 10.1869C23.3967 10.1457 23.3241 10.1238 23.2499 10.1239H21.232L20.2124 8.08127C20.1778 8.02316 20.1286 7.97503 20.0698 7.94161C20.011 7.90819 19.9445 7.89062 19.8768 7.89062C19.8091 7.89062 19.7426 7.90819 19.6838 7.94161C19.625 7.97503 19.5758 8.02316 19.5412 8.08127L18.5185 10.1239H16.4999C16.4258 10.1239 16.3533 10.1459 16.2916 10.1871C16.23 10.2283 16.1819 10.2869 16.1535 10.3554C16.1252 10.4239 16.1177 10.4993 16.1322 10.572C16.1467 10.6448 16.1824 10.7116 16.2348 10.764L17.9538 12.483L17.2642 14.8958C17.2423 14.9728 17.2457 15.0547 17.2738 15.1296C17.3018 15.2046 17.3531 15.2686 17.4201 15.3123C17.4872 15.356 17.5664 15.3771 17.6463 15.3725C17.7262 15.3679 17.8026 15.3379 17.8642 15.2869L19.8749 13.6114L21.8842 15.2861C21.9458 15.3371 22.0221 15.3671 22.1019 15.3716C22.1817 15.3762 22.2609 15.3551 22.3279 15.3115C22.3949 15.2679 22.4462 15.2039 22.4743 15.1291C22.5024 15.0542 22.5059 14.9724 22.4842 14.8954L21.7949 12.4823L23.5139 10.7633C23.5665 10.7111 23.6024 10.6444 23.6172 10.5718C23.6319 10.4992 23.6248 10.4239 23.5968 10.3553ZM21.1102 12.1088C21.0629 12.156 21.0291 12.215 21.0123 12.2797C20.9955 12.3444 20.9963 12.4124 21.0145 12.4766L21.43 13.9316L20.1175 12.8359C20.0501 12.7797 19.9651 12.7489 19.8774 12.7489C19.7896 12.7489 19.7046 12.7797 19.6372 12.8359L18.322 13.9316L18.7375 12.477C18.7559 12.4127 18.7567 12.3446 18.7399 12.2799C18.7231 12.2151 18.6893 12.156 18.6419 12.1088L17.4052 10.8739H18.7499C18.8199 10.8743 18.8886 10.8551 18.9483 10.8184C19.0079 10.7818 19.0561 10.7291 19.0874 10.6665L19.8749 9.0874L20.6643 10.6665C20.6954 10.7289 20.7433 10.7813 20.8026 10.8179C20.8619 10.8545 20.9302 10.8739 20.9999 10.8739H22.3447L21.1102 12.1088Z" fill="#333333"/>
<path d="M10.875 21.375H1.875V22.125H10.875V21.375Z" fill="#333333"/>
<path d="M10.125 19.875H2.625V20.625H10.125V19.875Z" fill="#333333"/>
</g>
<defs>
<clipPath id="clip0_1817_12167">
<rect width="24" height="24" fill="white"/>
</clipPath>
</defs>
</svg>
